# https://github.com/mikedh/trimesh
v 17.34933472 151.31716919 102.04264069
v 20.52283478 151.31716919 102.04264069
v 20.52283478 151.31716919 139.83926392
v 21.90113258 151.31716919 139.83926392
v 21.90113258 151.31716919 174.52944946
v 17.34933472 151.31716919 174.52944946
v 20.52283478 146.70115662 102.04264069
v 17.34933472 146.70115662 102.04264069
v 20.52283478 146.70115662 139.83926392
v 17.34933472 146.70115662 174.52944946
v 21.03408813 146.70115662 139.83926392
v 21.03408813 146.70115662 174.52944946
v 17.34933472 145.54716492 174.52944946
v 17.34933472 145.54716492 175.68345642
v 20.92049408 145.54716492 174.52944946
v 20.92049408 145.54716492 175.68345642
v 88.03183746 151.31716919 102.04264069
v 91.20533752 151.31716919 102.04264069
v 88.03183746 151.31716919 139.83967590
v 91.20533752 151.31716919 174.52944946
v 86.65353394 151.31716919 139.83967590
v 86.65353394 151.31716919 174.52944946
v 85.99149323 132.16059875 139.83966064
v 86.96091461 135.65214539 139.83967590
v 88.03183746 111.67698669 139.83967590
v 87.54715729 139.22802734 139.83967590
v 87.74333191 142.84634399 139.83967590
v 88.03183746 146.70115662 139.83967590
v 87.54715729 146.46466064 139.83967590
v 87.52058411 146.70115662 139.83967590
v 21.00751114 146.46466064 139.83926392
v 20.81133461 142.84634399 139.83926392
v 20.52283478 111.67698669 139.83926392
v 21.00751114 139.22802734 139.83926392
v 21.59375000 135.65214539 139.83926392
v 80.91938782 122.59358215 139.83963013
v 82.95291901 125.59281921 139.83964539
v 84.65025330 128.79434204 139.83966064
v 22.56317329 132.16059875 139.83926392
v 23.90441513 128.79434204 139.83927917
v 25.60175133 125.59281921 139.83929443
v 27.63528442 122.59358215 139.83930969
v 29.98116875 119.83179474 139.83932495
v 23.45841217 110.02927399 139.83927917
v 32.61190414 117.33982849 139.83934021
v 29.92655373 107.04746246 139.83932495
v 35.49665070 115.14690399 139.83935547
v 36.67839813 104.78016663 139.83935547
v 71.87627411 104.78016663 139.83956909
v 69.95308685 113.27873230 139.83956909
v 78.62811279 107.04746246 139.83961487
v 73.05802155 115.14690399 139.83958435
v 85.09625244 110.02927399 139.83966064
v 75.94276428 117.33982849 139.83959961
v 78.57350159 119.83179474 139.83961487
v 38.60157776 113.27873230 139.83937073
v 41.89028931 111.75720978 139.83938599
v 43.63528061 103.25379944 139.83940125
v 45.32423019 110.60018158 139.83941650
v 50.71615219 102.48614502 139.83944702
v 57.83851624 102.48614502 139.83949280
v 59.69153214 109.82120514 139.83950806
v 64.91938782 103.25379944 139.83953857
v 63.23043823 110.60018158 139.83952332
v 66.66437531 111.75720978 139.83953857
v 48.86313629 109.82120514 139.83943176
v 52.46552277 109.42942810 139.83944702
v 56.08914566 109.42942810 139.83947754
v 20.52283478 184.32746887 102.00767517
v 20.52283478 184.32746887 139.83926392
v 20.52283478 111.67698669 102.00767517
v 23.45841217 110.02927399 102.00767517
v 29.92655373 107.04746246 102.00767517
v 88.03183746 111.67698669 102.00767517
v 88.03183746 184.32746887 102.00767517
v 85.09625244 110.02927399 102.00767517
v 78.62811279 107.04746246 102.00767517
v 71.87627411 104.78016663 102.00767517
v 36.67839813 104.78016663 102.00767517
v 43.63528061 103.25379944 102.00767517
v 50.71615219 102.48614502 102.00767517
v 57.83851624 102.48614502 102.00767517
v 64.91938782 103.25379944 102.00767517
v 23.45841217 110.02927399 321.01766968
v 26.80947685 108.37879181 321.01766968
v 26.81997490 108.40171814 321.25759888
v 29.92655373 107.04746246 321.01766968
v 32.05614853 106.24412537 321.01766968
v 32.06464005 106.26786804 321.25759888
v 36.67839813 104.78016663 321.01766968
v 37.46656799 104.56729126 321.01766968
v 37.47299194 104.59167480 321.25759888
v 43.63528061 103.25379944 321.01766968
v 48.61824799 102.63309479 321.01766968
v 48.62041092 102.65821075 321.25759888
v 71.87627411 104.78016663 321.01766968
v 76.49851990 106.24412537 321.01766968
v 76.49002838 106.26786804 321.25759888
v 86.50168610 111.46385193 322.02111816
v 81.50500488 108.90342712 322.01705933
v 81.58625031 108.72595978 321.87524414
v 91.18708038 113.70056152 321.22210693
v 91.18010712 113.70426941 321.25769043
v 86.77703094 110.97750092 321.25759888
v 17.48760223 113.76438141 321.56539917
v 17.44913864 113.74391174 321.48712158
v 21.81436729 111.04238129 321.48706055
v 17.35396767 113.69332123 321.12097168
v 17.34933472 113.69085693 321.01766968
v 21.76520920 110.95555878 321.01766968
v 17.40335274 113.71957397 321.36663818
v 17.38999176 113.71246338 321.32128906
v 21.77763557 110.97750092 321.25759888
v 17.37456322 113.70426941 321.25769043
v 17.36758614 113.70056152 321.22210693
v 17.44100952 113.73959351 321.46844482
v 17.70580292 113.88059998 321.85174561
v 21.87380219 111.14734650 321.69598389
v 17.73127174 113.89418793 321.87536621
v 21.95333862 111.28781891 321.87524414
v 17.79407501 113.92768860 321.92797852
v 17.62634277 113.83824921 321.76776123
v 17.56980133 113.80813599 321.69607544
v 17.55524063 113.80038452 321.67556763
v 22.15810013 111.64944458 322.11520386
v 18.14680672 114.11626434 322.11523438
v 22.04950714 111.45766449 322.01705933
v 18.12092209 114.10240173 322.10644531
v 18.00514603 114.04045105 322.05859375
v 17.92645264 113.99838257 322.01715088
v 17.89651108 113.98238373 321.99926758
v 22.27437019 111.85478973 322.16534424
v 22.33380318 111.95975494 322.17169189
v 18.50333405 114.30753326 322.17169189
v 18.49629593 114.30374908 322.17163086
v 18.37217140 114.23708344 322.16418457
v 18.24560165 114.16919708 322.14251709
v 90.05133057 114.30753326 322.17169189
v 86.22086334 111.95975494 322.17169189
v 90.05837250 114.30374908 322.17163086
v 86.28029633 111.85478973 322.16534424
v 90.43374634 114.10240173 322.10644531
v 90.40786743 114.11625671 322.11523438
v 86.39656830 111.64944458 322.11520386
v 90.30906677 114.16919708 322.14251709
v 90.18249512 114.23708344 322.16418457
v 90.62821198 113.99838257 322.01715088
v 90.54952240 114.04045105 322.05859375
v 90.65815735 113.98238373 321.99926758
v 86.60133362 111.28781891 321.87524414
v 90.76058960 113.92768860 321.92797852
v 90.82339478 113.89418793 321.87536621
v 86.68086243 111.14734650 321.69598389
v 90.92832947 113.83824921 321.76776123
v 90.84886169 113.88059998 321.85174561
v 91.10552979 113.74391174 321.48712158
v 91.06707001 113.76438141 321.56539917
v 86.74030304 111.04238129 321.48706055
v 90.99942780 113.80038452 321.67556763
v 90.98487091 113.80813599 321.69607544
v 91.16467285 113.71246338 321.32128906
v 91.15131378 113.71957397 321.36663818
v 91.11366272 113.73959351 321.46844482
v 86.78945923 110.95555878 321.01766968
v 91.20533752 113.69085693 321.01766968
v 91.20069885 113.69332123 321.12097168
v 81.26481628 109.42805481 322.17169189
v 81.31502533 109.31837463 322.16534424
v 81.41326141 109.10381317 322.11520386
v 81.73469543 108.40171814 321.25759888
v 81.70365906 108.46950531 321.48706055
v 81.65345001 108.57918549 321.69598389
v 65.35659790 104.49768066 322.17169189
v 59.83745193 103.78284454 322.17169189
v 65.37721252 104.37882233 322.16534424
v 59.84779739 103.66266632 322.16534424
v 65.41754150 104.14631653 322.11520386
v 59.86803436 103.42755127 322.11520386
v 65.45520020 103.92916107 322.01705933
v 59.88693619 103.20796204 322.01705933
v 65.48855591 103.73685455 321.87524414
v 59.90367508 103.01351166 321.87524414
v 65.51614380 103.57780457 321.69598389
v 59.91752243 102.85267639 321.69598389
v 65.53675842 103.45895386 321.48706055
v 59.92786407 102.73249817 321.48706055
v 65.54949951 103.38550568 321.25759888
v 59.93425751 102.65821075 321.25759888
v 54.27733231 103.54397583 322.17169189
v 54.27733231 103.42335510 322.16534424
v 54.27733231 103.18737030 322.11520386
v 54.27733231 102.96697235 322.01705933
v 54.27733231 102.77179718 321.87524414
v 54.27733231 102.61036682 321.69598389
v 54.27733231 102.48974609 321.48706055
v 54.27733231 102.41519928 321.25759888
v 85.09625244 110.02927399 321.01766968
v 81.74519348 108.37879181 321.01766968
v 78.62811279 107.04746246 321.01766968
v 76.46492004 106.33806610 321.48706055
v 76.42430115 106.45164490 321.69598389
v 76.36993408 106.60365295 321.87524414
v 76.30420685 106.78742218 322.01705933
v 76.22998810 106.99494171 322.11520386
v 76.15052032 107.21714020 322.16534424
v 76.10989380 107.33071899 322.17169189
v 71.08810425 104.56729126 321.01766968
v 71.08168030 104.59167480 321.25759888
v 71.06268311 104.66376495 321.48706055
v 71.03195190 104.78041840 321.69598389
v 70.99082947 104.93651581 321.87524414
v 70.94110107 105.12525177 322.01705933
v 70.88495636 105.33837891 322.11520386
v 70.82483673 105.56657410 322.16534424
v 70.79410553 105.68321228 322.17169189
v 65.55381012 103.36065674 321.01766968
v 50.71615219 102.48614502 321.01766968
v 54.27733231 102.38998413 321.01766968
v 57.83851624 102.48614502 321.01766968
v 59.93642044 102.63309479 321.01766968
v 64.91938782 103.25379944 321.01766968
v 48.62680435 102.73249817 321.48706055
v 48.63714600 102.85267639 321.69598389
v 48.65099335 103.01351166 321.87524414
v 48.66773224 103.20796204 322.01705933
v 48.68663406 103.42755127 322.11520386
v 48.70687103 103.66266632 322.16534424
v 48.71721649 103.78284454 322.17169189
v 43.00085831 103.36065674 321.01766968
v 43.00516891 103.38550568 321.25759888
v 43.01791000 103.45895386 321.48706055
v 43.03852463 103.57780457 321.69598389
v 43.06611252 103.73685455 321.87524414
v 43.09946442 103.92916107 322.01705933
v 43.13713074 104.14631653 322.11520386
v 43.17745590 104.37882233 322.16534424
v 43.19807053 104.49768066 322.17169189
v 37.76056671 105.68321228 322.17169189
v 37.72983551 105.56657410 322.16534424
v 37.66971588 105.33837891 322.11520386
v 37.61356735 105.12525177 322.01705933
v 37.56384277 104.93651581 321.87524414
v 37.52271652 104.78041840 321.69598389
v 37.49198532 104.66376495 321.48706055
v 32.44477081 107.33071899 322.17169189
v 32.40414810 107.21714020 322.16534424
v 32.32468033 106.99494171 322.11520386
v 32.25045776 106.78742218 322.01705933
v 32.18473053 106.60365295 321.87524414
v 32.13037109 106.45164490 321.69598389
v 32.08974838 106.33806610 321.48706055
v 27.28985405 109.42805481 322.17169189
v 27.23964119 109.31837463 322.16534424
v 27.14141083 109.10381317 322.11520386
v 27.04966545 108.90342712 322.01705933
v 26.96841812 108.72595978 321.87524414
v 26.90122223 108.57918549 321.69598389
v 26.85100555 108.46950531 321.48706055
v 91.20533752 152.47116089 175.68345642
v 91.20533752 151.31716919 175.68345642
v 86.32941437 152.47116089 175.68345642
v 86.65353394 151.31716919 175.68345642
v 88.03183746 184.32746887 139.83967590
v 88.03183746 146.70115662 102.04264069
v 86.70233154 153.77160645 322.17169189
v 87.69348145 150.20179749 322.17169189
v 90.05133057 183.17346191 322.17169189
v 24.95902443 160.48658752 322.17169189
v 27.03813362 163.55305481 322.17169189
v 18.50333405 183.17346191 322.17169189
v 73.47896576 171.16664124 322.17169189
v 76.42836761 168.92456055 322.17169189
v 79.11806488 166.37673950 322.17169189
v 81.51653290 163.55305481 322.17169189
v 85.33102417 128.47938538 322.17169189
v 86.70233154 131.92109680 322.17169189
v 87.69348145 135.49089050 322.17169189
v 59.81288147 176.61169434 322.17169189
v 63.43111038 175.81526184 322.17169189
v 83.59564209 160.48658752 322.17169189
v 85.33102417 157.21331787 322.17169189
v 88.29285431 146.54576111 322.17169189
v 88.49343872 142.84634399 322.17169189
v 88.29285431 139.14692688 322.17169189
v 24.95902443 125.20610046 322.17169189
v 23.22364044 128.47938538 322.17169189
v 21.85233879 131.92109680 322.17169189
v 20.86118889 135.49089050 322.17169189
v 29.43659973 166.37673950 322.17169189
v 32.12630081 168.92456055 322.17169189
v 35.07570267 171.16664124 322.17169189
v 66.94201660 174.63230896 322.17169189
v 70.30444336 173.07667542 322.17169189
v 20.86118889 150.20179749 322.17169189
v 21.85233879 153.77160645 322.17169189
v 23.22364044 157.21331787 322.17169189
v 38.25022507 173.07667542 322.17169189
v 41.61265182 174.63230896 322.17169189
v 45.12355804 175.81526184 322.17169189
v 83.59564209 125.20610046 322.17169189
v 81.51653290 122.13964081 322.17169189
v 79.11806488 119.31594849 322.17169189
v 76.42836761 116.76813507 322.17169189
v 20.26181030 139.14692688 322.17169189
v 20.06123161 142.84634399 322.17169189
v 20.26181030 146.54576111 322.17169189
v 48.74178696 176.61169434 322.17169189
v 52.42491150 177.01226807 322.17169189
v 56.12975693 177.01226807 322.17169189
v 35.07570267 114.52605438 322.17169189
v 32.12630081 116.76813507 322.17169189
v 29.43659973 119.31594849 322.17169189
v 27.03813362 122.13964081 322.17169189
v 73.47896576 114.52605438 322.17169189
v 70.30444336 112.61601257 322.17169189
v 66.94201660 111.06038666 322.17169189
v 63.43111038 109.87741852 322.17169189
v 59.81288147 109.08099365 322.17169189
v 56.12975693 108.68042755 322.17169189
v 52.42491150 108.68042755 322.17169189
v 48.74178696 109.08099365 322.17169189
v 45.12355804 109.87741852 322.17169189
v 41.61265182 111.06038666 322.17169189
v 38.25022507 112.61601257 322.17169189
v 17.34933472 152.47116089 175.68345642
v 17.34933472 151.31716919 175.68345642
v 17.34933472 151.31716919 308.89471436
v 17.34933472 113.69085693 97.39167786
v 17.34933472 146.70115662 175.68345642
v 17.34933472 146.70115662 308.89471436
v 17.34933472 184.32746887 97.39167786
v 17.34933472 184.32746887 321.01766968
v 17.34933472 152.47116089 174.52944946
v 21.00751114 146.46466064 174.52944946
v 88.49343872 142.84634399 316.40167236
v 88.29285431 146.54576111 316.40167236
v 87.69348145 150.20179749 316.40167236
v 86.70233154 153.77160645 316.40167236
v 85.33102417 157.21331787 316.40167236
v 83.59564209 160.48658752 316.40167236
v 81.51653290 163.55305481 316.40167236
v 79.11806488 166.37673950 316.40167236
v 76.42836761 168.92456055 316.40167236
v 73.47896576 171.16664124 316.40167236
v 70.30444336 173.07667542 316.40167236
v 66.94201660 174.63230896 316.40167236
v 63.43111038 175.81526184 316.40167236
v 59.81288147 176.61169434 316.40167236
v 56.12975693 177.01226807 316.40167236
v 52.42491150 177.01226807 316.40167236
v 48.74178696 176.61169434 316.40167236
v 45.12355804 175.81526184 316.40167236
v 41.61265182 174.63230896 316.40167236
v 38.25022507 173.07667542 316.40167236
v 35.07570267 171.16664124 316.40167236
v 32.12630081 168.92456055 316.40167236
v 29.43659973 166.37673950 316.40167236
v 27.03813362 163.55305481 316.40167236
v 24.95902443 160.48658752 316.40167236
v 23.22364044 157.21331787 316.40167236
v 21.85233879 153.77160645 316.40167236
v 20.86118889 150.20179749 316.40167236
v 20.26181030 146.54576111 316.40167236
v 20.06123161 142.84634399 316.40167236
v 20.26181030 139.14692688 316.40167236
v 20.86118889 135.49089050 316.40167236
v 21.85233879 131.92109680 316.40167236
v 23.22364044 128.47938538 316.40167236
v 24.95902443 125.20610046 316.40167236
v 27.03813362 122.13964081 316.40167236
v 29.43659973 119.31594849 316.40167236
v 32.12630081 116.76813507 316.40167236
v 35.07570267 114.52605438 316.40167236
v 38.25022507 112.61601257 316.40167236
v 41.61265182 111.06038666 316.40167236
v 45.12355804 109.87741852 316.40167236
v 48.74178696 109.08099365 316.40167236
v 52.42491150 108.68042755 316.40167236
v 56.12975693 108.68042755 316.40167236
v 59.81288147 109.08099365 316.40167236
v 63.43111038 109.87741852 316.40167236
v 66.94201660 111.06038666 316.40167236
v 70.30444336 112.61601257 316.40167236
v 73.47896576 114.52605438 316.40167236
v 76.42836761 116.76813507 316.40167236
v 79.11806488 119.31594849 316.40167236
v 81.51653290 122.13964081 316.40167236
v 83.59564209 125.20610046 316.40167236
v 85.33102417 128.47938538 316.40167236
v 86.70233154 131.92109680 316.40167236
v 87.69348145 135.49089050 316.40167236
v 88.29285431 139.14692688 316.40167236
v 91.20533752 184.32746887 321.01766968
v 91.20533752 184.32746887 97.39167786
v 21.03408813 146.70115662 308.89471436
v 21.59375000 150.04054260 308.89471436
v 21.90113258 151.31716919 308.89471436
v 91.20533752 113.69085693 97.39167786
v 91.20533752 146.70115662 102.04264069
v 91.20533752 146.70115662 174.52944946
v 91.20533752 145.54716492 174.52944946
v 91.20533752 145.54716492 175.68345642
v 91.20533752 146.70115662 175.68345642
v 91.20533752 146.70115662 308.89471436
v 91.20533752 151.31716919 308.89471436
v 91.20533752 152.47116089 174.52944946
v 85.99149323 153.53208923 139.83966064
v 23.90441513 156.89836121 139.83927917
v 22.56317329 153.53208923 139.83926392
v 29.98116875 165.86090088 139.83932495
v 27.63528442 163.09910583 139.83930969
v 25.60175133 160.09986877 139.83929443
v 84.65025330 156.89836121 139.83966064
v 82.95291901 160.09986877 139.83964539
v 80.91938782 163.09910583 139.83963013
v 38.60157776 172.41395569 139.83937073
v 35.49665070 170.54579163 139.83935547
v 32.61190414 168.35285950 139.83934021
v 78.57350159 165.86090088 139.83961487
v 75.94276428 168.35285950 139.83959961
v 73.05802155 170.54579163 139.83958435
v 69.95308685 172.41395569 139.83956909
v 66.66437531 173.93548584 139.83953857
v 63.23043823 175.09251404 139.83952332
v 48.86313629 175.87147522 139.83943176
v 45.32423019 175.09251404 139.83941650
v 41.89028931 173.93548584 139.83938599
v 59.69153214 175.87147522 139.83950806
v 56.08914566 176.26325989 139.83947754
v 52.46552277 176.26325989 139.83944702
v 25.60175133 160.09986877 316.40167236
v 23.90441513 156.89836121 316.40167236
v 22.56317329 153.53208923 316.40167236
v 21.59375000 150.04054260 316.40167236
v 21.00751114 146.46466064 316.40167236
v 20.81133461 142.84634399 316.40167236
v 21.00751114 139.22802734 316.40167236
v 21.59375000 135.65214539 316.40167236
v 22.56317329 132.16059875 316.40167236
v 23.90441513 128.79434204 316.40167236
v 25.60175133 125.59281921 316.40167236
v 27.63528442 122.59358215 316.40167236
v 29.98116875 119.83179474 316.40167236
v 32.61190414 117.33982849 316.40167236
v 35.49665070 115.14690399 316.40167236
v 38.60157776 113.27873230 316.40167236
v 41.89028931 111.75720978 316.40167236
v 45.32423019 110.60018158 316.40167236
v 48.86313629 109.82120514 316.40167236
v 52.46552277 109.42942810 316.40167236
v 56.08914566 109.42942810 316.40167236
v 59.69153214 109.82120514 316.40167236
v 63.23043823 110.60018158 316.40167236
v 66.66437531 111.75720978 316.40167236
v 69.95308685 113.27873230 316.40167236
v 73.05802155 115.14690399 316.40167236
v 75.94276428 117.33982849 316.40167236
v 78.57350159 119.83179474 316.40167236
v 80.91938782 122.59358215 316.40167236
v 82.95291901 125.59281921 316.40167236
v 84.65025330 128.79434204 316.40167236
v 85.99149323 132.16059875 316.40167236
v 86.96091461 135.65214539 316.40167236
v 87.54715729 139.22802734 316.40167236
v 87.74333191 142.84634399 316.40167236
v 87.54715729 146.46466064 316.40167236
v 86.96091461 150.04054260 316.40167236
v 85.99149323 153.53208923 316.40167236
v 84.65025330 156.89836121 316.40167236
v 82.95291901 160.09986877 316.40167236
v 80.91938782 163.09910583 316.40167236
v 78.57350159 165.86090088 316.40167236
v 75.94276428 168.35285950 316.40167236
v 73.05802155 170.54579163 316.40167236
v 69.95308685 172.41395569 316.40167236
v 66.66437531 173.93548584 316.40167236
v 63.23043823 175.09251404 316.40167236
v 59.69153214 175.87147522 316.40167236
v 56.08914566 176.26325989 316.40167236
v 52.46552277 176.26325989 316.40167236
v 48.86313629 175.87147522 316.40167236
v 45.32423019 175.09251404 316.40167236
v 41.89028931 173.93548584 316.40167236
v 38.60157776 172.41395569 316.40167236
v 35.49665070 170.54579163 316.40167236
v 32.61190414 168.35285950 316.40167236
v 29.98116875 165.86090088 316.40167236
v 27.63528442 163.09910583 316.40167236
v 85.09625244 110.02927399 97.39167786
v 78.62811279 107.04746246 97.39167786
v 71.87627411 104.78016663 97.39167786
v 64.91938782 103.25379944 97.39167786
v 57.83851624 102.48614502 97.39167786
v 50.71615219 102.48614502 97.39167786
v 43.63528061 103.25379944 97.39167786
v 36.67839813 104.78016663 97.39167786
v 29.92655373 107.04746246 97.39167786
v 23.45841217 110.02927399 97.39167786
v 87.63417053 145.54716492 175.68345642
v 87.63417053 145.54716492 174.52944946
v 87.54715729 146.46466064 175.68345642
v 87.52058411 146.70115662 174.52944946
v 87.54715729 146.46466064 174.52944946
v 86.32941437 152.47116089 174.52944946
v 87.52058411 146.70115662 175.68345642
v 87.52058411 146.70115662 308.89471436
v 86.96091461 150.04054260 308.89471436
v 86.65353394 151.31716919 308.89471436
v 22.22525024 152.47116089 174.52944946
v 22.22525024 152.47116089 175.68345642
v 21.90113258 151.31716919 175.68345642
v 21.03408813 146.70115662 175.68345642
v 21.00751114 146.46466064 175.68345642
v 17.35565567 184.32115173 321.13830566
v 17.37454987 184.30224609 321.25759888
v 17.40581703 184.27098083 321.37426758
v 17.44910240 184.22769165 321.48706055
v 17.50394058 184.17286682 321.59466553
v 17.56972885 184.10707092 321.69598389
v 17.73115540 183.94564819 321.87524414
v 17.64574242 184.03106689 321.78985596
v 17.92633438 183.75047302 322.01705933
v 17.82502747 183.85177612 321.95129395
v 18.03395844 183.64283752 322.07189941
v 18.14673042 183.53007507 322.11520386
v 18.26340294 183.41340637 322.14648438
v 18.38270760 183.29409790 322.16534424
v 91.18012238 184.30224609 321.25759888
v 91.19901276 184.32115173 321.13830566
v 90.98493958 184.10707092 321.69598389
v 91.05072784 184.17286682 321.59466553
v 91.10556793 184.22769165 321.48706055
v 91.14884949 184.27098083 321.37426758
v 90.62833405 183.75047302 322.01705933
v 90.72964478 183.85177612 321.95129395
v 90.82350922 183.94564819 321.87524414
v 90.90892792 184.03106689 321.78985596
v 90.17195892 183.29409790 322.16534424
v 90.29126740 183.41340637 322.14648438
v 90.40793610 183.53007507 322.11520386
v 90.52071381 183.64283752 322.07189941
f 1 2 3
f 4 5 3
f 5 6 3
f 3 6 1
f 7 8 9
f 8 10 9
f 9 10 11
f 10 12 11
f 7 2 8
f 2 1 8
f 13 14 15
f 14 16 15
f 17 18 19
f 18 20 19
f 19 20 21
f 20 22 21
f 23 24 25
f 24 26 25
f 26 27 25
f 25 27 28
f 27 29 28
f 28 29 30
f 11 31 9
f 31 32 9
f 9 32 33
f 32 34 33
f 33 34 35
f 36 37 25
f 37 38 25
f 25 38 23
f 35 39 33
f 39 40 33
f 33 40 41
f 41 42 33
f 42 43 33
f 33 43 44
f 43 45 44
f 44 45 46
f 45 47 46
f 46 47 48
f 49 50 51
f 50 52 51
f 51 52 53
f 52 54 53
f 53 54 25
f 54 55 25
f 25 55 36
f 47 56 48
f 56 57 48
f 48 57 58
f 57 59 58
f 58 59 60
f 61 62 63
f 62 64 63
f 63 64 49
f 64 65 49
f 49 65 50
f 59 66 60
f 66 67 60
f 60 67 61
f 67 68 61
f 61 68 62
f 69 70 3
f 7 9 33
f 3 2 69
f 2 7 69
f 69 7 71
f 7 33 71
f 71 72 69
f 72 73 69
f 74 75 76
f 75 69 76
f 76 69 77
f 69 78 77
f 73 79 69
f 79 80 69
f 69 80 81
f 81 82 69
f 82 83 69
f 69 83 78
f 84 85 86
f 87 88 89
f 90 91 92
f 93 94 95
f 96 97 98
f 99 100 101
f 102 103 104
f 105 106 107
f 108 109 110
f 111 112 113
f 112 114 113
f 113 114 110
f 114 115 110
f 110 115 108
f 107 106 113
f 106 116 113
f 113 116 111
f 117 118 119
f 118 120 119
f 119 120 121
f 117 122 118
f 122 123 118
f 118 123 107
f 123 124 107
f 107 124 105
f 125 126 127
f 126 128 127
f 128 129 127
f 129 130 127
f 127 130 120
f 130 131 120
f 120 131 121
f 132 133 134
f 134 135 132
f 135 136 132
f 132 136 125
f 136 137 125
f 125 137 126
f 138 139 140
f 139 141 140
f 142 143 144
f 143 145 144
f 144 145 141
f 145 146 141
f 141 146 140
f 99 147 148
f 149 150 151
f 150 152 151
f 153 154 150
f 154 155 150
f 150 155 152
f 156 157 158
f 157 159 158
f 158 159 153
f 159 160 153
f 153 160 154
f 103 161 104
f 161 162 104
f 104 162 158
f 162 163 158
f 158 163 156
f 164 165 166
f 139 167 141
f 167 168 141
f 141 168 144
f 168 169 144
f 169 100 144
f 100 99 144
f 144 99 142
f 99 148 142
f 170 104 171
f 104 158 171
f 171 158 172
f 158 153 172
f 172 153 101
f 153 150 101
f 101 150 99
f 150 149 99
f 99 149 147
f 173 174 175
f 174 176 175
f 175 176 177
f 176 178 177
f 177 178 179
f 178 180 179
f 179 180 181
f 180 182 181
f 181 182 183
f 182 184 183
f 183 184 185
f 184 186 185
f 185 186 187
f 186 188 187
f 174 189 176
f 189 190 176
f 176 190 178
f 190 191 178
f 178 191 180
f 191 192 180
f 180 192 182
f 192 193 182
f 182 193 184
f 193 194 184
f 184 194 186
f 194 195 186
f 186 195 188
f 195 196 188
f 166 102 164
f 102 104 164
f 164 104 197
f 104 170 197
f 197 170 198
f 170 199 198
f 97 199 98
f 199 170 98
f 98 170 200
f 170 171 200
f 200 171 201
f 171 172 201
f 201 172 202
f 172 101 202
f 202 101 203
f 101 100 203
f 203 100 204
f 100 169 204
f 204 169 205
f 169 168 205
f 205 168 206
f 168 167 206
f 207 96 208
f 96 98 208
f 208 98 209
f 98 200 209
f 209 200 210
f 200 201 210
f 210 201 211
f 201 202 211
f 211 202 212
f 202 203 212
f 212 203 213
f 203 204 213
f 213 204 214
f 204 205 214
f 214 205 215
f 205 206 215
f 215 173 214
f 173 175 214
f 214 175 213
f 175 177 213
f 213 177 212
f 177 179 212
f 212 179 211
f 179 181 211
f 211 181 210
f 181 183 210
f 210 183 209
f 183 185 209
f 209 185 208
f 185 187 208
f 208 187 207
f 187 216 207
f 217 218 196
f 218 219 196
f 196 219 188
f 219 220 188
f 188 220 187
f 220 221 187
f 187 221 216
f 94 217 95
f 217 196 95
f 95 196 222
f 196 195 222
f 222 195 223
f 195 194 223
f 223 194 224
f 194 193 224
f 224 193 225
f 193 192 225
f 225 192 226
f 192 191 226
f 226 191 227
f 191 190 227
f 227 190 228
f 190 189 228
f 229 93 230
f 93 95 230
f 230 95 231
f 95 222 231
f 231 222 232
f 222 223 232
f 232 223 233
f 223 224 233
f 233 224 234
f 224 225 234
f 234 225 235
f 225 226 235
f 235 226 236
f 226 227 236
f 236 227 237
f 227 228 237
f 237 238 236
f 238 239 236
f 236 239 235
f 239 240 235
f 235 240 234
f 240 241 234
f 234 241 233
f 241 242 233
f 233 242 232
f 242 243 232
f 232 243 231
f 243 244 231
f 231 244 230
f 244 92 230
f 230 92 229
f 92 91 229
f 238 245 239
f 245 246 239
f 239 246 240
f 246 247 240
f 240 247 241
f 247 248 241
f 241 248 242
f 248 249 242
f 242 249 243
f 249 250 243
f 243 250 244
f 250 251 244
f 244 251 92
f 251 89 92
f 92 89 90
f 89 88 90
f 245 252 246
f 252 253 246
f 246 253 247
f 253 254 247
f 247 254 248
f 254 255 248
f 248 255 249
f 255 256 249
f 249 256 250
f 256 257 250
f 250 257 251
f 257 258 251
f 251 258 89
f 258 86 89
f 89 86 87
f 86 85 87
f 110 84 113
f 84 86 113
f 113 86 107
f 86 258 107
f 107 258 118
f 258 257 118
f 118 257 120
f 257 256 120
f 120 256 127
f 256 255 127
f 127 255 125
f 255 254 125
f 125 254 132
f 254 253 132
f 132 253 133
f 253 252 133
f 259 260 261
f 260 262 261
f 19 263 17
f 263 75 17
f 17 75 264
f 75 74 264
f 264 74 28
f 74 25 28
f 265 266 267
f 268 269 270
f 271 272 267
f 272 273 267
f 267 273 274
f 275 138 276
f 138 277 276
f 278 279 267
f 274 280 267
f 280 281 267
f 267 281 265
f 266 282 267
f 282 283 267
f 267 283 138
f 283 284 138
f 138 284 277
f 285 286 134
f 286 287 134
f 134 287 288
f 269 289 270
f 289 290 270
f 270 290 291
f 279 292 267
f 292 293 267
f 267 293 271
f 294 295 270
f 295 296 270
f 270 296 268
f 291 297 270
f 297 298 270
f 270 298 299
f 275 300 138
f 300 301 138
f 138 301 139
f 301 302 139
f 139 302 167
f 302 303 167
f 167 303 206
f 288 304 134
f 304 305 134
f 134 305 270
f 305 306 270
f 270 306 294
f 299 307 270
f 307 308 270
f 270 308 267
f 308 309 267
f 267 309 278
f 245 310 252
f 310 311 252
f 252 311 133
f 311 312 133
f 133 312 134
f 312 313 134
f 134 313 285
f 303 314 206
f 314 315 206
f 206 315 215
f 315 316 215
f 215 316 173
f 316 317 173
f 173 317 174
f 317 318 174
f 174 318 189
f 318 319 189
f 319 320 189
f 189 320 228
f 320 321 228
f 228 321 237
f 321 322 237
f 237 322 238
f 322 323 238
f 238 323 245
f 323 324 245
f 245 324 310
f 325 326 327
f 13 328 14
f 328 109 14
f 14 109 329
f 109 330 329
f 1 331 8
f 331 328 8
f 8 328 10
f 328 13 10
f 330 109 327
f 109 332 327
f 327 332 325
f 332 331 325
f 325 331 333
f 331 1 333
f 333 1 6
f 13 15 10
f 15 334 10
f 10 334 12
f 335 283 336
f 283 282 336
f 336 282 337
f 282 266 337
f 337 266 338
f 266 265 338
f 338 265 339
f 265 281 339
f 339 281 340
f 281 280 340
f 340 280 341
f 280 274 341
f 341 274 342
f 274 273 342
f 342 273 343
f 273 272 343
f 343 272 344
f 272 271 344
f 344 271 345
f 271 293 345
f 345 293 346
f 293 292 346
f 346 292 347
f 292 279 347
f 347 279 348
f 279 278 348
f 348 278 349
f 278 309 349
f 349 309 350
f 309 308 350
f 350 308 351
f 308 307 351
f 351 307 352
f 307 299 352
f 352 299 353
f 299 298 353
f 353 298 354
f 298 297 354
f 354 297 355
f 297 291 355
f 355 291 356
f 291 290 356
f 356 290 357
f 290 289 357
f 357 289 358
f 289 269 358
f 358 269 359
f 269 268 359
f 359 268 360
f 268 296 360
f 360 296 361
f 296 295 361
f 361 295 362
f 295 294 362
f 362 294 363
f 294 306 363
f 363 306 364
f 306 305 364
f 364 305 365
f 305 304 365
f 365 304 366
f 304 288 366
f 366 288 367
f 288 287 367
f 367 287 368
f 287 286 368
f 368 286 369
f 286 285 369
f 369 285 370
f 285 313 370
f 370 313 371
f 313 312 371
f 371 312 372
f 312 311 372
f 372 311 373
f 311 310 373
f 373 310 374
f 310 324 374
f 374 324 375
f 324 323 375
f 375 323 376
f 323 322 376
f 376 322 377
f 322 321 377
f 377 321 378
f 321 320 378
f 378 320 379
f 320 319 379
f 379 319 380
f 319 318 380
f 380 318 381
f 318 317 381
f 381 317 382
f 317 316 382
f 382 316 383
f 316 315 383
f 383 315 384
f 315 314 384
f 384 314 385
f 314 303 385
f 385 303 386
f 303 302 386
f 386 302 387
f 302 301 387
f 387 301 388
f 301 300 388
f 388 300 389
f 300 275 389
f 389 275 390
f 275 276 390
f 390 276 391
f 276 277 391
f 391 277 392
f 277 284 392
f 392 284 335
f 284 283 335
f 263 393 394
f 393 263 332
f 263 70 332
f 332 70 331
f 70 69 331
f 331 69 394
f 69 75 394
f 394 75 263
f 395 330 396
f 330 327 396
f 396 327 397
f 394 18 398
f 18 399 398
f 398 399 400
f 400 401 398
f 401 402 398
f 398 402 165
f 402 403 165
f 403 404 165
f 165 404 393
f 404 405 393
f 20 18 406
f 18 394 406
f 406 394 259
f 394 393 259
f 259 393 260
f 393 405 260
f 19 21 407
f 70 408 3
f 408 409 3
f 3 409 4
f 19 407 263
f 410 411 70
f 411 412 70
f 70 412 408
f 407 413 263
f 413 414 263
f 263 414 415
f 416 417 70
f 417 418 70
f 70 418 410
f 415 419 263
f 419 420 263
f 263 420 421
f 421 422 263
f 422 423 263
f 263 423 424
f 425 426 70
f 426 427 70
f 70 427 416
f 424 428 263
f 428 429 263
f 263 429 70
f 429 430 70
f 70 430 425
f 431 359 432
f 359 360 432
f 432 360 433
f 360 361 433
f 433 361 434
f 361 362 434
f 434 362 435
f 362 363 435
f 435 363 436
f 363 364 436
f 436 364 437
f 364 365 437
f 437 365 438
f 365 366 438
f 438 366 439
f 366 367 439
f 439 367 440
f 367 368 440
f 440 368 441
f 368 369 441
f 441 369 442
f 369 370 442
f 442 370 443
f 370 371 443
f 443 371 444
f 371 372 444
f 444 372 445
f 372 373 445
f 445 373 446
f 373 374 446
f 446 374 447
f 374 375 447
f 447 375 448
f 375 376 448
f 448 376 449
f 376 377 449
f 449 377 450
f 377 378 450
f 450 378 451
f 378 379 451
f 451 379 452
f 379 380 452
f 452 380 453
f 380 381 453
f 453 381 454
f 381 382 454
f 454 382 455
f 382 383 455
f 455 383 456
f 383 384 456
f 456 384 457
f 384 385 457
f 457 385 458
f 385 386 458
f 458 386 459
f 386 387 459
f 459 387 460
f 387 388 460
f 460 388 461
f 388 389 461
f 461 389 462
f 389 390 462
f 462 390 463
f 390 391 463
f 463 391 464
f 391 392 464
f 464 392 465
f 392 335 465
f 465 335 466
f 335 336 466
f 466 336 467
f 336 337 467
f 467 337 468
f 337 338 468
f 468 338 469
f 338 339 469
f 469 339 470
f 339 340 470
f 470 340 471
f 340 341 471
f 471 341 472
f 341 342 472
f 472 342 473
f 342 343 473
f 473 343 474
f 343 344 474
f 474 344 475
f 344 345 475
f 475 345 476
f 345 346 476
f 476 346 477
f 346 347 477
f 477 347 478
f 347 348 478
f 478 348 479
f 348 349 479
f 479 349 480
f 349 350 480
f 480 350 481
f 350 351 481
f 481 351 482
f 351 352 482
f 482 352 483
f 352 353 483
f 483 353 484
f 353 354 484
f 484 354 485
f 354 355 485
f 485 355 486
f 355 356 486
f 486 356 487
f 356 357 487
f 487 357 488
f 357 358 488
f 488 358 431
f 358 359 431
f 25 165 164
f 25 164 53
f 165 25 398
f 25 74 398
f 398 74 489
f 164 197 53
f 197 198 53
f 53 198 51
f 198 199 51
f 199 97 51
f 51 97 49
f 97 96 49
f 49 96 63
f 96 207 63
f 63 207 216
f 216 221 63
f 221 220 63
f 63 220 61
f 220 219 61
f 219 218 61
f 61 218 60
f 218 217 60
f 217 94 60
f 60 94 58
f 94 93 58
f 58 93 48
f 93 229 48
f 48 229 91
f 91 90 48
f 90 88 48
f 48 88 46
f 88 87 46
f 87 85 46
f 46 85 44
f 72 71 328
f 71 33 328
f 85 84 44
f 84 110 44
f 44 110 33
f 110 109 33
f 33 109 328
f 74 76 489
f 76 77 489
f 489 77 490
f 77 78 490
f 490 78 491
f 78 83 491
f 491 83 492
f 83 82 492
f 492 82 493
f 82 81 493
f 493 81 494
f 81 80 494
f 494 80 495
f 80 79 495
f 495 79 496
f 79 73 496
f 496 73 497
f 73 72 497
f 497 72 498
f 72 328 498
f 402 401 499
f 401 500 499
f 466 501 465
f 501 499 465
f 502 30 503
f 30 29 503
f 503 29 500
f 29 27 500
f 21 22 407
f 22 504 407
f 407 504 261
f 505 501 506
f 501 466 506
f 506 466 507
f 466 467 507
f 507 467 508
f 467 468 508
f 262 508 261
f 508 468 261
f 261 468 407
f 468 469 407
f 407 469 413
f 469 470 413
f 413 470 414
f 470 471 414
f 414 471 415
f 471 472 415
f 415 472 419
f 472 473 419
f 419 473 420
f 473 474 420
f 420 474 421
f 474 475 421
f 421 475 422
f 475 476 422
f 422 476 423
f 476 477 423
f 423 477 424
f 477 478 424
f 424 478 428
f 478 479 428
f 428 479 429
f 479 480 429
f 429 480 430
f 480 481 430
f 430 481 425
f 481 482 425
f 425 482 426
f 482 483 426
f 426 483 427
f 483 484 427
f 427 484 416
f 484 485 416
f 416 485 417
f 485 486 417
f 417 486 418
f 486 487 418
f 418 487 410
f 487 488 410
f 410 488 411
f 488 431 411
f 411 431 412
f 431 432 412
f 412 432 408
f 432 433 408
f 408 433 409
f 5 4 509
f 4 409 509
f 509 409 510
f 409 433 510
f 511 510 397
f 510 433 397
f 397 433 396
f 433 434 396
f 396 434 395
f 434 435 395
f 334 15 32
f 15 16 32
f 32 31 334
f 31 11 334
f 334 11 12
f 512 395 513
f 395 435 513
f 513 435 16
f 435 436 16
f 16 436 32
f 436 437 32
f 32 437 34
f 437 438 34
f 34 438 35
f 438 439 35
f 35 439 39
f 439 440 39
f 39 440 40
f 440 441 40
f 40 441 41
f 441 442 41
f 41 442 42
f 442 443 42
f 42 443 43
f 443 444 43
f 43 444 45
f 444 445 45
f 45 445 47
f 445 446 47
f 47 446 56
f 446 447 56
f 56 447 57
f 447 448 57
f 57 448 59
f 448 449 59
f 59 449 66
f 449 450 66
f 66 450 67
f 450 451 67
f 67 451 68
f 451 452 68
f 68 452 62
f 452 453 62
f 62 453 64
f 453 454 64
f 64 454 65
f 454 455 65
f 65 455 50
f 455 456 50
f 50 456 52
f 456 457 52
f 52 457 54
f 457 458 54
f 54 458 55
f 458 459 55
f 55 459 36
f 459 460 36
f 36 460 37
f 460 461 37
f 37 461 38
f 461 462 38
f 38 462 23
f 462 463 23
f 23 463 24
f 463 464 24
f 24 464 26
f 464 465 26
f 26 465 27
f 465 499 27
f 27 499 500
f 330 395 329
f 395 512 329
f 333 6 509
f 6 5 509
f 109 108 332
f 108 115 332
f 332 115 514
f 115 114 514
f 514 114 515
f 114 112 515
f 112 111 515
f 111 116 515
f 515 116 516
f 116 106 516
f 516 106 517
f 106 105 517
f 105 124 517
f 517 124 518
f 124 123 518
f 518 123 519
f 117 119 520
f 123 122 519
f 122 117 519
f 519 117 521
f 117 520 521
f 131 130 522
f 119 121 520
f 121 131 520
f 520 131 523
f 131 522 523
f 130 129 522
f 129 128 522
f 522 128 524
f 128 525 524
f 128 126 525
f 126 137 525
f 525 137 526
f 137 527 526
f 134 270 135
f 270 527 135
f 135 527 136
f 527 137 136
f 399 264 28
f 30 502 28
f 502 400 28
f 28 400 399
f 399 18 264
f 18 17 264
f 161 103 528
f 528 103 529
f 103 102 529
f 529 102 393
f 102 166 393
f 393 166 165
f 530 160 531
f 160 159 531
f 531 159 532
f 159 157 532
f 157 156 532
f 532 156 533
f 156 163 533
f 533 163 528
f 163 162 528
f 528 162 161
f 534 147 535
f 147 149 535
f 535 149 536
f 149 151 536
f 151 152 536
f 536 152 537
f 152 155 537
f 537 155 530
f 155 154 530
f 530 154 160
f 538 267 138
f 138 140 538
f 140 146 538
f 538 146 539
f 146 145 539
f 539 145 540
f 145 143 540
f 540 143 541
f 143 142 541
f 541 142 534
f 142 148 534
f 534 148 147
f 20 406 22
f 406 504 22
f 500 401 503
f 401 400 503
f 503 400 502
f 402 499 403
f 499 501 403
f 403 501 505
f 403 505 404
f 505 506 404
f 404 506 405
f 506 507 405
f 405 507 508
f 260 405 262
f 405 508 262
f 406 259 504
f 259 261 504
f 394 398 331
f 398 489 331
f 331 489 490
f 490 491 331
f 491 492 331
f 331 492 493
f 493 494 331
f 494 495 331
f 331 495 496
f 496 497 331
f 497 498 331
f 331 498 328
f 270 267 538
f 393 332 529
f 332 514 529
f 529 514 528
f 514 515 528
f 528 515 533
f 515 516 533
f 533 516 532
f 516 517 532
f 532 517 531
f 517 518 531
f 531 518 530
f 518 519 530
f 530 519 537
f 519 521 537
f 537 521 536
f 521 520 536
f 536 520 535
f 520 523 535
f 535 523 534
f 523 522 534
f 534 522 541
f 522 524 541
f 541 524 540
f 524 525 540
f 540 525 539
f 525 526 539
f 539 526 538
f 526 527 538
f 538 527 270
f 325 333 510
f 333 509 510
f 326 325 511
f 325 510 511
f 327 326 397
f 326 511 397
f 16 14 513
f 14 329 513
f 513 329 512

