# https://github.com/mikedh/trimesh
v -165.04928589 -15.70960903 -2.50000000
v -167.50436401 -14.73890591 -2.50000000
v -165.74325562 -10.88746548 -2.50000000
v -162.27682495 -16.19496155 -2.50000000
v -162.34481812 -12.27027798 -2.50000000
v -160.77157593 -16.25563049 -2.50000000
v -160.27938843 -12.44312954 -2.50000000
v -158.56454468 -16.14430237 -2.50000000
v -158.33602905 -12.31227016 -2.50000000
v -156.49032593 -15.81031704 -2.50000000
v -156.41220093 -11.91969204 -2.50000000
v -154.50790405 -15.26344204 -2.50000000
v -170.59188843 -12.37281704 -2.50000000
v -171.44332886 -11.35975552 -2.50000000
v -167.07626343 -9.67750454 -2.50000000
v -169.64205933 -13.28285122 -2.50000000
v -154.50009155 -11.26344204 -2.50000000
v -140.43759155 -0.09156728 -2.50000000
v -140.43759155 -15.54469204 -2.50000000
v -144.95321655 -15.54469204 -2.50000000
v -81.55637360 -14.71144009 -2.50000000
v -79.46738434 -10.90357876 -2.50000000
v -79.53879547 -15.69972134 -2.50000000
v -126.53916168 0.81468272 -2.50000000
v -122.04697418 -15.54469204 -2.50000000
v -126.53916168 -15.54469204 -2.50000000
v -152.59188843 -10.34156704 -2.50000000
v -152.59188843 -14.49781704 -2.50000000
v -113.09189606 -15.54469204 -2.50000000
v -113.09189606 11.79905796 -2.50000000
v -108.59970856 -15.54469204 -2.50000000
v -83.34445953 -13.22901821 -2.50000000
v -84.15244293 -12.30250454 -2.50000000
v -80.58213043 -9.66969204 -2.50000000
v -76.66660309 -12.31373501 -2.50000000
v -169.33944702 -4.26051283 -2.50000000
v -168.13241577 -8.15113735 -2.50000000
v -173.71383667 -6.46034193 -2.50000000
v -172.80563354 -9.07948208 -2.50000000
v -174.16793823 -3.50233388 -2.50000000
v -174.16732788 -0.26905751 -2.50000000
v -169.49032593 -1.89625478 -2.50000000
v -174.22470093 -1.89625478 -2.50000000
v -169.33944702 0.46751475 -2.50000000
v -173.70834351 2.71727061 -2.50000000
v -168.13241577 4.35423326 -2.50000000
v -144.95321655 22.44749451 -2.50000000
v -82.49375153 -4.23951674 -2.50000000
v -87.06748199 -4.96363783 -2.50000000
v -87.26181793 -1.89625478 -2.50000000
v -99.20029449 22.44749451 -2.50000000
v -94.70810699 -15.54469204 -2.50000000
v -99.20029449 -15.54469204 -2.50000000
v -81.47422028 -8.12623501 -2.50000000
v -85.51279449 -10.16676235 -2.50000000
v -82.62119293 -1.89625478 -2.50000000
v -122.04697418 0.96312022 -2.50000000
v -126.63388824 2.63353038 -2.50000000
v -122.19834137 3.62327647 -2.50000000
v -140.30624390 1.80638194 -2.50000000
v -82.49375153 0.44700694 -2.50000000
v -87.06748199 1.17063975 -2.50000000
v -108.59970856 11.79905796 -2.50000000
v -81.47422028 4.33372545 -2.50000000
v -127.39170074 5.53587389 -2.50000000
v -77.29172516 -16.19386292 -2.50000000
v -74.98056793 -12.49000454 -2.50000000
v -74.62119293 -16.18141174 -2.50000000
v -76.08213043 -16.25563049 -2.50000000
v -73.29404449 -12.31373501 -2.50000000
v -72.02744293 -15.58766079 -2.50000000
v -53.74228668 -15.54469204 -2.50000000
v -53.74228668 22.44749451 -2.50000000
v -49.22666168 -0.09156728 -2.50000000
v -67.31650543 -11.44312954 -2.50000000
v -62.82431793 -15.54469204 -2.50000000
v -67.31650543 -15.54469204 -2.50000000
v -49.22666168 -15.54469204 -2.50000000
v -69.85947418 -14.39625454 -2.50000000
v -70.48935699 -10.90357876 -2.50000000
v -70.89463043 -15.06812954 -2.50000000
v -68.07041168 -12.58375454 -2.50000000
v -15.34116268 -15.71839809 -2.50000000
v -17.64585114 -14.76331997 -2.50000000
v -15.87070370 -10.85670376 -2.50000000
v -12.71811581 -16.19593811 -2.50000000
v -11.28720760 -12.44312954 -2.50000000
v -11.28720760 -16.25563049 -2.50000000
v -9.86167049 -16.19593811 -2.50000000
v -13.00742245 -12.26686001 -2.50000000
v -9.58408260 -12.26637173 -2.50000000
v -7.24643660 -15.71839809 -2.50000000
v -19.63217926 -13.33070278 -2.50000000
v -20.50595856 -12.43531704 -2.50000000
v -17.01377106 -9.62281704 -2.50000000
v -6.74033308 -10.85230923 -2.50000000
v -4.94565535 -14.76331997 -2.50000000
v -5.59970808 -9.61500454 -2.50000000
v -2.08408308 -12.43531704 -2.50000000
v -2.95932722 -13.33070278 -2.50000000
v -35.32822418 -15.54469204 -2.50000000
v -35.32822418 0.81468272 -2.50000000
v -30.83603668 -15.54469204 -2.50000000
v -69.37119293 -9.66969204 -2.50000000
v -68.47226715 -8.12623501 -2.50000000
v -67.44492340 -4.23951674 -2.50000000
v -49.09531403 1.80638194 -2.50000000
v -67.31650543 -1.89625478 -2.50000000
v -49.22666168 7.54905748 -2.50000000
v -67.44492340 0.44700694 -2.50000000
v -67.31650543 7.65061998 -2.50000000
v -30.83603668 0.96312022 -2.50000000
v -30.98740387 3.62327647 -2.50000000
v -35.42295074 2.63353038 -2.50000000
v -23.62607574 -5.07154799 -2.50000000
v -23.83408356 -1.89625478 -2.50000000
v -18.96933746 -4.21900892 -2.50000000
v -22.53403473 -9.15882778 -2.50000000
v -17.92636871 -8.08228970 -2.50000000
v -21.28598785 -11.43324184 -2.50000000
v -18.96836090 0.42649913 -2.50000000
v -19.09970856 -1.89625478 -2.50000000
v -22.53403473 5.37730455 -2.50000000
v -23.62607574 1.28782725 -2.50000000
v -0.04172467 -9.15882778 -2.50000000
v -4.68027449 -8.06910610 -2.50000000
v -3.62949324 -4.20973158 -2.50000000
v -3.62949324 0.40745616 -2.50000000
v -4.68027449 4.25901842 -2.50000000
v -0.04172467 5.37730455 -2.50000000
v -3.49814558 -1.89625478 -2.50000000
v 1.26747942 -1.89625478 -2.50000000
v -1.29856062 -11.43324184 -2.50000000
v -36.18076324 5.53587389 -2.50000000
v -171.41342163 7.61766100 -2.50000000
v -172.79037476 5.34617662 -2.50000000
v -167.07626343 5.87718248 -2.50000000
v -154.50009155 7.47093248 -2.50000000
v -152.59188843 10.75218296 -2.50000000
v -152.59188843 6.54905748 -2.50000000
v -140.43759155 7.54905748 -2.50000000
v -169.59042358 9.51841831 -2.50000000
v -170.55282593 8.61937046 -2.50000000
v -165.74325562 7.09056139 -2.50000000
v -162.34481812 8.47728062 -2.50000000
v -164.89120483 11.91587925 -2.50000000
v -156.42782593 12.02562046 -2.50000000
v -156.41220093 8.12718296 -2.50000000
v -158.33602905 8.51976109 -2.50000000
v -160.27938843 8.65062046 -2.50000000
v -158.42782593 12.34788609 -2.50000000
v -154.48056030 11.49632359 -2.50000000
v -162.03182983 12.39537144 -2.50000000
v -139.59384155 8.70530796 -2.50000000
v -138.33602905 6.22874498 -2.50000000
v -139.25546265 4.96653795 -2.50000000
v -85.51279449 6.36985826 -2.50000000
v -84.15244293 8.50218296 -2.50000000
v -80.58213043 5.87718248 -2.50000000
v -128.05477905 6.61936998 -2.50000000
v -123.40927887 7.91233873 -2.50000000
v -137.69540405 10.54905796 -2.50000000
v -137.18905640 7.24388170 -2.50000000
v -131.59384155 12.45530796 -2.50000000
v -131.17636108 8.42845249 -2.50000000
v -132.59384155 8.54905796 -2.50000000
v -134.31796265 8.40403843 -2.50000000
v -128.90682983 7.46360826 -2.50000000
v -125.81943512 10.81614780 -2.50000000
v -124.46884918 9.54124546 -2.50000000
v -83.34445953 9.42869663 -2.50000000
v -79.46738434 7.11106920 -2.50000000
v -129.38192749 12.27317905 -2.50000000
v -132.98153687 12.37913609 -2.50000000
v -167.41073608 10.95689487 -2.50000000
v -136.64071655 11.23655796 -2.50000000
v -135.50497437 11.76976109 -2.50000000
v -160.47470093 12.45530796 -2.50000000
v -140.43759155 22.44749451 -2.50000000
v -94.70810699 22.44749451 -2.50000000
v -81.55637360 10.91111851 -2.50000000
v -79.53879547 11.89939976 -2.50000000
v -113.09189606 22.44749451 -2.50000000
v -108.59970856 16.75218201 -2.50000000
v -113.09189606 16.75218201 -2.50000000
v -108.59970856 22.44749451 -2.50000000
v -76.66660309 8.52122593 -2.50000000
v -68.47226715 4.33372545 -2.50000000
v -69.37119293 5.87718248 -2.50000000
v -70.48935699 7.11106920 -2.50000000
v -68.07041168 8.79075718 -2.50000000
v -48.38291168 8.70530796 -2.50000000
v -47.12509918 6.22874498 -2.50000000
v -48.04453278 4.96653795 -2.50000000
v -69.85947418 10.59935093 -2.50000000
v -73.29404449 8.52122593 -2.50000000
v -45.97812653 7.24388170 -2.50000000
v -40.38291168 12.45530796 -2.50000000
v -39.96543121 8.42845249 -2.50000000
v -41.38291168 8.54905796 -2.50000000
v -46.48447418 10.54905796 -2.50000000
v -43.10703278 8.40403843 -2.50000000
v -41.77060699 12.37913609 -2.50000000
v -38.17099762 12.27317905 -2.50000000
v -37.69589996 7.46360826 -2.50000000
v -32.19834137 7.91233873 -2.50000000
v -36.84384918 6.61936998 -2.50000000
v -17.91757965 4.28978014 -2.50000000
v -16.99814606 5.83030748 -2.50000000
v -21.28598785 7.64585924 -2.50000000
v -5.59970808 5.80686998 -2.50000000
v -2.95932722 9.53636265 -2.50000000
v -2.08408308 8.64280796 -2.50000000
v -20.50595856 8.64280796 -2.50000000
v -33.25791168 9.54124546 -2.50000000
v -19.63217926 9.53636265 -2.50000000
v -15.85312557 7.06419420 -2.50000000
v -9.58408260 8.47288609 -2.50000000
v -7.24643660 11.91917515 -2.50000000
v -6.74033308 7.05101061 -2.50000000
v -15.34116268 11.91917515 -2.50000000
v -12.99765682 8.47435093 -2.50000000
v -11.28720760 8.65062046 -2.50000000
v -9.86167049 12.39573765 -2.50000000
v -12.71811581 12.39573765 -2.50000000
v -34.60849762 10.81614780 -2.50000000
v -70.89463043 11.26780796 -2.50000000
v -72.02744293 11.78733921 -2.50000000
v -74.62119293 12.38108921 -2.50000000
v -62.82431793 22.44749451 -2.50000000
v -45.42978668 11.23655796 -2.50000000
v -74.98056793 8.69749546 -2.50000000
v -76.08213043 12.45530796 -2.50000000
v -77.29172516 12.39354038 -2.50000000
v -67.31650543 22.44749451 -2.50000000
v -49.22666168 22.44749451 -2.50000000
v -44.29404449 11.76976109 -2.50000000
v -11.28720760 12.45530796 -2.50000000
v -17.64585114 10.96605015 -2.50000000
v -4.94565535 10.96605015 -2.50000000
v -1.29856062 7.64585924 -2.50000000
v 15.24965763 -15.71839809 -2.50000000
v 12.94497013 -14.76331997 -2.50000000
v 14.72011662 -10.85670376 -2.50000000
v 17.87270355 -16.19593811 -2.50000000
v 17.58339691 -12.26686001 -2.50000000
v 19.30361176 -12.44312954 -2.50000000
v 20.72914886 -16.19593811 -2.50000000
v 19.30361176 -16.25563049 -2.50000000
v 21.00673676 -12.26637173 -2.50000000
v 23.34438324 -15.71839809 -2.50000000
v 23.85048676 -10.85230923 -2.50000000
v 13.57705021 -9.62281704 -2.50000000
v 10.08486271 -12.43531704 -2.50000000
v 9.30483341 -11.43324184 -2.50000000
v 10.95864201 -13.33070278 -2.50000000
v 25.64516449 -14.76331997 -2.50000000
v 45.07057953 -15.69972134 -2.50000000
v 43.05300140 -14.71144009 -2.50000000
v 45.14199066 -10.90357876 -2.50000000
v 47.31764984 -16.19386292 -2.50000000
v 47.94277191 -12.31373501 -2.50000000
v 49.62880707 -12.49000454 -2.50000000
v 49.98818207 -16.18141174 -2.50000000
v 48.52724457 -16.25563049 -2.50000000
v 51.31533051 -12.31373501 -2.50000000
v 52.58193207 -15.58766079 -2.50000000
v 53.71474457 -15.06812954 -2.50000000
v 24.99111176 -9.61500454 -2.50000000
v 28.50673676 -12.43531704 -2.50000000
v 27.63149261 -13.33070278 -2.50000000
v 41.26491547 -13.22901821 -2.50000000
v 40.45693207 -12.30250454 -2.50000000
v 44.02724457 -9.66969204 -2.50000000
v 54.74990082 -14.39625454 -2.50000000
v 29.29225922 -11.43324184 -2.50000000
v 8.05678654 -9.15882778 -2.50000000
v 12.66445255 -8.08228970 -2.50000000
v 11.62148380 -4.21900892 -2.50000000
v 1.05800676 -5.07154799 -2.50000000
v 6.75673723 -1.89625478 -2.50000000
v 11.49111271 -1.89625478 -2.50000000
v 6.96474504 -5.07154799 -2.50000000
v 11.62246037 0.42649913 -2.50000000
v 6.96474504 1.28782725 -2.50000000
v 26.96132660 -4.20973158 -2.50000000
v 30.54909515 -9.15882778 -2.50000000
v 25.91054535 -8.06910610 -2.50000000
v 31.64882660 -5.07154799 -2.50000000
v 39.09658051 -10.16676235 -2.50000000
v 43.13515472 -8.12623501 -2.50000000
v 37.54189301 -4.96363783 -2.50000000
v 27.09267426 -1.89625478 -2.50000000
v 31.85829926 -1.89625478 -2.50000000
v 31.64882660 1.28782725 -2.50000000
v 26.96132660 0.40745616 -2.50000000
v 37.34755707 -1.89625478 -2.50000000
v 42.11562347 -4.23951674 -2.50000000
v 41.98818207 -1.89625478 -2.50000000
v 42.11562347 0.44700694 -2.50000000
v 1.05800676 1.28782725 -2.50000000
v 57.29286957 -15.54469204 -2.50000000
v 57.29286957 -11.44312954 -2.50000000
v 61.78505707 -15.54469204 -2.50000000
v 57.16445160 -4.23951674 -2.50000000
v 110.93251801 -9.53687954 -2.50000000
v 113.86220551 -15.54469204 -2.50000000
v 108.56533051 -15.54469204 -2.50000000
v 102.68251801 6.86936998 -2.50000000
v 54.12001801 -10.90357876 -2.50000000
v 56.53896332 -12.58375454 -2.50000000
v 55.23818207 -9.66969204 -2.50000000
v 133.83633423 -10.85670376 -2.50000000
v 132.06118774 -14.76331997 -2.50000000
v 130.07485962 -13.33070278 -2.50000000
v 129.20108032 -12.43531704 -2.50000000
v 132.69326782 -9.62281704 -2.50000000
v 134.36587524 -15.71839809 -2.50000000
v 96.77626801 -15.54469204 -2.50000000
v 91.47158051 -15.54469204 -2.50000000
v 94.43251801 -9.53687954 -2.50000000
v 136.69961548 -12.26686001 -2.50000000
v 136.98892212 -16.19593811 -2.50000000
v 138.41983032 -16.25563049 -2.50000000
v 138.41983032 -12.44312954 -2.50000000
v 139.84536743 -16.19593811 -2.50000000
v 162.76065063 -1.13844228 -2.50000000
v 162.76065063 -15.54469204 -2.50000000
v 158.24502563 -15.54469204 -2.50000000
v 142.46060181 -15.71839809 -2.50000000
v 140.12295532 -12.26637173 -2.50000000
v 142.96670532 -10.85230923 -2.50000000
v 144.76138306 -14.76331997 -2.50000000
v 146.74771118 -13.33070278 -2.50000000
v 183.31729126 -2.19312978 -2.50000000
v 183.31729126 -15.54469204 -2.50000000
v 178.80166626 -15.54469204 -2.50000000
v 187.95791626 -0.99000478 -2.50000000
v 203.07510376 -15.54469204 -2.50000000
v 197.21572876 -15.54469204 -2.50000000
v 144.10733032 -9.61500454 -2.50000000
v 147.62295532 -12.43531704 -2.50000000
v 56.13710785 -8.12623501 -2.50000000
v 127.17299652 -9.15882778 -2.50000000
v 131.78067017 -8.08228970 -2.50000000
v 128.42105103 -11.43324184 -2.50000000
v 84.32314301 11.79905796 -2.50000000
v 57.29286957 -1.89625478 -2.50000000
v 126.08095551 -5.07154799 -2.50000000
v 130.73770142 -4.21900892 -2.50000000
v 130.60733032 -1.89625478 -2.50000000
v 125.87294769 -1.89625478 -2.50000000
v 130.73867798 0.42649913 -2.50000000
v 148.40847778 -11.43324184 -2.50000000
v 145.02676392 -8.06910610 -2.50000000
v 149.66531372 -9.15882778 -2.50000000
v 146.07754517 -4.20973158 -2.50000000
v 150.76504517 -5.07154799 -2.50000000
v 146.20889282 -1.89625478 -2.50000000
v 150.97451782 -1.89625478 -2.50000000
v 150.76504517 1.28782725 -2.50000000
v 146.07754517 0.40745616 -2.50000000
v 183.31729126 0.00999522 -2.50000000
v 196.72354126 11.79905796 -2.50000000
v 158.24502563 11.79905796 -2.50000000
v 178.80166626 22.44749451 -2.50000000
v 8.05678654 5.37730455 -2.50000000
v 12.67324162 4.28978014 -2.50000000
v 9.30483341 7.64585924 -2.50000000
v 25.91054535 4.25901842 -2.50000000
v 24.99111176 5.80686998 -2.50000000
v 29.29225922 7.64585924 -2.50000000
v 13.59267521 5.83030748 -2.50000000
v 10.08486271 8.64280796 -2.50000000
v 21.00673676 8.47288609 -2.50000000
v 23.34438324 11.91917515 -2.50000000
v 23.85048676 7.05101061 -2.50000000
v 10.95864201 9.53636265 -2.50000000
v 14.73769474 7.06419420 -2.50000000
v 17.59316254 8.47435093 -2.50000000
v 15.24965763 11.91917515 -2.50000000
v 27.63149261 9.53636265 -2.50000000
v 30.54909515 5.37730455 -2.50000000
v 39.09658051 6.36985826 -2.50000000
v 43.13515472 4.33372545 -2.50000000
v 37.54189301 1.17063975 -2.50000000
v 57.16445160 0.44700694 -2.50000000
v 56.13710785 4.33372545 -2.50000000
v 57.29286957 7.65061998 -2.50000000
v 40.45693207 8.50218296 -2.50000000
v 44.02724457 5.87718248 -2.50000000
v 28.50673676 8.64280796 -2.50000000
v 41.26491547 9.42869663 -2.50000000
v 55.23818207 5.87718248 -2.50000000
v 54.12001801 7.11106920 -2.50000000
v 56.53896332 8.79075718 -2.50000000
v 45.14199066 7.11106920 -2.50000000
v 25.64516449 10.96605015 -2.50000000
v 12.94497013 10.96605015 -2.50000000
v 17.87270355 12.39573765 -2.50000000
v 19.30361176 8.65062046 -2.50000000
v 19.30361176 12.45530796 -2.50000000
v 20.72914886 12.39573765 -2.50000000
v 43.05300140 10.91111851 -2.50000000
v 49.98818207 12.38108921 -2.50000000
v 51.31533051 8.52122593 -2.50000000
v 49.62880707 8.69749546 -2.50000000
v 48.52724457 12.45530796 -2.50000000
v 47.94277191 8.52122593 -2.50000000
v 53.71474457 11.26780796 -2.50000000
v 54.74990082 10.59935093 -2.50000000
v 52.58193207 11.78733921 -2.50000000
v 47.31764984 12.39354038 -2.50000000
v 45.07057953 11.89939976 -2.50000000
v 61.78505707 22.44749451 -2.50000000
v 57.29286957 22.44749451 -2.50000000
v 88.81533051 11.79905796 -2.50000000
v 126.08095551 1.28782725 -2.50000000
v 127.17299652 5.37730455 -2.50000000
v 121.01845551 11.79905796 -2.50000000
v 131.78945923 4.28978014 -2.50000000
v 145.02676392 4.25901842 -2.50000000
v 144.10733032 5.80686998 -2.50000000
v 148.40847778 7.64585924 -2.50000000
v 128.42105103 7.64585924 -2.50000000
v 132.70889282 5.83030748 -2.50000000
v 129.20108032 8.64280796 -2.50000000
v 130.07485962 9.53636265 -2.50000000
v 136.70938110 8.47435093 -2.50000000
v 133.85391235 7.06419420 -2.50000000
v 134.36587524 11.91917515 -2.50000000
v 140.12295532 8.47288609 -2.50000000
v 142.46060181 11.91917515 -2.50000000
v 142.96670532 7.05101061 -2.50000000
v 146.74771118 9.53636265 -2.50000000
v 100.01845551 11.79905796 -2.50000000
v 149.66531372 5.37730455 -2.50000000
v 162.76065063 7.54905748 -2.50000000
v 162.88809204 1.04661632 -2.50000000
v 163.90762329 4.60520983 -2.50000000
v 163.52432251 8.71458530 -2.50000000
v 164.79971313 5.97874498 -2.50000000
v 165.93008423 7.06224108 -2.50000000
v 170.40762329 12.37962437 -2.50000000
v 170.65127563 8.45530796 -2.50000000
v 168.85586548 8.30052280 -2.50000000
v 165.36807251 10.56224155 -2.50000000
v 147.62295532 8.64280796 -2.50000000
v 173.46963501 7.98265123 -2.50000000
v 174.23721313 12.21312046 -2.50000000
v 174.26065063 7.60374498 -2.50000000
v 171.67666626 8.40257359 -2.50000000
v 172.45791626 12.43968296 -2.50000000
v 172.61221313 8.24437046 -2.50000000
v 105.31533051 11.79905796 -2.50000000
v 144.76138306 10.96605015 -2.50000000
v 132.06118774 10.96605015 -2.50000000
v 136.98892212 12.39573765 -2.50000000
v 138.41983032 8.65062046 -2.50000000
v 139.84536743 12.39573765 -2.50000000
v 116.52626801 11.79905796 -2.50000000
v 138.41983032 12.45530796 -2.50000000
v 162.76065063 11.79905796 -2.50000000
v 166.44815063 11.24437046 -2.50000000
v 167.64590454 11.77415562 -2.50000000
v 173.58682251 12.32054234 -2.50000000
v 171.97158813 12.45530796 -2.50000000
v 172.99502563 12.39280796 -2.50000000
v 183.31729126 22.44749451 -2.50000000
v 202.45791626 11.79905796 -2.50000000
v -165.04928589 -15.70960903 2.50000000
v -165.74325562 -10.88746548 2.50000000
v -167.50436401 -14.73890591 2.50000000
v -162.27682495 -16.19496155 2.50000000
v -162.34481812 -12.27027798 2.50000000
v -160.77157593 -16.25563049 2.50000000
v -158.56454468 -16.14430237 2.50000000
v -160.27938843 -12.44312954 2.50000000
v -156.49032593 -15.81031704 2.50000000
v -158.33602905 -12.31227016 2.50000000
v -156.41220093 -11.91969204 2.50000000
v -154.50790405 -15.26344204 2.50000000
v -170.59188843 -12.37281704 2.50000000
v -167.07626343 -9.67750454 2.50000000
v -171.44332886 -11.35975552 2.50000000
v -169.64205933 -13.28285122 2.50000000
v -154.50009155 -11.26344204 2.50000000
v -140.43759155 -0.09156728 2.50000000
v -144.95321655 -15.54469204 2.50000000
v -140.43759155 -15.54469204 2.50000000
v -81.55637360 -14.71144009 2.50000000
v -79.53879547 -15.69972134 2.50000000
v -79.46738434 -10.90357876 2.50000000
v -126.53916168 0.81468272 2.50000000
v -126.53916168 -15.54469204 2.50000000
v -122.04697418 -15.54469204 2.50000000
v -152.59188843 -14.49781704 2.50000000
v -152.59188843 -10.34156704 2.50000000
v -113.09189606 -15.54469204 2.50000000
v -108.59970856 -15.54469204 2.50000000
v -113.09189606 11.79905796 2.50000000
v -83.34445953 -13.22901821 2.50000000
v -80.58213043 -9.66969204 2.50000000
v -84.15244293 -12.30250454 2.50000000
v -76.66660309 -12.31373501 2.50000000
v -169.33944702 -4.26051283 2.50000000
v -173.71383667 -6.46034193 2.50000000
v -168.13241577 -8.15113735 2.50000000
v -172.80563354 -9.07948208 2.50000000
v -174.16793823 -3.50233388 2.50000000
v -174.16732788 -0.26905751 2.50000000
v -174.22470093 -1.89625478 2.50000000
v -169.49032593 -1.89625478 2.50000000
v -169.33944702 0.46751475 2.50000000
v -168.13241577 4.35423326 2.50000000
v -173.70834351 2.71727061 2.50000000
v -144.95321655 22.44749451 2.50000000
v -82.49375153 -4.23951674 2.50000000
v -87.26181793 -1.89625478 2.50000000
v -87.06748199 -4.96363783 2.50000000
v -99.20029449 22.44749451 2.50000000
v -99.20029449 -15.54469204 2.50000000
v -94.70810699 -15.54469204 2.50000000
v -81.47422028 -8.12623501 2.50000000
v -85.51279449 -10.16676235 2.50000000
v -82.62119293 -1.89625478 2.50000000
v -122.04697418 0.96312022 2.50000000
v -122.19834137 3.62327647 2.50000000
v -126.63388824 2.63353038 2.50000000
v -140.30624390 1.80638194 2.50000000
v -82.49375153 0.44700694 2.50000000
v -87.06748199 1.17063975 2.50000000
v -108.59970856 11.79905796 2.50000000
v -81.47422028 4.33372545 2.50000000
v -127.39170074 5.53587389 2.50000000
v -77.29172516 -16.19386292 2.50000000
v -74.98056793 -12.49000454 2.50000000
v -76.08213043 -16.25563049 2.50000000
v -74.62119293 -16.18141174 2.50000000
v -73.29404449 -12.31373501 2.50000000
v -72.02744293 -15.58766079 2.50000000
v -53.74228668 -15.54469204 2.50000000
v -49.22666168 -0.09156728 2.50000000
v -53.74228668 22.44749451 2.50000000
v -67.31650543 -11.44312954 2.50000000
v -67.31650543 -15.54469204 2.50000000
v -62.82431793 -15.54469204 2.50000000
v -49.22666168 -15.54469204 2.50000000
v -69.85947418 -14.39625454 2.50000000
v -70.48935699 -10.90357876 2.50000000
v -70.89463043 -15.06812954 2.50000000
v -68.07041168 -12.58375454 2.50000000
v -15.34116268 -15.71839809 2.50000000
v -15.87070370 -10.85670376 2.50000000
v -17.64585114 -14.76331997 2.50000000
v -12.71811581 -16.19593811 2.50000000
v -11.28720760 -16.25563049 2.50000000
v -11.28720760 -12.44312954 2.50000000
v -9.86167049 -16.19593811 2.50000000
v -13.00742245 -12.26686001 2.50000000
v -9.58408260 -12.26637173 2.50000000
v -7.24643660 -15.71839809 2.50000000
v -19.63217926 -13.33070278 2.50000000
v -17.01377106 -9.62281704 2.50000000
v -20.50595856 -12.43531704 2.50000000
v -6.74033308 -10.85230923 2.50000000
v -4.94565535 -14.76331997 2.50000000
v -5.59970808 -9.61500454 2.50000000
v -2.95932722 -13.33070278 2.50000000
v -2.08408308 -12.43531704 2.50000000
v -35.32822418 -15.54469204 2.50000000
v -30.83603668 -15.54469204 2.50000000
v -35.32822418 0.81468272 2.50000000
v -69.37119293 -9.66969204 2.50000000
v -68.47226715 -8.12623501 2.50000000
v -67.44492340 -4.23951674 2.50000000
v -49.09531403 1.80638194 2.50000000
v -67.31650543 -1.89625478 2.50000000
v -49.22666168 7.54905748 2.50000000
v -67.44492340 0.44700694 2.50000000
v -67.31650543 7.65061998 2.50000000
v -30.83603668 0.96312022 2.50000000
v -30.98740387 3.62327647 2.50000000
v -35.42295074 2.63353038 2.50000000
v -23.62607574 -5.07154799 2.50000000
v -18.96933746 -4.21900892 2.50000000
v -23.83408356 -1.89625478 2.50000000
v -22.53403473 -9.15882778 2.50000000
v -21.28598785 -11.43324184 2.50000000
v -17.92636871 -8.08228970 2.50000000
v -18.96836090 0.42649913 2.50000000
v -19.09970856 -1.89625478 2.50000000
v -22.53403473 5.37730455 2.50000000
v -23.62607574 1.28782725 2.50000000
v -0.04172467 -9.15882778 2.50000000
v -3.62949324 -4.20973158 2.50000000
v -4.68027449 -8.06910610 2.50000000
v -3.62949324 0.40745616 2.50000000
v -0.04172467 5.37730455 2.50000000
v -4.68027449 4.25901842 2.50000000
v -3.49814558 -1.89625478 2.50000000
v 1.26747942 -1.89625478 2.50000000
v -1.29856062 -11.43324184 2.50000000
v -36.18076324 5.53587389 2.50000000
v -171.41342163 7.61766100 2.50000000
v -172.79037476 5.34617662 2.50000000
v -167.07626343 5.87718248 2.50000000
v -154.50009155 7.47093248 2.50000000
v -152.59188843 6.54905748 2.50000000
v -152.59188843 10.75218296 2.50000000
v -140.43759155 7.54905748 2.50000000
v -169.59042358 9.51841831 2.50000000
v -170.55282593 8.61937046 2.50000000
v -165.74325562 7.09056139 2.50000000
v -162.34481812 8.47728062 2.50000000
v -164.89120483 11.91587925 2.50000000
v -156.42782593 12.02562046 2.50000000
v -158.33602905 8.51976109 2.50000000
v -156.41220093 8.12718296 2.50000000
v -158.42782593 12.34788609 2.50000000
v -160.27938843 8.65062046 2.50000000
v -154.48056030 11.49632359 2.50000000
v -162.03182983 12.39537144 2.50000000
v -138.33602905 6.22874498 2.50000000
v -139.59384155 8.70530796 2.50000000
v -139.25546265 4.96653795 2.50000000
v -85.51279449 6.36985826 2.50000000
v -80.58213043 5.87718248 2.50000000
v -84.15244293 8.50218296 2.50000000
v -128.05477905 6.61936998 2.50000000
v -123.40927887 7.91233873 2.50000000
v -137.18905640 7.24388170 2.50000000
v -137.69540405 10.54905796 2.50000000
v -131.59384155 12.45530796 2.50000000
v -132.59384155 8.54905796 2.50000000
v -131.17636108 8.42845249 2.50000000
v -134.31796265 8.40403843 2.50000000
v -128.90682983 7.46360826 2.50000000
v -125.81943512 10.81614780 2.50000000
v -124.46884918 9.54124546 2.50000000
v -79.46738434 7.11106920 2.50000000
v -83.34445953 9.42869663 2.50000000
v -129.38192749 12.27317905 2.50000000
v -132.98153687 12.37913609 2.50000000
v -167.41073608 10.95689487 2.50000000
v -136.64071655 11.23655796 2.50000000
v -135.50497437 11.76976109 2.50000000
v -160.47470093 12.45530796 2.50000000
v -140.43759155 22.44749451 2.50000000
v -94.70810699 22.44749451 2.50000000
v -81.55637360 10.91111851 2.50000000
v -79.53879547 11.89939976 2.50000000
v -113.09189606 22.44749451 2.50000000
v -113.09189606 16.75218201 2.50000000
v -108.59970856 16.75218201 2.50000000
v -108.59970856 22.44749451 2.50000000
v -76.66660309 8.52122593 2.50000000
v -69.37119293 5.87718248 2.50000000
v -68.47226715 4.33372545 2.50000000
v -68.07041168 8.79075718 2.50000000
v -70.48935699 7.11106920 2.50000000
v -48.38291168 8.70530796 2.50000000
v -47.12509918 6.22874498 2.50000000
v -48.04453278 4.96653795 2.50000000
v -69.85947418 10.59935093 2.50000000
v -73.29404449 8.52122593 2.50000000
v -45.97812653 7.24388170 2.50000000
v -40.38291168 12.45530796 2.50000000
v -41.38291168 8.54905796 2.50000000
v -39.96543121 8.42845249 2.50000000
v -43.10703278 8.40403843 2.50000000
v -46.48447418 10.54905796 2.50000000
v -41.77060699 12.37913609 2.50000000
v -37.69589996 7.46360826 2.50000000
v -38.17099762 12.27317905 2.50000000
v -32.19834137 7.91233873 2.50000000
v -36.84384918 6.61936998 2.50000000
v -17.91757965 4.28978014 2.50000000
v -16.99814606 5.83030748 2.50000000
v -21.28598785 7.64585924 2.50000000
v -5.59970808 5.80686998 2.50000000
v -2.08408308 8.64280796 2.50000000
v -2.95932722 9.53636265 2.50000000
v -20.50595856 8.64280796 2.50000000
v -33.25791168 9.54124546 2.50000000
v -19.63217926 9.53636265 2.50000000
v -15.85312557 7.06419420 2.50000000
v -9.58408260 8.47288609 2.50000000
v -6.74033308 7.05101061 2.50000000
v -7.24643660 11.91917515 2.50000000
v -15.34116268 11.91917515 2.50000000
v -12.99765682 8.47435093 2.50000000
v -9.86167049 12.39573765 2.50000000
v -11.28720760 8.65062046 2.50000000
v -12.71811581 12.39573765 2.50000000
v -34.60849762 10.81614780 2.50000000
v -70.89463043 11.26780796 2.50000000
v -72.02744293 11.78733921 2.50000000
v -74.62119293 12.38108921 2.50000000
v -62.82431793 22.44749451 2.50000000
v -45.42978668 11.23655796 2.50000000
v -76.08213043 12.45530796 2.50000000
v -74.98056793 8.69749546 2.50000000
v -77.29172516 12.39354038 2.50000000
v -67.31650543 22.44749451 2.50000000
v -49.22666168 22.44749451 2.50000000
v -44.29404449 11.76976109 2.50000000
v -11.28720760 12.45530796 2.50000000
v -17.64585114 10.96605015 2.50000000
v -4.94565535 10.96605015 2.50000000
v -1.29856062 7.64585924 2.50000000
v 15.24965763 -15.71839809 2.50000000
v 14.72011662 -10.85670376 2.50000000
v 12.94497013 -14.76331997 2.50000000
v 17.87270355 -16.19593811 2.50000000
v 17.58339691 -12.26686001 2.50000000
v 19.30361176 -12.44312954 2.50000000
v 19.30361176 -16.25563049 2.50000000
v 20.72914886 -16.19593811 2.50000000
v 23.34438324 -15.71839809 2.50000000
v 21.00673676 -12.26637173 2.50000000
v 23.85048676 -10.85230923 2.50000000
v 13.57705021 -9.62281704 2.50000000
v 9.30483341 -11.43324184 2.50000000
v 10.08486271 -12.43531704 2.50000000
v 10.95864201 -13.33070278 2.50000000
v 25.64516449 -14.76331997 2.50000000
v 45.07057953 -15.69972134 2.50000000
v 45.14199066 -10.90357876 2.50000000
v 43.05300140 -14.71144009 2.50000000
v 47.31764984 -16.19386292 2.50000000
v 47.94277191 -12.31373501 2.50000000
v 49.62880707 -12.49000454 2.50000000
v 48.52724457 -16.25563049 2.50000000
v 49.98818207 -16.18141174 2.50000000
v 52.58193207 -15.58766079 2.50000000
v 51.31533051 -12.31373501 2.50000000
v 53.71474457 -15.06812954 2.50000000
v 24.99111176 -9.61500454 2.50000000
v 27.63149261 -13.33070278 2.50000000
v 28.50673676 -12.43531704 2.50000000
v 41.26491547 -13.22901821 2.50000000
v 40.45693207 -12.30250454 2.50000000
v 44.02724457 -9.66969204 2.50000000
v 54.74990082 -14.39625454 2.50000000
v 29.29225922 -11.43324184 2.50000000
v 8.05678654 -9.15882778 2.50000000
v 12.66445255 -8.08228970 2.50000000
v 11.62148380 -4.21900892 2.50000000
v 1.05800676 -5.07154799 2.50000000
v 11.49111271 -1.89625478 2.50000000
v 6.75673723 -1.89625478 2.50000000
v 6.96474504 -5.07154799 2.50000000
v 11.62246037 0.42649913 2.50000000
v 6.96474504 1.28782725 2.50000000
v 26.96132660 -4.20973158 2.50000000
v 25.91054535 -8.06910610 2.50000000
v 30.54909515 -9.15882778 2.50000000
v 31.64882660 -5.07154799 2.50000000
v 39.09658051 -10.16676235 2.50000000
v 43.13515472 -8.12623501 2.50000000
v 37.54189301 -4.96363783 2.50000000
v 27.09267426 -1.89625478 2.50000000
v 31.85829926 -1.89625478 2.50000000
v 31.64882660 1.28782725 2.50000000
v 26.96132660 0.40745616 2.50000000
v 42.11562347 -4.23951674 2.50000000
v 37.34755707 -1.89625478 2.50000000
v 41.98818207 -1.89625478 2.50000000
v 42.11562347 0.44700694 2.50000000
v 1.05800676 1.28782725 2.50000000
v 57.29286957 -15.54469204 2.50000000
v 61.78505707 -15.54469204 2.50000000
v 57.29286957 -11.44312954 2.50000000
v 57.16445160 -4.23951674 2.50000000
v 110.93251801 -9.53687954 2.50000000
v 108.56533051 -15.54469204 2.50000000
v 113.86220551 -15.54469204 2.50000000
v 102.68251801 6.86936998 2.50000000
v 54.12001801 -10.90357876 2.50000000
v 56.53896332 -12.58375454 2.50000000
v 55.23818207 -9.66969204 2.50000000
v 133.83633423 -10.85670376 2.50000000
v 130.07485962 -13.33070278 2.50000000
v 132.06118774 -14.76331997 2.50000000
v 132.69326782 -9.62281704 2.50000000
v 129.20108032 -12.43531704 2.50000000
v 134.36587524 -15.71839809 2.50000000
v 96.77626801 -15.54469204 2.50000000
v 94.43251801 -9.53687954 2.50000000
v 91.47158051 -15.54469204 2.50000000
v 136.69961548 -12.26686001 2.50000000
v 136.98892212 -16.19593811 2.50000000
v 138.41983032 -16.25563049 2.50000000
v 138.41983032 -12.44312954 2.50000000
v 139.84536743 -16.19593811 2.50000000
v 162.76065063 -1.13844228 2.50000000
v 158.24502563 -15.54469204 2.50000000
v 162.76065063 -15.54469204 2.50000000
v 142.46060181 -15.71839809 2.50000000
v 140.12295532 -12.26637173 2.50000000
v 142.96670532 -10.85230923 2.50000000
v 144.76138306 -14.76331997 2.50000000
v 146.74771118 -13.33070278 2.50000000
v 183.31729126 -2.19312978 2.50000000
v 178.80166626 -15.54469204 2.50000000
v 183.31729126 -15.54469204 2.50000000
v 187.95791626 -0.99000478 2.50000000
v 197.21572876 -15.54469204 2.50000000
v 203.07510376 -15.54469204 2.50000000
v 144.10733032 -9.61500454 2.50000000
v 147.62295532 -12.43531704 2.50000000
v 56.13710785 -8.12623501 2.50000000
v 127.17299652 -9.15882778 2.50000000
v 128.42105103 -11.43324184 2.50000000
v 131.78067017 -8.08228970 2.50000000
v 84.32314301 11.79905796 2.50000000
v 57.29286957 -1.89625478 2.50000000
v 130.73770142 -4.21900892 2.50000000
v 126.08095551 -5.07154799 2.50000000
v 130.60733032 -1.89625478 2.50000000
v 125.87294769 -1.89625478 2.50000000
v 130.73867798 0.42649913 2.50000000
v 148.40847778 -11.43324184 2.50000000
v 149.66531372 -9.15882778 2.50000000
v 145.02676392 -8.06910610 2.50000000
v 146.07754517 -4.20973158 2.50000000
v 150.76504517 -5.07154799 2.50000000
v 146.20889282 -1.89625478 2.50000000
v 150.97451782 -1.89625478 2.50000000
v 150.76504517 1.28782725 2.50000000
v 146.07754517 0.40745616 2.50000000
v 183.31729126 0.00999522 2.50000000
v 196.72354126 11.79905796 2.50000000
v 158.24502563 11.79905796 2.50000000
v 178.80166626 22.44749451 2.50000000
v 8.05678654 5.37730455 2.50000000
v 12.67324162 4.28978014 2.50000000
v 9.30483341 7.64585924 2.50000000
v 25.91054535 4.25901842 2.50000000
v 29.29225922 7.64585924 2.50000000
v 24.99111176 5.80686998 2.50000000
v 13.59267521 5.83030748 2.50000000
v 10.08486271 8.64280796 2.50000000
v 21.00673676 8.47288609 2.50000000
v 23.85048676 7.05101061 2.50000000
v 23.34438324 11.91917515 2.50000000
v 10.95864201 9.53636265 2.50000000
v 14.73769474 7.06419420 2.50000000
v 17.59316254 8.47435093 2.50000000
v 15.24965763 11.91917515 2.50000000
v 27.63149261 9.53636265 2.50000000
v 30.54909515 5.37730455 2.50000000
v 39.09658051 6.36985826 2.50000000
v 37.54189301 1.17063975 2.50000000
v 43.13515472 4.33372545 2.50000000
v 57.16445160 0.44700694 2.50000000
v 57.29286957 7.65061998 2.50000000
v 56.13710785 4.33372545 2.50000000
v 44.02724457 5.87718248 2.50000000
v 40.45693207 8.50218296 2.50000000
v 28.50673676 8.64280796 2.50000000
v 41.26491547 9.42869663 2.50000000
v 55.23818207 5.87718248 2.50000000
v 56.53896332 8.79075718 2.50000000
v 54.12001801 7.11106920 2.50000000
v 45.14199066 7.11106920 2.50000000
v 25.64516449 10.96605015 2.50000000
v 12.94497013 10.96605015 2.50000000
v 19.30361176 8.65062046 2.50000000
v 17.87270355 12.39573765 2.50000000
v 19.30361176 12.45530796 2.50000000
v 20.72914886 12.39573765 2.50000000
v 43.05300140 10.91111851 2.50000000
v 49.98818207 12.38108921 2.50000000
v 49.62880707 8.69749546 2.50000000
v 51.31533051 8.52122593 2.50000000
v 48.52724457 12.45530796 2.50000000
v 47.94277191 8.52122593 2.50000000
v 53.71474457 11.26780796 2.50000000
v 54.74990082 10.59935093 2.50000000
v 52.58193207 11.78733921 2.50000000
v 47.31764984 12.39354038 2.50000000
v 45.07057953 11.89939976 2.50000000
v 61.78505707 22.44749451 2.50000000
v 57.29286957 22.44749451 2.50000000
v 88.81533051 11.79905796 2.50000000
v 126.08095551 1.28782725 2.50000000
v 127.17299652 5.37730455 2.50000000
v 121.01845551 11.79905796 2.50000000
v 131.78945923 4.28978014 2.50000000
v 145.02676392 4.25901842 2.50000000
v 148.40847778 7.64585924 2.50000000
v 144.10733032 5.80686998 2.50000000
v 128.42105103 7.64585924 2.50000000
v 132.70889282 5.83030748 2.50000000
v 129.20108032 8.64280796 2.50000000
v 130.07485962 9.53636265 2.50000000
v 136.70938110 8.47435093 2.50000000
v 134.36587524 11.91917515 2.50000000
v 133.85391235 7.06419420 2.50000000
v 140.12295532 8.47288609 2.50000000
v 142.96670532 7.05101061 2.50000000
v 142.46060181 11.91917515 2.50000000
v 146.74771118 9.53636265 2.50000000
v 100.01845551 11.79905796 2.50000000
v 149.66531372 5.37730455 2.50000000
v 162.88809204 1.04661632 2.50000000
v 162.76065063 7.54905748 2.50000000
v 163.90762329 4.60520983 2.50000000
v 164.79971313 5.97874498 2.50000000
v 163.52432251 8.71458530 2.50000000
v 165.93008423 7.06224108 2.50000000
v 170.40762329 12.37962437 2.50000000
v 168.85586548 8.30052280 2.50000000
v 170.65127563 8.45530796 2.50000000
v 165.36807251 10.56224155 2.50000000
v 147.62295532 8.64280796 2.50000000
v 173.46963501 7.98265123 2.50000000
v 174.26065063 7.60374498 2.50000000
v 174.23721313 12.21312046 2.50000000
v 171.67666626 8.40257359 2.50000000
v 172.61221313 8.24437046 2.50000000
v 172.45791626 12.43968296 2.50000000
v 105.31533051 11.79905796 2.50000000
v 144.76138306 10.96605015 2.50000000
v 132.06118774 10.96605015 2.50000000
v 138.41983032 8.65062046 2.50000000
v 136.98892212 12.39573765 2.50000000
v 139.84536743 12.39573765 2.50000000
v 116.52626801 11.79905796 2.50000000
v 138.41983032 12.45530796 2.50000000
v 162.76065063 11.79905796 2.50000000
v 166.44815063 11.24437046 2.50000000
v 167.64590454 11.77415562 2.50000000
v 173.58682251 12.32054234 2.50000000
v 171.97158813 12.45530796 2.50000000
v 172.99502563 12.39280796 2.50000000
v 183.31729126 22.44749451 2.50000000
v 202.45791626 11.79905796 2.50000000
f 1 2 3
f 4 1 5
f 6 7 8
f 8 9 10
f 4 7 6
f 11 12 10
f 13 14 15
f 16 13 15
f 5 7 4
f 5 1 3
f 9 11 10
f 2 16 3
f 8 7 9
f 12 11 17
f 18 19 20
f 21 22 23
f 24 25 26
f 17 27 28
f 28 12 17
f 29 30 31
f 22 21 32
f 32 33 34
f 23 22 35
f 36 37 38
f 37 39 38
f 38 40 36
f 37 14 39
f 37 15 14
f 16 15 3
f 41 42 43
f 42 40 43
f 42 36 40
f 44 45 46
f 45 44 41
f 44 42 41
f 18 20 47
f 48 49 50
f 51 52 53
f 54 55 49
f 34 33 55
f 54 49 48
f 34 55 54
f 50 56 48
f 57 58 59
f 58 57 24
f 60 18 47
f 61 50 62
f 31 30 63
f 62 64 61
f 61 56 50
f 57 25 24
f 34 22 32
f 59 58 65
f 35 66 23
f 67 68 69
f 70 71 68
f 72 73 74
f 75 76 77
f 35 67 69
f 67 70 68
f 78 72 74
f 79 70 80
f 79 81 70
f 81 71 70
f 82 79 80
f 69 66 35
f 83 84 85
f 86 87 88
f 88 87 89
f 83 90 86
f 91 92 89
f 93 85 84
f 86 90 87
f 93 94 95
f 96 97 92
f 98 99 100
f 97 96 100
f 91 89 87
f 92 91 96
f 101 102 103
f 90 83 85
f 80 104 82
f 105 75 104
f 75 106 76
f 74 73 107
f 108 76 106
f 75 105 106
f 82 104 75
f 107 73 109
f 108 110 76
f 110 111 76
f 112 103 102
f 113 112 114
f 112 102 114
f 115 116 117
f 118 119 120
f 119 95 120
f 118 117 119
f 95 85 93
f 96 98 100
f 95 94 120
f 121 122 116
f 123 121 124
f 124 121 116
f 116 122 117
f 125 126 127
f 128 129 130
f 131 132 127
f 126 133 98
f 117 118 115
f 132 131 128
f 114 134 113
f 135 46 136
f 46 45 136
f 137 46 135
f 138 139 140
f 60 47 141
f 142 137 143
f 137 135 143
f 142 144 137
f 145 144 146
f 147 148 149
f 149 150 151
f 152 138 148
f 153 150 145
f 141 154 155
f 156 141 155
f 157 158 159
f 159 64 157
f 160 161 65
f 156 60 141
f 161 59 65
f 154 162 163
f 164 165 166
f 162 167 163
f 168 169 160
f 160 170 161
f 159 171 172
f 165 173 168
f 171 159 158
f 174 166 167
f 155 154 163
f 62 157 64
f 142 175 144
f 148 147 152
f 149 151 147
f 152 139 138
f 176 167 162
f 177 167 176
f 146 153 145
f 178 150 153
f 175 146 144
f 141 47 179
f 151 150 178
f 174 167 177
f 169 168 173
f 51 180 52
f 171 181 172
f 172 181 182
f 160 169 170
f 164 173 165
f 183 184 185
f 184 183 186
f 174 164 166
f 172 182 187
f 111 188 189
f 189 190 191
f 192 193 109
f 193 194 109
f 194 107 109
f 195 190 196
f 189 191 111
f 197 193 192
f 198 199 200
f 197 201 202
f 188 111 110
f 202 203 200
f 199 204 205
f 206 134 207
f 206 113 134
f 208 121 123
f 209 208 210
f 211 212 213
f 123 210 208
f 209 210 214
f 206 207 215
f 216 217 209
f 214 216 209
f 218 219 220
f 221 222 217
f 218 223 224
f 225 223 222
f 211 220 212
f 205 226 207
f 227 196 228
f 196 227 195
f 228 196 229
f 76 111 230
f 195 191 190
f 231 202 201
f 192 201 197
f 229 232 233
f 187 234 233
f 196 232 229
f 111 235 230
f 236 109 73
f 233 232 187
f 202 231 237
f 198 200 203
f 204 226 205
f 223 225 238
f 217 216 239
f 226 215 207
f 240 220 219
f 237 203 202
f 199 198 204
f 221 217 239
f 225 222 221
f 223 238 224
f 224 219 218
f 212 220 240
f 241 129 211
f 187 182 234
f 98 133 99
f 242 243 244
f 245 242 246
f 247 248 249
f 248 250 251
f 247 249 245
f 250 252 251
f 253 254 255
f 256 244 243
f 245 246 247
f 244 246 242
f 248 247 250
f 254 253 256
f 252 257 251
f 258 259 260
f 261 258 262
f 263 264 265
f 264 266 267
f 261 262 265
f 268 267 266
f 269 270 271
f 257 252 271
f 272 260 259
f 262 263 265
f 260 262 258
f 263 266 264
f 273 274 272
f 268 266 275
f 276 270 269
f 277 278 255
f 279 278 277
f 271 252 269
f 278 253 255
f 244 256 253
f 127 132 280
f 279 281 282
f 279 277 283
f 284 282 281
f 281 279 283
f 285 284 281
f 127 280 125
f 286 287 288
f 288 276 269
f 286 289 287
f 273 290 274
f 276 288 287
f 274 290 291
f 292 291 290
f 293 294 286
f 295 294 296
f 294 293 296
f 289 286 294
f 292 297 298
f 298 291 292
f 299 298 297
f 299 297 300
f 274 260 272
f 301 132 128
f 302 303 304
f 303 305 304
f 306 307 308
f 308 309 306
f 310 311 275
f 312 303 311
f 313 314 315
f 315 316 317
f 313 318 314
f 319 320 321
f 322 318 313
f 318 322 323
f 324 323 325
f 326 324 325
f 327 328 329
f 330 326 331
f 332 333 330
f 325 331 326
f 332 334 333
f 332 330 331
f 335 336 337
f 338 339 340
f 340 335 338
f 341 342 334
f 323 322 325
f 311 310 312
f 312 343 303
f 344 345 346
f 346 317 316
f 321 309 319
f 346 345 317
f 321 320 347
f 305 348 304
f 303 343 305
f 344 349 350
f 351 350 352
f 350 349 352
f 345 344 350
f 353 351 352
f 332 341 334
f 354 355 356
f 356 355 357
f 354 341 355
f 315 317 313
f 358 356 357
f 359 360 357
f 361 360 362
f 360 359 362
f 358 357 360
f 363 364 338
f 338 335 363
f 363 335 337
f 329 365 327
f 337 366 363
f 341 354 342
f 275 266 310
f 130 129 241
f 367 368 284
f 368 367 369
f 370 371 372
f 367 284 285
f 369 373 368
f 374 373 369
f 375 376 377
f 378 379 373
f 380 379 381
f 377 382 371
f 211 213 241
f 383 370 372
f 384 385 386
f 387 388 389
f 300 386 385
f 295 296 383
f 384 390 391
f 391 385 384
f 372 371 392
f 390 393 391
f 394 395 396
f 394 389 388
f 391 393 397
f 389 394 396
f 304 387 389
f 370 383 296
f 386 300 297
f 374 378 373
f 382 377 398
f 382 392 371
f 379 378 399
f 380 400 401
f 377 376 398
f 379 399 381
f 380 381 400
f 402 401 400
f 403 376 375
f 401 403 375
f 403 401 402
f 397 393 404
f 405 406 407
f 408 407 409
f 410 411 406
f 412 410 406
f 406 411 395
f 395 411 396
f 412 406 405
f 408 409 413
f 407 408 405
f 413 409 414
f 389 415 304
f 416 415 389
f 321 347 417
f 414 397 404
f 414 409 397
f 348 387 304
f 128 130 301
f 418 419 353
f 420 307 306
f 419 421 353
f 422 423 424
f 419 425 421
f 425 426 421
f 425 427 426
f 427 428 426
f 429 430 431
f 432 433 434
f 428 430 426
f 434 435 423
f 309 321 436
f 424 437 422
f 365 438 439
f 439 438 440
f 438 441 442
f 440 438 442
f 361 362 437
f 443 442 441
f 444 445 446
f 447 446 443
f 448 424 423
f 449 450 451
f 452 453 454
f 449 454 450
f 445 444 452
f 422 437 362
f 439 327 365
f 435 448 423
f 309 436 455
f 309 455 306
f 456 434 433
f 434 456 435
f 431 430 457
f 457 430 428
f 429 458 459
f 460 433 432
f 420 306 461
f 429 431 458
f 460 432 459
f 462 460 459
f 458 462 459
f 463 438 365
f 441 447 443
f 446 447 464
f 464 465 446
f 466 450 454
f 444 446 465
f 467 452 444
f 467 453 452
f 468 454 453
f 469 363 366
f 466 454 468
f 338 364 470
f 353 352 418
f 133 126 125
f 471 472 473
f 474 475 471
f 476 477 478
f 477 479 480
f 474 476 478
f 481 479 482
f 483 484 485
f 486 484 483
f 475 474 478
f 475 472 471
f 480 479 481
f 473 472 486
f 477 480 478
f 482 487 481
f 488 489 490
f 491 492 493
f 494 495 496
f 487 497 498
f 497 487 482
f 499 500 501
f 493 502 491
f 502 503 504
f 492 505 493
f 506 507 508
f 508 507 509
f 507 506 510
f 508 509 485
f 508 485 484
f 486 472 484
f 511 512 513
f 513 512 510
f 513 510 506
f 514 515 516
f 516 511 514
f 514 511 513
f 488 517 489
f 518 519 520
f 521 522 523
f 524 520 525
f 503 525 504
f 524 518 520
f 503 524 525
f 519 518 526
f 527 528 529
f 529 494 527
f 530 517 488
f 531 532 519
f 500 533 501
f 532 531 534
f 531 519 526
f 527 494 496
f 503 502 493
f 528 535 529
f 505 492 536
f 537 538 539
f 540 539 541
f 542 543 544
f 545 546 547
f 505 538 537
f 537 539 540
f 548 543 542
f 549 550 540
f 549 540 551
f 551 540 541
f 552 550 549
f 538 505 536
f 553 554 555
f 556 557 558
f 557 559 558
f 553 556 560
f 561 559 562
f 563 555 554
f 556 558 560
f 563 564 565
f 566 562 567
f 568 569 570
f 567 569 566
f 561 558 559
f 562 566 561
f 571 572 573
f 560 554 553
f 550 552 574
f 575 574 545
f 545 547 576
f 543 577 544
f 578 576 547
f 545 576 575
f 552 545 574
f 577 579 544
f 578 547 580
f 580 547 581
f 582 573 572
f 583 584 582
f 582 584 573
f 585 586 587
f 588 589 590
f 590 589 564
f 588 590 586
f 564 563 554
f 566 569 568
f 564 589 565
f 591 587 592
f 593 594 591
f 594 587 591
f 587 586 592
f 595 596 597
f 598 599 600
f 601 596 602
f 597 568 603
f 586 585 588
f 602 598 601
f 584 583 604
f 605 606 515
f 515 606 516
f 607 605 515
f 608 609 610
f 530 611 517
f 612 613 607
f 607 613 605
f 612 607 614
f 615 616 614
f 617 618 619
f 618 620 621
f 622 619 608
f 623 615 621
f 611 624 625
f 626 624 611
f 627 628 629
f 628 627 534
f 630 535 631
f 626 611 530
f 631 535 528
f 625 632 633
f 634 635 636
f 633 632 637
f 638 630 639
f 630 631 640
f 628 641 642
f 636 638 643
f 642 629 628
f 644 637 635
f 624 632 625
f 532 534 627
f 612 614 645
f 619 622 617
f 618 617 620
f 622 608 610
f 646 633 637
f 647 646 637
f 616 615 623
f 648 623 621
f 645 614 616
f 611 649 517
f 620 648 621
f 644 647 637
f 639 643 638
f 521 523 650
f 642 641 651
f 641 652 651
f 630 640 639
f 634 636 643
f 653 654 655
f 655 656 653
f 644 635 634
f 641 657 652
f 581 658 659
f 658 660 661
f 662 579 663
f 663 579 664
f 664 579 577
f 665 666 661
f 658 581 660
f 667 662 663
f 668 669 670
f 667 671 672
f 659 580 581
f 671 669 673
f 670 674 675
f 676 677 604
f 676 604 583
f 678 593 591
f 679 680 678
f 681 682 683
f 593 678 680
f 679 684 680
f 676 685 677
f 686 679 687
f 684 679 686
f 688 689 690
f 691 687 692
f 688 693 694
f 695 692 694
f 681 683 689
f 674 677 696
f 697 698 666
f 666 665 697
f 698 699 666
f 547 700 581
f 665 661 660
f 701 672 671
f 662 667 672
f 699 702 703
f 657 702 704
f 666 699 703
f 581 700 705
f 706 544 579
f 702 657 703
f 671 707 701
f 668 673 669
f 675 674 696
f 694 708 695
f 687 709 686
f 696 677 685
f 710 690 689
f 707 671 673
f 670 675 668
f 691 709 687
f 695 691 692
f 694 693 708
f 693 688 690
f 683 710 689
f 711 681 600
f 657 704 652
f 568 570 603
f 712 713 714
f 715 716 712
f 717 718 719
f 719 720 721
f 717 715 718
f 721 720 722
f 723 724 725
f 726 714 713
f 715 717 716
f 713 712 716
f 719 721 717
f 725 726 723
f 722 720 727
f 728 729 730
f 731 732 728
f 733 734 735
f 735 736 737
f 731 734 732
f 738 737 736
f 739 740 741
f 727 740 722
f 742 730 729
f 732 734 733
f 729 728 732
f 733 735 737
f 743 742 744
f 738 745 737
f 746 739 741
f 747 724 748
f 749 747 748
f 740 739 722
f 748 724 723
f 713 723 726
f 596 750 602
f 749 751 752
f 749 753 747
f 754 752 751
f 752 753 749
f 755 752 754
f 596 595 750
f 756 757 758
f 757 739 746
f 756 758 759
f 743 744 760
f 746 758 757
f 744 761 760
f 762 760 761
f 763 756 764
f 765 766 764
f 764 766 763
f 759 764 756
f 762 767 768
f 767 762 761
f 769 768 767
f 769 770 768
f 744 742 729
f 771 598 602
f 772 773 774
f 774 773 775
f 776 777 778
f 777 776 779
f 780 745 781
f 782 781 774
f 783 784 785
f 784 786 787
f 783 785 788
f 789 790 791
f 792 783 788
f 788 793 792
f 794 795 793
f 796 795 794
f 797 798 799
f 800 801 796
f 802 800 803
f 795 796 801
f 802 803 804
f 802 801 800
f 805 806 807
f 808 809 810
f 809 808 805
f 811 804 812
f 793 795 792
f 781 782 780
f 782 774 813
f 814 815 816
f 815 787 786
f 790 789 779
f 815 786 816
f 790 817 791
f 775 773 818
f 774 775 813
f 814 819 820
f 821 822 819
f 819 822 820
f 816 819 814
f 823 822 821
f 802 804 811
f 824 825 826
f 825 827 826
f 824 826 811
f 784 783 786
f 828 827 825
f 829 827 830
f 831 832 830
f 830 832 829
f 828 830 827
f 833 808 834
f 808 833 805
f 833 806 805
f 798 797 835
f 806 833 836
f 811 812 824
f 745 780 737
f 599 711 600
f 837 754 838
f 838 839 837
f 840 841 842
f 837 755 754
f 839 838 843
f 844 839 843
f 845 846 847
f 848 843 849
f 850 851 849
f 846 842 852
f 681 711 682
f 853 841 840
f 854 855 856
f 857 858 859
f 770 856 855
f 765 853 766
f 854 860 861
f 860 854 856
f 841 862 842
f 861 860 863
f 864 865 866
f 864 859 858
f 860 867 863
f 858 865 864
f 773 858 857
f 840 766 853
f 855 768 770
f 844 843 848
f 852 868 846
f 852 842 862
f 849 869 848
f 850 870 871
f 846 868 847
f 849 851 869
f 850 871 851
f 872 871 870
f 873 845 847
f 870 845 873
f 873 872 870
f 867 874 863
f 875 876 877
f 878 879 876
f 880 877 881
f 882 877 880
f 877 866 881
f 866 865 881
f 882 875 877
f 878 883 879
f 876 875 878
f 883 884 879
f 858 773 885
f 886 858 885
f 790 887 817
f 884 874 867
f 884 867 879
f 818 773 857
f 598 771 599
f 888 823 889
f 890 776 778
f 889 823 891
f 892 893 894
f 889 891 895
f 895 891 896
f 895 896 897
f 897 896 898
f 899 900 901
f 902 903 904
f 898 896 901
f 903 894 905
f 779 906 790
f 893 892 907
f 835 908 909
f 908 910 909
f 909 911 912
f 910 911 909
f 831 907 832
f 913 912 911
f 914 915 916
f 917 913 915
f 918 894 893
f 919 920 921
f 922 923 924
f 919 921 923
f 916 922 914
f 892 832 907
f 908 835 797
f 905 894 918
f 779 925 906
f 779 776 925
f 926 904 903
f 903 905 926
f 900 927 901
f 927 898 901
f 899 928 929
f 930 902 904
f 890 931 776
f 899 929 900
f 930 928 902
f 932 928 930
f 929 928 932
f 933 835 909
f 912 913 917
f 915 934 917
f 934 915 935
f 936 923 921
f 914 935 915
f 937 914 922
f 937 922 924
f 938 924 923
f 939 836 833
f 936 938 923
f 808 940 834
f 823 888 822
f 603 595 597
f 191 195 665
f 191 665 660
f 195 227 697
f 195 697 665
f 227 228 698
f 227 698 697
f 228 229 699
f 228 699 698
f 229 233 702
f 229 702 699
f 233 234 704
f 233 704 702
f 234 182 652
f 234 652 704
f 182 181 651
f 182 651 652
f 181 171 642
f 181 642 651
f 171 158 629
f 171 629 642
f 158 157 627
f 158 627 629
f 157 62 532
f 157 532 627
f 62 50 519
f 62 519 532
f 50 49 520
f 50 520 519
f 49 55 525
f 49 525 520
f 55 33 504
f 55 504 525
f 33 32 502
f 33 502 504
f 32 21 491
f 32 491 502
f 21 23 492
f 21 492 491
f 23 66 536
f 23 536 492
f 66 69 538
f 66 538 536
f 69 68 539
f 69 539 538
f 68 71 541
f 68 541 539
f 71 81 551
f 71 551 541
f 81 79 549
f 81 549 551
f 79 82 552
f 79 552 549
f 82 75 545
f 82 545 552
f 75 77 546
f 75 546 545
f 77 76 547
f 77 547 546
f 76 230 700
f 76 700 547
f 230 235 705
f 230 705 700
f 235 111 581
f 235 581 705
f 111 191 660
f 111 660 581
f 396 411 881
f 396 881 865
f 411 410 880
f 411 880 881
f 410 412 882
f 410 882 880
f 412 405 875
f 412 875 882
f 405 408 878
f 405 878 875
f 408 413 883
f 408 883 878
f 413 414 884
f 413 884 883
f 414 404 874
f 414 874 884
f 404 393 863
f 404 863 874
f 393 390 861
f 393 861 863
f 390 384 854
f 390 854 861
f 384 386 855
f 384 855 854
f 386 297 768
f 386 768 855
f 297 292 762
f 297 762 768
f 292 290 760
f 292 760 762
f 290 273 743
f 290 743 760
f 273 272 742
f 273 742 743
f 272 259 730
f 272 730 742
f 259 258 728
f 259 728 730
f 258 261 731
f 258 731 728
f 261 265 734
f 261 734 731
f 265 264 735
f 265 735 734
f 264 267 736
f 264 736 735
f 267 268 738
f 267 738 736
f 268 275 745
f 268 745 738
f 275 311 781
f 275 781 745
f 311 303 774
f 311 774 781
f 303 302 772
f 303 772 774
f 302 304 773
f 302 773 772
f 304 415 885
f 304 885 773
f 415 416 886
f 415 886 885
f 416 389 858
f 416 858 886
f 389 396 865
f 389 865 858
f 225 221 691
f 225 691 695
f 221 239 709
f 221 709 691
f 239 216 686
f 239 686 709
f 216 214 684
f 216 684 686
f 214 210 680
f 214 680 684
f 210 123 593
f 210 593 680
f 123 124 594
f 123 594 593
f 124 116 587
f 124 587 594
f 116 115 585
f 116 585 587
f 115 118 588
f 115 588 585
f 118 120 589
f 118 589 588
f 120 94 565
f 120 565 589
f 94 93 563
f 94 563 565
f 93 84 555
f 93 555 563
f 84 83 553
f 84 553 555
f 83 86 556
f 83 556 553
f 86 88 557
f 86 557 556
f 88 89 559
f 88 559 557
f 89 92 562
f 89 562 559
f 92 97 567
f 92 567 562
f 97 100 569
f 97 569 567
f 100 99 570
f 100 570 569
f 99 133 603
f 99 603 570
f 133 125 595
f 133 595 603
f 125 280 750
f 125 750 595
f 280 132 602
f 280 602 750
f 132 301 771
f 132 771 602
f 301 130 599
f 301 599 771
f 130 241 711
f 130 711 599
f 241 213 682
f 241 682 711
f 213 212 683
f 213 683 682
f 212 240 710
f 212 710 683
f 240 219 690
f 240 690 710
f 219 224 693
f 219 693 690
f 224 238 708
f 224 708 693
f 238 225 695
f 238 695 708
f 400 381 851
f 400 851 871
f 381 399 869
f 381 869 851
f 399 378 848
f 399 848 869
f 378 374 844
f 378 844 848
f 374 369 839
f 374 839 844
f 369 367 837
f 369 837 839
f 367 285 755
f 367 755 837
f 285 281 752
f 285 752 755
f 281 283 753
f 281 753 752
f 283 277 747
f 283 747 753
f 277 255 724
f 277 724 747
f 255 254 725
f 255 725 724
f 254 256 726
f 254 726 725
f 256 243 714
f 256 714 726
f 243 242 712
f 243 712 714
f 242 245 715
f 242 715 712
f 245 249 718
f 245 718 715
f 249 248 719
f 249 719 718
f 248 251 720
f 248 720 719
f 251 257 727
f 251 727 720
f 257 271 740
f 257 740 727
f 271 270 741
f 271 741 740
f 270 276 746
f 270 746 741
f 276 287 758
f 276 758 746
f 287 289 759
f 287 759 758
f 289 294 764
f 289 764 759
f 294 295 765
f 294 765 764
f 295 383 853
f 295 853 765
f 383 372 841
f 383 841 853
f 372 392 862
f 372 862 841
f 392 382 852
f 392 852 862
f 382 398 868
f 382 868 852
f 398 376 847
f 398 847 868
f 376 403 873
f 376 873 847
f 403 402 872
f 403 872 873
f 402 400 871
f 402 871 872
f 458 431 900
f 458 900 929
f 431 457 927
f 431 927 900
f 457 428 898
f 457 898 927
f 428 427 897
f 428 897 898
f 427 425 895
f 427 895 897
f 425 419 889
f 425 889 895
f 419 418 888
f 419 888 889
f 418 352 822
f 418 822 888
f 352 349 820
f 352 820 822
f 349 344 814
f 349 814 820
f 344 346 815
f 344 815 814
f 346 316 787
f 346 787 815
f 316 315 784
f 316 784 787
f 315 314 785
f 315 785 784
f 314 318 788
f 314 788 785
f 318 323 793
f 318 793 788
f 323 324 794
f 323 794 793
f 324 326 796
f 324 796 794
f 326 330 800
f 326 800 796
f 330 333 803
f 330 803 800
f 333 334 804
f 333 804 803
f 334 342 812
f 334 812 804
f 342 354 824
f 342 824 812
f 354 356 825
f 354 825 824
f 356 358 828
f 356 828 825
f 358 360 830
f 358 830 828
f 360 361 831
f 360 831 830
f 361 437 907
f 361 907 831
f 437 424 893
f 437 893 907
f 424 448 918
f 424 918 893
f 448 435 905
f 448 905 918
f 435 456 926
f 435 926 905
f 456 433 904
f 456 904 926
f 433 460 930
f 433 930 904
f 460 462 932
f 460 932 930
f 462 458 929
f 462 929 932
f 320 319 789
f 320 789 791
f 319 309 779
f 319 779 789
f 309 308 777
f 309 777 779
f 308 307 778
f 308 778 777
f 307 420 890
f 307 890 778
f 420 461 931
f 420 931 890
f 461 306 776
f 461 776 931
f 306 455 925
f 306 925 776
f 455 436 906
f 455 906 925
f 436 321 790
f 436 790 906
f 321 417 887
f 321 887 790
f 417 347 817
f 417 817 887
f 347 320 791
f 347 791 817
f 59 161 631
f 59 631 528
f 161 170 640
f 161 640 631
f 170 169 639
f 170 639 640
f 169 173 643
f 169 643 639
f 173 164 634
f 173 634 643
f 164 174 644
f 164 644 634
f 174 177 647
f 174 647 644
f 177 176 646
f 177 646 647
f 176 162 633
f 176 633 646
f 162 154 625
f 162 625 633
f 154 141 611
f 154 611 625
f 141 179 649
f 141 649 611
f 179 47 517
f 179 517 649
f 47 20 489
f 47 489 517
f 20 19 490
f 20 490 489
f 19 18 488
f 19 488 490
f 18 60 530
f 18 530 488
f 60 156 626
f 60 626 530
f 156 155 624
f 156 624 626
f 155 163 632
f 155 632 624
f 163 167 637
f 163 637 632
f 167 166 635
f 167 635 637
f 166 165 636
f 166 636 635
f 165 168 638
f 165 638 636
f 168 160 630
f 168 630 638
f 160 65 535
f 160 535 630
f 65 58 529
f 65 529 535
f 58 24 494
f 58 494 529
f 24 26 495
f 24 495 494
f 26 25 496
f 26 496 495
f 25 57 527
f 25 527 496
f 57 59 528
f 57 528 527
f 113 206 676
f 113 676 583
f 206 215 685
f 206 685 676
f 215 226 696
f 215 696 685
f 226 204 675
f 226 675 696
f 204 198 668
f 204 668 675
f 198 203 673
f 198 673 668
f 203 237 707
f 203 707 673
f 237 231 701
f 237 701 707
f 231 201 672
f 231 672 701
f 201 192 662
f 201 662 672
f 192 109 579
f 192 579 662
f 109 236 706
f 109 706 579
f 236 73 544
f 236 544 706
f 73 72 542
f 73 542 544
f 72 78 548
f 72 548 542
f 78 74 543
f 78 543 548
f 74 107 577
f 74 577 543
f 107 194 664
f 107 664 577
f 194 193 663
f 194 663 664
f 193 197 667
f 193 667 663
f 197 202 671
f 197 671 667
f 202 200 669
f 202 669 671
f 200 199 670
f 200 670 669
f 199 205 674
f 199 674 670
f 205 207 677
f 205 677 674
f 207 134 604
f 207 604 677
f 134 114 584
f 134 584 604
f 114 102 573
f 114 573 584
f 102 101 571
f 102 571 573
f 101 103 572
f 101 572 571
f 103 112 582
f 103 582 572
f 112 113 583
f 112 583 582
f 337 336 807
f 337 807 806
f 336 335 805
f 336 805 807
f 335 340 809
f 335 809 805
f 340 339 810
f 340 810 809
f 339 338 808
f 339 808 810
f 338 470 940
f 338 940 808
f 470 364 834
f 470 834 940
f 364 363 833
f 364 833 834
f 363 469 939
f 363 939 833
f 469 366 836
f 469 836 939
f 366 337 806
f 366 806 836
f 218 220 689
f 218 689 688
f 220 211 681
f 220 681 689
f 211 129 600
f 211 600 681
f 129 128 598
f 129 598 600
f 128 131 601
f 128 601 598
f 131 127 596
f 131 596 601
f 127 126 597
f 127 597 596
f 126 98 568
f 126 568 597
f 98 96 566
f 98 566 568
f 96 91 561
f 96 561 566
f 91 87 558
f 91 558 561
f 87 90 560
f 87 560 558
f 90 85 554
f 90 554 560
f 85 95 564
f 85 564 554
f 95 119 590
f 95 590 564
f 119 117 586
f 119 586 590
f 117 122 592
f 117 592 586
f 122 121 591
f 122 591 592
f 121 208 678
f 121 678 591
f 208 209 679
f 208 679 678
f 209 217 687
f 209 687 679
f 217 222 692
f 217 692 687
f 222 223 694
f 222 694 692
f 223 218 688
f 223 688 694
f 375 377 846
f 375 846 845
f 377 371 842
f 377 842 846
f 371 370 840
f 371 840 842
f 370 296 766
f 370 766 840
f 296 293 763
f 296 763 766
f 293 286 756
f 293 756 763
f 286 288 757
f 286 757 756
f 288 269 739
f 288 739 757
f 269 252 722
f 269 722 739
f 252 250 721
f 252 721 722
f 250 247 717
f 250 717 721
f 247 246 716
f 247 716 717
f 246 244 713
f 246 713 716
f 244 253 723
f 244 723 713
f 253 278 748
f 253 748 723
f 278 279 749
f 278 749 748
f 279 282 751
f 279 751 749
f 282 284 754
f 282 754 751
f 284 368 838
f 284 838 754
f 368 373 843
f 368 843 838
f 373 379 849
f 373 849 843
f 379 380 850
f 379 850 849
f 380 401 870
f 380 870 850
f 401 375 845
f 401 845 870
f 432 434 903
f 432 903 902
f 434 423 894
f 434 894 903
f 423 422 892
f 423 892 894
f 422 362 832
f 422 832 892
f 362 359 829
f 362 829 832
f 359 357 827
f 359 827 829
f 357 355 826
f 357 826 827
f 355 341 811
f 355 811 826
f 341 332 802
f 341 802 811
f 332 331 801
f 332 801 802
f 331 325 795
f 331 795 801
f 325 322 792
f 325 792 795
f 322 313 783
f 322 783 792
f 313 317 786
f 313 786 783
f 317 345 816
f 317 816 786
f 345 350 819
f 345 819 816
f 350 351 821
f 350 821 819
f 351 353 823
f 351 823 821
f 353 421 891
f 353 891 823
f 421 426 896
f 421 896 891
f 426 430 901
f 426 901 896
f 430 429 899
f 430 899 901
f 429 459 928
f 429 928 899
f 459 432 902
f 459 902 928
f 61 64 534
f 61 534 531
f 64 159 628
f 64 628 534
f 159 172 641
f 159 641 628
f 172 187 657
f 172 657 641
f 187 232 703
f 187 703 657
f 232 196 666
f 232 666 703
f 196 190 661
f 196 661 666
f 190 189 658
f 190 658 661
f 189 188 659
f 189 659 658
f 188 110 580
f 188 580 659
f 110 108 578
f 110 578 580
f 108 106 576
f 108 576 578
f 106 105 575
f 106 575 576
f 105 104 574
f 105 574 575
f 104 80 550
f 104 550 574
f 80 70 540
f 80 540 550
f 70 67 537
f 70 537 540
f 67 35 505
f 67 505 537
f 35 22 493
f 35 493 505
f 22 34 503
f 22 503 493
f 34 54 524
f 34 524 503
f 54 48 518
f 54 518 524
f 48 56 526
f 48 526 518
f 56 61 531
f 56 531 526
f 300 385 856
f 300 856 770
f 385 391 860
f 385 860 856
f 391 397 867
f 391 867 860
f 397 409 879
f 397 879 867
f 409 407 876
f 409 876 879
f 407 406 877
f 407 877 876
f 406 395 866
f 406 866 877
f 395 394 864
f 395 864 866
f 394 388 859
f 394 859 864
f 388 387 857
f 388 857 859
f 387 348 818
f 387 818 857
f 348 305 775
f 348 775 818
f 305 343 813
f 305 813 775
f 343 312 782
f 343 782 813
f 312 310 780
f 312 780 782
f 310 266 737
f 310 737 780
f 266 263 733
f 266 733 737
f 263 262 732
f 263 732 733
f 262 260 729
f 262 729 732
f 260 274 744
f 260 744 729
f 274 291 761
f 274 761 744
f 291 298 767
f 291 767 761
f 298 299 769
f 298 769 767
f 299 300 770
f 299 770 769
f 152 147 617
f 152 617 622
f 147 151 620
f 147 620 617
f 151 178 648
f 151 648 620
f 178 153 623
f 178 623 648
f 153 146 616
f 153 616 623
f 146 175 645
f 146 645 616
f 175 142 612
f 175 612 645
f 142 143 613
f 142 613 612
f 143 135 605
f 143 605 613
f 135 136 606
f 135 606 605
f 136 45 516
f 136 516 606
f 45 41 511
f 45 511 516
f 41 43 512
f 41 512 511
f 43 40 510
f 43 510 512
f 40 38 507
f 40 507 510
f 38 39 509
f 38 509 507
f 39 14 485
f 39 485 509
f 14 13 483
f 14 483 485
f 13 16 486
f 13 486 483
f 16 2 473
f 16 473 486
f 2 1 471
f 2 471 473
f 1 4 474
f 1 474 471
f 4 6 476
f 4 476 474
f 6 8 477
f 6 477 476
f 8 10 479
f 8 479 477
f 10 12 482
f 10 482 479
f 12 28 497
f 12 497 482
f 28 27 498
f 28 498 497
f 27 17 487
f 27 487 498
f 17 11 481
f 17 481 487
f 11 9 480
f 11 480 481
f 9 7 478
f 9 478 480
f 7 5 475
f 7 475 478
f 5 3 472
f 5 472 475
f 3 15 484
f 3 484 472
f 15 37 508
f 15 508 484
f 37 36 506
f 37 506 508
f 36 42 513
f 36 513 506
f 42 44 514
f 42 514 513
f 44 46 515
f 44 515 514
f 46 137 607
f 46 607 515
f 137 144 614
f 137 614 607
f 144 145 615
f 144 615 614
f 145 150 621
f 145 621 615
f 150 149 618
f 150 618 621
f 149 148 619
f 149 619 618
f 148 138 608
f 148 608 619
f 138 140 609
f 138 609 608
f 140 139 610
f 140 610 609
f 139 152 622
f 139 622 610
f 450 466 936
f 450 936 921
f 466 468 938
f 466 938 936
f 468 453 924
f 468 924 938
f 453 467 937
f 453 937 924
f 467 444 914
f 467 914 937
f 444 465 935
f 444 935 914
f 465 464 934
f 465 934 935
f 464 447 917
f 464 917 934
f 447 441 912
f 447 912 917
f 441 438 909
f 441 909 912
f 438 463 933
f 438 933 909
f 463 365 835
f 463 835 933
f 365 329 798
f 365 798 835
f 329 328 799
f 329 799 798
f 328 327 797
f 328 797 799
f 327 439 908
f 327 908 797
f 439 440 910
f 439 910 908
f 440 442 911
f 440 911 910
f 442 443 913
f 442 913 911
f 443 446 915
f 443 915 913
f 446 445 916
f 446 916 915
f 445 452 922
f 445 922 916
f 452 454 923
f 452 923 922
f 454 449 919
f 454 919 923
f 449 451 920
f 449 920 919
f 451 450 921
f 451 921 920
f 53 52 523
f 53 523 522
f 52 180 650
f 52 650 523
f 180 51 521
f 180 521 650
f 51 53 522
f 51 522 521
f 29 31 500
f 29 500 499
f 31 63 533
f 31 533 500
f 63 30 501
f 63 501 533
f 30 29 499
f 30 499 501
f 185 184 655
f 185 655 654
f 184 186 656
f 184 656 655
f 186 183 653
f 186 653 656
f 183 185 654
f 183 654 653

