# https://github.com/mikedh/trimesh
v -190.56423950 -12.28172684 -2.50000000
v -191.18936157 -16.16185379 -2.50000000
v -193.43643188 -15.66771317 -2.50000000
v -195.45401001 -14.67943192 -2.50000000
v -193.36502075 -10.87157059 -2.50000000
v -189.97976685 -16.22362137 -2.50000000
v -187.19168091 -12.28172684 -2.50000000
v -185.92507935 -15.55565262 -2.50000000
v -188.51882935 -16.14940262 -2.50000000
v -181.21414185 -11.41112137 -2.50000000
v -176.72195435 -15.51268387 -2.50000000
v -181.21414185 -15.51268387 -2.50000000
v -188.87820435 -12.45799637 -2.50000000
v -184.79226685 -15.03612137 -2.50000000
v -197.24209595 -13.19701004 -2.50000000
v -198.05007935 -12.27049637 -2.50000000
v -194.47976685 -9.63768387 -2.50000000
v -184.38699341 -10.87157059 -2.50000000
v -183.75711060 -14.36424637 -2.50000000
v -181.96804810 -12.55174637 -2.50000000
v -183.26882935 -9.63768387 -2.50000000
v -160.24575806 -15.67760086 -2.50000000
v -157.54129028 -12.23826981 -2.50000000
v -157.47329712 -16.16295242 -2.50000000
v -153.76101685 -16.11229324 -2.50000000
v -155.96804810 -16.22362137 -2.50000000
v -155.47586060 -12.41112137 -2.50000000
v -153.53250122 -12.28026199 -2.50000000
v -151.68679810 -15.77830887 -2.50000000
v -119.74050140 -0.05955884 -2.50000000
v -119.74050140 -15.51268387 -2.50000000
v -124.25612640 -15.51268387 -2.50000000
v -160.93972778 -10.85545731 -2.50000000
v -162.70083618 -14.70689774 -2.50000000
v -164.83853149 -13.25084305 -2.50000000
v -165.78836060 -12.34080887 -2.50000000
v -162.27273560 -9.64549637 -2.50000000
v -149.69656372 -11.23143387 -2.50000000
v -149.70437622 -15.23143387 -2.50000000
v -151.60867310 -11.88768387 -2.50000000
v -147.78836060 -14.46580887 -2.50000000
v -88.84987640 -15.51268387 -2.50000000
v -88.84987640 0.84669113 -2.50000000
v -84.33425140 -15.51268387 -2.50000000
v -102.03737640 -0.05955884 -2.50000000
v -102.03737640 -15.51268387 -2.50000000
v -106.55300140 -15.51268387 -2.50000000
v -199.41043091 -10.13475418 -2.50000000
v -200.96511841 -4.93162918 -2.50000000
v -195.37185669 -8.09422684 -2.50000000
v -201.15945435 -1.86424637 -2.50000000
v -196.39138794 -4.20750809 -2.50000000
v -181.34255981 -4.20750809 -2.50000000
v -182.36990356 -8.09422684 -2.50000000
v -196.39138794 0.47901538 -2.50000000
v -196.51882935 -1.86424637 -2.50000000
v -195.37185669 4.36573410 -2.50000000
v -200.96511841 1.20264816 -2.50000000
v -181.21414185 -1.86424637 -2.50000000
v -181.34255981 0.47901538 -2.50000000
v -169.36441040 -3.47032547 -2.50000000
v -169.42117310 -1.86424637 -2.50000000
v -164.68679810 -1.86424637 -2.50000000
v -168.00210571 -9.04747391 -2.50000000
v -163.32888794 -8.11912918 -2.50000000
v -166.63980103 -11.32774734 -2.50000000
v -164.53591919 -4.22850418 -2.50000000
v -168.91030884 -6.42833328 -2.50000000
v -147.78836060 -10.30955887 -2.50000000
v -106.55300140 0.84669113 -2.50000000
v -169.36380005 -0.23704907 -2.50000000
v -164.53591919 0.49952319 -2.50000000
v -124.25612640 11.83106613 -2.50000000
v -101.91091156 1.83839035 -2.50000000
v -84.33425140 0.99512863 -2.50000000
v -168.90481567 2.74927902 -2.50000000
v -77.12331390 -5.03953934 -2.50000000
v -77.33132172 -1.86424637 -2.50000000
v -72.46657562 -4.18700027 -2.50000000
v -88.93727875 2.68458176 -2.50000000
v -68.83840179 -15.68638992 -2.50000000
v -71.14308929 -14.73131180 -2.50000000
v -69.36794281 -10.82469559 -2.50000000
v -73.12941742 -13.29869461 -2.50000000
v -66.50466156 -12.23485184 -2.50000000
v -66.21535492 -16.16392899 -2.50000000
v -64.78444672 -12.41112137 -2.50000000
v -63.35891342 -16.16392899 -2.50000000
v -64.78444672 -16.22362137 -2.50000000
v -63.08132553 -12.23436356 -2.50000000
v -60.23757553 -10.82030106 -2.50000000
v -60.74367905 -15.68638992 -2.50000000
v -74.00319672 -12.40330887 -2.50000000
v -70.51100922 -9.59080887 -2.50000000
v -74.78322601 -11.40123367 -2.50000000
v -55.58132553 -12.40330887 -2.50000000
v -56.45656967 -13.29869461 -2.50000000
v -59.09695053 -9.58299637 -2.50000000
v -58.44289780 -14.73131180 -2.50000000
v -54.79580307 -11.40123367 -2.50000000
v -43.74587631 -12.40379715 -2.50000000
v -39.82790756 -10.17576981 -2.50000000
v -42.88113022 -13.57518387 -2.50000000
v -38.10134506 -15.39159012 -2.50000000
v -36.98904037 -11.69530106 -2.50000000
v -35.70144272 -15.51268387 -2.50000000
v -31.09206772 -11.75487137 -2.50000000
v -31.09206772 -15.51268387 -2.50000000
v -18.64309311 -15.68638992 -2.50000000
v -16.30935287 -12.23485184 -2.50000000
v -16.02004623 -16.16392899 -2.50000000
v -14.58913708 -16.22362137 -2.50000000
v -14.58913708 -12.41112137 -2.50000000
v -13.16359997 -16.16392899 -2.50000000
v -20.94778061 -14.73131180 -2.50000000
v -19.17263412 -10.82469559 -2.50000000
v -12.88601208 -12.23436356 -2.50000000
v -10.54836559 -15.68638992 -2.50000000
v -35.70144272 -11.75487137 -2.50000000
v -41.69118881 -14.42284012 -2.50000000
v -38.85232162 -11.21873856 -2.50000000
v -39.42800522 -10.80174637 -2.50000000
v -22.93410873 -13.29869461 -2.50000000
v -10.04226208 -10.82030106 -2.50000000
v -8.24758434 -14.73131180 -2.50000000
v -23.80788803 -12.40330887 -2.50000000
v -20.31570053 -9.59080887 -2.50000000
v -71.42360687 -8.05028152 -2.50000000
v -76.03127289 -9.12681961 -2.50000000
v -57.12673569 -4.17772293 -2.50000000
v -53.53896713 -9.12681961 -2.50000000
v -58.17751694 -8.03709793 -2.50000000
v -77.12331390 1.31983566 -2.50000000
v -72.46559906 0.45850757 -2.50000000
v -72.59694672 -1.86424637 -2.50000000
v -76.03127289 5.40931320 -2.50000000
v -56.99538803 -1.86424637 -2.50000000
v -52.22976303 -1.86424637 -2.50000000
v -52.43923569 -5.03953934 -2.50000000
v -57.12673569 0.43946460 -2.50000000
v -52.43923569 1.31983566 -2.50000000
v -53.53896713 5.40931320 -2.50000000
v -44.73415756 -8.86864090 -2.50000000
v -24.58791733 -11.40123367 -2.50000000
v -6.26125669 -13.29869461 -2.50000000
v -8.90163708 -9.58299637 -2.50000000
v -21.22829819 -8.05028152 -2.50000000
v -25.83596420 -9.12681961 -2.50000000
v -40.28493881 -8.02733231 -2.50000000
v -44.85769272 -6.50487137 -2.50000000
v -40.34206772 -6.50487137 -2.50000000
v -27.13601303 -1.86424637 -2.50000000
v -22.27126694 -4.18700027 -2.50000000
v -26.92800522 -5.03953934 -2.50000000
v -22.40163803 -1.86424637 -2.50000000
v -22.27029037 0.45850757 -2.50000000
v -40.34206772 8.33887863 -2.50000000
v -7.98220396 -8.03709793 -2.50000000
v -4.60049009 -11.40123367 -2.50000000
v -26.92800522 1.31983566 -2.50000000
v -199.41043091 6.40186691 -2.50000000
v -194.47976685 5.90919113 -2.50000000
v -198.05007935 8.53419113 -2.50000000
v -182.36990356 4.36573410 -2.50000000
v -181.21414185 7.68262863 -2.50000000
v -166.60989380 7.64966965 -2.50000000
v -163.32888794 4.38624191 -2.50000000
v -167.98684692 5.37818527 -2.50000000
v -183.26882935 5.90919113 -2.50000000
v -162.27273560 5.90919113 -2.50000000
v -193.36502075 7.14307785 -2.50000000
v -197.24209595 9.46070480 -2.50000000
v -193.43643188 11.93140793 -2.50000000
v -190.56423950 8.55323410 -2.50000000
v -176.72195435 22.47950363 -2.50000000
v -184.38699341 7.14307785 -2.50000000
v -181.96804810 8.82276535 -2.50000000
v -164.78689575 9.55042648 -2.50000000
v -160.93972778 7.12257004 -2.50000000
v -187.19168091 8.55323410 -2.50000000
v -183.75711060 10.63135910 -2.50000000
v -165.74929810 8.65137863 -2.50000000
v -160.08767700 11.94788742 -2.50000000
v -157.54129028 8.50928879 -2.50000000
v -117.71706390 6.25294113 -2.50000000
v -118.60231781 4.98536301 -2.50000000
v -119.74050140 7.58106613 -2.50000000
v -119.61403656 1.82911301 -2.50000000
v -106.63991547 2.69434738 -2.50000000
v -102.79518890 6.58106613 -2.50000000
v -103.36306000 7.93653488 -2.50000000
v -107.33522797 5.61622238 -2.50000000
v -107.94362640 6.69044113 -2.50000000
v -101.91042328 7.99708176 -2.50000000
v -100.01393890 6.26075363 -2.50000000
v -149.69656372 7.50294113 -2.50000000
v -147.78836060 10.78419113 -2.50000000
v -147.78836060 6.58106613 -2.50000000
v -118.93288422 8.75635910 -2.50000000
v -151.62429810 12.05762863 -2.50000000
v -151.60867310 8.15919113 -2.50000000
v -153.53250122 8.55176926 -2.50000000
v -149.67703247 11.52833176 -2.50000000
v -116.61306000 7.27149582 -2.50000000
v -110.88210297 8.46290207 -2.50000000
v -109.51540375 12.39258957 -2.50000000
v -108.73366547 7.51758957 -2.50000000
v -104.90602875 10.13184738 -2.50000000
v -113.87477875 8.43555832 -2.50000000
v -117.08913422 10.61182785 -2.50000000
v -100.89919281 4.99854660 -2.50000000
v -195.45401001 10.94312668 -2.50000000
v -189.97976685 12.48731613 -2.50000000
v -188.87820435 8.72950363 -2.50000000
v -188.51882935 12.41309738 -2.50000000
v -185.92507935 11.81934738 -2.50000000
v -184.79226685 11.29981613 -2.50000000
v -181.21414185 22.47950363 -2.50000000
v -162.60720825 10.98890305 -2.50000000
v -191.18936157 12.42554855 -2.50000000
v -157.22830200 12.42737961 -2.50000000
v -153.62429810 12.37989426 -2.50000000
v -105.88112640 10.97169113 -2.50000000
v -106.98024750 11.63477707 -2.50000000
v -116.05300140 11.29200363 -2.50000000
v -114.92848969 11.81495285 -2.50000000
v -155.47586060 8.68262863 -2.50000000
v -119.74050140 11.83106613 -2.50000000
v -155.67117310 12.48731613 -2.50000000
v -112.37770844 12.41260910 -2.50000000
v -110.95143890 12.48731613 -2.50000000
v -112.24050140 8.58106613 -2.50000000
v -90.24831390 6.67481613 -2.50000000
v -85.63942719 7.84473801 -2.50000000
v -89.63649750 5.59864426 -2.50000000
v -98.90700531 7.27589035 -2.50000000
v -84.47927094 3.59473801 -2.50000000
v -74.78322601 7.67786789 -2.50000000
v -71.41481781 4.32178879 -2.50000000
v -70.49538422 5.86231613 -2.50000000
v -93.15602875 8.46192551 -2.50000000
v -91.23366547 12.30030441 -2.50000000
v -91.03493500 7.50880051 -2.50000000
v -98.76393890 11.04981613 -2.50000000
v -96.14528656 8.43604660 -2.50000000
v -69.35036469 7.09620285 -2.50000000
v -73.12941742 9.56837082 -2.50000000
v -86.65456390 9.49512863 -2.50000000
v -87.93679047 10.80421066 -2.50000000
v -74.00319672 8.67481613 -2.50000000
v -68.83840179 11.95118332 -2.50000000
v -66.49489594 8.50635910 -2.50000000
v -99.89479828 10.23145676 -2.50000000
v -58.17751694 4.29102707 -2.50000000
v -54.79580307 7.67786789 -2.50000000
v -59.09695053 5.83887863 -2.50000000
v -25.83596420 5.40931320 -2.50000000
v -21.21950912 4.32178879 -2.50000000
v -24.58791733 7.67786789 -2.50000000
v -10.04226208 7.08301926 -2.50000000
v -6.26125669 9.56837082 -2.50000000
v -8.90163708 5.83887863 -2.50000000
v -20.30007553 5.86231613 -2.50000000
v -63.08132553 8.50489426 -2.50000000
v -60.74367905 11.95118332 -2.50000000
v -60.23757553 7.08301926 -2.50000000
v -56.45656967 9.56837082 -2.50000000
v -48.15456772 8.33887863 -2.50000000
v -44.85769272 11.83106613 -2.50000000
v -44.85769272 8.33887863 -2.50000000
v -40.34206772 11.83106613 -2.50000000
v -55.58132553 8.67481613 -2.50000000
v -23.80788803 8.67481613 -2.50000000
v -22.93410873 9.56837082 -2.50000000
v -19.15505600 7.09620285 -2.50000000
v -31.09206772 11.83106613 -2.50000000
v -31.09206772 8.33887863 -2.50000000
v -12.88601208 8.50489426 -2.50000000
v -10.54836559 11.95118332 -2.50000000
v -8.24758434 10.99805832 -2.50000000
v -93.24831390 12.48731613 -2.50000000
v -94.49050140 8.58106613 -2.50000000
v -94.78249359 12.39747238 -2.50000000
v -71.14308929 10.99805832 -2.50000000
v -63.35891342 12.42774582 -2.50000000
v -58.44289780 10.99805832 -2.50000000
v -66.21535492 12.42774582 -2.50000000
v -64.78444672 8.68262863 -2.50000000
v -97.54030609 11.67872238 -2.50000000
v -64.78444672 12.48731613 -2.50000000
v -20.94778061 10.99805832 -2.50000000
v -18.64309311 11.95118332 -2.50000000
v -14.58913708 8.68262863 -2.50000000
v -16.29958725 8.50635910 -2.50000000
v -16.02004623 12.42774582 -2.50000000
v -13.16359997 12.42774582 -2.50000000
v -40.34206772 19.59669113 -2.50000000
v -48.15456772 11.83106613 -2.50000000
v -44.85769272 19.59669113 -2.50000000
v -14.58913708 12.48731613 -2.50000000
v -4.60049009 7.67786789 -2.50000000
v -7.98220396 4.29102707 -2.50000000
v 49.08041763 -15.67760086 -2.50000000
v 51.78488541 -12.23826981 -2.50000000
v 51.85287857 -16.16295242 -2.50000000
v 53.85031509 -12.41112137 -2.50000000
v 55.56515884 -16.11229324 -2.50000000
v 53.35812759 -16.22362137 -2.50000000
v 46.62533951 -14.70689774 -2.50000000
v 48.38644791 -10.85545731 -2.50000000
v 55.79367447 -12.28026199 -2.50000000
v 57.63937759 -15.77830887 -2.50000000
v 5.23605776 -15.51268387 -2.50000000
v 9.75168324 -1.10643387 -2.50000000
v 9.75168324 -15.51268387 -2.50000000
v 42.68637466 -11.32774734 -2.50000000
v 47.05344009 -9.64549637 -2.50000000
v 43.53781509 -12.34080887 -2.50000000
v -5.38601255 -12.40330887 -2.50000000
v 44.48764420 -13.25084305 -2.50000000
v 57.71750259 -11.88768387 -2.50000000
v -3.34365416 -9.12681961 -2.50000000
v 73.58347321 -14.73131180 -2.50000000
v 75.35861969 -10.82469559 -2.50000000
v 75.88816071 -15.68638992 -2.50000000
v 59.62179947 -15.23143387 -2.50000000
v 59.62961197 -11.23143387 -2.50000000
v 61.53781509 -14.46580887 -2.50000000
v 79.94211578 -12.41112137 -2.50000000
v 79.94211578 -16.22362137 -2.50000000
v 78.51120758 -16.16392899 -2.50000000
v 81.64524078 -12.23436356 -2.50000000
v 83.98288727 -15.68638992 -2.50000000
v 81.36765289 -16.16392899 -2.50000000
v 78.22190094 -12.23485184 -2.50000000
v 84.48899078 -10.82030106 -2.50000000
v 74.21555328 -9.59080887 -2.50000000
v 70.72336578 -12.40330887 -2.50000000
v 69.94333649 -11.40123367 -2.50000000
v 61.53781509 -10.30955887 -2.50000000
v 71.59714508 -13.29869461 -2.50000000
v 88.26999664 -13.29869461 -2.50000000
v 86.28366852 -14.73131180 -2.50000000
v -6.93142271 -4.17772293 -2.50000000
v -2.24392271 -5.03953934 -2.50000000
v -2.03445005 -1.86424637 -2.50000000
v -6.80007505 -1.86424637 -2.50000000
v 44.79025650 -4.22850418 -2.50000000
v 45.99728775 -8.11912918 -2.50000000
v 40.41586685 -6.42833328 -2.50000000
v 39.96176529 -3.47032547 -2.50000000
v 44.63937759 -1.86424637 -2.50000000
v 41.32406998 -9.04747391 -2.50000000
v 5.23605776 11.83106613 -2.50000000
v -6.93142271 0.43946460 -2.50000000
v -2.24392271 1.31983566 -2.50000000
v 9.75168324 7.58106613 -2.50000000
v 9.87912464 1.07862473 -2.50000000
v -3.34365416 5.40931320 -2.50000000
v 39.90500259 -1.86424637 -2.50000000
v 39.96237564 -0.23704907 -2.50000000
v 40.42136002 2.74927902 -2.50000000
v 44.79025650 0.49952319 -2.50000000
v 45.99728775 4.38624191 -2.50000000
v 73.30295563 -8.05028152 -2.50000000
v 89.93076324 -11.40123367 -2.50000000
v 85.62961578 -9.58299637 -2.50000000
v 86.54904938 -8.03709793 -2.50000000
v 68.69528961 -9.12681961 -2.50000000
v 72.25998688 -4.18700027 -2.50000000
v 67.60324860 -5.03953934 -2.50000000
v 67.39524078 -1.86424637 -2.50000000
v 67.60324860 1.31983566 -2.50000000
v 72.26096344 0.45850757 -2.50000000
v 72.12961578 -1.86424637 -2.50000000
v 92.49680328 -1.86424637 -2.50000000
v 87.59983063 -4.17772293 -2.50000000
v 87.73117828 -1.86424637 -2.50000000
v 91.18759918 5.40931320 -2.50000000
v 87.59983063 0.43946460 -2.50000000
v 86.54904938 4.29102707 -2.50000000
v 68.69528961 5.40931320 -2.50000000
v 91.18759918 -9.12681961 -2.50000000
v 89.14524078 -12.40330887 -2.50000000
v 122.67356110 -15.51268387 -2.50000000
v 118.18137360 -15.51268387 -2.50000000
v 118.18137360 0.84669113 -2.50000000
v 104.28293610 -15.51268387 -2.50000000
v 99.76731110 -15.51268387 -2.50000000
v 104.28293610 -0.05955884 -2.50000000
v 138.31466675 -15.39159012 -2.50000000
v 139.42697144 -11.69530106 -2.50000000
v 140.71456909 -15.51268387 -2.50000000
v 145.32394409 -11.75487137 -2.50000000
v 145.32394409 -15.51268387 -2.50000000
v 151.06124878 11.83106613 -2.50000000
v 155.57687378 -1.10643387 -2.50000000
v 151.06124878 -15.51268387 -2.50000000
v 136.58810425 -10.17576981 -2.50000000
v 133.53488159 -13.57518387 -2.50000000
v 132.67013550 -12.40379715 -2.50000000
v 137.56369019 -11.21873856 -2.50000000
v 140.71456909 -11.75487137 -2.50000000
v 134.72482300 -14.42284012 -2.50000000
v 136.98800659 -10.80174637 -2.50000000
v 155.57687378 -15.51268387 -2.50000000
v 179.53829956 -12.23485184 -2.50000000
v 179.82760620 -16.16392899 -2.50000000
v 177.20455933 -15.68638992 -2.50000000
v 176.67501831 -10.82469559 -2.50000000
v 174.89987183 -14.73131180 -2.50000000
v 181.25851440 -12.41112137 -2.50000000
v 181.25851440 -16.22362137 -2.50000000
v 182.96163940 -12.23436356 -2.50000000
v 185.29928589 -15.68638992 -2.50000000
v 182.68405151 -16.16392899 -2.50000000
v 185.80538940 -10.82030106 -2.50000000
v 175.53195190 -9.59080887 -2.50000000
v 172.91354370 -13.29869461 -2.50000000
v 172.03976440 -12.40330887 -2.50000000
v 171.25973511 -11.40123367 -2.50000000
v 190.46163940 -12.40330887 -2.50000000
v 189.58639526 -13.29869461 -2.50000000
v 186.94601440 -9.58299637 -2.50000000
v 187.60006714 -14.73131180 -2.50000000
v 191.24716187 -11.40123367 -2.50000000
v 205.74777222 -15.51268387 -2.50000000
v 201.25558472 -15.51268387 -2.50000000
v 201.25558472 22.47950363 -2.50000000
v 99.76731110 11.83106613 -2.50000000
v 92.28733063 -5.03953934 -2.50000000
v 92.28733063 1.31983566 -2.50000000
v 131.68185425 -8.86864090 -2.50000000
v 136.13107300 -8.02733231 -2.50000000
v 131.55831909 -6.50487137 -2.50000000
v 136.07394409 -6.50487137 -2.50000000
v 104.28293610 7.58106613 -2.50000000
v 104.41428375 1.83839035 -2.50000000
v 118.08664703 2.66553879 -2.50000000
v 122.67356110 0.99512863 -2.50000000
v 122.52219391 3.65528488 -2.50000000
v 136.07394409 8.33887863 -2.50000000
v 155.70431519 1.07862473 -2.50000000
v 170.01168823 -9.12681961 -2.50000000
v 174.61935425 -8.05028152 -2.50000000
v 173.57638550 -4.18700027 -2.50000000
v 168.91964722 -5.03953934 -2.50000000
v 188.91622925 -4.17772293 -2.50000000
v 192.50399780 -9.12681961 -2.50000000
v 187.86544800 -8.03709793 -2.50000000
v 193.60372925 -5.03953934 -2.50000000
v 168.71163940 -1.86424637 -2.50000000
v 173.57736206 0.45850757 -2.50000000
v 173.44601440 -1.86424637 -2.50000000
v 170.01168823 5.40931320 -2.50000000
v 168.91964722 1.31983566 -2.50000000
v 189.04757690 -1.86424637 -2.50000000
v 193.81320190 -1.86424637 -2.50000000
v 188.91622925 0.43946460 -2.50000000
v 193.60372925 1.31983566 -2.50000000
v 187.86544800 4.29102707 -2.50000000
v 192.50399780 5.40931320 -2.50000000
v 117.32883453 5.56788254 -2.50000000
v 205.74777222 22.47950363 -2.50000000
v 10.89865589 4.63721848 -2.50000000
v 10.51535511 8.74659348 -2.50000000
v 11.79074574 6.01075363 -2.50000000
v 42.71628189 7.64966965 -2.50000000
v 41.33932877 5.37818527 -2.50000000
v 47.05344009 5.90919113 -2.50000000
v 12.92111683 7.09424973 -2.50000000
v 17.64230728 8.48731613 -2.50000000
v 15.84689808 8.33253098 -2.50000000
v 17.39865494 12.41163254 -2.50000000
v 12.35910511 10.59424973 -2.50000000
v -5.38601255 8.67481613 -2.50000000
v 20.46066666 8.01465988 -2.50000000
v 21.22824478 12.24512863 -2.50000000
v 21.25168228 7.63575363 -2.50000000
v 19.44894791 12.47169113 -2.50000000
v 19.60324478 8.27637863 -2.50000000
v 18.66769791 8.43458176 -2.50000000
v 43.57687759 8.65137863 -2.50000000
v 44.53927994 9.55042648 -2.50000000
v 69.94333649 7.67786789 -2.50000000
v 73.31174469 4.32178879 -2.50000000
v 88.26999664 9.56837082 -2.50000000
v 85.62961578 5.83887863 -2.50000000
v 84.48899078 7.08301926 -2.50000000
v 74.23117828 5.86231613 -2.50000000
v 89.93076324 7.67786789 -2.50000000
v 70.72336578 8.67481613 -2.50000000
v 71.59714508 9.56837082 -2.50000000
v 59.64914322 11.52833176 -2.50000000
v 59.62961197 7.50294113 -2.50000000
v 57.71750259 8.15919113 -2.50000000
v 55.79367447 8.55176926 -2.50000000
v 57.70187759 12.05762863 -2.50000000
v 49.23849869 11.94788742 -2.50000000
v 51.78488541 8.50928879 -2.50000000
v 48.38644791 7.12257004 -2.50000000
v 61.53781509 10.78419113 -2.50000000
v 61.53781509 6.58106613 -2.50000000
v 89.14524078 8.67481613 -2.50000000
v 81.64524078 8.50489426 -2.50000000
v 83.98288727 11.95118332 -2.50000000
v 78.23166656 8.50635910 -2.50000000
v 75.37619781 7.09620285 -2.50000000
v 75.88816071 11.95118332 -2.50000000
v 9.75168324 11.83106613 -2.50000000
v 13.43918324 11.27637863 -2.50000000
v 14.63693714 11.80616379 -2.50000000
v 20.57785416 12.35255051 -2.50000000
v 46.71896744 10.98890305 -2.50000000
v 18.96261978 12.48731613 -2.50000000
v 52.09787369 12.42737961 -2.50000000
v 53.65500259 12.48731613 -2.50000000
v 53.85031509 8.68262863 -2.50000000
v 19.98605728 12.42481613 -2.50000000
v 73.58347321 10.99805832 -2.50000000
v 86.28366852 10.99805832 -2.50000000
v 78.51120758 12.42774582 -2.50000000
v 79.94211578 8.68262863 -2.50000000
v 81.36765289 12.42774582 -2.50000000
v 55.70187759 12.37989426 -2.50000000
v 79.94211578 12.48731613 -2.50000000
v 104.28293610 11.83106613 -2.50000000
v 105.12668610 8.73731613 -2.50000000
v 106.38449860 6.26075363 -2.50000000
v 107.53147125 7.27589035 -2.50000000
v 107.02512360 10.58106613 -2.50000000
v 131.55831909 8.33887863 -2.50000000
v 156.72384644 4.63721848 -2.50000000
v 155.57687378 7.58106613 -2.50000000
v 157.61593628 6.01075363 -2.50000000
v 116.66574860 6.65137863 -2.50000000
v 121.31125641 7.94434738 -2.50000000
v 118.90110016 10.84815598 -2.50000000
v 115.81369781 7.49561691 -2.50000000
v 105.46506500 4.99854660 -2.50000000
v 156.34054565 8.74659348 -2.50000000
v 115.33860016 12.30518723 -2.50000000
v 113.54416656 8.46046066 -2.50000000
v 112.12668610 8.58106613 -2.50000000
v 113.12668610 12.48731613 -2.50000000
v 120.25168610 9.57325363 -2.50000000
v 110.40256500 8.43604660 -2.50000000
v 111.73899078 12.41114426 -2.50000000
v 131.55831909 11.83106613 -2.50000000
v 128.26144409 8.33887863 -2.50000000
v 136.07394409 11.83106613 -2.50000000
v 145.32394409 8.33887863 -2.50000000
v 145.32394409 11.83106613 -2.50000000
v 158.74630737 7.09424973 -2.50000000
v 171.25973511 7.67786789 -2.50000000
v 174.62814331 4.32178879 -2.50000000
v 175.54757690 5.86231613 -2.50000000
v 189.58639526 9.56837082 -2.50000000
v 186.94601440 5.83887863 -2.50000000
v 185.80538940 7.08301926 -2.50000000
v 172.91354370 9.56837082 -2.50000000
v 172.03976440 8.67481613 -2.50000000
v 191.24716187 7.67786789 -2.50000000
v 167.05343628 12.24512863 -2.50000000
v 166.28585815 8.01465988 -2.50000000
v 165.42843628 8.27637863 -2.50000000
v 163.22384644 12.41163254 -2.50000000
v 164.49288940 8.43458176 -2.50000000
v 163.46749878 8.48731613 -2.50000000
v 161.67208862 8.33253098 -2.50000000
v 158.18429565 10.59424973 -2.50000000
v 165.27413940 12.47169113 -2.50000000
v 182.96163940 8.50489426 -2.50000000
v 185.29928589 11.95118332 -2.50000000
v 179.54806519 8.50635910 -2.50000000
v 176.69259644 7.09620285 -2.50000000
v 177.20455933 11.95118332 -2.50000000
v 167.07687378 7.63575363 -2.50000000
v 190.46163940 8.67481613 -2.50000000
v 109.21555328 11.80176926 -2.50000000
v 108.07981110 11.26856613 -2.50000000
v 159.26437378 11.27637863 -2.50000000
v 131.55831909 19.59669113 -2.50000000
v 155.57687378 11.83106613 -2.50000000
v 136.07394409 19.59669113 -2.50000000
v 128.26144409 11.83106613 -2.50000000
v 174.89987183 10.99805832 -2.50000000
v 165.81124878 12.42481613 -2.50000000
v 166.40304565 12.35255051 -2.50000000
v 187.60006714 10.99805832 -2.50000000
v 179.82760620 12.42774582 -2.50000000
v 182.68405151 12.42774582 -2.50000000
v 181.25851440 8.68262863 -2.50000000
v 164.78781128 12.48731613 -2.50000000
v 160.46212769 11.80616379 -2.50000000
v 181.25851440 12.48731613 -2.50000000
v -190.56423950 -12.28172684 2.50000000
v -193.43643188 -15.66771317 2.50000000
v -191.18936157 -16.16185379 2.50000000
v -193.36502075 -10.87157059 2.50000000
v -195.45401001 -14.67943192 2.50000000
v -189.97976685 -16.22362137 2.50000000
v -187.19168091 -12.28172684 2.50000000
v -188.51882935 -16.14940262 2.50000000
v -185.92507935 -15.55565262 2.50000000
v -181.21414185 -11.41112137 2.50000000
v -181.21414185 -15.51268387 2.50000000
v -176.72195435 -15.51268387 2.50000000
v -188.87820435 -12.45799637 2.50000000
v -184.79226685 -15.03612137 2.50000000
v -197.24209595 -13.19701004 2.50000000
v -194.47976685 -9.63768387 2.50000000
v -198.05007935 -12.27049637 2.50000000
v -183.75711060 -14.36424637 2.50000000
v -184.38699341 -10.87157059 2.50000000
v -181.96804810 -12.55174637 2.50000000
v -183.26882935 -9.63768387 2.50000000
v -160.24575806 -15.67760086 2.50000000
v -157.47329712 -16.16295242 2.50000000
v -157.54129028 -12.23826981 2.50000000
v -153.76101685 -16.11229324 2.50000000
v -155.47586060 -12.41112137 2.50000000
v -155.96804810 -16.22362137 2.50000000
v -153.53250122 -12.28026199 2.50000000
v -151.68679810 -15.77830887 2.50000000
v -119.74050140 -0.05955884 2.50000000
v -124.25612640 -15.51268387 2.50000000
v -119.74050140 -15.51268387 2.50000000
v -160.93972778 -10.85545731 2.50000000
v -164.83853149 -13.25084305 2.50000000
v -162.70083618 -14.70689774 2.50000000
v -165.78836060 -12.34080887 2.50000000
v -162.27273560 -9.64549637 2.50000000
v -149.69656372 -11.23143387 2.50000000
v -151.60867310 -11.88768387 2.50000000
v -149.70437622 -15.23143387 2.50000000
v -147.78836060 -14.46580887 2.50000000
v -88.84987640 -15.51268387 2.50000000
v -84.33425140 -15.51268387 2.50000000
v -88.84987640 0.84669113 2.50000000
v -102.03737640 -0.05955884 2.50000000
v -106.55300140 -15.51268387 2.50000000
v -102.03737640 -15.51268387 2.50000000
v -199.41043091 -10.13475418 2.50000000
v -195.37185669 -8.09422684 2.50000000
v -200.96511841 -4.93162918 2.50000000
v -196.39138794 -4.20750809 2.50000000
v -201.15945435 -1.86424637 2.50000000
v -181.34255981 -4.20750809 2.50000000
v -182.36990356 -8.09422684 2.50000000
v -196.51882935 -1.86424637 2.50000000
v -196.39138794 0.47901538 2.50000000
v -195.37185669 4.36573410 2.50000000
v -200.96511841 1.20264816 2.50000000
v -181.21414185 -1.86424637 2.50000000
v -181.34255981 0.47901538 2.50000000
v -169.36441040 -3.47032547 2.50000000
v -164.68679810 -1.86424637 2.50000000
v -169.42117310 -1.86424637 2.50000000
v -168.00210571 -9.04747391 2.50000000
v -166.63980103 -11.32774734 2.50000000
v -163.32888794 -8.11912918 2.50000000
v -164.53591919 -4.22850418 2.50000000
v -168.91030884 -6.42833328 2.50000000
v -147.78836060 -10.30955887 2.50000000
v -106.55300140 0.84669113 2.50000000
v -169.36380005 -0.23704907 2.50000000
v -164.53591919 0.49952319 2.50000000
v -124.25612640 11.83106613 2.50000000
v -101.91091156 1.83839035 2.50000000
v -84.33425140 0.99512863 2.50000000
v -168.90481567 2.74927902 2.50000000
v -77.12331390 -5.03953934 2.50000000
v -72.46657562 -4.18700027 2.50000000
v -77.33132172 -1.86424637 2.50000000
v -88.93727875 2.68458176 2.50000000
v -68.83840179 -15.68638992 2.50000000
v -69.36794281 -10.82469559 2.50000000
v -71.14308929 -14.73131180 2.50000000
v -73.12941742 -13.29869461 2.50000000
v -66.50466156 -12.23485184 2.50000000
v -66.21535492 -16.16392899 2.50000000
v -64.78444672 -12.41112137 2.50000000
v -64.78444672 -16.22362137 2.50000000
v -63.35891342 -16.16392899 2.50000000
v -63.08132553 -12.23436356 2.50000000
v -60.74367905 -15.68638992 2.50000000
v -60.23757553 -10.82030106 2.50000000
v -74.00319672 -12.40330887 2.50000000
v -70.51100922 -9.59080887 2.50000000
v -74.78322601 -11.40123367 2.50000000
v -55.58132553 -12.40330887 2.50000000
v -59.09695053 -9.58299637 2.50000000
v -56.45656967 -13.29869461 2.50000000
v -58.44289780 -14.73131180 2.50000000
v -54.79580307 -11.40123367 2.50000000
v -43.74587631 -12.40379715 2.50000000
v -42.88113022 -13.57518387 2.50000000
v -39.82790756 -10.17576981 2.50000000
v -38.10134506 -15.39159012 2.50000000
v -35.70144272 -15.51268387 2.50000000
v -36.98904037 -11.69530106 2.50000000
v -31.09206772 -15.51268387 2.50000000
v -31.09206772 -11.75487137 2.50000000
v -18.64309311 -15.68638992 2.50000000
v -16.02004623 -16.16392899 2.50000000
v -16.30935287 -12.23485184 2.50000000
v -14.58913708 -16.22362137 2.50000000
v -14.58913708 -12.41112137 2.50000000
v -13.16359997 -16.16392899 2.50000000
v -19.17263412 -10.82469559 2.50000000
v -20.94778061 -14.73131180 2.50000000
v -12.88601208 -12.23436356 2.50000000
v -10.54836559 -15.68638992 2.50000000
v -35.70144272 -11.75487137 2.50000000
v -38.85232162 -11.21873856 2.50000000
v -41.69118881 -14.42284012 2.50000000
v -39.42800522 -10.80174637 2.50000000
v -22.93410873 -13.29869461 2.50000000
v -8.24758434 -14.73131180 2.50000000
v -10.04226208 -10.82030106 2.50000000
v -23.80788803 -12.40330887 2.50000000
v -20.31570053 -9.59080887 2.50000000
v -71.42360687 -8.05028152 2.50000000
v -76.03127289 -9.12681961 2.50000000
v -57.12673569 -4.17772293 2.50000000
v -58.17751694 -8.03709793 2.50000000
v -53.53896713 -9.12681961 2.50000000
v -72.46559906 0.45850757 2.50000000
v -77.12331390 1.31983566 2.50000000
v -72.59694672 -1.86424637 2.50000000
v -76.03127289 5.40931320 2.50000000
v -52.22976303 -1.86424637 2.50000000
v -56.99538803 -1.86424637 2.50000000
v -52.43923569 -5.03953934 2.50000000
v -57.12673569 0.43946460 2.50000000
v -52.43923569 1.31983566 2.50000000
v -53.53896713 5.40931320 2.50000000
v -44.73415756 -8.86864090 2.50000000
v -24.58791733 -11.40123367 2.50000000
v -6.26125669 -13.29869461 2.50000000
v -8.90163708 -9.58299637 2.50000000
v -21.22829819 -8.05028152 2.50000000
v -25.83596420 -9.12681961 2.50000000
v -40.28493881 -8.02733231 2.50000000
v -40.34206772 -6.50487137 2.50000000
v -44.85769272 -6.50487137 2.50000000
v -27.13601303 -1.86424637 2.50000000
v -26.92800522 -5.03953934 2.50000000
v -22.27126694 -4.18700027 2.50000000
v -22.40163803 -1.86424637 2.50000000
v -22.27029037 0.45850757 2.50000000
v -40.34206772 8.33887863 2.50000000
v -7.98220396 -8.03709793 2.50000000
v -4.60049009 -11.40123367 2.50000000
v -26.92800522 1.31983566 2.50000000
v -194.47976685 5.90919113 2.50000000
v -199.41043091 6.40186691 2.50000000
v -198.05007935 8.53419113 2.50000000
v -182.36990356 4.36573410 2.50000000
v -181.21414185 7.68262863 2.50000000
v -166.60989380 7.64966965 2.50000000
v -167.98684692 5.37818527 2.50000000
v -163.32888794 4.38624191 2.50000000
v -183.26882935 5.90919113 2.50000000
v -162.27273560 5.90919113 2.50000000
v -193.36502075 7.14307785 2.50000000
v -197.24209595 9.46070480 2.50000000
v -193.43643188 11.93140793 2.50000000
v -190.56423950 8.55323410 2.50000000
v -176.72195435 22.47950363 2.50000000
v -181.96804810 8.82276535 2.50000000
v -184.38699341 7.14307785 2.50000000
v -160.93972778 7.12257004 2.50000000
v -164.78689575 9.55042648 2.50000000
v -187.19168091 8.55323410 2.50000000
v -183.75711060 10.63135910 2.50000000
v -165.74929810 8.65137863 2.50000000
v -157.54129028 8.50928879 2.50000000
v -160.08767700 11.94788742 2.50000000
v -117.71706390 6.25294113 2.50000000
v -119.74050140 7.58106613 2.50000000
v -118.60231781 4.98536301 2.50000000
v -119.61403656 1.82911301 2.50000000
v -106.63991547 2.69434738 2.50000000
v -102.79518890 6.58106613 2.50000000
v -103.36306000 7.93653488 2.50000000
v -107.94362640 6.69044113 2.50000000
v -107.33522797 5.61622238 2.50000000
v -100.01393890 6.26075363 2.50000000
v -101.91042328 7.99708176 2.50000000
v -149.69656372 7.50294113 2.50000000
v -147.78836060 6.58106613 2.50000000
v -147.78836060 10.78419113 2.50000000
v -118.93288422 8.75635910 2.50000000
v -151.62429810 12.05762863 2.50000000
v -153.53250122 8.55176926 2.50000000
v -151.60867310 8.15919113 2.50000000
v -149.67703247 11.52833176 2.50000000
v -116.61306000 7.27149582 2.50000000
v -110.88210297 8.46290207 2.50000000
v -108.73366547 7.51758957 2.50000000
v -109.51540375 12.39258957 2.50000000
v -104.90602875 10.13184738 2.50000000
v -113.87477875 8.43555832 2.50000000
v -117.08913422 10.61182785 2.50000000
v -100.89919281 4.99854660 2.50000000
v -195.45401001 10.94312668 2.50000000
v -189.97976685 12.48731613 2.50000000
v -188.87820435 8.72950363 2.50000000
v -185.92507935 11.81934738 2.50000000
v -188.51882935 12.41309738 2.50000000
v -184.79226685 11.29981613 2.50000000
v -181.21414185 22.47950363 2.50000000
v -162.60720825 10.98890305 2.50000000
v -191.18936157 12.42554855 2.50000000
v -157.22830200 12.42737961 2.50000000
v -153.62429810 12.37989426 2.50000000
v -105.88112640 10.97169113 2.50000000
v -106.98024750 11.63477707 2.50000000
v -116.05300140 11.29200363 2.50000000
v -114.92848969 11.81495285 2.50000000
v -155.47586060 8.68262863 2.50000000
v -119.74050140 11.83106613 2.50000000
v -155.67117310 12.48731613 2.50000000
v -112.37770844 12.41260910 2.50000000
v -110.95143890 12.48731613 2.50000000
v -112.24050140 8.58106613 2.50000000
v -90.24831390 6.67481613 2.50000000
v -89.63649750 5.59864426 2.50000000
v -85.63942719 7.84473801 2.50000000
v -98.90700531 7.27589035 2.50000000
v -84.47927094 3.59473801 2.50000000
v -74.78322601 7.67786789 2.50000000
v -71.41481781 4.32178879 2.50000000
v -70.49538422 5.86231613 2.50000000
v -93.15602875 8.46192551 2.50000000
v -91.03493500 7.50880051 2.50000000
v -91.23366547 12.30030441 2.50000000
v -96.14528656 8.43604660 2.50000000
v -98.76393890 11.04981613 2.50000000
v -69.35036469 7.09620285 2.50000000
v -73.12941742 9.56837082 2.50000000
v -86.65456390 9.49512863 2.50000000
v -87.93679047 10.80421066 2.50000000
v -74.00319672 8.67481613 2.50000000
v -66.49489594 8.50635910 2.50000000
v -68.83840179 11.95118332 2.50000000
v -99.89479828 10.23145676 2.50000000
v -58.17751694 4.29102707 2.50000000
v -54.79580307 7.67786789 2.50000000
v -59.09695053 5.83887863 2.50000000
v -25.83596420 5.40931320 2.50000000
v -21.21950912 4.32178879 2.50000000
v -24.58791733 7.67786789 2.50000000
v -10.04226208 7.08301926 2.50000000
v -8.90163708 5.83887863 2.50000000
v -6.26125669 9.56837082 2.50000000
v -20.30007553 5.86231613 2.50000000
v -63.08132553 8.50489426 2.50000000
v -60.23757553 7.08301926 2.50000000
v -60.74367905 11.95118332 2.50000000
v -56.45656967 9.56837082 2.50000000
v -48.15456772 8.33887863 2.50000000
v -44.85769272 8.33887863 2.50000000
v -44.85769272 11.83106613 2.50000000
v -40.34206772 11.83106613 2.50000000
v -55.58132553 8.67481613 2.50000000
v -23.80788803 8.67481613 2.50000000
v -19.15505600 7.09620285 2.50000000
v -22.93410873 9.56837082 2.50000000
v -31.09206772 8.33887863 2.50000000
v -31.09206772 11.83106613 2.50000000
v -10.54836559 11.95118332 2.50000000
v -12.88601208 8.50489426 2.50000000
v -8.24758434 10.99805832 2.50000000
v -93.24831390 12.48731613 2.50000000
v -94.49050140 8.58106613 2.50000000
v -94.78249359 12.39747238 2.50000000
v -71.14308929 10.99805832 2.50000000
v -63.35891342 12.42774582 2.50000000
v -58.44289780 10.99805832 2.50000000
v -66.21535492 12.42774582 2.50000000
v -64.78444672 8.68262863 2.50000000
v -97.54030609 11.67872238 2.50000000
v -64.78444672 12.48731613 2.50000000
v -18.64309311 11.95118332 2.50000000
v -20.94778061 10.99805832 2.50000000
v -14.58913708 8.68262863 2.50000000
v -16.02004623 12.42774582 2.50000000
v -16.29958725 8.50635910 2.50000000
v -13.16359997 12.42774582 2.50000000
v -40.34206772 19.59669113 2.50000000
v -48.15456772 11.83106613 2.50000000
v -44.85769272 19.59669113 2.50000000
v -14.58913708 12.48731613 2.50000000
v -7.98220396 4.29102707 2.50000000
v -4.60049009 7.67786789 2.50000000
v 49.08041763 -15.67760086 2.50000000
v 51.85287857 -16.16295242 2.50000000
v 51.78488541 -12.23826981 2.50000000
v 53.85031509 -12.41112137 2.50000000
v 53.35812759 -16.22362137 2.50000000
v 55.56515884 -16.11229324 2.50000000
v 46.62533951 -14.70689774 2.50000000
v 48.38644791 -10.85545731 2.50000000
v 55.79367447 -12.28026199 2.50000000
v 57.63937759 -15.77830887 2.50000000
v 5.23605776 -15.51268387 2.50000000
v 9.75168324 -15.51268387 2.50000000
v 9.75168324 -1.10643387 2.50000000
v 42.68637466 -11.32774734 2.50000000
v 43.53781509 -12.34080887 2.50000000
v 47.05344009 -9.64549637 2.50000000
v -5.38601255 -12.40330887 2.50000000
v 44.48764420 -13.25084305 2.50000000
v 57.71750259 -11.88768387 2.50000000
v -3.34365416 -9.12681961 2.50000000
v 73.58347321 -14.73131180 2.50000000
v 75.88816071 -15.68638992 2.50000000
v 75.35861969 -10.82469559 2.50000000
v 59.62179947 -15.23143387 2.50000000
v 61.53781509 -14.46580887 2.50000000
v 59.62961197 -11.23143387 2.50000000
v 79.94211578 -12.41112137 2.50000000
v 78.51120758 -16.16392899 2.50000000
v 79.94211578 -16.22362137 2.50000000
v 81.64524078 -12.23436356 2.50000000
v 81.36765289 -16.16392899 2.50000000
v 83.98288727 -15.68638992 2.50000000
v 78.22190094 -12.23485184 2.50000000
v 84.48899078 -10.82030106 2.50000000
v 74.21555328 -9.59080887 2.50000000
v 69.94333649 -11.40123367 2.50000000
v 70.72336578 -12.40330887 2.50000000
v 61.53781509 -10.30955887 2.50000000
v 71.59714508 -13.29869461 2.50000000
v 86.28366852 -14.73131180 2.50000000
v 88.26999664 -13.29869461 2.50000000
v -2.24392271 -5.03953934 2.50000000
v -6.93142271 -4.17772293 2.50000000
v -2.03445005 -1.86424637 2.50000000
v -6.80007505 -1.86424637 2.50000000
v 44.79025650 -4.22850418 2.50000000
v 40.41586685 -6.42833328 2.50000000
v 45.99728775 -8.11912918 2.50000000
v 39.96176529 -3.47032547 2.50000000
v 44.63937759 -1.86424637 2.50000000
v 41.32406998 -9.04747391 2.50000000
v 5.23605776 11.83106613 2.50000000
v -6.93142271 0.43946460 2.50000000
v -2.24392271 1.31983566 2.50000000
v 9.87912464 1.07862473 2.50000000
v 9.75168324 7.58106613 2.50000000
v -3.34365416 5.40931320 2.50000000
v 39.90500259 -1.86424637 2.50000000
v 39.96237564 -0.23704907 2.50000000
v 44.79025650 0.49952319 2.50000000
v 40.42136002 2.74927902 2.50000000
v 45.99728775 4.38624191 2.50000000
v 73.30295563 -8.05028152 2.50000000
v 89.93076324 -11.40123367 2.50000000
v 86.54904938 -8.03709793 2.50000000
v 85.62961578 -9.58299637 2.50000000
v 68.69528961 -9.12681961 2.50000000
v 72.25998688 -4.18700027 2.50000000
v 67.60324860 -5.03953934 2.50000000
v 67.39524078 -1.86424637 2.50000000
v 67.60324860 1.31983566 2.50000000
v 72.26096344 0.45850757 2.50000000
v 72.12961578 -1.86424637 2.50000000
v 92.49680328 -1.86424637 2.50000000
v 87.73117828 -1.86424637 2.50000000
v 87.59983063 -4.17772293 2.50000000
v 91.18759918 5.40931320 2.50000000
v 86.54904938 4.29102707 2.50000000
v 87.59983063 0.43946460 2.50000000
v 68.69528961 5.40931320 2.50000000
v 91.18759918 -9.12681961 2.50000000
v 89.14524078 -12.40330887 2.50000000
v 122.67356110 -15.51268387 2.50000000
v 118.18137360 0.84669113 2.50000000
v 118.18137360 -15.51268387 2.50000000
v 104.28293610 -15.51268387 2.50000000
v 104.28293610 -0.05955884 2.50000000
v 99.76731110 -15.51268387 2.50000000
v 138.31466675 -15.39159012 2.50000000
v 140.71456909 -15.51268387 2.50000000
v 139.42697144 -11.69530106 2.50000000
v 145.32394409 -15.51268387 2.50000000
v 145.32394409 -11.75487137 2.50000000
v 151.06124878 11.83106613 2.50000000
v 151.06124878 -15.51268387 2.50000000
v 155.57687378 -1.10643387 2.50000000
v 136.58810425 -10.17576981 2.50000000
v 132.67013550 -12.40379715 2.50000000
v 133.53488159 -13.57518387 2.50000000
v 137.56369019 -11.21873856 2.50000000
v 140.71456909 -11.75487137 2.50000000
v 134.72482300 -14.42284012 2.50000000
v 136.98800659 -10.80174637 2.50000000
v 155.57687378 -15.51268387 2.50000000
v 179.53829956 -12.23485184 2.50000000
v 177.20455933 -15.68638992 2.50000000
v 179.82760620 -16.16392899 2.50000000
v 176.67501831 -10.82469559 2.50000000
v 174.89987183 -14.73131180 2.50000000
v 181.25851440 -12.41112137 2.50000000
v 181.25851440 -16.22362137 2.50000000
v 182.96163940 -12.23436356 2.50000000
v 182.68405151 -16.16392899 2.50000000
v 185.29928589 -15.68638992 2.50000000
v 185.80538940 -10.82030106 2.50000000
v 175.53195190 -9.59080887 2.50000000
v 172.03976440 -12.40330887 2.50000000
v 172.91354370 -13.29869461 2.50000000
v 171.25973511 -11.40123367 2.50000000
v 190.46163940 -12.40330887 2.50000000
v 186.94601440 -9.58299637 2.50000000
v 189.58639526 -13.29869461 2.50000000
v 187.60006714 -14.73131180 2.50000000
v 191.24716187 -11.40123367 2.50000000
v 205.74777222 -15.51268387 2.50000000
v 201.25558472 22.47950363 2.50000000
v 201.25558472 -15.51268387 2.50000000
v 99.76731110 11.83106613 2.50000000
v 92.28733063 -5.03953934 2.50000000
v 92.28733063 1.31983566 2.50000000
v 131.68185425 -8.86864090 2.50000000
v 136.13107300 -8.02733231 2.50000000
v 136.07394409 -6.50487137 2.50000000
v 131.55831909 -6.50487137 2.50000000
v 104.28293610 7.58106613 2.50000000
v 104.41428375 1.83839035 2.50000000
v 122.67356110 0.99512863 2.50000000
v 118.08664703 2.66553879 2.50000000
v 122.52219391 3.65528488 2.50000000
v 136.07394409 8.33887863 2.50000000
v 155.70431519 1.07862473 2.50000000
v 174.61935425 -8.05028152 2.50000000
v 170.01168823 -9.12681961 2.50000000
v 173.57638550 -4.18700027 2.50000000
v 168.91964722 -5.03953934 2.50000000
v 188.91622925 -4.17772293 2.50000000
v 187.86544800 -8.03709793 2.50000000
v 192.50399780 -9.12681961 2.50000000
v 193.60372925 -5.03953934 2.50000000
v 168.71163940 -1.86424637 2.50000000
v 173.44601440 -1.86424637 2.50000000
v 173.57736206 0.45850757 2.50000000
v 170.01168823 5.40931320 2.50000000
v 168.91964722 1.31983566 2.50000000
v 189.04757690 -1.86424637 2.50000000
v 193.81320190 -1.86424637 2.50000000
v 188.91622925 0.43946460 2.50000000
v 193.60372925 1.31983566 2.50000000
v 187.86544800 4.29102707 2.50000000
v 192.50399780 5.40931320 2.50000000
v 117.32883453 5.56788254 2.50000000
v 205.74777222 22.47950363 2.50000000
v 10.89865589 4.63721848 2.50000000
v 10.51535511 8.74659348 2.50000000
v 11.79074574 6.01075363 2.50000000
v 42.71628189 7.64966965 2.50000000
v 41.33932877 5.37818527 2.50000000
v 47.05344009 5.90919113 2.50000000
v 12.92111683 7.09424973 2.50000000
v 17.64230728 8.48731613 2.50000000
v 17.39865494 12.41163254 2.50000000
v 15.84689808 8.33253098 2.50000000
v 12.35910511 10.59424973 2.50000000
v -5.38601255 8.67481613 2.50000000
v 20.46066666 8.01465988 2.50000000
v 21.25168228 7.63575363 2.50000000
v 21.22824478 12.24512863 2.50000000
v 19.44894791 12.47169113 2.50000000
v 18.66769791 8.43458176 2.50000000
v 19.60324478 8.27637863 2.50000000
v 43.57687759 8.65137863 2.50000000
v 44.53927994 9.55042648 2.50000000
v 69.94333649 7.67786789 2.50000000
v 73.31174469 4.32178879 2.50000000
v 88.26999664 9.56837082 2.50000000
v 84.48899078 7.08301926 2.50000000
v 85.62961578 5.83887863 2.50000000
v 74.23117828 5.86231613 2.50000000
v 89.93076324 7.67786789 2.50000000
v 70.72336578 8.67481613 2.50000000
v 71.59714508 9.56837082 2.50000000
v 59.64914322 11.52833176 2.50000000
v 57.71750259 8.15919113 2.50000000
v 59.62961197 7.50294113 2.50000000
v 57.70187759 12.05762863 2.50000000
v 55.79367447 8.55176926 2.50000000
v 49.23849869 11.94788742 2.50000000
v 48.38644791 7.12257004 2.50000000
v 51.78488541 8.50928879 2.50000000
v 61.53781509 10.78419113 2.50000000
v 61.53781509 6.58106613 2.50000000
v 89.14524078 8.67481613 2.50000000
v 81.64524078 8.50489426 2.50000000
v 83.98288727 11.95118332 2.50000000
v 78.23166656 8.50635910 2.50000000
v 75.88816071 11.95118332 2.50000000
v 75.37619781 7.09620285 2.50000000
v 9.75168324 11.83106613 2.50000000
v 13.43918324 11.27637863 2.50000000
v 14.63693714 11.80616379 2.50000000
v 20.57785416 12.35255051 2.50000000
v 46.71896744 10.98890305 2.50000000
v 18.96261978 12.48731613 2.50000000
v 52.09787369 12.42737961 2.50000000
v 53.85031509 8.68262863 2.50000000
v 53.65500259 12.48731613 2.50000000
v 19.98605728 12.42481613 2.50000000
v 73.58347321 10.99805832 2.50000000
v 86.28366852 10.99805832 2.50000000
v 78.51120758 12.42774582 2.50000000
v 79.94211578 8.68262863 2.50000000
v 81.36765289 12.42774582 2.50000000
v 55.70187759 12.37989426 2.50000000
v 79.94211578 12.48731613 2.50000000
v 104.28293610 11.83106613 2.50000000
v 106.38449860 6.26075363 2.50000000
v 105.12668610 8.73731613 2.50000000
v 107.53147125 7.27589035 2.50000000
v 107.02512360 10.58106613 2.50000000
v 131.55831909 8.33887863 2.50000000
v 156.72384644 4.63721848 2.50000000
v 157.61593628 6.01075363 2.50000000
v 155.57687378 7.58106613 2.50000000
v 121.31125641 7.94434738 2.50000000
v 116.66574860 6.65137863 2.50000000
v 118.90110016 10.84815598 2.50000000
v 115.81369781 7.49561691 2.50000000
v 105.46506500 4.99854660 2.50000000
v 156.34054565 8.74659348 2.50000000
v 115.33860016 12.30518723 2.50000000
v 113.54416656 8.46046066 2.50000000
v 113.12668610 12.48731613 2.50000000
v 112.12668610 8.58106613 2.50000000
v 120.25168610 9.57325363 2.50000000
v 110.40256500 8.43604660 2.50000000
v 111.73899078 12.41114426 2.50000000
v 131.55831909 11.83106613 2.50000000
v 128.26144409 8.33887863 2.50000000
v 136.07394409 11.83106613 2.50000000
v 145.32394409 8.33887863 2.50000000
v 145.32394409 11.83106613 2.50000000
v 158.74630737 7.09424973 2.50000000
v 174.62814331 4.32178879 2.50000000
v 171.25973511 7.67786789 2.50000000
v 175.54757690 5.86231613 2.50000000
v 189.58639526 9.56837082 2.50000000
v 185.80538940 7.08301926 2.50000000
v 186.94601440 5.83887863 2.50000000
v 172.91354370 9.56837082 2.50000000
v 172.03976440 8.67481613 2.50000000
v 191.24716187 7.67786789 2.50000000
v 167.05343628 12.24512863 2.50000000
v 165.42843628 8.27637863 2.50000000
v 166.28585815 8.01465988 2.50000000
v 163.22384644 12.41163254 2.50000000
v 163.46749878 8.48731613 2.50000000
v 164.49288940 8.43458176 2.50000000
v 161.67208862 8.33253098 2.50000000
v 158.18429565 10.59424973 2.50000000
v 165.27413940 12.47169113 2.50000000
v 182.96163940 8.50489426 2.50000000
v 185.29928589 11.95118332 2.50000000
v 179.54806519 8.50635910 2.50000000
v 177.20455933 11.95118332 2.50000000
v 176.69259644 7.09620285 2.50000000
v 167.07687378 7.63575363 2.50000000
v 190.46163940 8.67481613 2.50000000
v 109.21555328 11.80176926 2.50000000
v 108.07981110 11.26856613 2.50000000
v 159.26437378 11.27637863 2.50000000
v 131.55831909 19.59669113 2.50000000
v 155.57687378 11.83106613 2.50000000
v 136.07394409 19.59669113 2.50000000
v 128.26144409 11.83106613 2.50000000
v 174.89987183 10.99805832 2.50000000
v 165.81124878 12.42481613 2.50000000
v 166.40304565 12.35255051 2.50000000
v 187.60006714 10.99805832 2.50000000
v 179.82760620 12.42774582 2.50000000
v 182.68405151 12.42774582 2.50000000
v 181.25851440 8.68262863 2.50000000
v 164.78781128 12.48731613 2.50000000
v 160.46212769 11.80616379 2.50000000
v 181.25851440 12.48731613 2.50000000
f 1 2 3
f 3 4 5
f 1 6 2
f 7 8 9
f 10 11 12
f 13 9 6
f 14 8 7
f 6 1 13
f 4 15 5
f 5 1 3
f 15 16 17
f 7 18 19
f 18 20 19
f 7 9 13
f 7 19 14
f 20 21 10
f 22 23 24
f 25 26 27
f 24 27 26
f 28 29 25
f 30 31 32
f 33 34 35
f 22 34 33
f 28 25 27
f 24 23 27
f 36 37 35
f 38 39 40
f 40 29 28
f 38 41 39
f 42 43 44
f 45 46 47
f 40 39 29
f 22 33 23
f 48 49 50
f 50 17 48
f 49 51 52
f 52 50 49
f 53 10 54
f 21 54 10
f 17 16 48
f 15 17 5
f 51 55 56
f 51 56 52
f 57 55 58
f 55 51 58
f 11 53 59
f 60 11 59
f 61 62 63
f 18 21 20
f 64 65 66
f 67 65 68
f 65 64 68
f 66 65 37
f 10 53 11
f 37 33 35
f 69 41 38
f 37 36 66
f 45 47 70
f 71 63 62
f 63 71 72
f 61 63 67
f 73 30 32
f 45 70 74
f 44 43 75
f 76 72 71
f 77 78 79
f 61 67 68
f 43 80 75
f 81 82 83
f 82 84 83
f 85 86 81
f 87 88 89
f 90 91 92
f 88 90 92
f 87 89 86
f 93 94 84
f 86 85 87
f 85 81 83
f 93 95 94
f 96 97 98
f 99 91 97
f 90 88 87
f 92 91 99
f 100 96 98
f 101 102 103
f 104 105 106
f 106 107 108
f 109 110 111
f 112 111 113
f 114 112 113
f 109 115 116
f 117 118 114
f 119 107 106
f 104 120 121
f 105 119 106
f 121 105 104
f 103 122 120
f 113 111 110
f 115 123 116
f 113 117 114
f 116 110 109
f 118 124 125
f 126 127 123
f 124 118 117
f 128 94 95
f 129 79 128
f 129 128 95
f 94 83 84
f 91 98 97
f 130 131 132
f 132 100 98
f 132 131 100
f 78 133 134
f 78 134 135
f 136 134 133
f 78 135 79
f 130 137 138
f 138 139 130
f 140 141 138
f 138 137 140
f 131 130 139
f 141 140 142
f 79 129 77
f 102 122 103
f 102 101 143
f 126 144 127
f 123 127 116
f 145 124 146
f 147 127 144
f 148 147 144
f 149 150 151
f 143 149 102
f 152 153 154
f 149 143 150
f 147 148 153
f 153 152 155
f 155 152 156
f 153 148 154
f 150 157 151
f 158 159 146
f 120 122 121
f 160 156 152
f 145 125 124
f 57 161 162
f 162 161 163
f 57 58 161
f 164 165 60
f 166 167 168
f 167 76 168
f 72 76 167
f 164 169 165
f 165 11 60
f 167 166 170
f 171 162 172
f 162 163 172
f 173 174 171
f 11 165 175
f 169 176 177
f 170 178 179
f 177 165 169
f 180 181 176
f 170 166 182
f 179 183 184
f 185 186 187
f 188 187 186
f 189 190 74
f 191 192 193
f 190 189 192
f 191 190 192
f 190 194 195
f 74 70 189
f 196 197 198
f 199 185 187
f 200 201 202
f 196 201 203
f 187 188 73
f 199 204 185
f 205 206 207
f 208 193 207
f 193 208 191
f 209 204 210
f 190 211 74
f 73 188 30
f 171 172 212
f 213 214 174
f 180 215 216
f 173 171 212
f 217 180 216
f 218 175 165
f 181 177 176
f 219 179 178
f 179 219 183
f 217 181 180
f 220 213 174
f 214 213 215
f 173 220 174
f 183 221 184
f 180 214 215
f 170 182 178
f 197 196 203
f 200 203 201
f 200 202 222
f 223 207 224
f 223 208 207
f 225 209 210
f 225 226 209
f 207 206 224
f 210 204 199
f 184 221 227
f 187 73 228
f 227 229 222
f 227 222 202
f 230 209 226
f 231 232 230
f 205 232 231
f 205 231 206
f 227 221 229
f 230 232 209
f 233 234 235
f 236 195 194
f 234 237 235
f 80 237 75
f 238 239 136
f 136 239 134
f 237 80 235
f 240 239 238
f 241 242 243
f 236 244 245
f 246 240 247
f 234 233 248
f 233 243 249
f 250 240 238
f 246 251 252
f 236 194 253
f 140 254 142
f 142 254 255
f 254 256 255
f 257 258 156
f 257 259 258
f 260 261 262
f 257 156 160
f 258 259 263
f 264 265 266
f 267 256 266
f 268 269 270
f 271 157 270
f 150 270 157
f 255 256 272
f 259 273 263
f 263 274 275
f 157 276 277
f 260 278 279
f 260 280 261
f 249 243 242
f 233 249 248
f 241 281 242
f 244 236 253
f 282 245 283
f 240 250 247
f 284 246 247
f 284 251 246
f 264 285 265
f 286 266 265
f 287 288 252
f 245 244 289
f 289 283 245
f 282 283 281
f 281 241 282
f 290 288 287
f 287 252 251
f 288 290 285
f 288 285 264
f 270 269 271
f 286 267 266
f 275 291 292
f 291 275 274
f 293 294 295
f 260 279 280
f 274 263 273
f 272 256 267
f 296 279 278
f 269 297 271
f 298 269 268
f 269 299 297
f 157 271 276
f 300 293 295
f 294 292 295
f 293 300 296
f 293 296 278
f 294 275 292
f 262 301 302
f 195 211 190
f 303 304 305
f 306 307 308
f 308 305 306
f 309 310 303
f 311 312 307
f 313 314 315
f 316 317 318
f 159 319 146
f 304 303 310
f 305 304 306
f 310 309 320
f 307 306 311
f 318 317 320
f 320 317 310
f 312 311 321
f 159 158 322
f 323 324 325
f 326 327 328
f 329 330 331
f 332 333 334
f 330 329 334
f 325 335 331
f 336 333 332
f 337 338 339
f 327 326 321
f 327 340 328
f 337 341 338
f 334 329 332
f 324 335 325
f 324 323 341
f 336 342 343
f 331 335 329
f 333 336 343
f 326 312 321
f 337 324 341
f 322 344 345
f 346 344 347
f 344 346 345
f 344 322 158
f 348 349 350
f 351 348 350
f 351 352 348
f 350 349 353
f 313 354 314
f 347 355 346
f 346 355 356
f 354 357 358
f 354 358 314
f 355 359 356
f 360 361 352
f 352 351 360
f 361 362 363
f 363 352 361
f 364 363 362
f 316 349 317
f 349 316 353
f 339 365 337
f 366 367 368
f 336 367 342
f 365 339 369
f 370 365 369
f 371 372 370
f 371 370 369
f 373 374 372
f 375 370 372
f 374 375 372
f 376 377 378
f 379 380 381
f 373 382 374
f 378 380 376
f 377 383 368
f 342 367 384
f 319 145 146
f 385 386 387
f 388 389 390
f 391 392 393
f 393 394 395
f 396 397 398
f 399 400 401
f 366 368 383
f 392 391 402
f 393 392 403
f 402 391 404
f 393 403 394
f 400 405 404
f 405 402 404
f 397 406 398
f 407 408 409
f 410 409 411
f 412 413 408
f 414 415 416
f 413 412 416
f 414 417 415
f 418 419 420
f 421 418 420
f 419 410 411
f 407 409 410
f 416 412 414
f 407 412 408
f 422 423 424
f 425 417 423
f 415 417 425
f 426 422 424
f 427 428 429
f 410 419 418
f 389 430 390
f 377 376 431
f 432 376 380
f 399 401 433
f 434 435 436
f 434 399 433
f 434 433 435
f 405 400 399
f 437 438 430
f 430 438 390
f 387 439 440
f 440 439 441
f 442 436 435
f 443 397 396
f 387 440 385
f 380 379 432
f 383 377 431
f 421 444 445
f 445 444 446
f 444 447 446
f 417 424 423
f 448 449 450
f 450 426 424
f 449 426 450
f 445 418 421
f 451 449 448
f 452 453 454
f 455 453 456
f 456 453 452
f 452 454 446
f 457 458 448
f 459 460 458
f 458 457 459
f 461 462 459
f 448 458 451
f 462 460 459
f 452 446 447
f 441 439 463
f 464 427 429
f 366 384 367
f 357 465 358
f 466 467 357
f 467 465 357
f 468 364 469
f 470 364 468
f 471 467 466
f 362 469 364
f 472 473 474
f 475 473 471
f 262 476 301
f 477 478 479
f 480 481 482
f 477 481 478
f 472 474 482
f 468 483 470
f 483 484 470
f 476 262 261
f 485 486 382
f 487 488 489
f 485 490 486
f 381 488 491
f 491 379 381
f 492 493 490
f 494 495 496
f 496 497 498
f 499 500 501
f 502 503 495
f 491 488 504
f 505 506 489
f 507 508 509
f 485 492 490
f 493 508 490
f 484 501 470
f 374 382 486
f 354 510 357
f 475 511 473
f 511 512 473
f 471 466 475
f 513 478 481
f 501 514 499
f 474 473 512
f 515 482 474
f 515 480 482
f 516 500 499
f 516 517 518
f 519 481 480
f 513 481 519
f 501 484 514
f 502 495 494
f 508 493 520
f 494 496 498
f 487 489 521
f 522 523 507
f 506 521 489
f 508 520 509
f 504 488 487
f 505 524 506
f 518 525 497
f 522 507 509
f 497 525 498
f 523 526 524
f 522 526 523
f 524 505 523
f 527 437 430
f 518 517 525
f 500 516 518
f 437 528 529
f 302 301 359
f 530 529 528
f 530 528 531
f 435 532 442
f 533 534 535
f 463 536 537
f 538 536 539
f 437 540 438
f 535 534 541
f 542 539 543
f 543 544 545
f 536 546 537
f 547 548 544
f 441 463 537
f 549 532 550
f 442 532 551
f 443 396 534
f 552 442 553
f 541 554 535
f 530 531 547
f 455 555 556
f 556 555 557
f 558 559 560
f 561 557 562
f 555 562 557
f 461 559 563
f 462 461 563
f 564 565 566
f 567 568 569
f 570 554 571
f 568 572 566
f 573 574 560
f 575 576 577
f 564 578 565
f 558 579 559
f 561 576 557
f 579 563 559
f 567 569 570
f 534 533 443
f 548 545 544
f 580 547 581
f 581 547 531
f 539 542 538
f 551 532 549
f 571 554 541
f 582 570 571
f 538 546 536
f 547 580 548
f 549 583 551
f 543 545 542
f 551 553 442
f 396 584 534
f 551 583 585
f 550 586 549
f 561 587 576
f 588 566 572
f 589 566 588
f 566 589 564
f 590 560 574
f 590 558 560
f 575 577 591
f 573 592 574
f 577 576 587
f 592 573 593
f 567 594 568
f 582 595 570
f 568 594 572
f 595 567 570
f 593 591 596
f 592 593 596
f 575 591 593
f 529 540 437
f 556 453 455
f 355 302 359
f 597 598 599
f 598 600 601
f 597 599 602
f 603 604 605
f 606 607 608
f 609 602 604
f 610 603 605
f 602 609 597
f 601 600 611
f 600 598 597
f 611 612 613
f 603 614 615
f 615 614 616
f 603 609 604
f 603 610 614
f 616 606 617
f 618 619 620
f 621 622 623
f 619 623 622
f 624 621 625
f 626 627 628
f 629 630 631
f 618 629 631
f 624 622 621
f 619 622 620
f 632 630 633
f 634 635 636
f 635 624 625
f 634 636 637
f 638 639 640
f 641 642 643
f 635 625 636
f 618 620 629
f 644 645 646
f 645 644 612
f 646 647 648
f 647 646 645
f 649 650 606
f 617 606 650
f 612 644 613
f 611 600 612
f 648 651 652
f 648 647 651
f 653 654 652
f 652 654 648
f 608 655 649
f 656 655 608
f 657 658 659
f 615 616 617
f 660 661 662
f 663 664 662
f 662 664 660
f 661 633 662
f 606 608 649
f 633 630 629
f 665 634 637
f 633 661 632
f 641 666 642
f 667 659 658
f 658 668 667
f 657 663 658
f 669 627 626
f 641 670 666
f 639 671 640
f 672 667 668
f 673 674 675
f 657 664 663
f 640 671 676
f 677 678 679
f 679 678 680
f 681 677 682
f 683 684 685
f 686 687 688
f 685 687 686
f 683 682 684
f 689 680 690
f 682 683 681
f 681 678 677
f 689 690 691
f 692 693 694
f 695 694 688
f 686 683 685
f 687 695 688
f 696 693 692
f 697 698 699
f 700 701 702
f 701 703 704
f 705 706 707
f 708 709 706
f 710 709 708
f 705 711 712
f 713 710 714
f 715 701 704
f 700 716 717
f 702 701 715
f 716 700 702
f 698 717 718
f 709 707 706
f 712 711 719
f 709 710 713
f 711 705 707
f 714 720 721
f 722 719 723
f 721 713 714
f 724 691 690
f 725 724 674
f 725 691 724
f 690 680 678
f 688 694 693
f 726 727 728
f 727 693 696
f 727 696 728
f 675 729 730
f 675 731 729
f 732 730 729
f 675 674 731
f 726 733 734
f 733 726 735
f 736 733 737
f 733 736 734
f 728 735 726
f 737 738 736
f 674 673 725
f 699 698 718
f 699 739 697
f 722 723 740
f 719 711 723
f 741 742 721
f 743 740 723
f 744 740 743
f 745 746 747
f 739 699 745
f 748 749 750
f 745 747 739
f 743 750 744
f 750 751 748
f 751 752 748
f 750 749 744
f 747 746 753
f 754 742 755
f 717 716 718
f 756 748 752
f 741 721 720
f 653 757 758
f 757 759 758
f 653 758 654
f 760 656 761
f 762 763 764
f 764 763 672
f 668 764 672
f 760 761 765
f 761 656 608
f 764 766 762
f 767 768 757
f 757 768 759
f 769 767 770
f 608 771 761
f 765 772 773
f 766 774 775
f 772 765 761
f 776 773 777
f 766 778 762
f 774 779 780
f 781 782 783
f 784 783 782
f 785 670 786
f 787 788 789
f 786 789 785
f 787 789 786
f 786 790 791
f 670 785 666
f 792 793 794
f 795 782 781
f 796 797 798
f 792 799 798
f 782 669 784
f 795 781 800
f 801 802 803
f 804 802 788
f 788 787 804
f 805 806 800
f 786 670 807
f 669 626 784
f 767 808 768
f 809 770 810
f 776 811 812
f 769 808 767
f 813 811 776
f 814 761 771
f 777 773 772
f 815 775 774
f 774 780 815
f 813 776 777
f 816 770 809
f 810 812 809
f 769 770 816
f 780 779 817
f 776 812 810
f 766 775 778
f 794 799 792
f 796 798 799
f 796 818 797
f 819 820 802
f 819 802 804
f 821 806 805
f 821 805 822
f 802 820 803
f 806 795 800
f 779 823 817
f 782 824 669
f 823 818 825
f 823 797 818
f 826 822 805
f 827 826 828
f 801 827 828
f 801 803 827
f 823 825 817
f 826 805 828
f 829 830 831
f 832 791 790
f 831 830 833
f 676 671 833
f 834 732 835
f 732 729 835
f 833 830 676
f 836 834 835
f 837 838 839
f 832 840 841
f 842 843 836
f 831 844 829
f 829 845 838
f 846 834 836
f 842 847 848
f 832 849 791
f 736 738 850
f 738 851 850
f 850 851 852
f 853 752 854
f 853 854 855
f 856 857 858
f 853 756 752
f 854 859 855
f 860 861 862
f 863 861 852
f 864 865 866
f 867 865 753
f 747 753 865
f 851 868 852
f 855 859 869
f 859 870 871
f 753 872 873
f 856 874 875
f 856 858 876
f 845 839 838
f 829 844 845
f 837 839 877
f 841 849 832
f 878 879 840
f 836 843 846
f 880 843 842
f 880 842 848
f 860 862 881
f 882 862 861
f 883 847 884
f 840 885 841
f 885 840 879
f 878 877 879
f 877 878 837
f 886 883 884
f 883 848 847
f 884 881 886
f 884 860 881
f 865 867 866
f 882 861 863
f 870 887 888
f 888 871 870
f 889 890 891
f 856 876 874
f 871 869 859
f 868 863 852
f 892 875 874
f 866 867 893
f 894 864 866
f 866 893 895
f 753 873 867
f 896 890 889
f 891 890 887
f 889 892 896
f 889 875 892
f 891 887 870
f 857 897 898
f 790 786 807
f 899 900 901
f 902 903 904
f 903 902 900
f 905 899 906
f 907 904 908
f 909 910 911
f 912 913 914
f 755 742 915
f 901 906 899
f 900 902 901
f 906 916 905
f 904 907 902
f 913 916 914
f 916 906 914
f 908 917 907
f 755 918 754
f 919 920 921
f 922 923 924
f 925 926 927
f 928 929 930
f 927 929 925
f 920 926 931
f 932 928 930
f 933 934 935
f 924 917 922
f 924 923 936
f 933 935 937
f 929 928 925
f 921 920 931
f 921 937 919
f 932 938 939
f 926 925 931
f 930 938 932
f 922 917 908
f 933 937 921
f 918 940 941
f 942 943 941
f 941 940 942
f 941 754 918
f 944 945 946
f 947 945 944
f 947 944 948
f 945 949 946
f 909 911 950
f 943 942 951
f 942 952 951
f 950 953 954
f 950 911 953
f 951 952 955
f 956 948 957
f 948 956 947
f 957 958 959
f 958 957 948
f 960 959 958
f 912 914 946
f 946 949 912
f 934 933 961
f 962 963 964
f 932 939 964
f 961 965 934
f 966 965 961
f 967 966 968
f 967 965 966
f 969 968 970
f 971 968 966
f 970 968 971
f 972 973 974
f 975 976 977
f 969 970 978
f 973 972 977
f 974 963 979
f 939 980 964
f 915 742 741
f 981 982 983
f 984 985 986
f 987 988 989
f 988 990 991
f 992 993 994
f 995 996 997
f 962 979 963
f 989 998 987
f 988 999 989
f 998 1000 987
f 988 991 999
f 997 1000 1001
f 1001 1000 998
f 994 993 1002
f 1003 1004 1005
f 1006 1007 1004
f 1008 1005 1009
f 1010 1011 1012
f 1009 1011 1008
f 1010 1012 1013
f 1014 1015 1016
f 1017 1015 1014
f 1016 1007 1006
f 1003 1006 1004
f 1011 1010 1008
f 1003 1005 1008
f 1018 1019 1020
f 1021 1020 1013
f 1012 1021 1013
f 1022 1019 1018
f 1023 1024 1025
f 1006 1014 1016
f 986 985 1026
f 974 1027 972
f 1028 977 972
f 995 1029 996
f 1030 1031 1032
f 1030 1029 995
f 1030 1032 1029
f 1001 995 997
f 1033 1026 1034
f 1026 985 1034
f 982 1035 1036
f 1035 1037 1036
f 1038 1032 1031
f 1039 992 994
f 982 981 1035
f 977 1028 975
f 979 1027 974
f 1017 1040 1041
f 1040 1042 1041
f 1041 1042 1043
f 1013 1020 1019
f 1044 1045 1046
f 1045 1019 1022
f 1046 1045 1022
f 1040 1017 1014
f 1047 1044 1046
f 1048 1049 1050
f 1051 1052 1050
f 1052 1048 1050
f 1048 1042 1049
f 1053 1044 1054
f 1055 1054 1056
f 1054 1055 1053
f 1057 1055 1058
f 1044 1047 1054
f 1058 1055 1056
f 1048 1043 1042
f 1037 1059 1036
f 1060 1024 1023
f 962 964 980
f 954 953 1061
f 1062 954 1063
f 1063 954 1061
f 1064 1065 960
f 1066 1064 960
f 1067 1062 1063
f 959 960 1065
f 1068 1069 1070
f 1071 1067 1070
f 857 898 1072
f 1073 1074 1075
f 1076 1077 1078
f 1073 1075 1078
f 1068 1077 1069
f 1064 1066 1079
f 1079 1066 1080
f 1072 858 857
f 1081 978 1082
f 1083 1084 1085
f 1081 1082 1086
f 976 1087 1085
f 1087 976 975
f 1088 1086 1089
f 1090 1091 1092
f 1091 1093 1094
f 1095 1096 1097
f 1098 1092 1099
f 1087 1100 1085
f 1101 1084 1102
f 1103 1104 1105
f 1081 1086 1088
f 1089 1086 1105
f 1080 1066 1096
f 970 1082 978
f 950 954 1106
f 1071 1070 1107
f 1107 1070 1108
f 1067 1071 1062
f 1109 1078 1075
f 1096 1095 1110
f 1069 1108 1070
f 1111 1069 1077
f 1111 1077 1076
f 1112 1095 1097
f 1112 1113 1114
f 1115 1076 1078
f 1109 1115 1078
f 1096 1110 1080
f 1098 1090 1092
f 1105 1116 1089
f 1090 1093 1091
f 1083 1117 1084
f 1118 1103 1119
f 1102 1084 1117
f 1105 1104 1116
f 1100 1083 1085
f 1101 1102 1120
f 1113 1094 1121
f 1118 1104 1103
f 1094 1093 1121
f 1119 1120 1122
f 1118 1119 1122
f 1120 1119 1101
f 1123 1026 1033
f 1113 1121 1114
f 1097 1113 1112
f 1033 1124 1125
f 897 955 898
f 1126 1125 1124
f 1126 1127 1125
f 1032 1038 1128
f 1129 1130 1131
f 1059 1132 1133
f 1134 1135 1133
f 1033 1034 1136
f 1130 1137 1131
f 1138 1139 1135
f 1139 1140 1141
f 1133 1132 1142
f 1143 1141 1144
f 1037 1132 1059
f 1145 1146 1128
f 1038 1147 1128
f 1039 1131 992
f 1148 1149 1038
f 1137 1130 1150
f 1126 1143 1127
f 1051 1151 1152
f 1151 1153 1152
f 1154 1155 1156
f 1157 1158 1153
f 1152 1153 1158
f 1057 1159 1156
f 1058 1159 1057
f 1160 1161 1162
f 1163 1164 1165
f 1166 1167 1150
f 1165 1161 1168
f 1169 1155 1170
f 1171 1172 1173
f 1160 1162 1174
f 1154 1156 1175
f 1157 1153 1173
f 1175 1156 1159
f 1163 1166 1164
f 1131 1039 1129
f 1144 1141 1140
f 1176 1177 1143
f 1177 1127 1143
f 1135 1134 1138
f 1147 1145 1128
f 1167 1137 1150
f 1178 1167 1166
f 1134 1133 1142
f 1143 1144 1176
f 1145 1147 1179
f 1139 1138 1140
f 1147 1038 1149
f 992 1131 1180
f 1147 1181 1179
f 1146 1145 1182
f 1157 1173 1183
f 1184 1168 1161
f 1185 1184 1161
f 1161 1160 1185
f 1186 1170 1155
f 1186 1155 1154
f 1171 1187 1172
f 1169 1170 1188
f 1172 1183 1173
f 1188 1189 1169
f 1163 1165 1190
f 1178 1166 1191
f 1165 1168 1190
f 1191 1166 1163
f 1189 1192 1187
f 1188 1192 1189
f 1171 1189 1187
f 1124 1033 1136
f 1151 1051 1050
f 951 955 897
f 177 181 777
f 177 777 772
f 181 217 813
f 181 813 777
f 217 216 811
f 217 811 813
f 216 215 812
f 216 812 811
f 215 213 809
f 215 809 812
f 213 220 816
f 213 816 809
f 220 173 769
f 220 769 816
f 173 212 808
f 173 808 769
f 212 172 768
f 212 768 808
f 172 163 759
f 172 759 768
f 163 161 758
f 163 758 759
f 161 58 654
f 161 654 758
f 58 51 648
f 58 648 654
f 51 49 646
f 51 646 648
f 49 48 644
f 49 644 646
f 48 16 613
f 48 613 644
f 16 15 611
f 16 611 613
f 15 4 601
f 15 601 611
f 4 3 598
f 4 598 601
f 3 2 599
f 3 599 598
f 2 6 602
f 2 602 599
f 6 9 604
f 6 604 602
f 9 8 605
f 9 605 604
f 8 14 610
f 8 610 605
f 14 19 614
f 14 614 610
f 19 20 616
f 19 616 614
f 20 10 606
f 20 606 616
f 10 12 607
f 10 607 606
f 12 11 608
f 12 608 607
f 11 175 771
f 11 771 608
f 175 218 814
f 175 814 771
f 218 165 761
f 218 761 814
f 165 177 772
f 165 772 761
f 287 251 848
f 287 848 883
f 251 284 880
f 251 880 848
f 284 247 843
f 284 843 880
f 247 250 846
f 247 846 843
f 250 238 834
f 250 834 846
f 238 136 732
f 238 732 834
f 136 133 730
f 136 730 732
f 133 78 675
f 133 675 730
f 78 77 673
f 78 673 675
f 77 129 725
f 77 725 673
f 129 95 691
f 129 691 725
f 95 93 689
f 95 689 691
f 93 84 680
f 93 680 689
f 84 82 679
f 84 679 680
f 82 81 677
f 82 677 679
f 81 86 682
f 81 682 677
f 86 89 684
f 86 684 682
f 89 88 685
f 89 685 684
f 88 92 687
f 88 687 685
f 92 99 695
f 92 695 687
f 99 97 694
f 99 694 695
f 97 96 692
f 97 692 694
f 96 100 696
f 96 696 692
f 100 131 728
f 100 728 696
f 131 139 735
f 131 735 728
f 139 138 733
f 139 733 735
f 138 141 737
f 138 737 733
f 141 142 738
f 141 738 737
f 142 255 851
f 142 851 738
f 255 272 868
f 255 868 851
f 272 267 863
f 272 863 868
f 267 286 882
f 267 882 863
f 286 265 862
f 286 862 882
f 265 285 881
f 265 881 862
f 285 290 886
f 285 886 881
f 290 287 883
f 290 883 886
f 295 292 887
f 295 887 890
f 292 291 888
f 292 888 887
f 291 274 871
f 291 871 888
f 274 273 869
f 274 869 871
f 273 259 855
f 273 855 869
f 259 257 853
f 259 853 855
f 257 160 756
f 257 756 853
f 160 152 748
f 160 748 756
f 152 154 749
f 152 749 748
f 154 148 744
f 154 744 749
f 148 144 740
f 148 740 744
f 144 126 722
f 144 722 740
f 126 123 719
f 126 719 722
f 123 115 712
f 123 712 719
f 115 109 705
f 115 705 712
f 109 111 706
f 109 706 705
f 111 112 708
f 111 708 706
f 112 114 710
f 112 710 708
f 114 118 714
f 114 714 710
f 118 125 720
f 118 720 714
f 125 145 741
f 125 741 720
f 145 319 915
f 145 915 741
f 319 159 755
f 319 755 915
f 159 322 918
f 159 918 755
f 322 345 940
f 322 940 918
f 345 346 942
f 345 942 940
f 346 356 952
f 346 952 942
f 356 359 955
f 356 955 952
f 359 301 898
f 359 898 955
f 301 476 1072
f 301 1072 898
f 476 261 858
f 476 858 1072
f 261 280 876
f 261 876 858
f 280 279 874
f 280 874 876
f 279 296 892
f 279 892 874
f 296 300 896
f 296 896 892
f 300 295 890
f 300 890 896
f 522 509 1104
f 522 1104 1118
f 509 520 1116
f 509 1116 1104
f 520 493 1089
f 520 1089 1116
f 493 492 1088
f 493 1088 1089
f 492 485 1081
f 492 1081 1088
f 485 382 978
f 485 978 1081
f 382 373 969
f 382 969 978
f 373 372 968
f 373 968 969
f 372 371 967
f 372 967 968
f 371 369 965
f 371 965 967
f 369 339 934
f 369 934 965
f 339 338 935
f 339 935 934
f 338 341 937
f 338 937 935
f 341 323 919
f 341 919 937
f 323 325 920
f 323 920 919
f 325 331 926
f 325 926 920
f 331 330 927
f 331 927 926
f 330 334 929
f 330 929 927
f 334 333 930
f 334 930 929
f 333 343 938
f 333 938 930
f 343 342 939
f 343 939 938
f 342 384 980
f 342 980 939
f 384 366 962
f 384 962 980
f 366 383 979
f 366 979 962
f 383 431 1027
f 383 1027 979
f 431 376 972
f 431 972 1027
f 376 432 1028
f 376 1028 972
f 432 379 975
f 432 975 1028
f 379 491 1087
f 379 1087 975
f 491 504 1100
f 491 1100 1087
f 504 487 1083
f 504 1083 1100
f 487 521 1117
f 487 1117 1083
f 521 506 1102
f 521 1102 1117
f 506 524 1120
f 506 1120 1102
f 524 526 1122
f 524 1122 1120
f 526 522 1118
f 526 1118 1122
f 591 577 1172
f 591 1172 1187
f 577 587 1183
f 577 1183 1172
f 587 561 1157
f 587 1157 1183
f 561 562 1158
f 561 1158 1157
f 562 555 1152
f 562 1152 1158
f 555 455 1051
f 555 1051 1152
f 455 456 1052
f 455 1052 1051
f 456 452 1048
f 456 1048 1052
f 452 447 1043
f 452 1043 1048
f 447 444 1041
f 447 1041 1043
f 444 421 1017
f 444 1017 1041
f 421 420 1015
f 421 1015 1017
f 420 419 1016
f 420 1016 1015
f 419 411 1007
f 419 1007 1016
f 411 409 1004
f 411 1004 1007
f 409 408 1005
f 409 1005 1004
f 408 413 1009
f 408 1009 1005
f 413 416 1011
f 413 1011 1009
f 416 415 1012
f 416 1012 1011
f 415 425 1021
f 415 1021 1012
f 425 423 1020
f 425 1020 1021
f 423 422 1018
f 423 1018 1020
f 422 426 1022
f 422 1022 1018
f 426 449 1046
f 426 1046 1022
f 449 451 1047
f 449 1047 1046
f 451 458 1054
f 451 1054 1047
f 458 460 1056
f 458 1056 1054
f 460 462 1058
f 460 1058 1056
f 462 563 1159
f 462 1159 1058
f 563 579 1175
f 563 1175 1159
f 579 558 1154
f 579 1154 1175
f 558 590 1186
f 558 1186 1154
f 590 574 1170
f 590 1170 1186
f 574 592 1188
f 574 1188 1170
f 592 596 1192
f 592 1192 1188
f 596 591 1187
f 596 1187 1192
f 191 208 804
f 191 804 787
f 208 223 819
f 208 819 804
f 223 224 820
f 223 820 819
f 224 206 803
f 224 803 820
f 206 231 827
f 206 827 803
f 231 230 826
f 231 826 827
f 230 226 822
f 230 822 826
f 226 225 821
f 226 821 822
f 225 210 806
f 225 806 821
f 210 199 795
f 210 795 806
f 199 187 782
f 199 782 795
f 187 228 824
f 187 824 782
f 228 73 669
f 228 669 824
f 73 32 627
f 73 627 669
f 32 31 628
f 32 628 627
f 31 30 626
f 31 626 628
f 30 188 784
f 30 784 626
f 188 186 783
f 188 783 784
f 186 185 781
f 186 781 783
f 185 204 800
f 185 800 781
f 204 209 805
f 204 805 800
f 209 232 828
f 209 828 805
f 232 205 801
f 232 801 828
f 205 207 802
f 205 802 801
f 207 193 788
f 207 788 802
f 193 192 789
f 193 789 788
f 192 189 785
f 192 785 789
f 189 70 666
f 189 666 785
f 70 47 642
f 70 642 666
f 47 46 643
f 47 643 642
f 46 45 641
f 46 641 643
f 45 74 670
f 45 670 641
f 74 211 807
f 74 807 670
f 211 195 790
f 211 790 807
f 195 236 832
f 195 832 790
f 236 245 840
f 236 840 832
f 245 282 878
f 245 878 840
f 282 241 837
f 282 837 878
f 241 243 838
f 241 838 837
f 243 233 829
f 243 829 838
f 233 235 830
f 233 830 829
f 235 80 676
f 235 676 830
f 80 43 640
f 80 640 676
f 43 42 638
f 43 638 640
f 42 44 639
f 42 639 638
f 44 75 671
f 44 671 639
f 75 237 833
f 75 833 671
f 237 234 831
f 237 831 833
f 234 248 844
f 234 844 831
f 248 249 845
f 248 845 844
f 249 242 839
f 249 839 845
f 242 281 877
f 242 877 839
f 281 283 879
f 281 879 877
f 283 289 885
f 283 885 879
f 289 244 841
f 289 841 885
f 244 253 849
f 244 849 841
f 253 194 791
f 253 791 849
f 194 190 786
f 194 786 791
f 190 191 787
f 190 787 786
f 441 537 1132
f 441 1132 1037
f 537 546 1142
f 537 1142 1132
f 546 538 1134
f 546 1134 1142
f 538 542 1138
f 538 1138 1134
f 542 545 1140
f 542 1140 1138
f 545 548 1144
f 545 1144 1140
f 548 580 1176
f 548 1176 1144
f 580 581 1177
f 580 1177 1176
f 581 531 1127
f 581 1127 1177
f 531 528 1125
f 531 1125 1127
f 528 437 1033
f 528 1033 1125
f 437 527 1123
f 437 1123 1033
f 527 430 1026
f 527 1026 1123
f 430 389 986
f 430 986 1026
f 389 388 984
f 389 984 986
f 388 390 985
f 388 985 984
f 390 438 1034
f 390 1034 985
f 438 540 1136
f 438 1136 1034
f 540 529 1124
f 540 1124 1136
f 529 530 1126
f 529 1126 1124
f 530 547 1143
f 530 1143 1126
f 547 544 1141
f 547 1141 1143
f 544 543 1139
f 544 1139 1141
f 543 539 1135
f 543 1135 1139
f 539 536 1133
f 539 1133 1135
f 536 463 1059
f 536 1059 1133
f 463 439 1036
f 463 1036 1059
f 439 387 982
f 439 982 1036
f 387 386 983
f 387 983 982
f 386 385 981
f 386 981 983
f 385 440 1035
f 385 1035 981
f 440 441 1037
f 440 1037 1035
f 264 266 861
f 264 861 860
f 266 256 852
f 266 852 861
f 256 254 850
f 256 850 852
f 254 140 736
f 254 736 850
f 140 137 734
f 140 734 736
f 137 130 726
f 137 726 734
f 130 132 727
f 130 727 726
f 132 98 693
f 132 693 727
f 98 91 688
f 98 688 693
f 91 90 686
f 91 686 688
f 90 87 683
f 90 683 686
f 87 85 681
f 87 681 683
f 85 83 678
f 85 678 681
f 83 94 690
f 83 690 678
f 94 128 724
f 94 724 690
f 128 79 674
f 128 674 724
f 79 135 731
f 79 731 674
f 135 134 729
f 135 729 731
f 134 239 835
f 134 835 729
f 239 240 836
f 239 836 835
f 240 246 842
f 240 842 836
f 246 252 847
f 246 847 842
f 252 288 884
f 252 884 847
f 288 264 860
f 288 860 884
f 278 260 856
f 278 856 875
f 260 262 857
f 260 857 856
f 262 302 897
f 262 897 857
f 302 355 951
f 302 951 897
f 355 347 943
f 355 943 951
f 347 344 941
f 347 941 943
f 344 158 754
f 344 754 941
f 158 146 742
f 158 742 754
f 146 124 721
f 146 721 742
f 124 117 713
f 124 713 721
f 117 113 709
f 117 709 713
f 113 110 707
f 113 707 709
f 110 116 711
f 110 711 707
f 116 127 723
f 116 723 711
f 127 147 743
f 127 743 723
f 147 153 750
f 147 750 743
f 153 155 751
f 153 751 750
f 155 156 752
f 155 752 751
f 156 258 854
f 156 854 752
f 258 263 859
f 258 859 854
f 263 275 870
f 263 870 859
f 275 294 891
f 275 891 870
f 294 293 889
f 294 889 891
f 293 278 875
f 293 875 889
f 505 489 1084
f 505 1084 1101
f 489 488 1085
f 489 1085 1084
f 488 381 976
f 488 976 1085
f 381 380 977
f 381 977 976
f 380 378 973
f 380 973 977
f 378 377 974
f 378 974 973
f 377 368 963
f 377 963 974
f 368 367 964
f 368 964 963
f 367 336 932
f 367 932 964
f 336 332 928
f 336 928 932
f 332 329 925
f 332 925 928
f 329 335 931
f 329 931 925
f 335 324 921
f 335 921 931
f 324 337 933
f 324 933 921
f 337 365 961
f 337 961 933
f 365 370 966
f 365 966 961
f 370 375 971
f 370 971 966
f 375 374 970
f 375 970 971
f 374 486 1082
f 374 1082 970
f 486 490 1086
f 486 1086 1082
f 490 508 1105
f 490 1105 1086
f 508 507 1103
f 508 1103 1105
f 507 523 1119
f 507 1119 1103
f 523 505 1101
f 523 1101 1119
f 573 560 1155
f 573 1155 1169
f 560 559 1156
f 560 1156 1155
f 559 461 1057
f 559 1057 1156
f 461 459 1055
f 461 1055 1057
f 459 457 1053
f 459 1053 1055
f 457 448 1044
f 457 1044 1053
f 448 450 1045
f 448 1045 1044
f 450 424 1019
f 450 1019 1045
f 424 417 1013
f 424 1013 1019
f 417 414 1010
f 417 1010 1013
f 414 412 1008
f 414 1008 1010
f 412 407 1003
f 412 1003 1008
f 407 410 1006
f 407 1006 1003
f 410 418 1014
f 410 1014 1006
f 418 445 1040
f 418 1040 1014
f 445 446 1042
f 445 1042 1040
f 446 454 1049
f 446 1049 1042
f 454 453 1050
f 454 1050 1049
f 453 556 1151
f 453 1151 1050
f 556 557 1153
f 556 1153 1151
f 557 576 1173
f 557 1173 1153
f 576 575 1171
f 576 1171 1173
f 575 593 1189
f 575 1189 1171
f 593 573 1169
f 593 1169 1189
f 55 57 653
f 55 653 652
f 57 162 757
f 57 757 653
f 162 171 767
f 162 767 757
f 171 174 770
f 171 770 767
f 174 214 810
f 174 810 770
f 214 180 776
f 214 776 810
f 180 176 773
f 180 773 776
f 176 169 765
f 176 765 773
f 169 164 760
f 169 760 765
f 164 60 656
f 164 656 760
f 60 59 655
f 60 655 656
f 59 53 649
f 59 649 655
f 53 54 650
f 53 650 649
f 54 21 617
f 54 617 650
f 21 18 615
f 21 615 617
f 18 7 603
f 18 603 615
f 7 13 609
f 7 609 603
f 13 1 597
f 13 597 609
f 1 5 600
f 1 600 597
f 5 17 612
f 5 612 600
f 17 50 645
f 17 645 612
f 50 52 647
f 50 647 645
f 52 56 651
f 52 651 647
f 56 55 652
f 56 652 651
f 203 200 796
f 203 796 799
f 200 222 818
f 200 818 796
f 222 229 825
f 222 825 818
f 229 221 817
f 229 817 825
f 221 183 780
f 221 780 817
f 183 219 815
f 183 815 780
f 219 178 775
f 219 775 815
f 178 182 778
f 178 778 775
f 182 166 762
f 182 762 778
f 166 168 763
f 166 763 762
f 168 76 672
f 168 672 763
f 76 71 667
f 76 667 672
f 71 62 659
f 71 659 667
f 62 61 657
f 62 657 659
f 61 68 664
f 61 664 657
f 68 64 660
f 68 660 664
f 64 66 661
f 64 661 660
f 66 36 632
f 66 632 661
f 36 35 630
f 36 630 632
f 35 34 631
f 35 631 630
f 34 22 618
f 34 618 631
f 22 24 619
f 22 619 618
f 24 26 623
f 24 623 619
f 26 25 621
f 26 621 623
f 25 29 625
f 25 625 621
f 29 39 636
f 29 636 625
f 39 41 637
f 39 637 636
f 41 69 665
f 41 665 637
f 69 38 634
f 69 634 665
f 38 40 635
f 38 635 634
f 40 28 624
f 40 624 635
f 28 27 622
f 28 622 624
f 27 23 620
f 27 620 622
f 23 33 629
f 23 629 620
f 33 37 633
f 33 633 629
f 37 65 662
f 37 662 633
f 65 67 663
f 65 663 662
f 67 63 658
f 67 658 663
f 63 72 668
f 63 668 658
f 72 167 764
f 72 764 668
f 167 170 766
f 167 766 764
f 170 179 774
f 170 774 766
f 179 184 779
f 179 779 774
f 184 227 823
f 184 823 779
f 227 202 797
f 227 797 823
f 202 201 798
f 202 798 797
f 201 196 792
f 201 792 798
f 196 198 793
f 196 793 792
f 198 197 794
f 198 794 793
f 197 203 799
f 197 799 794
f 494 498 1093
f 494 1093 1090
f 498 525 1121
f 498 1121 1093
f 525 517 1114
f 525 1114 1121
f 517 516 1112
f 517 1112 1114
f 516 499 1095
f 516 1095 1112
f 499 514 1110
f 499 1110 1095
f 514 484 1080
f 514 1080 1110
f 484 483 1079
f 484 1079 1080
f 483 468 1064
f 483 1064 1079
f 468 469 1065
f 468 1065 1064
f 469 362 959
f 469 959 1065
f 362 361 957
f 362 957 959
f 361 360 956
f 361 956 957
f 360 351 947
f 360 947 956
f 351 350 945
f 351 945 947
f 350 353 949
f 350 949 945
f 353 316 912
f 353 912 949
f 316 318 913
f 316 913 912
f 318 320 916
f 318 916 913
f 320 309 905
f 320 905 916
f 309 303 899
f 309 899 905
f 303 305 900
f 303 900 899
f 305 308 903
f 305 903 900
f 308 307 904
f 308 904 903
f 307 312 908
f 307 908 904
f 312 326 922
f 312 922 908
f 326 328 923
f 326 923 922
f 328 340 936
f 328 936 923
f 340 327 924
f 340 924 936
f 327 321 917
f 327 917 924
f 321 311 907
f 321 907 917
f 311 306 902
f 311 902 907
f 306 304 901
f 306 901 902
f 304 310 906
f 304 906 901
f 310 317 914
f 310 914 906
f 317 349 946
f 317 946 914
f 349 348 944
f 349 944 946
f 348 352 948
f 348 948 944
f 352 363 958
f 352 958 948
f 363 364 960
f 363 960 958
f 364 470 1066
f 364 1066 960
f 470 501 1096
f 470 1096 1066
f 501 500 1097
f 501 1097 1096
f 500 518 1113
f 500 1113 1097
f 518 497 1094
f 518 1094 1113
f 497 496 1091
f 497 1091 1094
f 496 495 1092
f 496 1092 1091
f 495 503 1099
f 495 1099 1092
f 503 502 1098
f 503 1098 1099
f 502 494 1090
f 502 1090 1098
f 299 269 866
f 299 866 895
f 269 298 894
f 269 894 866
f 298 268 864
f 298 864 894
f 268 270 865
f 268 865 864
f 270 150 747
f 270 747 865
f 150 143 739
f 150 739 747
f 143 101 697
f 143 697 739
f 101 103 698
f 101 698 697
f 103 120 717
f 103 717 698
f 120 104 700
f 120 700 717
f 104 106 701
f 104 701 700
f 106 108 703
f 106 703 701
f 108 107 704
f 108 704 703
f 107 119 715
f 107 715 704
f 119 105 702
f 119 702 715
f 105 121 716
f 105 716 702
f 121 122 718
f 121 718 716
f 122 102 699
f 122 699 718
f 102 149 745
f 102 745 699
f 149 151 746
f 149 746 745
f 151 157 753
f 151 753 746
f 157 277 872
f 157 872 753
f 277 276 873
f 277 873 872
f 276 271 867
f 276 867 873
f 271 297 893
f 271 893 867
f 297 299 895
f 297 895 893
f 583 549 1145
f 583 1145 1179
f 549 586 1182
f 549 1182 1145
f 586 550 1146
f 586 1146 1182
f 550 532 1128
f 550 1128 1146
f 532 435 1032
f 532 1032 1128
f 435 433 1029
f 435 1029 1032
f 433 401 996
f 433 996 1029
f 401 400 997
f 401 997 996
f 400 404 1000
f 400 1000 997
f 404 391 987
f 404 987 1000
f 391 393 988
f 391 988 987
f 393 395 990
f 393 990 988
f 395 394 991
f 395 991 990
f 394 403 999
f 394 999 991
f 403 392 989
f 403 989 999
f 392 402 998
f 392 998 989
f 402 405 1001
f 402 1001 998
f 405 399 995
f 405 995 1001
f 399 434 1030
f 399 1030 995
f 434 436 1031
f 434 1031 1030
f 436 442 1038
f 436 1038 1031
f 442 552 1148
f 442 1148 1038
f 552 553 1149
f 552 1149 1148
f 553 551 1147
f 553 1147 1149
f 551 585 1181
f 551 1181 1147
f 585 583 1179
f 585 1179 1181
f 478 513 1109
f 478 1109 1075
f 513 519 1115
f 513 1115 1109
f 519 480 1076
f 519 1076 1115
f 480 515 1111
f 480 1111 1076
f 515 474 1069
f 515 1069 1111
f 474 512 1108
f 474 1108 1069
f 512 511 1107
f 512 1107 1108
f 511 475 1071
f 511 1071 1107
f 475 466 1062
f 475 1062 1071
f 466 357 954
f 466 954 1062
f 357 510 1106
f 357 1106 954
f 510 354 950
f 510 950 1106
f 354 313 909
f 354 909 950
f 313 315 910
f 313 910 909
f 315 314 911
f 315 911 910
f 314 358 953
f 314 953 911
f 358 465 1061
f 358 1061 953
f 465 467 1063
f 465 1063 1061
f 467 471 1067
f 467 1067 1063
f 471 473 1070
f 471 1070 1067
f 473 472 1068
f 473 1068 1070
f 472 482 1077
f 472 1077 1068
f 482 481 1078
f 482 1078 1077
f 481 477 1073
f 481 1073 1078
f 477 479 1074
f 477 1074 1073
f 479 478 1075
f 479 1075 1074
f 564 589 1185
f 564 1185 1160
f 589 588 1184
f 589 1184 1185
f 588 572 1168
f 588 1168 1184
f 572 594 1190
f 572 1190 1168
f 594 567 1163
f 594 1163 1190
f 567 595 1191
f 567 1191 1163
f 595 582 1178
f 595 1178 1191
f 582 571 1167
f 582 1167 1178
f 571 541 1137
f 571 1137 1167
f 541 534 1131
f 541 1131 1137
f 534 584 1180
f 534 1180 1131
f 584 396 992
f 584 992 1180
f 396 398 993
f 396 993 992
f 398 406 1002
f 398 1002 993
f 406 397 994
f 406 994 1002
f 397 443 1039
f 397 1039 994
f 443 533 1129
f 443 1129 1039
f 533 535 1130
f 533 1130 1129
f 535 554 1150
f 535 1150 1130
f 554 570 1166
f 554 1166 1150
f 570 569 1164
f 570 1164 1166
f 569 568 1165
f 569 1165 1164
f 568 566 1161
f 568 1161 1165
f 566 565 1162
f 566 1162 1161
f 565 578 1174
f 565 1174 1162
f 578 564 1160
f 578 1160 1174
f 428 427 1023
f 428 1023 1025
f 427 464 1060
f 427 1060 1023
f 464 429 1024
f 464 1024 1060
f 429 428 1025
f 429 1025 1024

