# https://github.com/mikedh/trimesh
v -130.83732605 -1.17419398 -2.50000000
v -130.83732605 -16.62731934 -2.50000000
v -135.35295105 -16.62731934 -2.50000000
v -116.93889618 -0.26794401 -2.50000000
v -112.44670868 -16.62731934 -2.50000000
v -116.93889618 -16.62731934 -2.50000000
v -98.62444305 -10.70544434 -2.50000000
v -102.11663055 -13.51794434 -2.50000000
v -102.89665985 -12.51586914 -2.50000000
v -101.24285126 -14.41333008 -2.50000000
v -97.48137665 -11.93933105 -2.50000000
v -96.95183563 -16.80102539 -2.50000000
v -99.25652313 -15.84594727 -2.50000000
v -94.61809540 -13.34948730 -2.50000000
v -99.53704071 -9.16491699 -2.50000000
v -92.89788055 -17.33825684 -2.50000000
v -94.32878876 -17.27856445 -2.50000000
v -92.89788055 -13.52575684 -2.50000000
v -91.47234344 -17.27856445 -2.50000000
v -88.35100555 -11.93493652 -2.50000000
v -86.55632782 -15.84594727 -2.50000000
v -88.85710907 -16.80102539 -2.50000000
v -91.19475555 -13.34899902 -2.50000000
v -84.56999969 -14.41333008 -2.50000000
v -83.69475555 -13.51794434 -2.50000000
v -87.21038055 -10.69763184 -2.50000000
v -82.90923309 -12.51586914 -2.50000000
v -112.44670868 -0.11950652 -2.50000000
v -117.03362274 1.55090368 -2.50000000
v -100.58000946 -5.30163527 -2.50000000
v -105.23674774 -6.15417433 -2.50000000
v -105.44475555 -2.97888160 -2.50000000
v -105.23674774 0.20520051 -2.50000000
v -100.57903290 -0.65612763 -2.50000000
v -130.70597839 0.72375518 -2.50000000
v -130.83732605 6.46643114 -2.50000000
v -129.65519714 3.88391137 -2.50000000
v -112.59807587 2.54064965 -2.50000000
v -113.80901337 6.82971239 -2.50000000
v -117.79143524 4.45324755 -2.50000000
v -104.14470673 -10.24145508 -2.50000000
v -135.35295105 21.36486816 -2.50000000
v -100.71038055 -2.97888160 -2.50000000
v -86.29094696 -9.15173340 -2.50000000
v -81.65239716 -10.24145508 -2.50000000
v -85.24016571 -5.29235792 -2.50000000
v -104.14470673 4.29467821 -2.50000000
v -99.52825165 3.20715356 -2.50000000
v -102.89665985 6.56323290 -2.50000000
v -80.34319305 -2.97888160 -2.50000000
v -85.10881805 -2.97888160 -2.50000000
v -85.24016571 -0.67517060 -2.50000000
v -86.29094696 3.17639184 -2.50000000
v -81.65239716 4.29467821 -2.50000000
v -68.55706024 -1.17419398 -2.50000000
v -68.55706024 -16.62731934 -2.50000000
v -73.07268524 -16.62731934 -2.50000000
v -37.66643524 -0.26794401 -2.50000000
v -33.15081024 -16.62731934 -2.50000000
v -37.66643524 -16.62731934 -2.50000000
v -50.85393524 -1.17419398 -2.50000000
v -50.85393524 -16.62731934 -2.50000000
v -55.36956024 -16.62731934 -2.50000000
v -21.17424583 -6.20788527 -2.50000000
v -24.65556908 -10.29626465 -2.50000000
v -25.61064720 -7.71813917 -2.50000000
v -19.77580833 -9.74304199 -2.50000000
v -22.32756615 -13.53356934 -2.50000000
v -23.22295189 -12.53845215 -2.50000000
v -21.32988548 -14.42529297 -2.50000000
v -18.66350365 -11.09606934 -2.50000000
v -16.48711205 -16.80322266 -2.50000000
v -19.07890892 -15.85205078 -2.50000000
v -17.29045677 -12.15905762 -2.50000000
v -13.55449486 -17.27880859 -2.50000000
v -13.80608177 -13.37390137 -2.50000000
v -11.96037865 -17.33825684 -2.50000000
v -11.69475365 -13.52575684 -2.50000000
v -9.36858177 -17.20349121 -2.50000000
v -9.14787865 -13.36755371 -2.50000000
v -21.46037865 -4.02575636 -2.50000000
v -21.31194115 -0.54138154 -2.50000000
v -5.29631662 -0.51013154 -2.50000000
v -26.08818626 -4.80407667 -2.50000000
v -80.55266571 0.20520051 -2.50000000
v -73.07268524 10.71643066 -2.50000000
v -55.36956024 -0.26794401 -2.50000000
v -50.72747040 0.72375518 -2.50000000
v -68.43059540 0.71447784 -2.50000000
v -68.55706024 6.46643114 -2.50000000
v -67.41887665 3.87072778 -2.50000000
v -51.61174774 5.46643114 -2.50000000
v -55.45647430 1.57971227 -2.50000000
v -49.71575165 3.88391137 -2.50000000
v -80.55266571 -6.15417433 -2.50000000
v -33.15081024 -0.11950652 -2.50000000
v -37.75383759 1.56994665 -2.50000000
v -26.14787865 -3.22106910 -2.50000000
v -25.92131615 -0.03894011 -2.50000000
v -33.29582977 2.48010278 -2.50000000
v -24.73186302 4.08422899 -2.50000000
v -19.71965599 4.27209520 -2.50000000
v -21.02043724 1.27990758 -2.50000000
v -38.45305634 4.48400927 -2.50000000
v -82.90923309 6.56323290 -2.50000000
v -23.37248802 6.39965868 -2.50000000
v -129.99357605 7.62268114 -2.50000000
v -128.73576355 5.14611864 -2.50000000
v -127.58879852 6.16125536 -2.50000000
v -118.45452118 5.53674364 -2.50000000
v -119.30657196 6.38098192 -2.50000000
v -116.21916962 9.73352051 -2.50000000
v -124.71770477 7.32141161 -2.50000000
v -128.09513855 9.46643066 -2.50000000
v -122.99358368 7.46643114 -2.50000000
v -123.38127899 11.29650879 -2.50000000
v -114.86858368 8.45861816 -2.50000000
v -121.99358368 11.37268066 -2.50000000
v -121.57610321 7.34582567 -2.50000000
v -119.78166962 11.19055176 -2.50000000
v -102.11663055 7.56018114 -2.50000000
v -98.60881805 4.74768114 -2.50000000
v -101.24285126 8.45373535 -2.50000000
v -87.21038055 4.72424364 -2.50000000
v -66.53362274 5.13830614 -2.50000000
v -88.35100555 5.96838427 -2.50000000
v -84.56999969 8.45373535 -2.50000000
v -67.74944305 7.64172411 -2.50000000
v -91.47234344 11.31311035 -2.50000000
v -91.19475555 7.39025927 -2.50000000
v -92.89788055 7.56799364 -2.50000000
v -96.95183563 10.83654785 -2.50000000
v -94.60832977 7.39172411 -2.50000000
v -97.46379852 5.98156786 -2.50000000
v -88.85710907 10.83654785 -2.50000000
v -83.69475555 7.56018114 -2.50000000
v -94.32878876 11.31311035 -2.50000000
v -65.42961884 6.15686083 -2.50000000
v -127.04045868 10.15393066 -2.50000000
v -99.25652313 9.88342285 -2.50000000
v -130.83732605 21.36486816 -2.50000000
v -125.90471649 10.68713379 -2.50000000
v -86.55632782 9.88342285 -2.50000000
v -65.90569305 9.49719238 -2.50000000
v -64.86956024 10.17736816 -2.50000000
v -62.69133759 7.32092333 -2.50000000
v -68.55706024 10.71643066 -2.50000000
v -92.89788055 11.37268066 -2.50000000
v -52.17961884 6.82189989 -2.50000000
v -56.15178680 4.50158739 -2.50000000
v -56.76018524 5.57580614 -2.50000000
v -57.55022430 6.40295458 -2.50000000
v -53.72258759 9.01721191 -2.50000000
v -50.72698212 6.88244677 -2.50000000
v -48.83049774 5.14611864 -2.50000000
v -47.72356415 6.16125536 -2.50000000
v -58.33196259 11.27795410 -2.50000000
v -59.69866180 7.34826708 -2.50000000
v -48.71135712 9.11682129 -2.50000000
v -44.96184540 7.32141161 -2.50000000
v -47.58049774 9.93518066 -2.50000000
v -34.45598602 6.73010302 -2.50000000
v -39.06487274 5.56018114 -2.50000000
v -18.71037865 5.44299364 -2.50000000
v -22.52287865 7.42736864 -2.50000000
v -6.74736643 9.98413086 -2.50000000
v -8.44817162 6.32873583 -2.50000000
v -11.11614037 7.43029833 -2.50000000
v -21.57707787 8.35205078 -2.50000000
v -39.85149384 6.39416552 -2.50000000
v -36.75334930 9.68957520 -2.50000000
v -41.97258759 7.34729052 -2.50000000
v -40.05022430 11.18566895 -2.50000000
v -19.44817162 9.83154297 -2.50000000
v -17.48772240 6.37268114 -2.50000000
v -17.00285912 10.81787109 -2.50000000
v -14.47990990 7.43518114 -2.50000000
v -35.47112274 8.38049316 -2.50000000
v -10.12785912 11.15051270 -2.50000000
v -55.79680634 10.52014160 -2.50000000
v -54.69768524 9.85705566 -2.50000000
v -59.76799774 11.37268066 -2.50000000
v -46.35686493 10.56408691 -2.50000000
v -61.19426727 11.29797363 -2.50000000
v -63.74504852 10.70031738 -2.50000000
v -61.05706024 7.46643114 -2.50000000
v -43.59905243 11.28283691 -2.50000000
v -42.06487274 11.37268066 -2.50000000
v -14.24114037 11.31103516 -2.50000000
v -12.69475365 7.56799364 -2.50000000
v -43.30706024 7.46643114 -2.50000000
v -12.74162865 11.37268066 -2.50000000
v -4.85381174 8.65112305 -2.50000000
v -7.35881662 5.36486864 -2.50000000
v -6.81194162 -16.79919434 -2.50000000
v -6.67912912 -12.89294434 -2.50000000
v -4.30217600 -16.13903809 -2.50000000
v -4.25725412 -12.09997559 -2.50000000
v -1.85100412 -15.23669434 -2.50000000
v 26.80426979 -16.62731934 -2.50000000
v 22.28864479 -16.62731934 -2.50000000
v 26.80426979 -2.22106910 -2.50000000
v -1.85100412 -10.98669434 -2.50000000
v 47.42340851 -11.09606934 -2.50000000
v 44.75702667 -14.42529297 -2.50000000
v 43.75934601 -13.53356934 -2.50000000
v 48.79645538 -12.15905762 -2.50000000
v 47.00800323 -15.85205078 -2.50000000
v 42.86396027 -12.53845215 -2.50000000
v 46.31110382 -9.74304199 -2.50000000
v 49.59980011 -16.80322266 -2.50000000
v 52.28083038 -13.37390137 -2.50000000
v 52.53241730 -17.27880859 -2.50000000
v 54.12653351 -17.33825684 -2.50000000
v 54.39215851 -13.52575684 -2.50000000
v 56.93903351 -13.36755371 -2.50000000
v 59.27497101 -16.79919434 -2.50000000
v 56.71833038 -17.20349121 -2.50000000
v 59.40778351 -12.89294434 -2.50000000
v 61.78473663 -16.13903809 -2.50000000
v 61.82965851 -12.09997559 -2.50000000
v 64.23590851 -10.98669434 -2.50000000
v 64.23590851 -15.23669434 -2.50000000
v -0.80412912 -4.02575636 -2.50000000
v 44.62653351 -4.02575636 -2.50000000
v 39.99872589 -4.80407667 -2.50000000
v 39.93903351 -3.22106910 -2.50000000
v 40.16559601 -0.03894011 -2.50000000
v 44.77497101 -0.54138154 -2.50000000
v 22.28864479 10.71643066 -2.50000000
v -5.44280100 1.23693883 -2.50000000
v -1.00481272 1.06066930 -2.50000000
v -0.80412912 -1.83044398 -2.50000000
v -2.05840158 4.79858446 -2.50000000
v 26.93171120 -0.03601042 -2.50000000
v 44.91266632 -6.20788527 -2.50000000
v 40.47626495 -7.71813917 -2.50000000
v 41.43134308 -10.29626465 -2.50000000
v 45.06647491 1.27990758 -2.50000000
v 65.08209991 1.06066930 -2.50000000
v 65.28278351 -1.83044398 -2.50000000
v 60.79059601 -0.51013154 -2.50000000
v 65.28278351 -4.02575636 -2.50000000
v 60.64411163 1.23693883 -2.50000000
v 64.02851105 4.79858446 -2.50000000
v 41.35504913 4.08422899 -2.50000000
v 76.99762726 -16.62731934 -2.50000000
v 72.48200226 -16.62731934 -2.50000000
v 76.99762726 -1.17419398 -2.50000000
v 108.57843781 -15.84594727 -2.50000000
v 110.35358429 -11.93933105 -2.50000000
v 110.88312531 -16.80102539 -2.50000000
v 90.89606476 -0.26794401 -2.50000000
v 95.38825226 -16.62731934 -2.50000000
v 90.89606476 -16.62731934 -2.50000000
v 109.21051788 -10.70544434 -2.50000000
v 105.71833038 -13.51794434 -2.50000000
v 104.93830109 -12.51586914 -2.50000000
v 106.59210968 -14.41333008 -2.50000000
v 113.21686554 -13.34948730 -2.50000000
v 113.50617218 -17.27856445 -2.50000000
v 108.29792023 -9.16491699 -2.50000000
v 114.93708038 -17.33825684 -2.50000000
v 114.93708038 -13.52575684 -2.50000000
v 116.36261749 -17.27856445 -2.50000000
v 119.48395538 -11.93493652 -2.50000000
v 121.27863312 -15.84594727 -2.50000000
v 118.97785187 -16.80102539 -2.50000000
v 116.64020538 -13.34899902 -2.50000000
v 123.26496124 -14.41333008 -2.50000000
v 120.62458038 -10.69763184 -2.50000000
v 124.92572784 -12.51586914 -2.50000000
v 124.14020538 -13.51794434 -2.50000000
v 121.54401398 -9.15173340 -2.50000000
v 77.12897491 0.72375518 -2.50000000
v 72.48200226 10.71643066 -2.50000000
v 107.25495148 -5.30163527 -2.50000000
v 102.59821320 -6.15417433 -2.50000000
v 102.39020538 -2.97888160 -2.50000000
v 103.69025421 -10.24145508 -2.50000000
v 107.12458038 -2.97888160 -2.50000000
v 107.25592804 -0.65612763 -2.50000000
v 102.59821320 0.20520051 -2.50000000
v 90.80133820 1.55090368 -2.50000000
v 95.38825226 -0.11950652 -2.50000000
v 95.23688507 2.54064965 -2.50000000
v 76.99762726 6.46643114 -2.50000000
v 122.59479523 -5.29235792 -2.50000000
v 127.28229523 -6.15417433 -2.50000000
v 126.18256378 -10.24145508 -2.50000000
v 127.49176788 -2.97888160 -2.50000000
v 126.18256378 4.29467821 -2.50000000
v 122.59479523 -0.67517060 -2.50000000
v 121.54401398 3.17639184 -2.50000000
v 103.69025421 4.29467821 -2.50000000
v 127.28229523 0.20520051 -2.50000000
v 122.72614288 -2.97888160 -2.50000000
v 90.04352570 4.45324755 -2.50000000
v -6.47405100 4.17443895 -2.50000000
v -3.26250315 6.89135790 -2.50000000
v 26.80426979 6.46643114 -2.50000000
v 27.56794167 7.63195848 -2.50000000
v 28.84333229 4.89611864 -2.50000000
v 27.95124245 3.52258325 -2.50000000
v 29.97370338 5.97961473 -2.50000000
v 29.41169167 9.47961426 -2.50000000
v 32.89948273 7.21789598 -2.50000000
v 34.45124054 11.29699707 -2.50000000
v 34.69489288 7.37268114 -2.50000000
v 38.28083038 11.13049316 -2.50000000
v 37.51325226 6.90002489 -2.50000000
v 36.65583038 7.16174364 -2.50000000
v 36.50153351 11.35705566 -2.50000000
v 35.72028351 7.31994677 -2.50000000
v -4.01506662 7.81799364 -2.50000000
v 42.71442413 6.39965868 -2.50000000
v 46.36725616 4.27209520 -2.50000000
v 43.56403351 7.42736864 -2.50000000
v 47.37653351 5.44299364 -2.50000000
v 61.23310089 8.65112305 -2.50000000
v 62.07184601 7.81799364 -2.50000000
v 58.72809601 5.36486864 -2.50000000
v 57.63874054 6.32873583 -2.50000000
v 38.30426788 6.52111864 -2.50000000
v 46.63874054 9.83154297 -2.50000000
v 48.59918976 6.37268114 -2.50000000
v 44.50983429 8.35205078 -2.50000000
v 49.08405304 10.81787109 -2.50000000
v 51.60700226 7.43518114 -2.50000000
v 54.97077179 7.43029833 -2.50000000
v 59.33954620 9.98413086 -2.50000000
v 30.49176979 10.16174316 -2.50000000
v 26.80426979 10.71643066 -2.50000000
v 31.68952370 10.69152832 -2.50000000
v 36.01520538 11.37268066 -2.50000000
v 55.95905304 11.15051270 -2.50000000
v 51.84577179 11.31103516 -2.50000000
v 53.34528351 11.37268066 -2.50000000
v 37.03864288 11.31018066 -2.50000000
v 37.63043976 11.23791504 -2.50000000
v 53.39215851 7.56799364 -2.50000000
v 62.82440948 6.89135790 -2.50000000
v 59.61286163 4.17443895 -2.50000000
v 79.09918976 5.14611864 -2.50000000
v 78.17975616 3.88391137 -2.50000000
v 89.38043976 5.53674364 -2.50000000
v 94.02594757 6.82971239 -2.50000000
v 77.84137726 7.62268114 -2.50000000
v 80.24616241 6.16125536 -2.50000000
v 79.73981476 9.46643066 -2.50000000
v 83.11725616 7.32141161 -2.50000000
v 88.05329132 11.19055176 -2.50000000
v 88.52838898 6.38098192 -2.50000000
v 86.25885773 7.34582567 -2.50000000
v 85.84137726 11.37268066 -2.50000000
v 84.84137726 7.46643114 -2.50000000
v 84.45368195 11.29650879 -2.50000000
v 91.61579132 9.73352051 -2.50000000
v 104.93830109 6.56323290 -2.50000000
v 108.30670929 3.20715356 -2.50000000
v 109.22614288 4.74768114 -2.50000000
v 120.62458038 4.72424364 -2.50000000
v 119.48395538 5.96838427 -2.50000000
v 123.26496124 8.45373535 -2.50000000
v 124.92572784 6.56323290 -2.50000000
v 105.71833038 7.56018114 -2.50000000
v 110.37116241 5.98156786 -2.50000000
v 106.59210968 8.45373535 -2.50000000
v 124.14020538 7.56018114 -2.50000000
v 110.88312531 10.83654785 -2.50000000
v 113.22663116 7.39172411 -2.50000000
v 116.64020538 7.39025927 -2.50000000
v 118.97785187 10.83654785 -2.50000000
v 92.96637726 8.45861816 -2.50000000
v 80.79450226 10.15393066 -2.50000000
v 76.99762726 10.71643066 -2.50000000
v 81.93024445 10.68713379 -2.50000000
v 108.57843781 9.88342285 -2.50000000
v 121.27863312 9.88342285 -2.50000000
v 113.50617218 11.31311035 -2.50000000
v 114.93708038 7.56799364 -2.50000000
v 114.93708038 11.37268066 -2.50000000
v 116.36261749 11.31311035 -2.50000000
v -130.83732605 -1.17419398 2.50000000
v -135.35295105 -16.62731934 2.50000000
v -130.83732605 -16.62731934 2.50000000
v -116.93889618 -0.26794401 2.50000000
v -116.93889618 -16.62731934 2.50000000
v -112.44670868 -16.62731934 2.50000000
v -98.62444305 -10.70544434 2.50000000
v -102.89665985 -12.51586914 2.50000000
v -102.11663055 -13.51794434 2.50000000
v -101.24285126 -14.41333008 2.50000000
v -97.48137665 -11.93933105 2.50000000
v -99.25652313 -15.84594727 2.50000000
v -96.95183563 -16.80102539 2.50000000
v -94.61809540 -13.34948730 2.50000000
v -99.53704071 -9.16491699 2.50000000
v -92.89788055 -17.33825684 2.50000000
v -92.89788055 -13.52575684 2.50000000
v -94.32878876 -17.27856445 2.50000000
v -91.47234344 -17.27856445 2.50000000
v -88.35100555 -11.93493652 2.50000000
v -88.85710907 -16.80102539 2.50000000
v -86.55632782 -15.84594727 2.50000000
v -91.19475555 -13.34899902 2.50000000
v -84.56999969 -14.41333008 2.50000000
v -83.69475555 -13.51794434 2.50000000
v -87.21038055 -10.69763184 2.50000000
v -82.90923309 -12.51586914 2.50000000
v -112.44670868 -0.11950652 2.50000000
v -117.03362274 1.55090368 2.50000000
v -100.58000946 -5.30163527 2.50000000
v -105.44475555 -2.97888160 2.50000000
v -105.23674774 -6.15417433 2.50000000
v -105.23674774 0.20520051 2.50000000
v -100.57903290 -0.65612763 2.50000000
v -130.70597839 0.72375518 2.50000000
v -129.65519714 3.88391137 2.50000000
v -130.83732605 6.46643114 2.50000000
v -112.59807587 2.54064965 2.50000000
v -113.80901337 6.82971239 2.50000000
v -117.79143524 4.45324755 2.50000000
v -104.14470673 -10.24145508 2.50000000
v -135.35295105 21.36486816 2.50000000
v -100.71038055 -2.97888160 2.50000000
v -86.29094696 -9.15173340 2.50000000
v -81.65239716 -10.24145508 2.50000000
v -85.24016571 -5.29235792 2.50000000
v -104.14470673 4.29467821 2.50000000
v -99.52825165 3.20715356 2.50000000
v -102.89665985 6.56323290 2.50000000
v -80.34319305 -2.97888160 2.50000000
v -85.24016571 -0.67517060 2.50000000
v -85.10881805 -2.97888160 2.50000000
v -86.29094696 3.17639184 2.50000000
v -81.65239716 4.29467821 2.50000000
v -68.55706024 -1.17419398 2.50000000
v -73.07268524 -16.62731934 2.50000000
v -68.55706024 -16.62731934 2.50000000
v -37.66643524 -0.26794401 2.50000000
v -37.66643524 -16.62731934 2.50000000
v -33.15081024 -16.62731934 2.50000000
v -50.85393524 -1.17419398 2.50000000
v -55.36956024 -16.62731934 2.50000000
v -50.85393524 -16.62731934 2.50000000
v -21.17424583 -6.20788527 2.50000000
v -25.61064720 -7.71813917 2.50000000
v -24.65556908 -10.29626465 2.50000000
v -19.77580833 -9.74304199 2.50000000
v -23.22295189 -12.53845215 2.50000000
v -22.32756615 -13.53356934 2.50000000
v -21.32988548 -14.42529297 2.50000000
v -18.66350365 -11.09606934 2.50000000
v -16.48711205 -16.80322266 2.50000000
v -17.29045677 -12.15905762 2.50000000
v -19.07890892 -15.85205078 2.50000000
v -13.55449486 -17.27880859 2.50000000
v -13.80608177 -13.37390137 2.50000000
v -11.96037865 -17.33825684 2.50000000
v -9.36858177 -17.20349121 2.50000000
v -11.69475365 -13.52575684 2.50000000
v -9.14787865 -13.36755371 2.50000000
v -21.46037865 -4.02575636 2.50000000
v -5.29631662 -0.51013154 2.50000000
v -21.31194115 -0.54138154 2.50000000
v -26.08818626 -4.80407667 2.50000000
v -80.55266571 0.20520051 2.50000000
v -73.07268524 10.71643066 2.50000000
v -55.36956024 -0.26794401 2.50000000
v -50.72747040 0.72375518 2.50000000
v -68.43059540 0.71447784 2.50000000
v -68.55706024 6.46643114 2.50000000
v -67.41887665 3.87072778 2.50000000
v -51.61174774 5.46643114 2.50000000
v -55.45647430 1.57971227 2.50000000
v -49.71575165 3.88391137 2.50000000
v -80.55266571 -6.15417433 2.50000000
v -33.15081024 -0.11950652 2.50000000
v -37.75383759 1.56994665 2.50000000
v -26.14787865 -3.22106910 2.50000000
v -25.92131615 -0.03894011 2.50000000
v -33.29582977 2.48010278 2.50000000
v -24.73186302 4.08422899 2.50000000
v -21.02043724 1.27990758 2.50000000
v -19.71965599 4.27209520 2.50000000
v -38.45305634 4.48400927 2.50000000
v -82.90923309 6.56323290 2.50000000
v -23.37248802 6.39965868 2.50000000
v -129.99357605 7.62268114 2.50000000
v -128.73576355 5.14611864 2.50000000
v -127.58879852 6.16125536 2.50000000
v -118.45452118 5.53674364 2.50000000
v -116.21916962 9.73352051 2.50000000
v -119.30657196 6.38098192 2.50000000
v -124.71770477 7.32141161 2.50000000
v -128.09513855 9.46643066 2.50000000
v -122.99358368 7.46643114 2.50000000
v -123.38127899 11.29650879 2.50000000
v -114.86858368 8.45861816 2.50000000
v -121.57610321 7.34582567 2.50000000
v -121.99358368 11.37268066 2.50000000
v -119.78166962 11.19055176 2.50000000
v -98.60881805 4.74768114 2.50000000
v -102.11663055 7.56018114 2.50000000
v -101.24285126 8.45373535 2.50000000
v -87.21038055 4.72424364 2.50000000
v -66.53362274 5.13830614 2.50000000
v -88.35100555 5.96838427 2.50000000
v -84.56999969 8.45373535 2.50000000
v -67.74944305 7.64172411 2.50000000
v -91.47234344 11.31311035 2.50000000
v -92.89788055 7.56799364 2.50000000
v -91.19475555 7.39025927 2.50000000
v -96.95183563 10.83654785 2.50000000
v -97.46379852 5.98156786 2.50000000
v -94.60832977 7.39172411 2.50000000
v -88.85710907 10.83654785 2.50000000
v -83.69475555 7.56018114 2.50000000
v -94.32878876 11.31311035 2.50000000
v -65.42961884 6.15686083 2.50000000
v -127.04045868 10.15393066 2.50000000
v -99.25652313 9.88342285 2.50000000
v -130.83732605 21.36486816 2.50000000
v -125.90471649 10.68713379 2.50000000
v -86.55632782 9.88342285 2.50000000
v -65.90569305 9.49719238 2.50000000
v -64.86956024 10.17736816 2.50000000
v -62.69133759 7.32092333 2.50000000
v -68.55706024 10.71643066 2.50000000
v -92.89788055 11.37268066 2.50000000
v -52.17961884 6.82189989 2.50000000
v -56.76018524 5.57580614 2.50000000
v -56.15178680 4.50158739 2.50000000
v -53.72258759 9.01721191 2.50000000
v -57.55022430 6.40295458 2.50000000
v -50.72698212 6.88244677 2.50000000
v -48.83049774 5.14611864 2.50000000
v -47.72356415 6.16125536 2.50000000
v -58.33196259 11.27795410 2.50000000
v -59.69866180 7.34826708 2.50000000
v -48.71135712 9.11682129 2.50000000
v -44.96184540 7.32141161 2.50000000
v -47.58049774 9.93518066 2.50000000
v -34.45598602 6.73010302 2.50000000
v -39.06487274 5.56018114 2.50000000
v -18.71037865 5.44299364 2.50000000
v -22.52287865 7.42736864 2.50000000
v -6.74736643 9.98413086 2.50000000
v -11.11614037 7.43029833 2.50000000
v -8.44817162 6.32873583 2.50000000
v -21.57707787 8.35205078 2.50000000
v -39.85149384 6.39416552 2.50000000
v -36.75334930 9.68957520 2.50000000
v -41.97258759 7.34729052 2.50000000
v -40.05022430 11.18566895 2.50000000
v -19.44817162 9.83154297 2.50000000
v -17.48772240 6.37268114 2.50000000
v -17.00285912 10.81787109 2.50000000
v -14.47990990 7.43518114 2.50000000
v -35.47112274 8.38049316 2.50000000
v -10.12785912 11.15051270 2.50000000
v -55.79680634 10.52014160 2.50000000
v -54.69768524 9.85705566 2.50000000
v -59.76799774 11.37268066 2.50000000
v -46.35686493 10.56408691 2.50000000
v -61.19426727 11.29797363 2.50000000
v -63.74504852 10.70031738 2.50000000
v -61.05706024 7.46643114 2.50000000
v -43.59905243 11.28283691 2.50000000
v -42.06487274 11.37268066 2.50000000
v -12.69475365 7.56799364 2.50000000
v -14.24114037 11.31103516 2.50000000
v -43.30706024 7.46643114 2.50000000
v -12.74162865 11.37268066 2.50000000
v -7.35881662 5.36486864 2.50000000
v -4.85381174 8.65112305 2.50000000
v -6.81194162 -16.79919434 2.50000000
v -6.67912912 -12.89294434 2.50000000
v -4.30217600 -16.13903809 2.50000000
v -4.25725412 -12.09997559 2.50000000
v -1.85100412 -15.23669434 2.50000000
v 26.80426979 -16.62731934 2.50000000
v 26.80426979 -2.22106910 2.50000000
v 22.28864479 -16.62731934 2.50000000
v -1.85100412 -10.98669434 2.50000000
v 47.42340851 -11.09606934 2.50000000
v 43.75934601 -13.53356934 2.50000000
v 44.75702667 -14.42529297 2.50000000
v 48.79645538 -12.15905762 2.50000000
v 47.00800323 -15.85205078 2.50000000
v 42.86396027 -12.53845215 2.50000000
v 46.31110382 -9.74304199 2.50000000
v 49.59980011 -16.80322266 2.50000000
v 52.28083038 -13.37390137 2.50000000
v 52.53241730 -17.27880859 2.50000000
v 54.12653351 -17.33825684 2.50000000
v 54.39215851 -13.52575684 2.50000000
v 56.93903351 -13.36755371 2.50000000
v 56.71833038 -17.20349121 2.50000000
v 59.27497101 -16.79919434 2.50000000
v 59.40778351 -12.89294434 2.50000000
v 61.78473663 -16.13903809 2.50000000
v 61.82965851 -12.09997559 2.50000000
v 64.23590851 -15.23669434 2.50000000
v 64.23590851 -10.98669434 2.50000000
v -0.80412912 -4.02575636 2.50000000
v 44.62653351 -4.02575636 2.50000000
v 39.93903351 -3.22106910 2.50000000
v 39.99872589 -4.80407667 2.50000000
v 40.16559601 -0.03894011 2.50000000
v 44.77497101 -0.54138154 2.50000000
v 22.28864479 10.71643066 2.50000000
v -5.44280100 1.23693883 2.50000000
v -1.00481272 1.06066930 2.50000000
v -0.80412912 -1.83044398 2.50000000
v -2.05840158 4.79858446 2.50000000
v 26.93171120 -0.03601042 2.50000000
v 44.91266632 -6.20788527 2.50000000
v 40.47626495 -7.71813917 2.50000000
v 41.43134308 -10.29626465 2.50000000
v 45.06647491 1.27990758 2.50000000
v 65.08209991 1.06066930 2.50000000
v 60.79059601 -0.51013154 2.50000000
v 65.28278351 -1.83044398 2.50000000
v 65.28278351 -4.02575636 2.50000000
v 60.64411163 1.23693883 2.50000000
v 64.02851105 4.79858446 2.50000000
v 41.35504913 4.08422899 2.50000000
v 76.99762726 -16.62731934 2.50000000
v 76.99762726 -1.17419398 2.50000000
v 72.48200226 -16.62731934 2.50000000
v 108.57843781 -15.84594727 2.50000000
v 110.88312531 -16.80102539 2.50000000
v 110.35358429 -11.93933105 2.50000000
v 90.89606476 -0.26794401 2.50000000
v 90.89606476 -16.62731934 2.50000000
v 95.38825226 -16.62731934 2.50000000
v 109.21051788 -10.70544434 2.50000000
v 104.93830109 -12.51586914 2.50000000
v 105.71833038 -13.51794434 2.50000000
v 106.59210968 -14.41333008 2.50000000
v 113.21686554 -13.34948730 2.50000000
v 113.50617218 -17.27856445 2.50000000
v 108.29792023 -9.16491699 2.50000000
v 114.93708038 -17.33825684 2.50000000
v 114.93708038 -13.52575684 2.50000000
v 116.36261749 -17.27856445 2.50000000
v 119.48395538 -11.93493652 2.50000000
v 118.97785187 -16.80102539 2.50000000
v 121.27863312 -15.84594727 2.50000000
v 116.64020538 -13.34899902 2.50000000
v 123.26496124 -14.41333008 2.50000000
v 120.62458038 -10.69763184 2.50000000
v 124.14020538 -13.51794434 2.50000000
v 124.92572784 -12.51586914 2.50000000
v 121.54401398 -9.15173340 2.50000000
v 77.12897491 0.72375518 2.50000000
v 72.48200226 10.71643066 2.50000000
v 107.25495148 -5.30163527 2.50000000
v 102.39020538 -2.97888160 2.50000000
v 102.59821320 -6.15417433 2.50000000
v 103.69025421 -10.24145508 2.50000000
v 107.12458038 -2.97888160 2.50000000
v 107.25592804 -0.65612763 2.50000000
v 102.59821320 0.20520051 2.50000000
v 90.80133820 1.55090368 2.50000000
v 95.38825226 -0.11950652 2.50000000
v 95.23688507 2.54064965 2.50000000
v 76.99762726 6.46643114 2.50000000
v 122.59479523 -5.29235792 2.50000000
v 126.18256378 -10.24145508 2.50000000
v 127.28229523 -6.15417433 2.50000000
v 127.49176788 -2.97888160 2.50000000
v 126.18256378 4.29467821 2.50000000
v 121.54401398 3.17639184 2.50000000
v 122.59479523 -0.67517060 2.50000000
v 103.69025421 4.29467821 2.50000000
v 127.28229523 0.20520051 2.50000000
v 122.72614288 -2.97888160 2.50000000
v 90.04352570 4.45324755 2.50000000
v -6.47405100 4.17443895 2.50000000
v -3.26250315 6.89135790 2.50000000
v 26.80426979 6.46643114 2.50000000
v 28.84333229 4.89611864 2.50000000
v 27.56794167 7.63195848 2.50000000
v 27.95124245 3.52258325 2.50000000
v 29.97370338 5.97961473 2.50000000
v 32.89948273 7.21789598 2.50000000
v 29.41169167 9.47961426 2.50000000
v 34.45124054 11.29699707 2.50000000
v 34.69489288 7.37268114 2.50000000
v 38.28083038 11.13049316 2.50000000
v 36.65583038 7.16174364 2.50000000
v 37.51325226 6.90002489 2.50000000
v 36.50153351 11.35705566 2.50000000
v 35.72028351 7.31994677 2.50000000
v -4.01506662 7.81799364 2.50000000
v 42.71442413 6.39965868 2.50000000
v 46.36725616 4.27209520 2.50000000
v 43.56403351 7.42736864 2.50000000
v 47.37653351 5.44299364 2.50000000
v 61.23310089 8.65112305 2.50000000
v 58.72809601 5.36486864 2.50000000
v 62.07184601 7.81799364 2.50000000
v 57.63874054 6.32873583 2.50000000
v 38.30426788 6.52111864 2.50000000
v 46.63874054 9.83154297 2.50000000
v 48.59918976 6.37268114 2.50000000
v 44.50983429 8.35205078 2.50000000
v 49.08405304 10.81787109 2.50000000
v 51.60700226 7.43518114 2.50000000
v 59.33954620 9.98413086 2.50000000
v 54.97077179 7.43029833 2.50000000
v 30.49176979 10.16174316 2.50000000
v 26.80426979 10.71643066 2.50000000
v 31.68952370 10.69152832 2.50000000
v 36.01520538 11.37268066 2.50000000
v 55.95905304 11.15051270 2.50000000
v 51.84577179 11.31103516 2.50000000
v 53.34528351 11.37268066 2.50000000
v 37.03864288 11.31018066 2.50000000
v 37.63043976 11.23791504 2.50000000
v 53.39215851 7.56799364 2.50000000
v 59.61286163 4.17443895 2.50000000
v 62.82440948 6.89135790 2.50000000
v 79.09918976 5.14611864 2.50000000
v 78.17975616 3.88391137 2.50000000
v 89.38043976 5.53674364 2.50000000
v 94.02594757 6.82971239 2.50000000
v 77.84137726 7.62268114 2.50000000
v 80.24616241 6.16125536 2.50000000
v 83.11725616 7.32141161 2.50000000
v 79.73981476 9.46643066 2.50000000
v 88.05329132 11.19055176 2.50000000
v 86.25885773 7.34582567 2.50000000
v 88.52838898 6.38098192 2.50000000
v 85.84137726 11.37268066 2.50000000
v 84.84137726 7.46643114 2.50000000
v 84.45368195 11.29650879 2.50000000
v 91.61579132 9.73352051 2.50000000
v 104.93830109 6.56323290 2.50000000
v 108.30670929 3.20715356 2.50000000
v 109.22614288 4.74768114 2.50000000
v 120.62458038 4.72424364 2.50000000
v 123.26496124 8.45373535 2.50000000
v 119.48395538 5.96838427 2.50000000
v 124.92572784 6.56323290 2.50000000
v 105.71833038 7.56018114 2.50000000
v 110.37116241 5.98156786 2.50000000
v 106.59210968 8.45373535 2.50000000
v 124.14020538 7.56018114 2.50000000
v 110.88312531 10.83654785 2.50000000
v 113.22663116 7.39172411 2.50000000
v 116.64020538 7.39025927 2.50000000
v 118.97785187 10.83654785 2.50000000
v 92.96637726 8.45861816 2.50000000
v 80.79450226 10.15393066 2.50000000
v 76.99762726 10.71643066 2.50000000
v 81.93024445 10.68713379 2.50000000
v 108.57843781 9.88342285 2.50000000
v 121.27863312 9.88342285 2.50000000
v 113.50617218 11.31311035 2.50000000
v 114.93708038 7.56799364 2.50000000
v 114.93708038 11.37268066 2.50000000
v 116.36261749 11.31311035 2.50000000
f 1 2 3
f 4 5 6
f 7 8 9
f 7 10 8
f 11 10 7
f 11 12 13
f 11 13 10
f 12 11 14
f 7 9 15
f 16 17 18
f 19 16 18
f 20 21 22
f 19 23 22
f 20 24 21
f 18 17 14
f 18 23 19
f 25 24 26
f 20 22 23
f 24 20 26
f 17 12 14
f 27 25 26
f 5 4 28
f 4 29 28
f 30 31 32
f 33 34 32
f 35 36 37
f 28 29 38
f 39 38 40
f 29 40 38
f 30 41 31
f 3 42 1
f 34 43 32
f 43 30 32
f 44 27 26
f 45 44 46
f 41 15 9
f 47 48 34
f 47 34 33
f 48 47 49
f 50 51 52
f 53 54 52
f 51 50 46
f 30 15 41
f 27 44 45
f 42 35 1
f 55 56 57
f 58 59 60
f 61 62 63
f 64 65 66
f 67 68 69
f 69 65 67
f 70 68 71
f 72 73 74
f 75 72 76
f 77 78 79
f 78 80 79
f 77 75 78
f 78 75 76
f 64 67 65
f 67 71 68
f 76 72 74
f 70 71 74
f 81 82 83
f 73 70 74
f 84 64 66
f 85 50 52
f 52 54 85
f 86 55 57
f 87 88 61
f 55 86 89
f 87 61 63
f 90 89 86
f 91 89 90
f 92 88 93
f 87 93 88
f 92 94 88
f 46 50 95
f 96 59 58
f 58 97 96
f 81 98 82
f 81 64 84
f 81 84 98
f 99 82 98
f 96 97 100
f 101 102 103
f 103 99 101
f 99 103 82
f 104 100 97
f 53 105 54
f 46 95 45
f 101 106 102
f 107 108 36
f 108 37 36
f 109 108 107
f 110 111 112
f 39 40 110
f 113 109 114
f 109 107 114
f 115 113 116
f 110 117 39
f 115 118 119
f 119 120 111
f 49 121 122
f 121 123 122
f 124 105 53
f 125 91 90
f 126 127 124
f 125 90 128
f 129 130 131
f 132 133 134
f 126 130 135
f 105 124 136
f 131 133 137
f 125 128 138
f 123 134 122
f 49 122 48
f 127 136 124
f 116 118 115
f 113 114 139
f 120 112 111
f 123 140 134
f 112 117 110
f 141 36 42
f 142 113 139
f 116 113 142
f 120 119 118
f 143 126 135
f 138 128 144
f 145 146 144
f 90 86 147
f 126 143 127
f 140 132 134
f 132 137 133
f 148 129 131
f 135 130 129
f 148 131 137
f 144 146 138
f 36 35 42
f 149 150 151
f 151 152 153
f 154 155 92
f 92 93 150
f 92 150 149
f 155 94 92
f 156 155 154
f 157 152 158
f 151 153 149
f 154 159 156
f 160 156 161
f 162 104 163
f 164 102 165
f 166 167 168
f 169 164 165
f 170 171 163
f 104 162 100
f 172 173 170
f 165 102 106
f 174 175 164
f 176 177 175
f 162 163 178
f 168 179 166
f 180 152 157
f 152 180 181
f 157 158 182
f 161 183 160
f 152 181 153
f 184 146 185
f 186 184 182
f 186 182 158
f 187 160 183
f 161 156 159
f 184 186 146
f 171 170 173
f 163 171 178
f 173 172 188
f 164 169 174
f 175 174 176
f 177 189 190
f 188 172 191
f 189 177 176
f 190 189 192
f 168 190 192
f 168 192 179
f 191 187 188
f 191 160 187
f 167 193 194
f 146 145 185
f 80 195 79
f 196 197 195
f 198 199 197
f 200 201 202
f 199 198 203
f 198 197 196
f 204 205 206
f 207 208 205
f 209 210 206
f 204 207 205
f 208 207 211
f 212 213 211
f 214 213 215
f 216 217 218
f 214 215 218
f 219 220 217
f 212 215 213
f 215 216 218
f 220 219 221
f 219 217 216
f 221 222 223
f 220 221 223
f 211 207 212
f 83 224 81
f 225 226 227
f 228 229 227
f 202 201 230
f 231 232 83
f 232 233 83
f 232 231 234
f 235 202 230
f 83 233 224
f 236 237 226
f 236 226 225
f 236 210 238
f 225 227 229
f 210 209 238
f 239 229 228
f 240 241 242
f 242 225 229
f 241 243 242
f 242 244 240
f 242 243 225
f 245 240 244
f 238 237 236
f 204 206 210
f 246 239 228
f 247 248 249
f 250 251 252
f 253 254 255
f 256 257 258
f 256 259 257
f 251 259 256
f 251 250 259
f 252 251 260
f 252 260 261
f 256 258 262
f 263 261 264
f 265 263 264
f 266 267 268
f 265 269 268
f 266 270 267
f 264 269 265
f 269 266 268
f 271 272 273
f 271 270 266
f 271 274 272
f 271 273 270
f 261 260 264
f 275 249 276
f 277 278 279
f 277 280 278
f 279 281 277
f 282 279 283
f 284 285 253
f 285 284 286
f 254 253 285
f 275 276 287
f 279 282 281
f 262 280 277
f 288 289 290
f 290 274 288
f 288 291 289
f 280 262 258
f 292 293 294
f 283 295 282
f 291 293 296
f 291 288 297
f 291 297 293
f 292 296 293
f 290 272 274
f 286 284 298
f 276 249 248
f 234 231 299
f 299 300 234
f 301 302 303
f 304 301 303
f 301 304 235
f 305 303 302
f 305 306 307
f 301 235 230
f 308 309 307
f 310 311 312
f 313 312 314
f 308 314 309
f 300 194 315
f 316 317 246
f 246 317 239
f 318 319 317
f 320 321 322
f 323 320 322
f 316 318 317
f 311 310 324
f 325 326 319
f 318 327 319
f 328 329 326
f 323 330 331
f 193 167 166
f 194 193 315
f 305 302 306
f 307 306 332
f 333 301 230
f 308 307 334
f 332 334 307
f 313 314 335
f 314 308 335
f 326 325 328
f 325 319 327
f 331 330 336
f 331 320 323
f 329 328 337
f 330 338 336
f 312 313 339
f 340 312 339
f 341 337 338
f 338 330 341
f 310 312 340
f 329 337 341
f 322 342 343
f 300 299 194
f 245 244 343
f 344 345 287
f 346 347 298
f 348 344 287
f 349 344 348
f 349 350 351
f 352 353 354
f 355 354 356
f 357 356 351
f 353 358 346
f 342 322 321
f 359 360 295
f 361 360 359
f 362 363 364
f 362 365 294
f 292 294 365
f 366 361 359
f 367 361 368
f 365 362 369
f 370 371 367
f 372 373 363
f 347 346 374
f 347 286 298
f 287 345 275
f 350 349 348
f 355 356 357
f 351 350 375
f 353 352 358
f 346 358 374
f 376 287 276
f 377 351 375
f 377 357 351
f 352 354 355
f 367 368 378
f 368 361 366
f 364 363 379
f 380 381 371
f 367 378 370
f 369 362 364
f 363 373 379
f 381 380 382
f 370 380 371
f 372 381 383
f 383 381 382
f 373 372 383
f 342 245 343
f 295 360 282
f 196 195 80
f 384 385 386
f 387 388 389
f 390 391 392
f 390 392 393
f 394 390 393
f 394 395 396
f 394 393 395
f 396 397 394
f 390 398 391
f 399 400 401
f 402 400 399
f 403 404 405
f 402 404 406
f 403 405 407
f 400 397 401
f 400 402 406
f 408 409 407
f 403 406 404
f 407 409 403
f 401 397 396
f 410 409 408
f 389 411 387
f 387 411 412
f 413 414 415
f 416 414 417
f 418 419 420
f 411 421 412
f 422 423 421
f 412 421 423
f 413 415 424
f 385 384 425
f 417 414 426
f 426 414 413
f 427 409 410
f 428 429 427
f 424 391 398
f 430 417 431
f 430 416 417
f 431 432 430
f 433 434 435
f 436 434 437
f 435 429 433
f 413 424 398
f 410 428 427
f 425 384 418
f 438 439 440
f 441 442 443
f 444 445 446
f 447 448 449
f 450 451 452
f 451 450 449
f 453 454 452
f 455 456 457
f 458 459 455
f 460 461 462
f 462 461 463
f 460 462 458
f 462 459 458
f 447 449 450
f 450 452 454
f 459 456 455
f 453 456 454
f 464 465 466
f 457 456 453
f 467 448 447
f 468 434 433
f 434 468 437
f 469 439 438
f 470 444 471
f 438 472 469
f 470 445 444
f 473 469 472
f 474 473 472
f 475 476 471
f 470 471 476
f 475 471 477
f 429 478 433
f 479 441 443
f 441 479 480
f 464 466 481
f 464 467 447
f 464 481 467
f 482 481 466
f 479 483 480
f 484 485 486
f 485 484 482
f 482 466 485
f 487 480 483
f 436 437 488
f 429 428 478
f 484 486 489
f 490 420 491
f 491 420 419
f 492 490 491
f 493 494 495
f 422 493 423
f 496 497 492
f 492 497 490
f 498 499 496
f 493 422 500
f 498 501 502
f 501 495 503
f 432 504 505
f 505 504 506
f 507 436 488
f 508 473 474
f 509 507 510
f 508 511 473
f 512 513 514
f 515 516 517
f 509 518 514
f 488 519 507
f 513 520 517
f 508 521 511
f 506 504 516
f 432 431 504
f 510 507 519
f 499 498 502
f 496 522 497
f 503 495 494
f 506 516 523
f 494 493 500
f 524 425 420
f 525 522 496
f 499 525 496
f 503 502 501
f 526 518 509
f 521 527 511
f 528 527 529
f 473 530 469
f 509 510 526
f 523 516 515
f 515 517 520
f 531 513 512
f 518 512 514
f 531 520 513
f 527 521 529
f 420 425 418
f 532 533 534
f 533 535 536
f 537 475 538
f 475 534 476
f 475 532 534
f 538 475 477
f 539 537 538
f 540 541 536
f 533 532 535
f 537 539 542
f 543 544 539
f 545 546 487
f 547 548 486
f 549 550 551
f 552 548 547
f 553 546 554
f 487 483 545
f 555 553 556
f 548 489 486
f 557 547 558
f 559 558 560
f 545 561 546
f 550 549 562
f 563 540 536
f 536 564 563
f 540 565 541
f 544 543 566
f 536 535 564
f 567 568 529
f 569 565 567
f 569 541 565
f 570 566 543
f 544 542 539
f 567 529 569
f 554 556 553
f 546 561 554
f 556 571 555
f 547 557 552
f 558 559 557
f 560 572 573
f 571 574 555
f 573 559 560
f 572 575 573
f 550 575 572
f 550 562 575
f 574 571 570
f 574 570 543
f 551 576 577
f 529 568 528
f 463 461 578
f 579 578 580
f 581 580 582
f 583 584 585
f 582 586 581
f 581 579 580
f 587 588 589
f 590 589 591
f 592 588 593
f 587 589 590
f 591 594 590
f 595 594 596
f 597 598 596
f 599 600 601
f 597 600 598
f 602 601 603
f 595 596 598
f 598 600 599
f 603 604 602
f 602 599 601
f 604 605 606
f 603 605 604
f 594 595 590
f 465 464 607
f 608 609 610
f 611 609 612
f 584 613 585
f 614 465 615
f 615 465 616
f 615 617 614
f 618 613 584
f 465 607 616
f 619 610 620
f 619 608 610
f 619 621 593
f 608 612 609
f 593 621 592
f 622 611 612
f 623 624 625
f 624 612 608
f 625 624 626
f 624 623 627
f 624 608 626
f 628 627 623
f 621 619 620
f 587 593 588
f 629 611 622
f 630 631 632
f 633 634 635
f 636 637 638
f 639 640 641
f 639 641 642
f 635 639 642
f 635 642 633
f 634 643 635
f 634 644 643
f 639 645 640
f 646 647 644
f 648 647 646
f 649 650 651
f 648 650 652
f 649 651 653
f 647 648 652
f 652 650 649
f 654 655 656
f 654 649 653
f 654 656 657
f 654 653 655
f 644 647 643
f 658 659 631
f 660 661 662
f 660 662 663
f 661 660 664
f 665 666 661
f 667 636 668
f 668 669 667
f 638 668 636
f 658 670 659
f 661 664 665
f 645 660 663
f 671 672 673
f 672 671 657
f 671 673 674
f 663 640 645
f 675 676 677
f 666 665 678
f 674 679 677
f 674 680 671
f 674 677 680
f 675 677 679
f 672 657 656
f 669 681 667
f 659 632 631
f 617 682 614
f 682 617 683
f 684 685 686
f 687 685 684
f 684 618 687
f 688 686 685
f 688 689 690
f 684 613 618
f 691 689 692
f 693 694 695
f 696 697 694
f 691 692 697
f 683 698 576
f 699 629 700
f 629 622 700
f 701 700 702
f 703 704 705
f 706 704 703
f 699 700 701
f 695 707 693
f 708 702 709
f 701 702 710
f 711 709 712
f 706 713 714
f 577 549 551
f 576 698 577
f 688 690 686
f 689 715 690
f 716 613 684
f 691 717 689
f 715 689 717
f 696 718 697
f 697 718 691
f 709 711 708
f 708 710 702
f 713 719 714
f 713 706 703
f 712 720 711
f 714 719 721
f 694 722 696
f 723 722 694
f 724 721 720
f 721 724 714
f 693 723 694
f 712 724 720
f 704 725 726
f 683 576 682
f 628 725 627
f 727 670 728
f 729 681 730
f 731 670 727
f 732 731 727
f 732 733 734
f 735 736 737
f 738 739 736
f 740 733 739
f 737 729 741
f 726 705 704
f 742 678 743
f 744 742 743
f 745 746 747
f 745 676 748
f 675 748 676
f 749 742 744
f 750 751 744
f 748 752 745
f 753 750 754
f 755 747 756
f 730 757 729
f 730 681 669
f 670 658 728
f 734 731 732
f 738 740 739
f 733 758 734
f 737 741 735
f 729 757 741
f 759 659 670
f 760 758 733
f 760 733 740
f 735 738 736
f 750 761 751
f 751 749 744
f 746 762 747
f 763 754 764
f 750 753 761
f 752 746 745
f 747 762 756
f 764 765 763
f 753 754 763
f 755 766 764
f 766 765 764
f 756 766 755
f 726 725 628
f 678 665 743
f 579 463 578
f 137 132 515
f 137 515 520
f 132 140 523
f 132 523 515
f 140 123 506
f 140 506 523
f 123 121 505
f 123 505 506
f 121 49 432
f 121 432 505
f 49 47 430
f 49 430 432
f 47 33 416
f 47 416 430
f 33 32 414
f 33 414 416
f 32 31 415
f 32 415 414
f 31 41 424
f 31 424 415
f 41 9 391
f 41 391 424
f 9 8 392
f 9 392 391
f 8 10 393
f 8 393 392
f 10 13 395
f 10 395 393
f 13 12 396
f 13 396 395
f 12 17 401
f 12 401 396
f 17 16 399
f 17 399 401
f 16 19 402
f 16 402 399
f 19 22 404
f 19 404 402
f 22 21 405
f 22 405 404
f 21 24 407
f 21 407 405
f 24 25 408
f 24 408 407
f 25 27 410
f 25 410 408
f 27 45 428
f 27 428 410
f 45 95 478
f 45 478 428
f 95 50 433
f 95 433 478
f 50 85 468
f 50 468 433
f 85 54 437
f 85 437 468
f 54 105 488
f 54 488 437
f 105 136 519
f 105 519 488
f 136 127 510
f 136 510 519
f 127 143 526
f 127 526 510
f 143 135 518
f 143 518 526
f 135 129 512
f 135 512 518
f 129 148 531
f 129 531 512
f 148 137 520
f 148 520 531
f 380 370 753
f 380 753 763
f 370 378 761
f 370 761 753
f 378 368 751
f 378 751 761
f 368 366 749
f 368 749 751
f 366 359 742
f 366 742 749
f 359 295 678
f 359 678 742
f 295 283 666
f 295 666 678
f 283 279 661
f 283 661 666
f 279 278 662
f 279 662 661
f 278 280 663
f 278 663 662
f 280 258 640
f 280 640 663
f 258 257 641
f 258 641 640
f 257 259 642
f 257 642 641
f 259 250 633
f 259 633 642
f 250 252 634
f 250 634 633
f 252 261 644
f 252 644 634
f 261 263 646
f 261 646 644
f 263 265 648
f 263 648 646
f 265 268 650
f 265 650 648
f 268 267 651
f 268 651 650
f 267 270 653
f 267 653 651
f 270 273 655
f 270 655 653
f 273 272 656
f 273 656 655
f 272 290 672
f 272 672 656
f 290 289 673
f 290 673 672
f 289 291 674
f 289 674 673
f 291 296 679
f 291 679 674
f 296 292 675
f 296 675 679
f 292 365 748
f 292 748 675
f 365 369 752
f 365 752 748
f 369 364 746
f 369 746 752
f 364 379 762
f 364 762 746
f 379 373 756
f 379 756 762
f 373 383 766
f 373 766 756
f 383 382 765
f 383 765 766
f 382 380 763
f 382 763 765
f 149 153 535
f 149 535 532
f 153 181 564
f 153 564 535
f 181 180 563
f 181 563 564
f 180 157 540
f 180 540 563
f 157 182 565
f 157 565 540
f 182 184 567
f 182 567 565
f 184 185 568
f 184 568 567
f 185 145 528
f 185 528 568
f 145 144 527
f 145 527 528
f 144 128 511
f 144 511 527
f 128 90 473
f 128 473 511
f 90 147 530
f 90 530 473
f 147 86 469
f 147 469 530
f 86 57 439
f 86 439 469
f 57 56 440
f 57 440 439
f 56 55 438
f 56 438 440
f 55 89 472
f 55 472 438
f 89 91 474
f 89 474 472
f 91 125 508
f 91 508 474
f 125 138 521
f 125 521 508
f 138 146 529
f 138 529 521
f 146 186 569
f 146 569 529
f 186 158 541
f 186 541 569
f 158 152 536
f 158 536 541
f 152 151 533
f 152 533 536
f 151 150 534
f 151 534 533
f 150 93 476
f 150 476 534
f 93 87 470
f 93 470 476
f 87 63 445
f 87 445 470
f 63 62 446
f 63 446 445
f 62 61 444
f 62 444 446
f 61 88 471
f 61 471 444
f 88 94 477
f 88 477 471
f 94 155 538
f 94 538 477
f 155 156 539
f 155 539 538
f 156 160 543
f 156 543 539
f 160 191 574
f 160 574 543
f 191 172 555
f 191 555 574
f 172 170 553
f 172 553 555
f 170 163 546
f 170 546 553
f 163 104 487
f 163 487 546
f 104 97 480
f 104 480 487
f 97 58 441
f 97 441 480
f 58 60 442
f 58 442 441
f 60 59 443
f 60 443 442
f 59 96 479
f 59 479 443
f 96 100 483
f 96 483 479
f 100 162 545
f 100 545 483
f 162 178 561
f 162 561 545
f 178 171 554
f 178 554 561
f 171 173 556
f 171 556 554
f 173 188 571
f 173 571 556
f 188 187 570
f 188 570 571
f 187 183 566
f 187 566 570
f 183 161 544
f 183 544 566
f 161 159 542
f 161 542 544
f 159 154 537
f 159 537 542
f 154 92 475
f 154 475 537
f 92 149 532
f 92 532 475
f 232 234 617
f 232 617 615
f 234 300 683
f 234 683 617
f 300 315 698
f 300 698 683
f 315 193 577
f 315 577 698
f 193 166 549
f 193 549 577
f 166 179 562
f 166 562 549
f 179 192 575
f 179 575 562
f 192 189 573
f 192 573 575
f 189 176 559
f 189 559 573
f 176 174 557
f 176 557 559
f 174 169 552
f 174 552 557
f 169 165 548
f 169 548 552
f 165 106 489
f 165 489 548
f 106 101 484
f 106 484 489
f 101 99 482
f 101 482 484
f 99 98 481
f 99 481 482
f 98 84 467
f 98 467 481
f 84 66 448
f 84 448 467
f 66 65 449
f 66 449 448
f 65 69 451
f 65 451 449
f 69 68 452
f 69 452 451
f 68 70 453
f 68 453 452
f 70 73 457
f 70 457 453
f 73 72 455
f 73 455 457
f 72 75 458
f 72 458 455
f 75 77 460
f 75 460 458
f 77 79 461
f 77 461 460
f 79 195 578
f 79 578 461
f 195 197 580
f 195 580 578
f 197 199 582
f 197 582 580
f 199 203 586
f 199 586 582
f 203 198 581
f 203 581 586
f 198 196 579
f 198 579 581
f 196 80 463
f 196 463 579
f 80 78 462
f 80 462 463
f 78 76 459
f 78 459 462
f 76 74 456
f 76 456 459
f 74 71 454
f 74 454 456
f 71 67 450
f 71 450 454
f 67 64 447
f 67 447 450
f 64 81 464
f 64 464 447
f 81 224 607
f 81 607 464
f 224 233 616
f 224 616 607
f 233 232 615
f 233 615 616
f 240 245 628
f 240 628 623
f 245 342 726
f 245 726 628
f 342 321 705
f 342 705 726
f 321 320 703
f 321 703 705
f 320 331 713
f 320 713 703
f 331 336 719
f 331 719 713
f 336 338 721
f 336 721 719
f 338 337 720
f 338 720 721
f 337 328 711
f 337 711 720
f 328 325 708
f 328 708 711
f 325 327 710
f 325 710 708
f 327 318 701
f 327 701 710
f 318 316 699
f 318 699 701
f 316 246 629
f 316 629 699
f 246 228 611
f 246 611 629
f 228 227 609
f 228 609 611
f 227 226 610
f 227 610 609
f 226 237 620
f 226 620 610
f 237 238 621
f 237 621 620
f 238 209 592
f 238 592 621
f 209 206 588
f 209 588 592
f 206 205 589
f 206 589 588
f 205 208 591
f 205 591 589
f 208 211 594
f 208 594 591
f 211 213 596
f 211 596 594
f 213 214 597
f 213 597 596
f 214 218 600
f 214 600 597
f 218 217 601
f 218 601 600
f 217 220 603
f 217 603 601
f 220 223 605
f 220 605 603
f 223 222 606
f 223 606 605
f 222 221 604
f 222 604 606
f 221 219 602
f 221 602 604
f 219 216 599
f 219 599 602
f 216 215 598
f 216 598 599
f 215 212 595
f 215 595 598
f 212 207 590
f 212 590 595
f 207 204 587
f 207 587 590
f 204 210 593
f 204 593 587
f 210 236 619
f 210 619 593
f 236 225 608
f 236 608 619
f 225 243 626
f 225 626 608
f 243 241 625
f 243 625 626
f 241 240 623
f 241 623 625
f 38 39 422
f 38 422 421
f 39 117 500
f 39 500 422
f 117 112 494
f 117 494 500
f 112 120 503
f 112 503 494
f 120 118 502
f 120 502 503
f 118 116 499
f 118 499 502
f 116 142 525
f 116 525 499
f 142 139 522
f 142 522 525
f 139 114 497
f 139 497 522
f 114 107 490
f 114 490 497
f 107 36 420
f 107 420 490
f 36 141 524
f 36 524 420
f 141 42 425
f 141 425 524
f 42 3 385
f 42 385 425
f 3 2 386
f 3 386 385
f 2 1 384
f 2 384 386
f 1 35 418
f 1 418 384
f 35 37 419
f 35 419 418
f 37 108 491
f 37 491 419
f 108 109 492
f 108 492 491
f 109 113 496
f 109 496 492
f 113 115 498
f 113 498 496
f 115 119 501
f 115 501 498
f 119 111 495
f 119 495 501
f 111 110 493
f 111 493 495
f 110 40 423
f 110 423 493
f 40 29 412
f 40 412 423
f 29 4 387
f 29 387 412
f 4 6 388
f 4 388 387
f 6 5 389
f 6 389 388
f 5 28 411
f 5 411 389
f 28 38 421
f 28 421 411
f 286 347 730
f 286 730 669
f 347 374 757
f 347 757 730
f 374 358 741
f 374 741 757
f 358 352 735
f 358 735 741
f 352 355 738
f 352 738 735
f 355 357 740
f 355 740 738
f 357 377 760
f 357 760 740
f 377 375 758
f 377 758 760
f 375 350 734
f 375 734 758
f 350 348 731
f 350 731 734
f 348 287 670
f 348 670 731
f 287 376 759
f 287 759 670
f 376 276 659
f 376 659 759
f 276 248 632
f 276 632 659
f 248 247 630
f 248 630 632
f 247 249 631
f 247 631 630
f 249 275 658
f 249 658 631
f 275 345 728
f 275 728 658
f 345 344 727
f 345 727 728
f 344 349 732
f 344 732 727
f 349 351 733
f 349 733 732
f 351 356 739
f 351 739 733
f 356 354 736
f 356 736 739
f 354 353 737
f 354 737 736
f 353 346 729
f 353 729 737
f 346 298 681
f 346 681 729
f 298 284 667
f 298 667 681
f 284 253 636
f 284 636 667
f 253 255 637
f 253 637 636
f 255 254 638
f 255 638 637
f 254 285 668
f 254 668 638
f 285 286 669
f 285 669 668
f 130 126 509
f 130 509 514
f 126 124 507
f 126 507 509
f 124 53 436
f 124 436 507
f 53 52 434
f 53 434 436
f 52 51 435
f 52 435 434
f 51 46 429
f 51 429 435
f 46 44 427
f 46 427 429
f 44 26 409
f 44 409 427
f 26 20 403
f 26 403 409
f 20 23 406
f 20 406 403
f 23 18 400
f 23 400 406
f 18 14 397
f 18 397 400
f 14 11 394
f 14 394 397
f 11 7 390
f 11 390 394
f 7 15 398
f 7 398 390
f 15 30 413
f 15 413 398
f 30 43 426
f 30 426 413
f 43 34 417
f 43 417 426
f 34 48 431
f 34 431 417
f 48 122 504
f 48 504 431
f 122 134 516
f 122 516 504
f 134 133 517
f 134 517 516
f 133 131 513
f 133 513 517
f 131 130 514
f 131 514 513
f 372 363 747
f 372 747 755
f 363 362 745
f 363 745 747
f 362 294 676
f 362 676 745
f 294 293 677
f 294 677 676
f 293 297 680
f 293 680 677
f 297 288 671
f 297 671 680
f 288 274 657
f 288 657 671
f 274 271 654
f 274 654 657
f 271 266 649
f 271 649 654
f 266 269 652
f 266 652 649
f 269 264 647
f 269 647 652
f 264 260 643
f 264 643 647
f 260 251 635
f 260 635 643
f 251 256 639
f 251 639 635
f 256 262 645
f 256 645 639
f 262 277 660
f 262 660 645
f 277 281 664
f 277 664 660
f 281 282 665
f 281 665 664
f 282 360 743
f 282 743 665
f 360 361 744
f 360 744 743
f 361 367 750
f 361 750 744
f 367 371 754
f 367 754 750
f 371 381 764
f 371 764 754
f 381 372 755
f 381 755 764
f 310 340 723
f 310 723 693
f 340 339 722
f 340 722 723
f 339 313 696
f 339 696 722
f 313 335 718
f 313 718 696
f 335 308 691
f 335 691 718
f 308 334 717
f 308 717 691
f 334 332 715
f 334 715 717
f 332 306 690
f 332 690 715
f 306 302 686
f 306 686 690
f 302 301 684
f 302 684 686
f 301 333 716
f 301 716 684
f 333 230 613
f 333 613 716
f 230 201 585
f 230 585 613
f 201 200 583
f 201 583 585
f 200 202 584
f 200 584 583
f 202 235 618
f 202 618 584
f 235 304 687
f 235 687 618
f 304 303 685
f 304 685 687
f 303 305 688
f 303 688 685
f 305 307 689
f 305 689 688
f 307 309 692
f 307 692 689
f 309 314 697
f 309 697 692
f 314 312 694
f 314 694 697
f 312 311 695
f 312 695 694
f 311 324 707
f 311 707 695
f 324 310 693
f 324 693 707
f 82 103 485
f 82 485 466
f 103 102 486
f 103 486 485
f 102 164 547
f 102 547 486
f 164 175 558
f 164 558 547
f 175 177 560
f 175 560 558
f 177 190 572
f 177 572 560
f 190 168 550
f 190 550 572
f 168 167 551
f 168 551 550
f 167 194 576
f 167 576 551
f 194 299 682
f 194 682 576
f 299 231 614
f 299 614 682
f 231 83 465
f 231 465 614
f 83 82 466
f 83 466 465
f 229 239 622
f 229 622 612
f 239 317 700
f 239 700 622
f 317 319 702
f 317 702 700
f 319 326 709
f 319 709 702
f 326 329 712
f 326 712 709
f 329 341 724
f 329 724 712
f 341 330 714
f 341 714 724
f 330 323 706
f 330 706 714
f 323 322 704
f 323 704 706
f 322 343 725
f 322 725 704
f 343 244 627
f 343 627 725
f 244 242 624
f 244 624 627
f 242 229 612
f 242 612 624

