# https://github.com/mikedh/trimesh
v -51.02899933 -15.56999969 1.20000005
v -60.37500000 -19.44199944 1.20000005
v -60.37500000 -19.44199944 0.00000000
v -51.02899933 -15.56999969 0.00000000
v -30.12999916 -12.43099976 0.00000000
v -20.00000000 -16.62700081 0.00000000
v -30.97100067 -15.56999969 0.00000000
v -21.62500000 -19.44199944 0.00000000
v -41.00000000 -14.25000000 1.20000005
v -41.00000000 -14.25000000 0.00000000
v -62.00000000 -16.62700081 0.00000000
v -62.00000000 -16.62700081 1.20000005
v -51.86999893 -12.43099976 1.20000005
v -4.62699986 -32.00000000 1.20000005
v -11.30200005 -23.30200005 1.20000005
v -7.44199991 -33.62500000 1.20000005
v -68.40000153 -25.60000038 0.00000000
v -70.69799805 -23.30200005 0.00000000
v -51.86999893 -12.43099976 0.00000000
v -13.60000038 -25.60000038 1.20000005
v -3.56999993 -42.97100067 1.20000005
v -41.00000000 -11.00000000 0.00000000
v -41.00000000 -11.00000000 1.20000005
v -2.25000000 -53.00000000 1.20000005
v 1.00000000 -53.00000000 1.20000005
v -15.32699966 27.19400024 3.70000005
v -11.15699959 17.12500000 3.70000005
v -11.15699959 17.12500000 2.00000000
v -15.32699966 27.19400024 2.00000000
v -0.43099999 -42.13000107 1.20000005
v -3.56999993 -63.02899933 1.20000005
v -81.56900024 -63.86999893 0.00000000
v -83.00000000 -53.00000000 0.00000000
v -78.43000031 -63.02899933 0.00000000
v -77.37300110 -74.00000000 0.00000000
v 22.91600037 33.27299881 2.00000000
v 22.91600037 33.27299881 0.00000000
v 21.67399979 33.78799820 0.00000000
v 21.67399979 33.78799820 2.00000000
v -79.75000000 -53.00000000 1.20000005
v -78.43000031 -63.02899933 1.20000005
v -79.75000000 -53.00000000 0.00000000
v -78.43000031 -42.97100067 0.00000000
v -16.75000000 38.00000000 3.70000005
v -16.75000000 38.00000000 2.00000000
v -81.56900024 -42.13000107 0.00000000
v -81.56900024 -63.86999893 1.20000005
v 25.58399963 43.22700119 0.00000000
v 36.12900162 79.53500366 0.00000000
v 26.82600021 42.71200180 0.00000000
v -74.55799866 -33.62500000 0.00000000
v -77.37300110 -32.00000000 0.00000000
v -78.43000031 -42.97100067 1.20000005
v -16.53499985 26.87100029 0.00000000
v -12.23900032 16.50000000 0.00000000
v -12.23900032 16.50000000 3.70000005
v -16.53499985 26.87100029 3.70000005
v -83.00000000 -53.00000000 1.20000005
v -15.32699966 48.80599976 3.70000005
v -15.32699966 48.80599976 2.00000000
v 46.50000000 75.23899841 0.00000000
v -41.00000000 -91.75000000 0.00000000
v -41.00000000 -95.00000000 0.00000000
v -51.02899933 -90.43000031 0.00000000
v -60.37500000 -86.55799866 0.00000000
v -62.00000000 -89.37300110 0.00000000
v -74.55799866 -33.62500000 1.20000005
v -70.69799805 -82.69799805 0.00000000
v 20.60700035 34.60699844 0.00000000
v 20.60700035 34.60699844 2.00000000
v -18.00000000 38.25000000 2.00000000
v -18.00000000 38.25000000 0.00000000
v -17.98354149 38.12502289 0.00000000
v -17.98354149 38.12502289 2.00000000
v -68.40000153 -25.60000038 1.20000005
v -30.97100067 -90.43000031 0.00000000
v -21.62500000 -86.55799866 0.00000000
v -20.00000000 -89.37300110 0.00000000
v -11.30200005 -82.69799805 0.00000000
v 19.78800011 35.67399979 2.00000000
v 19.78800011 35.67399979 0.00000000
v -81.56900024 -42.13000107 1.20000005
v -77.37300110 -32.00000000 1.20000005
v -18.00000000 38.00000000 0.00000000
v -18.00000000 38.00000000 3.70000005
v 27.89299965 41.89300156 0.00000000
v 55.40599823 68.40599823 0.00000000
v 28.71199989 40.82600021 0.00000000
v -51.86999893 -93.56900024 0.00000000
v -30.12999916 -93.56900024 0.00000000
v -11.15699959 58.87500000 3.70000005
v -11.15699959 58.87500000 2.00000000
v -70.69799805 -23.30200005 1.20000005
v -74.55799866 -72.37500000 0.00000000
v -68.40000153 -80.40000153 0.00000000
v 29.22699928 39.58399963 0.00000000
v 66.50000000 38.25000000 0.00000000
v 29.40200043 38.25000000 0.00000000
v -51.02899933 -90.43000031 1.20000005
v -41.00000000 -91.75000000 1.20000005
v 29.22699928 36.91600037 0.00000000
v -60.37500000 -86.55799866 1.20000005
v -21.62500000 -19.44199944 1.20000005
v -20.00000000 -16.62700081 1.20000005
v -30.97100067 -15.56999969 1.20000005
v -16.53499985 49.12900162 2.00000000
v -16.55999947 49.18500137 2.00000000
v -30.12999916 -12.43099976 1.20000005
v -16.55999947 49.18500137 0.00000000
v -62.00000000 -89.37300110 1.20000005
v 60.84000015 17.12500000 0.00000000
v 54.12500000 8.37500000 0.00000000
v 28.71199989 35.67399979 0.00000000
v -16.53499985 49.12900162 3.70000005
v -51.86999893 -93.56900024 1.20000005
v -4.52199984 67.52200317 3.70000005
v -4.52199984 67.52200317 2.00000000
v 26.82600021 33.78799820 0.00000000
v 27.89299965 34.60699844 0.00000000
v -21.62500000 -86.55799866 1.20000005
v -30.97100067 -90.43000031 1.20000005
v -12.34000015 59.37500000 2.00000000
v -5.62500000 68.12500000 0.00000000
v -12.34000015 59.37500000 0.00000000
v -20.00000000 -89.37300110 1.20000005
v -30.12999916 -93.56900024 1.20000005
v -41.00000000 -95.00000000 1.20000005
v -12.23900032 59.50000000 2.00000000
v 3.50000000 0.76099998 0.00000000
v -5.40600014 7.59399986 0.00000000
v -12.23900032 59.50000000 3.70000005
v -68.40000153 -80.40000153 1.20000005
v -74.55799866 -72.37500000 1.20000005
v -70.69799805 -82.69799805 1.20000005
v 19.27300072 36.91600037 2.00000000
v 19.27300072 36.91600037 0.00000000
v -5.62500000 68.12500000 2.00000000
v -5.61671495 68.13135529 2.00000000
v -5.61671495 68.13135529 0.00000000
v -77.37300110 -74.00000000 1.20000005
v 19.09799957 38.25000000 2.00000000
v 19.09799957 38.25000000 0.00000000
v -5.40600014 68.40599823 3.70000005
v -5.40600014 68.40599823 0.00000000
v 19.27300072 39.58399963 2.00000000
v 19.27300072 39.58399963 0.00000000
v -3.56999993 -63.02899933 0.00000000
v -2.25000000 -53.00000000 0.00000000
v 1.00000000 -53.00000000 0.00000000
v 19.78800011 40.82600021 2.00000000
v 19.78800011 40.82600021 0.00000000
v 35.72040558 -2.33827162 2.00000000
v 25.58399963 33.27299881 2.00000000
v 25.00000000 -3.75000000 2.00000000
v -13.60000038 -25.60000038 0.00000000
v -11.30200005 -23.30200005 0.00000000
v 14.19400024 -2.32699990 2.00000000
v 14.19400024 -2.32699990 3.70000005
v 25.00000000 -3.75000000 3.70000005
v -7.44199991 -33.62500000 0.00000000
v -4.62699986 -32.00000000 0.00000000
v -3.56999993 -42.97100067 0.00000000
v -0.43099999 -42.13000107 0.00000000
v 25.58399963 33.27299881 0.00000000
v 24.25000000 33.09799957 0.00000000
v 24.25000000 33.09799957 2.00000000
v 61.15700150 58.87500000 3.70000005
v 54.52199936 67.52200317 3.70000005
v 60.91816330 59.18626404 2.00000000
v 60.91816330 59.18626404 0.00000000
v 61.15700150 58.87500000 0.00000000
v -0.43099999 -63.86999893 0.00000000
v -4.62699986 -74.00000000 0.00000000
v -7.44199991 -72.37500000 0.00000000
v 65.32700348 48.80599976 3.70000005
v 65.32700348 48.80599976 0.00000000
v -13.60000038 -80.40000153 0.00000000
v 35.80599976 -2.32699990 3.70000005
v 35.80599976 -2.32699990 0.00000000
v 35.72040558 -2.33827162 0.00000000
v 25.00000000 -5.00000000 3.70000005
v 25.00000000 -5.00000000 0.00000000
v 36.12900162 -3.53500009 0.00000000
v 36.12900162 -3.53500009 3.70000005
v -0.43099999 -63.86999893 1.20000005
v 55.40599823 68.40599823 3.70000005
v 62.23899841 59.50000000 3.70000005
v 62.23899841 59.50000000 0.00000000
v 46.50000000 0.76099998 0.00000000
v 13.87100029 -3.53500009 3.70000005
v 13.87100029 -3.53500009 0.00000000
v -13.60000038 -80.40000153 1.20000005
v -11.30200005 -82.69799805 1.20000005
v -7.44199991 -72.37500000 1.20000005
v -4.62699986 -74.00000000 1.20000005
v 35.80599976 78.32700348 3.70000005
v 36.12900162 79.53500366 3.70000005
v 25.00000000 79.75000000 3.70000005
v 25.00000000 81.00000000 3.70000005
v 66.53500366 49.12900162 0.00000000
v 45.87500000 74.15699768 3.70000005
v 46.50000000 75.23899841 3.70000005
v 66.53500366 49.12900162 3.70000005
v 68.00000000 38.00000000 3.70000005
v 66.75000000 38.00000000 3.70000005
v 54.12500000 8.37500000 2.00000000
v 26.82600021 33.78799820 2.00000000
v 45.37500000 1.65999997 2.00000000
v 60.84000015 17.12500000 2.00000000
v 28.71199989 35.67399979 2.00000000
v 65.32700348 27.19400024 3.70000005
v 66.53500366 26.87100029 3.70000005
v 45.37500000 1.65999997 0.00000000
v 65.05999756 27.31500053 0.00000000
v 65.05999756 27.31500053 2.00000000
v -4.52199984 8.47799969 3.70000005
v 3.50000000 0.76099998 3.70000005
v 4.12500000 1.84300005 3.70000005
v 4.12500000 1.84300005 2.00000000
v 61.15700150 17.12500000 3.70000005
v 62.23899841 16.50000000 3.70000005
v 54.52199936 8.47799969 3.70000005
v 55.40599823 7.59399986 3.70000005
v 45.87500000 1.84300005 3.70000005
v 46.50000000 0.76099998 3.70000005
v -5.40600014 7.59399986 3.70000005
v 65.32700348 27.19400024 0.00000000
v 62.23899841 16.50000000 0.00000000
v 61.15700150 17.12500000 0.00000000
v 54.52199936 8.47799969 0.00000000
v 55.40599823 7.59399986 0.00000000
v 45.87500000 1.84300005 0.00000000
v 25.00000000 81.00000000 0.00000000
v 13.87100029 79.53500366 0.00000000
v 22.91600037 43.22700119 0.00000000
v 3.50000000 75.23899841 0.00000000
v 4.12500000 74.15699768 2.00000000
v 22.91600037 43.22700119 2.00000000
v 14.19400024 78.32700348 2.00000000
v 24.25000000 43.40200043 2.00000000
v 25.58399963 43.22700119 2.00000000
v 25.00000000 79.75000000 2.00000000
v 4.12500000 74.15699768 3.70000005
v 65.05999756 49.18500137 0.00000000
v 14.19400024 78.32700348 3.70000005
v 66.75000000 38.00000000 0.00000000
v 3.50000000 75.23899841 3.70000005
v 13.87100029 79.53500366 3.70000005
v 66.53500366 26.87100029 0.00000000
v 68.00000000 38.00000000 0.00000000
v 20.60700035 41.89300156 0.00000000
v 35.80599976 78.32700348 2.00000000
v 21.67399979 42.71200180 0.00000000
v 24.25000000 43.40200043 0.00000000
v 45.87500000 74.15699768 2.00000000
v -4.52199984 8.47799969 2.00000000
v 54.52199936 67.52200317 2.00000000
v 66.50000000 38.25000000 2.00000000
v 28.71199989 40.82600021 2.00000000
v 27.89299965 41.89300156 2.00000000
v 20.60700035 41.89300156 2.00000000
v 21.67399979 42.71200180 2.00000000
v 26.82600021 42.71200180 2.00000000
v 29.22699928 39.58399963 2.00000000
v 29.40200043 38.25000000 2.00000000
v 29.22699928 36.91600037 2.00000000
v 65.05999756 49.18500137 2.00000000
v 27.89299965 34.60699844 2.00000000
f 1 2 3
f 1 3 4
f 5 6 7
f 8 7 6
f 9 1 4
f 9 4 10
f 11 12 13
f 14 15 16
f 3 17 18
f 9 10 7
f 4 3 11
f 11 19 4
f 20 16 15
f 21 14 16
f 22 19 13
f 22 13 23
f 24 25 21
f 19 22 4
f 10 4 22
f 5 7 22
f 10 22 7
f 26 27 28
f 26 28 29
f 19 11 13
f 14 21 30
f 25 30 21
f 31 25 24
f 32 33 34
f 35 32 34
f 36 37 38
f 36 38 39
f 40 41 34
f 40 34 42
f 43 42 33
f 42 34 33
f 44 26 29
f 44 29 45
f 33 46 43
f 32 35 47
f 48 49 50
f 51 43 52
f 46 52 43
f 53 40 42
f 53 42 43
f 54 55 56
f 54 56 57
f 47 58 32
f 33 32 58
f 59 44 45
f 59 45 60
f 11 3 18
f 17 51 18
f 52 18 51
f 49 61 50
f 62 63 64
f 65 64 66
f 67 53 43
f 67 43 51
f 65 66 68
f 39 38 69
f 39 69 70
f 71 72 73
f 71 73 74
f 75 67 51
f 75 51 17
f 76 77 78
f 79 78 77
f 80 70 69
f 80 69 81
f 46 82 83
f 74 73 84
f 74 84 85
f 46 33 58
f 46 58 82
f 84 54 85
f 54 57 85
f 86 87 88
f 86 50 61
f 66 64 89
f 63 89 64
f 63 62 76
f 78 90 76
f 63 76 90
f 91 59 60
f 91 60 92
f 75 17 3
f 93 12 18
f 11 18 12
f 94 95 68
f 95 65 68
f 18 52 83
f 18 83 93
f 52 46 83
f 34 94 35
f 68 35 94
f 96 97 98
f 62 64 99
f 62 99 100
f 98 97 101
f 99 64 65
f 99 65 102
f 103 104 105
f 74 106 71
f 107 71 106
f 23 105 108
f 104 108 105
f 20 15 103
f 71 107 72
f 109 72 107
f 66 110 68
f 111 112 113
f 104 103 15
f 85 114 74
f 106 74 114
f 115 110 66
f 116 91 92
f 116 92 117
f 1 12 2
f 12 93 2
f 118 119 112
f 120 77 76
f 120 76 121
f 13 12 1
f 9 23 1
f 122 123 124
f 79 125 78
f 13 1 23
f 105 23 9
f 121 76 62
f 121 62 100
f 90 126 127
f 90 127 63
f 40 58 41
f 128 122 106
f 107 106 122
f 78 125 126
f 78 126 90
f 129 130 38
f 47 41 58
f 53 58 40
f 107 122 109
f 124 109 122
f 67 83 53
f 114 131 106
f 128 106 131
f 89 115 66
f 69 38 130
f 58 53 82
f 82 53 83
f 75 93 67
f 63 127 115
f 63 115 89
f 130 55 69
f 65 95 132
f 65 132 102
f 83 67 93
f 75 2 93
f 133 132 95
f 133 95 94
f 110 134 68
f 135 80 81
f 135 81 136
f 122 128 137
f 138 137 128
f 41 133 94
f 41 94 34
f 138 139 123
f 138 123 137
f 35 140 47
f 141 135 136
f 141 136 142
f 123 122 137
f 35 68 134
f 35 134 140
f 115 99 110
f 102 110 99
f 128 131 138
f 131 143 138
f 144 138 143
f 145 141 142
f 145 142 146
f 144 139 138
f 147 148 149
f 121 125 120
f 150 145 146
f 150 146 151
f 152 153 154
f 126 125 121
f 100 127 121
f 99 127 100
f 115 127 99
f 126 121 127
f 155 8 156
f 156 8 6
f 132 134 102
f 154 157 158
f 154 158 159
f 160 155 156
f 156 161 160
f 133 134 132
f 110 102 134
f 162 160 161
f 161 163 162
f 164 165 166
f 140 134 133
f 47 140 41
f 133 41 140
f 163 149 162
f 148 162 149
f 105 9 7
f 167 168 169
f 103 105 7
f 103 7 8
f 169 170 171
f 169 171 167
f 5 22 23
f 149 172 147
f 147 172 173
f 174 147 173
f 8 20 103
f 5 108 104
f 5 23 108
f 175 167 176
f 173 79 174
f 177 174 79
f 77 177 79
f 15 156 104
f 154 159 152
f 178 152 159
f 6 5 104
f 176 167 171
f 178 179 152
f 180 152 179
f 2 75 3
f 181 182 183
f 181 183 184
f 185 25 31
f 186 187 188
f 184 183 189
f 190 191 181
f 182 181 191
f 192 193 194
f 194 195 31
f 81 69 55
f 185 31 195
f 125 193 120
f 196 197 198
f 199 198 197
f 200 188 187
f 73 72 142
f 195 194 193
f 192 120 193
f 201 202 196
f 197 196 202
f 186 202 168
f 201 168 202
f 25 149 163
f 167 187 168
f 20 8 155
f 20 155 160
f 20 160 16
f 187 175 203
f 204 203 205
f 6 104 156
f 206 207 208
f 209 210 206
f 208 207 152
f 154 166 157
f 16 160 162
f 16 162 21
f 211 212 205
f 204 205 212
f 14 156 15
f 171 170 188
f 176 171 188
f 152 180 208
f 213 208 180
f 188 200 176
f 186 168 187
f 175 187 167
f 112 206 208
f 112 208 213
f 21 162 148
f 21 148 24
f 205 203 175
f 111 209 206
f 111 206 112
f 161 14 163
f 14 161 156
f 214 215 209
f 214 209 111
f 216 217 218
f 190 158 217
f 24 148 147
f 24 147 31
f 215 214 97
f 25 163 30
f 14 30 163
f 157 219 218
f 157 218 158
f 220 221 211
f 38 37 129
f 55 54 81
f 191 129 37
f 112 213 118
f 119 113 112
f 213 180 118
f 164 118 180
f 212 211 221
f 222 221 220
f 218 219 216
f 223 221 222
f 224 225 222
f 25 185 172
f 25 172 149
f 223 222 225
f 184 225 178
f 224 178 225
f 194 31 174
f 147 174 31
f 129 191 217
f 190 217 191
f 194 174 177
f 194 177 192
f 216 226 217
f 173 172 185
f 27 56 216
f 226 216 56
f 77 120 177
f 192 177 120
f 227 228 229
f 26 56 27
f 230 229 228
f 230 228 231
f 57 56 26
f 44 57 26
f 185 195 173
f 79 193 125
f 231 189 230
f 232 230 189
f 85 57 44
f 59 114 44
f 195 193 79
f 195 79 173
f 85 44 114
f 91 131 59
f 220 211 229
f 114 59 131
f 116 131 91
f 229 211 227
f 212 221 228
f 131 116 143
f 49 48 233
f 159 158 190
f 136 81 54
f 218 217 158
f 234 235 236
f 222 229 230
f 84 73 136
f 84 136 54
f 229 222 220
f 178 159 184
f 181 184 159
f 190 181 159
f 142 136 73
f 228 221 231
f 188 170 87
f 170 88 87
f 237 238 239
f 240 241 242
f 239 240 242
f 243 116 117
f 243 117 237
f 224 222 232
f 244 97 96
f 245 243 237
f 245 237 239
f 232 222 230
f 124 123 151
f 246 176 200
f 247 248 236
f 234 236 248
f 231 223 189
f 151 146 124
f 221 223 231
f 143 247 144
f 236 144 247
f 228 227 249
f 249 246 250
f 227 246 249
f 200 250 246
f 139 251 123
f 198 245 239
f 198 239 242
f 179 178 224
f 251 151 123
f 233 234 248
f 233 248 199
f 232 179 224
f 214 101 97
f 113 101 111
f 214 111 101
f 61 87 86
f 96 170 244
f 184 189 225
f 196 198 242
f 196 242 252
f 223 225 189
f 49 233 199
f 49 199 197
f 144 253 139
f 236 253 144
f 96 88 170
f 233 254 234
f 180 182 164
f 201 196 252
f 201 252 255
f 182 191 165
f 146 142 72
f 49 197 202
f 145 150 60
f 45 141 60
f 256 70 28
f 165 164 182
f 109 124 146
f 72 109 146
f 219 256 216
f 179 232 189
f 168 201 255
f 168 255 257
f 61 202 186
f 217 226 130
f 217 130 129
f 251 139 253
f 37 165 191
f 179 183 180
f 189 183 179
f 182 180 183
f 61 49 202
f 27 216 256
f 27 256 28
f 243 247 116
f 235 234 254
f 253 236 235
f 257 169 168
f 226 56 130
f 55 130 56
f 188 87 186
f 248 247 245
f 243 245 247
f 143 116 247
f 254 233 48
f 205 227 211
f 245 198 248
f 199 248 198
f 87 61 186
f 205 246 227
f 228 249 212
f 249 250 204
f 249 204 212
f 97 258 215
f 204 250 200
f 258 97 244
f 246 205 176
f 257 259 169
f 255 260 257
f 205 175 176
f 204 200 203
f 187 203 200
f 117 92 261
f 262 117 261
f 240 239 238
f 252 242 241
f 238 237 262
f 263 252 241
f 117 262 237
f 260 255 263
f 255 252 263
f 264 169 259
f 259 257 260
f 265 258 264
f 210 209 266
f 267 264 258
f 268 206 210
f 267 169 264
f 207 206 268
f 266 258 265
f 153 152 207
f 166 154 153
f 258 266 215
f 39 219 36
f 157 36 219
f 135 29 80
f 70 256 39
f 141 45 135
f 80 28 70
f 150 261 92
f 145 60 141
f 29 28 80
f 36 157 166
f 215 266 209
f 219 39 256
f 92 60 150
f 29 135 45
f 244 267 258
f 170 169 267
f 170 267 244
f 261 150 151
f 261 151 251
f 262 261 251
f 262 251 253
f 238 262 253
f 238 253 235
f 240 238 235
f 240 235 254
f 241 240 254
f 241 254 48
f 263 241 48
f 263 48 50
f 260 263 50
f 260 50 86
f 259 260 88
f 86 88 260
f 259 88 96
f 259 96 264
f 264 96 98
f 264 98 265
f 265 98 101
f 265 101 266
f 266 101 113
f 266 113 210
f 210 113 119
f 210 119 268
f 268 119 118
f 268 118 207
f 207 118 164
f 207 164 153
f 153 164 166
f 165 37 36
f 165 36 166

