# https://github.com/mikedh/trimesh
v -70.16178131 0.89440113 -2.50000000
v -70.16178131 -14.55872345 -2.50000000
v -74.67740631 -14.55872345 -2.50000000
v -56.26334000 -14.55872345 -2.50000000
v -56.26334000 1.80065107 -2.50000000
v -51.77115250 -14.55872345 -2.50000000
v -37.94888687 -8.63684845 -2.50000000
v -40.56729507 -12.34473419 -2.50000000
v -41.44107437 -11.44934845 -2.50000000
v -38.58096695 -13.77735138 -2.50000000
v -36.80582047 -9.87073517 -2.50000000
v -33.94253922 -11.28089142 -2.50000000
v -33.65323257 -15.20996857 -2.50000000
v -36.27627945 -14.73242950 -2.50000000
v -32.22232437 -11.45716095 -2.50000000
v -32.22232437 -15.26966095 -2.50000000
v -30.79678917 -15.20996857 -2.50000000
v -30.51920128 -11.28040314 -2.50000000
v -27.67545128 -9.86634064 -2.50000000
v -28.18155479 -14.73242950 -2.50000000
v -39.90445328 -3.23304033 -2.50000000
v -43.46915054 -8.17285919 -2.50000000
v -44.56119156 -4.08557940 -2.50000000
v -44.76919937 -0.91028637 -2.50000000
v -51.77115250 1.94908857 -2.50000000
v -56.35806656 3.61949873 -2.50000000
v -38.86148453 -7.09632158 -2.50000000
v -42.22110367 -10.44727325 -2.50000000
v -23.89444542 -12.34473419 -2.50000000
v -26.53482628 -8.62903595 -2.50000000
v -40.03482437 -0.91028637 -2.50000000
v -39.90347672 1.41246748 -2.50000000
v -44.56119156 2.27379560 -2.50000000
v -25.88077354 -13.77735138 -2.50000000
v -74.67740631 12.78502655 -2.50000000
v -7.26578236 -9.22180939 -2.50000000
v -10.31900501 -12.62122345 -2.50000000
v -11.18375111 -11.44983673 -2.50000000
v -23.01920128 -11.44934845 -2.50000000
v -22.23367882 -10.44727325 -2.50000000
v -6.86588001 -9.84778595 -2.50000000
v -9.12906361 -13.46887970 -2.50000000
v -25.61539268 -7.08313799 -2.50000000
v -4.42691517 -10.74134064 -2.50000000
v -3.13931751 -14.55872345 -2.50000000
v -5.53921986 -14.43762970 -2.50000000
v -3.13931751 -10.80091095 -2.50000000
v 1.47005749 -10.80091095 -2.50000000
v 1.47005749 -14.55872345 -2.50000000
v -6.29019642 -10.26477814 -2.50000000
v -24.56461143 -3.22376299 -2.50000000
v -20.97684288 -8.17285919 -2.50000000
v -19.87711143 -4.08557940 -2.50000000
v -24.43326378 -0.91028637 -2.50000000
v -24.56461143 1.39342451 -2.50000000
v -19.66763878 -0.91028637 -2.50000000
v -19.87711143 2.27379560 -2.50000000
v -12.29556751 -5.55091143 -2.50000000
v -7.72281361 -7.07337236 -2.50000000
v -12.17203236 -7.91468096 -2.50000000
v -7.77994251 -5.55091143 -2.50000000
v 5.42611217 -1.15247393 -2.50000000
v 5.65267467 2.02965498 -2.50000000
v 10.26204967 1.52721357 -2.50000000
v 10.11361217 -1.95716143 -2.50000000
v 5.48580456 -2.73548174 -2.50000000
v -7.77994251 9.29283905 -2.50000000
v -68.97965240 5.95250654 -2.50000000
v -70.16178131 8.53502655 -2.50000000
v -68.06021881 7.21471357 -2.50000000
v -70.03043365 2.79235029 -2.50000000
v -66.91324615 8.22985077 -2.50000000
v -69.31803131 9.69127655 -2.50000000
v -67.41959381 11.53502655 -2.50000000
v -64.04215240 9.39000702 -2.50000000
v -57.11587906 6.52184248 -2.50000000
v -51.92251968 4.60924482 -2.50000000
v -37.93326187 6.81627607 -2.50000000
v -42.22110367 8.63182831 -2.50000000
v -41.44107437 9.62877655 -2.50000000
v -57.77896500 7.60533857 -2.50000000
v -53.13345718 8.89830780 -2.50000000
v -54.19302750 10.52721405 -2.50000000
v -58.63101578 8.44957733 -2.50000000
v -55.54361343 11.80211639 -2.50000000
v -38.85269547 5.27574873 -2.50000000
v -43.46915054 6.36327314 -2.50000000
v -66.36490631 12.22252655 -2.50000000
v -65.22916412 12.75572968 -2.50000000
v -70.16178131 12.78502655 -2.50000000
v -62.70572281 13.36510468 -2.50000000
v -61.31802750 13.44127655 -2.50000000
v -60.90054703 9.41442108 -2.50000000
v -62.31802750 9.53502655 -2.50000000
v -40.56729507 10.52233124 -2.50000000
v -59.10611343 13.25914764 -2.50000000
v -36.78824234 8.05016327 -2.50000000
v -36.27627945 12.90514374 -2.50000000
v -33.93277359 9.46031952 -2.50000000
v -28.18155479 12.90514374 -2.50000000
v -27.67545128 8.03697968 -2.50000000
v -30.51920128 9.45885468 -2.50000000
v -23.89444542 10.52233124 -2.50000000
v -26.53482628 6.79283857 -2.50000000
v -38.58096695 11.95201874 -2.50000000
v -25.61539268 5.24498701 -2.50000000
v -22.23367882 8.63182831 -2.50000000
v -20.97684288 6.36327314 -2.50000000
v -7.77994251 12.78502655 -2.50000000
v -12.29556751 9.29283905 -2.50000000
v -12.29556751 12.78502655 -2.50000000
v -15.59244251 9.29283905 -2.50000000
v -23.01920128 9.62877655 -2.50000000
v 1.47005749 12.78502655 -2.50000000
v 1.47005749 9.29283905 -2.50000000
v -33.65323257 13.38170624 -2.50000000
v -25.88077354 11.95201874 -2.50000000
v -32.22232437 9.63658905 -2.50000000
v -30.79678917 13.38170624 -2.50000000
v -32.22232437 13.44127655 -2.50000000
v -15.59244251 12.78502655 -2.50000000
v -12.29556751 20.55065155 -2.50000000
v -7.77994251 20.55065155 -2.50000000
v 17.76790810 -11.30530548 -2.50000000
v 18.01949501 -15.21021271 -2.50000000
v 15.08687878 -14.73462677 -2.50000000
v 19.87923622 -11.45716095 -2.50000000
v 12.91048717 -9.02747345 -2.50000000
v 10.24410534 -12.35669708 -2.50000000
v 9.24642467 -11.46497345 -2.50000000
v 14.28353405 -10.09046173 -2.50000000
v 12.49508190 -13.78345490 -2.50000000
v 19.61361122 -15.26966095 -2.50000000
v 22.42611122 -11.29895782 -2.50000000
v 24.76204872 -14.73059845 -2.50000000
v 22.20540810 -15.13489532 -2.50000000
v 24.89486122 -10.82434845 -2.50000000
v 27.31673622 -10.03137970 -2.50000000
v 29.72298622 -13.16809845 -2.50000000
v 27.27181435 -14.07044220 -2.50000000
v 38.71126938 -14.30481720 -2.50000000
v 36.14095688 -13.55872345 -2.50000000
v 38.61361313 -10.05286407 -2.50000000
v 11.79818249 -7.67444658 -2.50000000
v 8.35103893 -10.46985626 -2.50000000
v 6.91842175 -8.22766876 -2.50000000
v 10.39974499 -4.13929033 -2.50000000
v 5.96334362 -5.64954424 -2.50000000
v 36.14095688 -8.91809845 -2.50000000
v 29.72298622 -8.91809845 -2.50000000
v 26.27767372 1.55846357 -2.50000000
v 30.76986122 -1.95716143 -2.50000000
v 41.04720688 -10.86341095 -2.50000000
v 43.45150375 -11.34387970 -2.50000000
v 43.49251938 -15.16223907 -2.50000000
v 41.15658188 -14.83997345 -2.50000000
v 45.83626938 -11.50403595 -2.50000000
v 45.73470688 -15.26966095 -2.50000000
v 47.33041000 -11.43616486 -2.50000000
v 48.23031235 -15.13098907 -2.50000000
v 49.76791000 -10.89319611 -2.50000000
v 52.37484360 -14.02161407 -2.50000000
v 50.71126938 -10.41809845 -2.50000000
v 54.02376938 -13.05091095 -2.50000000
v 55.34310532 -11.83850861 -2.50000000
v 51.45980453 -9.81946564 -2.50000000
v 52.31527328 -8.28821564 -2.50000000
v 56.85091782 -8.81897736 -2.50000000
v 51.18783188 -4.55091143 -2.50000000
v 55.02376938 -1.80091143 -2.50000000
v 51.72787094 -5.09241533 -2.50000000
v 50.38998032 -4.06702471 -2.50000000
v 53.84310532 -0.92005199 -2.50000000
v 44.21908188 -2.30091143 -2.50000000
v 42.27767563 -1.80432940 -2.50000000
v 43.67611313 2.25963545 -2.50000000
v 45.78158188 -2.66809893 -2.50000000
v 46.68783188 1.43346357 -2.50000000
v 47.68685532 -3.12561846 -2.50000000
v 48.22689438 1.08971357 -2.50000000
v 50.44466782 0.52526051 -2.50000000
v 52.42220688 -7.35559893 -2.50000000
v 52.34505844 -6.49475908 -2.50000000
v 57.03939438 -7.01184893 -2.50000000
v 56.91341782 -5.43225908 -2.50000000
v 55.90560532 -2.82679033 -2.50000000
v 39.26205063 -0.45667312 -2.50000000
v 41.87533188 3.12877607 -2.50000000
v 6.84212780 6.15282393 -2.50000000
v 10.55355358 3.34850264 -2.50000000
v 11.85433483 6.34069014 -2.50000000
v 8.20150280 8.46825409 -2.50000000
v 9.05111217 9.49596405 -2.50000000
v 12.86361217 7.51158857 -2.50000000
v 12.12581921 11.90013885 -2.50000000
v 14.08626842 8.44127655 -2.50000000
v 26.13118935 3.30553389 -2.50000000
v 30.56917763 3.12926435 -2.50000000
v 30.76986122 0.23815110 -2.50000000
v 29.51558876 6.86717939 -2.50000000
v 28.31148720 8.95995331 -2.50000000
v 25.09993935 6.24303389 -2.50000000
v 24.21517372 7.43346357 -2.50000000
v 23.12581825 8.39733124 -2.50000000
v 26.72017860 10.71971893 -2.50000000
v 14.57113171 12.88646698 -2.50000000
v 17.09407997 9.50377655 -2.50000000
v 9.99691296 10.42064667 -2.50000000
v 17.33284950 13.37963104 -2.50000000
v 18.87923622 9.63658905 -2.50000000
v 18.83236122 13.44127655 -2.50000000
v 20.45784950 9.49889374 -2.50000000
v 27.55892372 9.88658905 -2.50000000
v 24.82662392 12.05272675 -2.50000000
v 21.44613075 13.21910858 -2.50000000
v 40.75472641 4.84264326 -2.50000000
v 37.37777328 1.38902998 -2.50000000
v 36.45199203 3.88512373 -2.50000000
v 41.35238266 3.61608076 -2.50000000
v 36.50716782 7.20592451 -2.50000000
v 40.78451157 6.54479170 -2.50000000
v 40.68001938 5.58190107 -2.50000000
v 36.33626938 5.38658857 -2.50000000
v 37.87435532 10.18248749 -2.50000000
v 38.18783188 0.39440110 -2.50000000
v 41.62044907 8.08385468 -2.50000000
v 39.07064438 11.33971405 -2.50000000
v 42.35189438 8.66002655 -2.50000000
v 40.58138657 12.25914764 -2.50000000
v 43.29232407 9.10778046 -2.50000000
v 44.46419907 13.30992889 -2.50000000
v 45.80013657 9.61949921 -2.50000000
v 46.83626938 13.44127655 -2.50000000
v 47.36751938 9.68346405 -2.50000000
v 49.24837875 13.34947968 -2.50000000
v 49.53158188 9.56041718 -2.50000000
v 51.61751938 9.19127655 -2.50000000
v 53.63119125 12.62096405 -2.50000000
v 53.63314438 8.58385468 -2.50000000
v 51.51595688 13.07408905 -2.50000000
v 55.57064438 11.98033905 -2.50000000
v 55.57064438 7.73033857 -2.50000000
v -70.16178131 0.89440113 2.50000000
v -74.67740631 -14.55872345 2.50000000
v -70.16178131 -14.55872345 2.50000000
v -56.26334000 -14.55872345 2.50000000
v -51.77115250 -14.55872345 2.50000000
v -56.26334000 1.80065107 2.50000000
v -37.94888687 -8.63684845 2.50000000
v -41.44107437 -11.44934845 2.50000000
v -40.56729507 -12.34473419 2.50000000
v -38.58096695 -13.77735138 2.50000000
v -36.80582047 -9.87073517 2.50000000
v -33.94253922 -11.28089142 2.50000000
v -36.27627945 -14.73242950 2.50000000
v -33.65323257 -15.20996857 2.50000000
v -32.22232437 -11.45716095 2.50000000
v -32.22232437 -15.26966095 2.50000000
v -30.79678917 -15.20996857 2.50000000
v -30.51920128 -11.28040314 2.50000000
v -28.18155479 -14.73242950 2.50000000
v -27.67545128 -9.86634064 2.50000000
v -39.90445328 -3.23304033 2.50000000
v -44.56119156 -4.08557940 2.50000000
v -43.46915054 -8.17285919 2.50000000
v -44.76919937 -0.91028637 2.50000000
v -51.77115250 1.94908857 2.50000000
v -56.35806656 3.61949873 2.50000000
v -38.86148453 -7.09632158 2.50000000
v -42.22110367 -10.44727325 2.50000000
v -23.89444542 -12.34473419 2.50000000
v -26.53482628 -8.62903595 2.50000000
v -40.03482437 -0.91028637 2.50000000
v -39.90347672 1.41246748 2.50000000
v -44.56119156 2.27379560 2.50000000
v -25.88077354 -13.77735138 2.50000000
v -74.67740631 12.78502655 2.50000000
v -7.26578236 -9.22180939 2.50000000
v -11.18375111 -11.44983673 2.50000000
v -10.31900501 -12.62122345 2.50000000
v -23.01920128 -11.44934845 2.50000000
v -22.23367882 -10.44727325 2.50000000
v -9.12906361 -13.46887970 2.50000000
v -6.86588001 -9.84778595 2.50000000
v -25.61539268 -7.08313799 2.50000000
v -4.42691517 -10.74134064 2.50000000
v -5.53921986 -14.43762970 2.50000000
v -3.13931751 -14.55872345 2.50000000
v -3.13931751 -10.80091095 2.50000000
v 1.47005749 -14.55872345 2.50000000
v 1.47005749 -10.80091095 2.50000000
v -6.29019642 -10.26477814 2.50000000
v -24.56461143 -3.22376299 2.50000000
v -20.97684288 -8.17285919 2.50000000
v -19.87711143 -4.08557940 2.50000000
v -24.43326378 -0.91028637 2.50000000
v -19.66763878 -0.91028637 2.50000000
v -24.56461143 1.39342451 2.50000000
v -19.87711143 2.27379560 2.50000000
v -12.29556751 -5.55091143 2.50000000
v -12.17203236 -7.91468096 2.50000000
v -7.72281361 -7.07337236 2.50000000
v -7.77994251 -5.55091143 2.50000000
v 5.42611217 -1.15247393 2.50000000
v 10.26204967 1.52721357 2.50000000
v 5.65267467 2.02965498 2.50000000
v 10.11361217 -1.95716143 2.50000000
v 5.48580456 -2.73548174 2.50000000
v -7.77994251 9.29283905 2.50000000
v -68.97965240 5.95250654 2.50000000
v -68.06021881 7.21471357 2.50000000
v -70.16178131 8.53502655 2.50000000
v -70.03043365 2.79235029 2.50000000
v -66.91324615 8.22985077 2.50000000
v -69.31803131 9.69127655 2.50000000
v -67.41959381 11.53502655 2.50000000
v -64.04215240 9.39000702 2.50000000
v -51.92251968 4.60924482 2.50000000
v -57.11587906 6.52184248 2.50000000
v -37.93326187 6.81627607 2.50000000
v -41.44107437 9.62877655 2.50000000
v -42.22110367 8.63182831 2.50000000
v -57.77896500 7.60533857 2.50000000
v -53.13345718 8.89830780 2.50000000
v -54.19302750 10.52721405 2.50000000
v -58.63101578 8.44957733 2.50000000
v -55.54361343 11.80211639 2.50000000
v -38.85269547 5.27574873 2.50000000
v -43.46915054 6.36327314 2.50000000
v -65.22916412 12.75572968 2.50000000
v -66.36490631 12.22252655 2.50000000
v -70.16178131 12.78502655 2.50000000
v -62.70572281 13.36510468 2.50000000
v -61.31802750 13.44127655 2.50000000
v -62.31802750 9.53502655 2.50000000
v -60.90054703 9.41442108 2.50000000
v -40.56729507 10.52233124 2.50000000
v -59.10611343 13.25914764 2.50000000
v -36.78824234 8.05016327 2.50000000
v -33.93277359 9.46031952 2.50000000
v -36.27627945 12.90514374 2.50000000
v -28.18155479 12.90514374 2.50000000
v -30.51920128 9.45885468 2.50000000
v -27.67545128 8.03697968 2.50000000
v -26.53482628 6.79283857 2.50000000
v -23.89444542 10.52233124 2.50000000
v -38.58096695 11.95201874 2.50000000
v -25.61539268 5.24498701 2.50000000
v -22.23367882 8.63182831 2.50000000
v -20.97684288 6.36327314 2.50000000
v -7.77994251 12.78502655 2.50000000
v -12.29556751 9.29283905 2.50000000
v -12.29556751 12.78502655 2.50000000
v -15.59244251 9.29283905 2.50000000
v -23.01920128 9.62877655 2.50000000
v 1.47005749 12.78502655 2.50000000
v 1.47005749 9.29283905 2.50000000
v -33.65323257 13.38170624 2.50000000
v -25.88077354 11.95201874 2.50000000
v -32.22232437 9.63658905 2.50000000
v -30.79678917 13.38170624 2.50000000
v -32.22232437 13.44127655 2.50000000
v -15.59244251 12.78502655 2.50000000
v -12.29556751 20.55065155 2.50000000
v -7.77994251 20.55065155 2.50000000
v 17.76790810 -11.30530548 2.50000000
v 15.08687878 -14.73462677 2.50000000
v 18.01949501 -15.21021271 2.50000000
v 19.87923622 -11.45716095 2.50000000
v 12.91048717 -9.02747345 2.50000000
v 9.24642467 -11.46497345 2.50000000
v 10.24410534 -12.35669708 2.50000000
v 12.49508190 -13.78345490 2.50000000
v 14.28353405 -10.09046173 2.50000000
v 19.61361122 -15.26966095 2.50000000
v 22.42611122 -11.29895782 2.50000000
v 22.20540810 -15.13489532 2.50000000
v 24.76204872 -14.73059845 2.50000000
v 24.89486122 -10.82434845 2.50000000
v 27.31673622 -10.03137970 2.50000000
v 27.27181435 -14.07044220 2.50000000
v 29.72298622 -13.16809845 2.50000000
v 38.71126938 -14.30481720 2.50000000
v 38.61361313 -10.05286407 2.50000000
v 36.14095688 -13.55872345 2.50000000
v 11.79818249 -7.67444658 2.50000000
v 6.91842175 -8.22766876 2.50000000
v 8.35103893 -10.46985626 2.50000000
v 10.39974499 -4.13929033 2.50000000
v 5.96334362 -5.64954424 2.50000000
v 36.14095688 -8.91809845 2.50000000
v 29.72298622 -8.91809845 2.50000000
v 30.76986122 -1.95716143 2.50000000
v 26.27767372 1.55846357 2.50000000
v 41.04720688 -10.86341095 2.50000000
v 43.45150375 -11.34387970 2.50000000
v 41.15658188 -14.83997345 2.50000000
v 43.49251938 -15.16223907 2.50000000
v 45.83626938 -11.50403595 2.50000000
v 45.73470688 -15.26966095 2.50000000
v 47.33041000 -11.43616486 2.50000000
v 48.23031235 -15.13098907 2.50000000
v 49.76791000 -10.89319611 2.50000000
v 52.37484360 -14.02161407 2.50000000
v 54.02376938 -13.05091095 2.50000000
v 50.71126938 -10.41809845 2.50000000
v 55.34310532 -11.83850861 2.50000000
v 51.45980453 -9.81946564 2.50000000
v 52.31527328 -8.28821564 2.50000000
v 56.85091782 -8.81897736 2.50000000
v 51.18783188 -4.55091143 2.50000000
v 51.72787094 -5.09241533 2.50000000
v 55.02376938 -1.80091143 2.50000000
v 50.38998032 -4.06702471 2.50000000
v 53.84310532 -0.92005199 2.50000000
v 44.21908188 -2.30091143 2.50000000
v 43.67611313 2.25963545 2.50000000
v 42.27767563 -1.80432940 2.50000000
v 45.78158188 -2.66809893 2.50000000
v 46.68783188 1.43346357 2.50000000
v 47.68685532 -3.12561846 2.50000000
v 48.22689438 1.08971357 2.50000000
v 50.44466782 0.52526051 2.50000000
v 52.42220688 -7.35559893 2.50000000
v 57.03939438 -7.01184893 2.50000000
v 52.34505844 -6.49475908 2.50000000
v 56.91341782 -5.43225908 2.50000000
v 55.90560532 -2.82679033 2.50000000
v 39.26205063 -0.45667312 2.50000000
v 41.87533188 3.12877607 2.50000000
v 10.55355358 3.34850264 2.50000000
v 6.84212780 6.15282393 2.50000000
v 11.85433483 6.34069014 2.50000000
v 8.20150280 8.46825409 2.50000000
v 9.05111217 9.49596405 2.50000000
v 12.86361217 7.51158857 2.50000000
v 12.12581921 11.90013885 2.50000000
v 14.08626842 8.44127655 2.50000000
v 26.13118935 3.30553389 2.50000000
v 30.56917763 3.12926435 2.50000000
v 30.76986122 0.23815110 2.50000000
v 29.51558876 6.86717939 2.50000000
v 28.31148720 8.95995331 2.50000000
v 24.21517372 7.43346357 2.50000000
v 25.09993935 6.24303389 2.50000000
v 23.12581825 8.39733124 2.50000000
v 26.72017860 10.71971893 2.50000000
v 17.09407997 9.50377655 2.50000000
v 14.57113171 12.88646698 2.50000000
v 9.99691296 10.42064667 2.50000000
v 17.33284950 13.37963104 2.50000000
v 18.87923622 9.63658905 2.50000000
v 18.83236122 13.44127655 2.50000000
v 20.45784950 9.49889374 2.50000000
v 27.55892372 9.88658905 2.50000000
v 24.82662392 12.05272675 2.50000000
v 21.44613075 13.21910858 2.50000000
v 40.75472641 4.84264326 2.50000000
v 36.45199203 3.88512373 2.50000000
v 37.37777328 1.38902998 2.50000000
v 41.35238266 3.61608076 2.50000000
v 36.50716782 7.20592451 2.50000000
v 40.68001938 5.58190107 2.50000000
v 40.78451157 6.54479170 2.50000000
v 36.33626938 5.38658857 2.50000000
v 37.87435532 10.18248749 2.50000000
v 38.18783188 0.39440110 2.50000000
v 41.62044907 8.08385468 2.50000000
v 39.07064438 11.33971405 2.50000000
v 42.35189438 8.66002655 2.50000000
v 40.58138657 12.25914764 2.50000000
v 43.29232407 9.10778046 2.50000000
v 44.46419907 13.30992889 2.50000000
v 45.80013657 9.61949921 2.50000000
v 46.83626938 13.44127655 2.50000000
v 47.36751938 9.68346405 2.50000000
v 49.53158188 9.56041718 2.50000000
v 49.24837875 13.34947968 2.50000000
v 51.61751938 9.19127655 2.50000000
v 53.63314438 8.58385468 2.50000000
v 53.63119125 12.62096405 2.50000000
v 51.51595688 13.07408905 2.50000000
v 55.57064438 11.98033905 2.50000000
v 55.57064438 7.73033857 2.50000000
f 1 2 3
f 4 5 6
f 7 8 9
f 10 8 11
f 12 13 14
f 15 16 13
f 15 17 16
f 12 15 13
f 18 19 20
f 18 17 15
f 20 17 18
f 10 11 14
f 14 11 12
f 21 22 23
f 24 21 23
f 5 25 6
f 5 26 25
f 27 28 22
f 7 9 28
f 29 19 30
f 8 7 11
f 21 24 31
f 21 27 22
f 31 24 32
f 7 28 27
f 32 24 33
f 19 34 20
f 3 35 1
f 36 37 38
f 39 30 40
f 30 39 29
f 37 41 42
f 30 43 40
f 44 45 46
f 47 48 49
f 49 45 47
f 44 47 45
f 41 50 42
f 50 44 46
f 50 46 42
f 41 37 36
f 51 52 43
f 52 40 43
f 51 53 52
f 54 55 56
f 56 51 54
f 51 56 53
f 57 56 55
f 58 59 60
f 36 60 59
f 58 61 59
f 62 63 64
f 65 66 62
f 58 67 61
f 38 60 36
f 29 34 19
f 68 69 70
f 71 69 68
f 72 70 73
f 70 69 73
f 74 75 72
f 71 35 69
f 26 76 77
f 26 77 25
f 78 79 80
f 81 82 76
f 82 81 83
f 82 77 76
f 84 85 81
f 86 87 79
f 75 88 89
f 74 88 75
f 69 35 90
f 91 75 89
f 73 74 72
f 92 93 94
f 91 94 75
f 83 81 85
f 78 80 95
f 92 96 93
f 96 84 93
f 96 85 84
f 94 91 92
f 33 87 32
f 71 1 35
f 97 78 95
f 97 98 99
f 100 101 102
f 101 103 104
f 97 95 105
f 106 104 107
f 107 108 106
f 108 55 106
f 32 87 86
f 109 67 110
f 110 67 58
f 111 110 112
f 107 104 113
f 114 115 67
f 105 98 97
f 99 98 116
f 101 100 117
f 118 99 116
f 102 119 100
f 116 120 118
f 119 118 120
f 119 102 118
f 117 103 101
f 111 112 121
f 122 123 109
f 109 111 122
f 110 111 109
f 67 109 114
f 104 103 113
f 78 86 79
f 57 55 108
f 124 125 126
f 127 125 124
f 128 129 130
f 129 131 132
f 126 132 131
f 126 131 124
f 125 127 133
f 134 135 136
f 137 135 134
f 127 134 136
f 138 139 140
f 137 140 135
f 141 142 143
f 136 133 127
f 144 145 146
f 130 144 128
f 145 144 130
f 65 62 64
f 66 65 147
f 147 146 148
f 146 147 144
f 128 131 129
f 138 140 137
f 143 142 149
f 138 150 139
f 65 151 152
f 143 153 141
f 154 155 156
f 157 158 155
f 154 156 153
f 159 158 157
f 154 157 155
f 158 159 160
f 156 141 153
f 161 162 160
f 162 163 164
f 165 164 166
f 161 163 162
f 166 164 163
f 165 166 167
f 160 159 161
f 168 165 167
f 169 170 171
f 172 173 169
f 174 175 176
f 177 174 178
f 179 177 180
f 179 181 172
f 182 183 184
f 182 168 167
f 168 182 184
f 183 185 184
f 169 173 170
f 170 186 171
f 185 183 186
f 171 186 183
f 187 188 175
f 173 172 181
f 63 189 190
f 63 190 64
f 189 191 190
f 189 192 191
f 193 194 191
f 195 196 194
f 197 198 151
f 199 151 198
f 64 151 65
f 197 200 198
f 201 202 203
f 200 202 201
f 200 197 202
f 204 205 203
f 152 151 199
f 191 192 193
f 196 206 207
f 194 193 208
f 194 208 195
f 196 195 206
f 207 206 209
f 207 209 210
f 211 212 210
f 205 213 203
f 204 214 205
f 211 215 212
f 214 212 215
f 214 204 212
f 210 209 211
f 201 203 213
f 216 217 218
f 219 217 216
f 220 221 222
f 223 220 222
f 216 223 222
f 224 221 220
f 217 219 225
f 223 216 218
f 188 176 175
f 176 178 174
f 180 177 178
f 219 188 225
f 188 187 225
f 224 226 221
f 224 227 226
f 227 228 226
f 229 230 228
f 231 232 230
f 227 229 228
f 229 231 230
f 232 231 233
f 232 233 234
f 234 235 236
f 237 238 239
f 236 240 237
f 235 240 236
f 238 237 240
f 241 239 238
f 239 241 242
f 234 233 235
f 181 179 180
f 148 66 147
f 243 244 245
f 246 247 248
f 249 250 251
f 252 253 251
f 254 255 256
f 257 256 258
f 257 258 259
f 254 256 257
f 260 261 262
f 260 257 259
f 261 260 259
f 252 255 253
f 255 254 253
f 263 264 265
f 266 264 263
f 248 247 267
f 248 267 268
f 269 265 270
f 249 270 250
f 271 272 262
f 251 253 249
f 263 273 266
f 263 265 269
f 273 274 266
f 249 269 270
f 274 275 266
f 262 261 276
f 244 243 277
f 278 279 280
f 281 282 272
f 272 271 281
f 280 283 284
f 272 282 285
f 286 287 288
f 289 290 291
f 290 289 288
f 286 288 289
f 284 283 292
f 292 287 286
f 292 283 287
f 284 278 280
f 293 285 294
f 294 285 282
f 293 294 295
f 296 297 298
f 297 296 293
f 293 295 297
f 299 298 297
f 300 301 302
f 278 302 301
f 300 302 303
f 304 305 306
f 307 304 308
f 300 303 309
f 279 278 301
f 271 262 276
f 310 311 312
f 313 310 312
f 314 315 311
f 311 315 312
f 316 314 317
f 313 312 277
f 268 318 319
f 268 267 318
f 320 321 322
f 323 319 324
f 324 325 323
f 324 319 318
f 326 323 327
f 328 322 329
f 317 330 331
f 316 317 331
f 312 332 277
f 333 330 317
f 315 314 316
f 334 335 336
f 333 317 335
f 325 327 323
f 320 337 321
f 334 336 338
f 338 336 326
f 338 326 327
f 335 334 333
f 275 274 329
f 313 277 243
f 339 337 320
f 339 340 341
f 342 343 344
f 344 345 346
f 339 347 337
f 348 349 345
f 349 348 350
f 350 348 298
f 274 328 329
f 351 352 309
f 352 300 309
f 353 354 352
f 349 355 345
f 356 309 357
f 347 339 341
f 340 358 341
f 344 359 342
f 360 358 340
f 343 342 361
f 358 360 362
f 361 362 360
f 361 360 343
f 359 344 346
f 353 363 354
f 364 351 365
f 351 364 353
f 352 351 353
f 309 356 351
f 345 355 346
f 320 322 328
f 299 350 298
f 366 367 368
f 369 366 368
f 370 371 372
f 372 373 374
f 367 374 373
f 367 366 374
f 368 375 369
f 376 377 378
f 379 376 378
f 369 377 376
f 380 381 382
f 379 378 381
f 383 384 385
f 377 369 375
f 386 387 388
f 371 370 386
f 388 371 386
f 307 305 304
f 308 389 307
f 389 390 387
f 387 386 389
f 370 372 374
f 380 379 381
f 384 391 385
f 380 382 392
f 307 393 394
f 384 383 395
f 396 397 398
f 399 398 400
f 396 395 397
f 401 399 400
f 396 398 399
f 400 402 401
f 397 395 383
f 403 402 404
f 404 405 406
f 407 408 405
f 403 404 406
f 408 406 405
f 407 409 408
f 402 403 401
f 410 409 407
f 411 412 413
f 414 411 415
f 416 417 418
f 419 420 416
f 421 422 419
f 421 414 423
f 424 425 426
f 424 409 410
f 410 425 424
f 426 425 427
f 411 413 415
f 413 412 428
f 427 428 426
f 412 426 428
f 429 418 430
f 415 423 414
f 306 431 432
f 306 305 431
f 432 431 433
f 432 433 434
f 435 433 436
f 437 436 438
f 439 394 440
f 441 440 394
f 305 307 394
f 439 440 442
f 443 444 445
f 442 443 445
f 442 445 439
f 446 444 447
f 393 441 394
f 433 435 434
f 438 448 449
f 436 450 435
f 436 437 450
f 438 449 437
f 448 451 449
f 448 452 451
f 453 452 454
f 447 444 455
f 446 447 456
f 453 454 457
f 456 457 454
f 456 454 446
f 452 453 451
f 443 455 444
f 458 459 460
f 461 458 460
f 462 463 464
f 465 463 462
f 458 463 465
f 466 462 464
f 460 467 461
f 465 459 458
f 430 418 417
f 417 416 420
f 422 420 419
f 461 467 430
f 430 467 429
f 466 464 468
f 466 468 469
f 469 468 470
f 471 470 472
f 473 472 474
f 469 470 471
f 471 472 473
f 474 475 473
f 474 476 475
f 476 477 478
f 479 480 481
f 477 479 482
f 478 477 482
f 481 482 479
f 483 481 480
f 480 484 483
f 476 478 475
f 423 422 421
f 390 389 308
f 116 98 341
f 116 341 358
f 98 105 347
f 98 347 341
f 105 95 337
f 105 337 347
f 95 80 321
f 95 321 337
f 80 79 322
f 80 322 321
f 79 87 329
f 79 329 322
f 87 33 275
f 87 275 329
f 33 24 266
f 33 266 275
f 24 23 264
f 24 264 266
f 23 22 265
f 23 265 264
f 22 28 270
f 22 270 265
f 28 9 250
f 28 250 270
f 9 8 251
f 9 251 250
f 8 10 252
f 8 252 251
f 10 14 255
f 10 255 252
f 14 13 256
f 14 256 255
f 13 16 258
f 13 258 256
f 16 17 259
f 16 259 258
f 17 20 261
f 17 261 259
f 20 34 276
f 20 276 261
f 34 29 271
f 34 271 276
f 29 39 281
f 29 281 271
f 39 40 282
f 39 282 281
f 40 52 294
f 40 294 282
f 52 53 295
f 52 295 294
f 53 56 297
f 53 297 295
f 56 57 299
f 56 299 297
f 57 108 350
f 57 350 299
f 108 107 349
f 108 349 350
f 107 113 355
f 107 355 349
f 113 103 346
f 113 346 355
f 103 117 359
f 103 359 346
f 117 100 342
f 117 342 359
f 100 119 361
f 100 361 342
f 119 120 362
f 119 362 361
f 120 116 358
f 120 358 362
f 198 200 442
f 198 442 440
f 200 201 443
f 200 443 442
f 201 213 455
f 201 455 443
f 213 205 447
f 213 447 455
f 205 214 456
f 205 456 447
f 214 215 457
f 214 457 456
f 215 211 453
f 215 453 457
f 211 209 451
f 211 451 453
f 209 206 449
f 209 449 451
f 206 195 437
f 206 437 449
f 195 208 450
f 195 450 437
f 208 193 435
f 208 435 450
f 193 192 434
f 193 434 435
f 192 189 432
f 192 432 434
f 189 63 306
f 189 306 432
f 63 62 304
f 63 304 306
f 62 66 308
f 62 308 304
f 66 148 390
f 66 390 308
f 148 146 387
f 148 387 390
f 146 145 388
f 146 388 387
f 145 130 371
f 145 371 388
f 130 129 372
f 130 372 371
f 129 132 373
f 129 373 372
f 132 126 367
f 132 367 373
f 126 125 368
f 126 368 367
f 125 133 375
f 125 375 368
f 133 136 377
f 133 377 375
f 136 135 378
f 136 378 377
f 135 140 381
f 135 381 378
f 140 139 382
f 140 382 381
f 139 150 392
f 139 392 382
f 150 138 380
f 150 380 392
f 138 137 379
f 138 379 380
f 137 134 376
f 137 376 379
f 134 127 369
f 134 369 376
f 127 124 366
f 127 366 369
f 124 131 374
f 124 374 366
f 131 128 370
f 131 370 374
f 128 144 386
f 128 386 370
f 144 147 389
f 144 389 386
f 147 65 307
f 147 307 389
f 65 152 393
f 65 393 307
f 152 199 441
f 152 441 393
f 199 198 440
f 199 440 441
f 77 82 324
f 77 324 318
f 82 83 325
f 82 325 324
f 83 85 327
f 83 327 325
f 85 96 338
f 85 338 327
f 96 92 334
f 96 334 338
f 92 91 333
f 92 333 334
f 91 89 330
f 91 330 333
f 89 88 331
f 89 331 330
f 88 74 316
f 88 316 331
f 74 73 315
f 74 315 316
f 73 69 312
f 73 312 315
f 69 90 332
f 69 332 312
f 90 35 277
f 90 277 332
f 35 3 244
f 35 244 277
f 3 2 245
f 3 245 244
f 2 1 243
f 2 243 245
f 1 71 313
f 1 313 243
f 71 68 310
f 71 310 313
f 68 70 311
f 68 311 310
f 70 72 314
f 70 314 311
f 72 75 317
f 72 317 314
f 75 94 335
f 75 335 317
f 94 93 336
f 94 336 335
f 93 84 326
f 93 326 336
f 84 81 323
f 84 323 326
f 81 76 319
f 81 319 323
f 76 26 268
f 76 268 319
f 26 5 248
f 26 248 268
f 5 4 246
f 5 246 248
f 4 6 247
f 4 247 246
f 6 25 267
f 6 267 247
f 25 77 318
f 25 318 267
f 238 240 482
f 238 482 481
f 240 235 478
f 240 478 482
f 235 233 475
f 235 475 478
f 233 231 473
f 233 473 475
f 231 229 471
f 231 471 473
f 229 227 469
f 229 469 471
f 227 224 466
f 227 466 469
f 224 220 462
f 224 462 466
f 220 223 465
f 220 465 462
f 223 218 459
f 223 459 465
f 218 217 460
f 218 460 459
f 217 225 467
f 217 467 460
f 225 187 429
f 225 429 467
f 187 175 418
f 187 418 429
f 175 174 416
f 175 416 418
f 174 177 419
f 174 419 416
f 177 179 421
f 177 421 419
f 179 172 414
f 179 414 421
f 172 169 411
f 172 411 414
f 169 171 412
f 169 412 411
f 171 183 426
f 171 426 412
f 183 182 424
f 183 424 426
f 182 167 409
f 182 409 424
f 167 166 408
f 167 408 409
f 166 163 406
f 166 406 408
f 163 161 403
f 163 403 406
f 161 159 401
f 161 401 403
f 159 157 399
f 159 399 401
f 157 154 396
f 157 396 399
f 154 153 395
f 154 395 396
f 153 143 384
f 153 384 395
f 143 149 391
f 143 391 384
f 149 142 385
f 149 385 391
f 142 141 383
f 142 383 385
f 141 156 397
f 141 397 383
f 156 155 398
f 156 398 397
f 155 158 400
f 155 400 398
f 158 160 402
f 158 402 400
f 160 162 404
f 160 404 402
f 162 164 405
f 162 405 404
f 164 165 407
f 164 407 405
f 165 168 410
f 165 410 407
f 168 184 425
f 168 425 410
f 184 185 427
f 184 427 425
f 185 186 428
f 185 428 427
f 186 170 413
f 186 413 428
f 170 173 415
f 170 415 413
f 173 181 423
f 173 423 415
f 181 180 422
f 181 422 423
f 180 178 420
f 180 420 422
f 178 176 417
f 178 417 420
f 176 188 430
f 176 430 417
f 188 219 461
f 188 461 430
f 219 216 458
f 219 458 461
f 216 222 463
f 216 463 458
f 222 221 464
f 222 464 463
f 221 226 468
f 221 468 464
f 226 228 470
f 226 470 468
f 228 230 472
f 228 472 470
f 230 232 474
f 230 474 472
f 232 234 476
f 232 476 474
f 234 236 477
f 234 477 476
f 236 237 479
f 236 479 477
f 237 239 480
f 237 480 479
f 239 242 484
f 239 484 480
f 242 241 483
f 242 483 484
f 241 238 481
f 241 481 483
f 102 101 344
f 102 344 343
f 101 104 345
f 101 345 344
f 104 106 348
f 104 348 345
f 106 55 298
f 106 298 348
f 55 54 296
f 55 296 298
f 54 51 293
f 54 293 296
f 51 43 285
f 51 285 293
f 43 30 272
f 43 272 285
f 30 19 262
f 30 262 272
f 19 18 260
f 19 260 262
f 18 15 257
f 18 257 260
f 15 12 254
f 15 254 257
f 12 11 253
f 12 253 254
f 11 7 249
f 11 249 253
f 7 27 269
f 7 269 249
f 27 21 263
f 27 263 269
f 21 31 273
f 21 273 263
f 31 32 274
f 31 274 273
f 32 86 328
f 32 328 274
f 86 78 320
f 86 320 328
f 78 97 339
f 78 339 320
f 97 99 340
f 97 340 339
f 99 118 360
f 99 360 340
f 118 102 343
f 118 343 360
f 122 111 353
f 122 353 364
f 111 121 363
f 111 363 353
f 121 112 354
f 121 354 363
f 112 110 352
f 112 352 354
f 110 58 300
f 110 300 352
f 58 60 301
f 58 301 300
f 60 38 279
f 60 279 301
f 38 37 280
f 38 280 279
f 37 42 283
f 37 283 280
f 42 46 287
f 42 287 283
f 46 45 288
f 46 288 287
f 45 49 290
f 45 290 288
f 49 48 291
f 49 291 290
f 48 47 289
f 48 289 291
f 47 44 286
f 47 286 289
f 44 50 292
f 44 292 286
f 50 41 284
f 50 284 292
f 41 36 278
f 41 278 284
f 36 59 302
f 36 302 278
f 59 61 303
f 59 303 302
f 61 67 309
f 61 309 303
f 67 115 357
f 67 357 309
f 115 114 356
f 115 356 357
f 114 109 351
f 114 351 356
f 109 123 365
f 109 365 351
f 123 122 364
f 123 364 365
f 64 190 431
f 64 431 305
f 190 191 433
f 190 433 431
f 191 194 436
f 191 436 433
f 194 196 438
f 194 438 436
f 196 207 448
f 196 448 438
f 207 210 452
f 207 452 448
f 210 212 454
f 210 454 452
f 212 204 446
f 212 446 454
f 204 203 444
f 204 444 446
f 203 202 445
f 203 445 444
f 202 197 439
f 202 439 445
f 197 151 394
f 197 394 439
f 151 64 305
f 151 305 394

