# https://github.com/mikedh/trimesh
v -72.88739777 -10.96947384 -2.50000000
v -74.13397980 -14.24339962 -2.50000000
v -75.26825714 -13.72386837 -2.50000000
v -71.55194855 -14.83714962 -2.50000000
v -75.69208527 -9.55931759 -2.50000000
v -78.08954620 -11.23949337 -2.50000000
v -78.84638214 -10.09886837 -2.50000000
v -78.84638214 -24.59886742 -2.50000000
v -83.36200714 -24.59886742 -2.50000000
v -76.30048370 -13.05199337 -2.50000000
v -71.19794464 -11.14574337 -2.50000000
v -70.10419464 -14.91136837 -2.50000000
v -78.71894073 -2.89525485 -2.50000000
v -69.51190948 -10.96947384 -2.50000000
v -68.88739777 -14.84960079 -2.50000000
v -66.62958527 -14.35546017 -2.50000000
v -66.71112823 -9.55931759 -2.50000000
v -62.81708908 -11.88475704 -2.50000000
v -64.60614777 -13.36717892 -2.50000000
v -47.78290939 -8.98265743 -2.50000000
v -50.68622971 -12.55199337 -2.50000000
v -51.76972580 -11.27269650 -2.50000000
v -62.01044846 -10.95824337 -2.50000000
v -65.59638214 -8.32543087 -2.50000000
v -47.09247971 -9.74730587 -2.50000000
v -49.33710861 -13.58421993 -2.50000000
v -76.80731964 -8.32543087 -2.50000000
v -60.64667892 -8.82250118 -2.50000000
v -64.70429230 -6.78197336 -2.50000000
v -77.69940948 -6.78197336 -2.50000000
v -63.68476486 -2.89525485 -2.50000000
v -59.08808517 -3.61937594 -2.50000000
v -58.89326096 -0.55199307 -2.50000000
v -53.16279221 -6.23949289 -2.50000000
v -48.57197189 -7.08421946 -2.50000000
v -53.00800705 -8.11644650 -2.50000000
v -48.67060471 -5.95043039 -2.50000000
v -51.42695236 -0.59984463 -2.50000000
v -48.53925705 -4.55687571 -2.50000000
v -52.96992111 -4.07640696 -2.50000000
v -50.07685471 0.71363193 -2.50000000
v -47.48847580 -2.43187594 -2.50000000
v -46.56904221 -1.70043063 -2.50000000
v -46.23310471 -10.35912228 -2.50000000
v -83.36200714 13.14331913 -2.50000000
v -44.00654221 -14.91136837 -2.50000000
v -45.99726486 -14.76390743 -2.50000000
v -44.09247971 -11.05834103 -2.50000000
v -42.81122971 -11.14574337 -2.50000000
v -42.41035080 -14.83714962 -2.50000000
v -41.03290939 -10.98021603 -2.50000000
v -38.38935471 -13.72386837 -2.50000000
v -39.60175705 -14.24339962 -2.50000000
v -30.06122971 -14.20043087 -2.50000000
v -34.55341721 -14.20043087 -2.50000000
v -34.55341721 -10.05199337 -2.50000000
v -38.03290939 -9.65599728 -2.50000000
v -37.28828049 -13.04906368 -2.50000000
v -35.37031174 -11.21312618 -2.50000000
v -9.17402172 -14.83714962 -2.50000000
v -11.75605297 -14.24339962 -2.50000000
v -10.50947094 -10.96947384 -2.50000000
v -7.72626781 -14.91136837 -2.50000000
v -8.82001781 -11.14574337 -2.50000000
v -13.31415844 -9.55931759 -2.50000000
v -13.92255688 -13.05199337 -2.50000000
v -15.71161938 -11.23949337 -2.50000000
v -12.89033031 -13.72386837 -2.50000000
v -6.50947094 -14.84960079 -2.50000000
v -7.13398266 -10.96947384 -2.50000000
v -4.25165844 -14.35546017 -2.50000000
v -20.98408127 -24.59886742 -2.50000000
v -16.46845627 -10.09886837 -2.50000000
v -16.46845627 -24.59886742 -2.50000000
v -16.34101486 -2.89525485 -2.50000000
v -36.81122971 -8.49730587 -2.50000000
v -34.69453049 -3.54466891 -2.50000000
v -35.82343674 -7.06419992 -2.50000000
v -34.55341721 -1.45824313 -2.50000000
v -30.06122971 1.40113187 -2.50000000
v -48.34052658 1.73902249 -2.50000000
v -45.30927658 -1.15697360 -2.50000000
v -14.42939281 -8.32543087 -2.50000000
v -15.32148266 -6.78197336 -2.50000000
v -0.43915868 -11.88475704 -2.50000000
v -4.33320141 -9.55931759 -2.50000000
v -3.21845555 -8.32543087 -2.50000000
v 1.73125148 -8.82250118 -2.50000000
v -2.32636571 -6.78197336 -2.50000000
v -20.98408127 13.14331913 -2.50000000
v -2.22822118 -13.36717892 -2.50000000
v -78.71894073 1.79126859 -2.50000000
v -78.84638214 -0.55199307 -2.50000000
v -64.70429230 5.67798758 -2.50000000
v -59.08808517 2.51490140 -2.50000000
v -63.68476486 1.79126859 -2.50000000
v -78.84638214 8.99488163 -2.50000000
v -77.69940948 5.67798758 -2.50000000
v -75.69208527 8.45533085 -2.50000000
v -76.80731964 7.22144461 -2.50000000
v -62.81708908 10.77295780 -2.50000000
v -65.59638214 7.22144461 -2.50000000
v -66.71112823 8.45533085 -2.50000000
v -78.08954620 10.13501835 -2.50000000
v -60.64667892 7.71412039 -2.50000000
v -43.73115158 2.91089749 -2.50000000
v -63.55732346 -0.55199307 -2.50000000
v -51.15497971 11.90113163 -2.50000000
v -49.06513596 8.72925663 -2.50000000
v -51.15497971 7.74488211 -2.50000000
v -62.01044846 9.84644413 -2.50000000
v -48.72919846 12.73316288 -2.50000000
v -46.88935471 9.43238163 -2.50000000
v -76.30048370 11.94361210 -2.50000000
v -74.13397980 13.13160038 -2.50000000
v -72.88739777 9.86548710 -2.50000000
v -75.26825714 12.61206913 -2.50000000
v -71.55194855 13.72535038 -2.50000000
v -71.19794464 10.04175663 -2.50000000
v -78.84638214 13.14331913 -2.50000000
v -70.10419464 13.79956913 -2.50000000
v -69.51190948 9.86548710 -2.50000000
v -64.60614777 12.25537968 -2.50000000
v -66.62958527 13.24366093 -2.50000000
v -44.63349533 9.85425663 -2.50000000
v -46.37372971 13.32300663 -2.50000000
v -68.88739777 13.73780155 -2.50000000
v -44.08466721 13.68042850 -2.50000000
v -42.31904221 9.99488163 -2.50000000
v -40.85810471 3.05738187 -2.50000000
v -39.02216721 -0.45824307 -2.50000000
v -41.53583908 -0.53587979 -2.50000000
v -34.55341721 3.05738187 -2.50000000
v -34.55341721 -0.45824307 -2.50000000
v -35.61115646 12.59717655 -2.50000000
v -36.59247971 8.29956913 -2.50000000
v -37.71503830 9.04126835 -2.50000000
v -34.68085861 4.96558523 -2.50000000
v -30.24433517 4.32740164 -2.50000000
v -34.55341721 3.50269437 -2.50000000
v -35.70038986 7.36402273 -2.50000000
v -31.20563889 7.97156668 -2.50000000
v -32.99091721 10.72144413 -2.50000000
v -16.34101486 1.79126859 -2.50000000
v -16.46845627 8.99488163 -2.50000000
v -16.46845627 -0.55199307 -2.50000000
v -15.32148266 5.67798758 -2.50000000
v -14.42939281 7.22144461 -2.50000000
v -13.31415844 8.45533085 -2.50000000
v -32.30427170 9.90418339 -2.50000000
v -4.25165844 13.24366093 -2.50000000
v -2.22822118 12.25537968 -2.50000000
v -4.33320141 8.45533085 -2.50000000
v -15.71161938 10.13501835 -2.50000000
v -41.85810471 13.79956913 -2.50000000
v -40.57831955 9.88892460 -2.50000000
v -33.77033615 11.44287968 -2.50000000
v -39.07734299 13.60718632 -2.50000000
v -16.46845627 13.14331913 -2.50000000
v -13.92255688 11.94361210 -2.50000000
v -9.17402172 13.72535038 -2.50000000
v -8.82001781 10.04175663 -2.50000000
v -10.50947094 9.86548710 -2.50000000
v -12.89033031 12.61206913 -2.50000000
v -7.72626781 13.79956913 -2.50000000
v -7.13398266 9.86548710 -2.50000000
v -11.75605297 13.13160038 -2.50000000
v -6.50947094 13.73780155 -2.50000000
v -0.43915868 10.77295780 -2.50000000
v -3.21845555 7.22144461 -2.50000000
v 18.63371658 -14.37633419 -2.50000000
v 16.04191971 -13.42516232 -2.50000000
v 17.83037186 -9.73216915 -2.50000000
v 13.79094410 -11.99840450 -2.50000000
v 21.31474686 -10.94701290 -2.50000000
v 21.56633377 -14.85192013 -2.50000000
v 0.36748195 -10.95824337 -2.50000000
v 15.34502125 -7.31615305 -2.50000000
v 12.79326344 -11.10668087 -2.50000000
v 11.89787769 -10.11156368 -2.50000000
v 16.45732498 -8.66918087 -2.50000000
v 23.42607498 -11.09886837 -2.50000000
v 25.75224686 -14.77660275 -2.50000000
v 23.16044998 -14.91136837 -2.50000000
v 25.97294998 -10.94066525 -2.50000000
v 28.30888748 -14.37230587 -2.50000000
v 30.86357498 -9.67308712 -2.50000000
v 30.81865311 -13.71214962 -2.50000000
v 28.44169998 -10.46605587 -2.50000000
v 33.26982498 -12.80980587 -2.50000000
v 41.51591873 -14.20043087 -2.50000000
v 41.51591873 13.14331913 -2.50000000
v 46.03154373 0.20581943 -2.50000000
v -1.30683446 -2.89525485 -2.50000000
v 3.28984523 -3.61937594 -2.50000000
v 9.03264332 -2.37718844 -2.50000000
v 13.94658375 -3.78099704 -2.50000000
v 9.51018238 -5.29125071 -2.50000000
v 3.48466945 -0.55199307 -2.50000000
v -1.30683446 1.79126859 -2.50000000
v -1.17939305 -0.55199307 -2.50000000
v 13.66045094 -1.59886813 -2.50000000
v 8.97295094 -0.79418057 -2.50000000
v 3.28984523 2.51490140 -2.50000000
v 10.46526051 -7.86937571 -2.50000000
v 33.26982498 -8.55980587 -2.50000000
v 13.80888844 1.88550687 -2.50000000
v 29.82451248 1.91675687 -2.50000000
v 34.31669998 0.59644443 -2.50000000
v 34.31669998 -1.59886813 -2.50000000
v 34.11601639 3.48755765 -2.50000000
v 9.19951344 2.38794827 -2.50000000
v 46.03154373 -14.20043087 -2.50000000
v 62.71709061 -9.69457150 -2.50000000
v 62.81474686 -13.94652462 -2.50000000
v 60.24443436 -13.20043087 -2.50000000
v 67.55498505 -10.98558712 -2.50000000
v 67.59600067 -14.80394650 -2.50000000
v 65.26006317 -14.48168087 -2.50000000
v 65.15068817 -10.50511837 -2.50000000
v 69.93975067 -11.14574337 -2.50000000
v 69.83818817 -14.91136837 -2.50000000
v 60.24443436 -8.55980587 -2.50000000
v 71.43389130 -11.07787228 -2.50000000
v 73.87139130 -10.53490353 -2.50000000
v 72.33379364 -14.77269650 -2.50000000
v 74.81475067 -10.05980587 -2.50000000
v 78.12725067 -12.69261837 -2.50000000
v 76.47832489 -13.66332150 -2.50000000
v 75.56328583 -9.46117306 -2.50000000
v 79.44658661 -11.48021603 -2.50000000
v 76.41875458 -7.92992258 -2.50000000
v 76.52568817 -6.99730539 -2.50000000
v 80.95439911 -8.46068478 -2.50000000
v 66.38115692 -1.44603610 -2.50000000
v 63.36552811 -0.09837979 -2.50000000
v 65.97881317 3.48706937 -2.50000000
v 70.79131317 1.79175687 -2.50000000
v 69.88506317 -2.30980563 -2.50000000
v 68.32256317 -1.94261813 -2.50000000
v 67.77959442 2.61792874 -2.50000000
v 72.33037567 1.44800687 -2.50000000
v 71.79033661 -2.76732516 -2.50000000
v 46.15898514 2.39087796 -2.50000000
v 62.29130936 0.75269443 -2.50000000
v 61.48125076 1.74732327 -2.50000000
v 65.45586395 3.97437406 -2.50000000
v 74.54814911 0.88355380 -2.50000000
v 80.00908661 -2.46849704 -2.50000000
v 76.44853973 -6.13646555 -2.50000000
v 75.83135223 -4.73412180 -2.50000000
v 81.14287567 -6.65355539 -2.50000000
v 81.01689911 -5.07396555 -2.50000000
v 77.94658661 -0.56175870 -2.50000000
v 74.49346161 -3.70873141 -2.50000000
v 75.29131317 -4.19261789 -2.50000000
v 79.12725067 -1.44261813 -2.50000000
v 1.73125148 7.71412039 -2.50000000
v -2.32636571 5.67798758 -2.50000000
v 10.38896656 6.51111746 -2.50000000
v 14.10039234 3.70679593 -2.50000000
v 15.40117359 6.69898367 -2.50000000
v 12.59795094 9.85425663 -2.50000000
v 16.41044998 7.86988211 -2.50000000
v 11.74834156 8.82654667 -2.50000000
v 17.63310623 8.79956913 -2.50000000
v 15.67265797 12.25843143 -2.50000000
v 0.36748195 9.84644413 -2.50000000
v 33.06242752 7.22547293 -2.50000000
v 29.67802811 3.66382718 -2.50000000
v 28.64677811 6.60132742 -2.50000000
v 46.03154373 8.89331913 -2.50000000
v 47.17851639 5.94947195 -2.50000000
v 30.26701736 11.07801151 -2.50000000
v 27.76201248 7.79175711 -2.50000000
v 26.67265701 8.75562382 -2.50000000
v 48.07060623 7.32300711 -2.50000000
v 46.79521561 10.05884647 -2.50000000
v 31.85832596 9.31824589 -2.50000000
v 13.54375172 10.77893925 -2.50000000
v 18.11796951 13.24475956 -2.50000000
v 20.64091873 9.86206913 -2.50000000
v 20.87968826 13.73792362 -2.50000000
v 22.37919998 13.79956913 -2.50000000
v 22.42607498 9.99488163 -2.50000000
v 24.99296951 13.57740116 -2.50000000
v 24.00468826 9.85718632 -2.50000000
v 31.10576248 10.24488163 -2.50000000
v 28.37346268 12.41101933 -2.50000000
v 46.03154373 13.14331913 -2.50000000
v 48.63896561 11.90650272 -2.50000000
v 49.20097733 8.40650272 -2.50000000
v 64.78350067 5.94019461 -2.50000000
v 60.43974686 5.74488211 -2.50000000
v 60.61064529 7.56421804 -2.50000000
v 64.85820770 5.20093679 -2.50000000
v 60.55546951 4.24341726 -2.50000000
v 57.53154373 8.94800663 -2.50000000
v 56.74052811 9.32691288 -2.50000000
v 57.50810623 13.55738163 -2.50000000
v 55.88310623 9.58863163 -2.50000000
v 55.72880936 13.78394413 -2.50000000
v 54.94755936 9.74683475 -2.50000000
v 64.88799286 6.90308523 -2.50000000
v 52.12675858 9.64478397 -2.50000000
v 49.71904373 12.58863163 -2.50000000
v 65.72393036 8.44214725 -2.50000000
v 63.17412186 11.69800663 -2.50000000
v 66.45537567 9.01831913 -2.50000000
v 61.97783279 10.54078007 -2.50000000
v 77.73662567 8.94214725 -2.50000000
v 79.67412567 12.33863163 -2.50000000
v 79.67412567 8.08863163 -2.50000000
v 75.72100067 9.54956913 -2.50000000
v 77.73467255 12.97925663 -2.50000000
v 64.68486786 12.61744022 -2.50000000
v 67.39580536 9.46607304 -2.50000000
v 50.91679764 13.11841679 -2.50000000
v 56.85771561 13.66480350 -2.50000000
v 53.67851639 13.72388554 -2.50000000
v 53.92216873 9.79956913 -2.50000000
v 56.26591873 13.73706913 -2.50000000
v 55.24248123 13.79956913 -2.50000000
v 73.35186005 13.70777225 -2.50000000
v 73.63506317 9.91870975 -2.50000000
v 71.47100067 10.04175663 -2.50000000
v 70.93975067 13.79956913 -2.50000000
v 69.90361786 9.97779179 -2.50000000
v 68.56768036 13.66822147 -2.50000000
v 75.61943817 13.43238163 -2.50000000
v -72.88739777 -10.96947384 2.50000000
v -75.26825714 -13.72386837 2.50000000
v -74.13397980 -14.24339962 2.50000000
v -71.55194855 -14.83714962 2.50000000
v -75.69208527 -9.55931759 2.50000000
v -78.84638214 -10.09886837 2.50000000
v -78.08954620 -11.23949337 2.50000000
v -83.36200714 -24.59886742 2.50000000
v -78.84638214 -24.59886742 2.50000000
v -76.30048370 -13.05199337 2.50000000
v -71.19794464 -11.14574337 2.50000000
v -70.10419464 -14.91136837 2.50000000
v -78.71894073 -2.89525485 2.50000000
v -69.51190948 -10.96947384 2.50000000
v -68.88739777 -14.84960079 2.50000000
v -66.62958527 -14.35546017 2.50000000
v -66.71112823 -9.55931759 2.50000000
v -62.81708908 -11.88475704 2.50000000
v -64.60614777 -13.36717892 2.50000000
v -47.78290939 -8.98265743 2.50000000
v -51.76972580 -11.27269650 2.50000000
v -50.68622971 -12.55199337 2.50000000
v -62.01044846 -10.95824337 2.50000000
v -65.59638214 -8.32543087 2.50000000
v -49.33710861 -13.58421993 2.50000000
v -47.09247971 -9.74730587 2.50000000
v -76.80731964 -8.32543087 2.50000000
v -60.64667892 -8.82250118 2.50000000
v -64.70429230 -6.78197336 2.50000000
v -77.69940948 -6.78197336 2.50000000
v -59.08808517 -3.61937594 2.50000000
v -63.68476486 -2.89525485 2.50000000
v -58.89326096 -0.55199307 2.50000000
v -53.16279221 -6.23949289 2.50000000
v -53.00800705 -8.11644650 2.50000000
v -48.57197189 -7.08421946 2.50000000
v -48.67060471 -5.95043039 2.50000000
v -51.42695236 -0.59984463 2.50000000
v -52.96992111 -4.07640696 2.50000000
v -48.53925705 -4.55687571 2.50000000
v -47.48847580 -2.43187594 2.50000000
v -50.07685471 0.71363193 2.50000000
v -46.56904221 -1.70043063 2.50000000
v -46.23310471 -10.35912228 2.50000000
v -83.36200714 13.14331913 2.50000000
v -44.00654221 -14.91136837 2.50000000
v -44.09247971 -11.05834103 2.50000000
v -45.99726486 -14.76390743 2.50000000
v -42.41035080 -14.83714962 2.50000000
v -42.81122971 -11.14574337 2.50000000
v -41.03290939 -10.98021603 2.50000000
v -38.38935471 -13.72386837 2.50000000
v -39.60175705 -14.24339962 2.50000000
v -30.06122971 -14.20043087 2.50000000
v -34.55341721 -10.05199337 2.50000000
v -34.55341721 -14.20043087 2.50000000
v -38.03290939 -9.65599728 2.50000000
v -37.28828049 -13.04906368 2.50000000
v -35.37031174 -11.21312618 2.50000000
v -9.17402172 -14.83714962 2.50000000
v -10.50947094 -10.96947384 2.50000000
v -11.75605297 -14.24339962 2.50000000
v -7.72626781 -14.91136837 2.50000000
v -8.82001781 -11.14574337 2.50000000
v -13.31415844 -9.55931759 2.50000000
v -15.71161938 -11.23949337 2.50000000
v -13.92255688 -13.05199337 2.50000000
v -12.89033031 -13.72386837 2.50000000
v -6.50947094 -14.84960079 2.50000000
v -7.13398266 -10.96947384 2.50000000
v -4.25165844 -14.35546017 2.50000000
v -20.98408127 -24.59886742 2.50000000
v -16.46845627 -24.59886742 2.50000000
v -16.46845627 -10.09886837 2.50000000
v -16.34101486 -2.89525485 2.50000000
v -36.81122971 -8.49730587 2.50000000
v -34.69453049 -3.54466891 2.50000000
v -35.82343674 -7.06419992 2.50000000
v -30.06122971 1.40113187 2.50000000
v -34.55341721 -1.45824313 2.50000000
v -48.34052658 1.73902249 2.50000000
v -45.30927658 -1.15697360 2.50000000
v -14.42939281 -8.32543087 2.50000000
v -15.32148266 -6.78197336 2.50000000
v -0.43915868 -11.88475704 2.50000000
v -3.21845555 -8.32543087 2.50000000
v -4.33320141 -9.55931759 2.50000000
v 1.73125148 -8.82250118 2.50000000
v -2.32636571 -6.78197336 2.50000000
v -20.98408127 13.14331913 2.50000000
v -2.22822118 -13.36717892 2.50000000
v -78.84638214 -0.55199307 2.50000000
v -78.71894073 1.79126859 2.50000000
v -64.70429230 5.67798758 2.50000000
v -63.68476486 1.79126859 2.50000000
v -59.08808517 2.51490140 2.50000000
v -77.69940948 5.67798758 2.50000000
v -78.84638214 8.99488163 2.50000000
v -76.80731964 7.22144461 2.50000000
v -75.69208527 8.45533085 2.50000000
v -62.81708908 10.77295780 2.50000000
v -66.71112823 8.45533085 2.50000000
v -65.59638214 7.22144461 2.50000000
v -78.08954620 10.13501835 2.50000000
v -60.64667892 7.71412039 2.50000000
v -43.73115158 2.91089749 2.50000000
v -63.55732346 -0.55199307 2.50000000
v -51.15497971 11.90113163 2.50000000
v -51.15497971 7.74488211 2.50000000
v -49.06513596 8.72925663 2.50000000
v -62.01044846 9.84644413 2.50000000
v -46.88935471 9.43238163 2.50000000
v -48.72919846 12.73316288 2.50000000
v -76.30048370 11.94361210 2.50000000
v -74.13397980 13.13160038 2.50000000
v -75.26825714 12.61206913 2.50000000
v -72.88739777 9.86548710 2.50000000
v -71.55194855 13.72535038 2.50000000
v -71.19794464 10.04175663 2.50000000
v -78.84638214 13.14331913 2.50000000
v -70.10419464 13.79956913 2.50000000
v -69.51190948 9.86548710 2.50000000
v -64.60614777 12.25537968 2.50000000
v -66.62958527 13.24366093 2.50000000
v -44.63349533 9.85425663 2.50000000
v -46.37372971 13.32300663 2.50000000
v -68.88739777 13.73780155 2.50000000
v -44.08466721 13.68042850 2.50000000
v -42.31904221 9.99488163 2.50000000
v -40.85810471 3.05738187 2.50000000
v -41.53583908 -0.53587979 2.50000000
v -39.02216721 -0.45824307 2.50000000
v -34.55341721 -0.45824307 2.50000000
v -34.55341721 3.05738187 2.50000000
v -35.61115646 12.59717655 2.50000000
v -37.71503830 9.04126835 2.50000000
v -36.59247971 8.29956913 2.50000000
v -34.68085861 4.96558523 2.50000000
v -34.55341721 3.50269437 2.50000000
v -30.24433517 4.32740164 2.50000000
v -35.70038986 7.36402273 2.50000000
v -31.20563889 7.97156668 2.50000000
v -32.99091721 10.72144413 2.50000000
v -16.34101486 1.79126859 2.50000000
v -16.46845627 8.99488163 2.50000000
v -16.46845627 -0.55199307 2.50000000
v -15.32148266 5.67798758 2.50000000
v -14.42939281 7.22144461 2.50000000
v -13.31415844 8.45533085 2.50000000
v -32.30427170 9.90418339 2.50000000
v -4.25165844 13.24366093 2.50000000
v -4.33320141 8.45533085 2.50000000
v -2.22822118 12.25537968 2.50000000
v -15.71161938 10.13501835 2.50000000
v -41.85810471 13.79956913 2.50000000
v -40.57831955 9.88892460 2.50000000
v -33.77033615 11.44287968 2.50000000
v -39.07734299 13.60718632 2.50000000
v -16.46845627 13.14331913 2.50000000
v -13.92255688 11.94361210 2.50000000
v -9.17402172 13.72535038 2.50000000
v -10.50947094 9.86548710 2.50000000
v -8.82001781 10.04175663 2.50000000
v -12.89033031 12.61206913 2.50000000
v -7.72626781 13.79956913 2.50000000
v -7.13398266 9.86548710 2.50000000
v -11.75605297 13.13160038 2.50000000
v -6.50947094 13.73780155 2.50000000
v -3.21845555 7.22144461 2.50000000
v -0.43915868 10.77295780 2.50000000
v 18.63371658 -14.37633419 2.50000000
v 17.83037186 -9.73216915 2.50000000
v 16.04191971 -13.42516232 2.50000000
v 13.79094410 -11.99840450 2.50000000
v 21.31474686 -10.94701290 2.50000000
v 21.56633377 -14.85192013 2.50000000
v 0.36748195 -10.95824337 2.50000000
v 15.34502125 -7.31615305 2.50000000
v 11.89787769 -10.11156368 2.50000000
v 12.79326344 -11.10668087 2.50000000
v 16.45732498 -8.66918087 2.50000000
v 23.42607498 -11.09886837 2.50000000
v 23.16044998 -14.91136837 2.50000000
v 25.75224686 -14.77660275 2.50000000
v 25.97294998 -10.94066525 2.50000000
v 28.30888748 -14.37230587 2.50000000
v 30.86357498 -9.67308712 2.50000000
v 28.44169998 -10.46605587 2.50000000
v 30.81865311 -13.71214962 2.50000000
v 33.26982498 -12.80980587 2.50000000
v 41.51591873 -14.20043087 2.50000000
v 46.03154373 0.20581943 2.50000000
v 41.51591873 13.14331913 2.50000000
v 3.28984523 -3.61937594 2.50000000
v -1.30683446 -2.89525485 2.50000000
v 9.03264332 -2.37718844 2.50000000
v 9.51018238 -5.29125071 2.50000000
v 13.94658375 -3.78099704 2.50000000
v 3.48466945 -0.55199307 2.50000000
v -1.30683446 1.79126859 2.50000000
v -1.17939305 -0.55199307 2.50000000
v 13.66045094 -1.59886813 2.50000000
v 8.97295094 -0.79418057 2.50000000
v 3.28984523 2.51490140 2.50000000
v 10.46526051 -7.86937571 2.50000000
v 33.26982498 -8.55980587 2.50000000
v 13.80888844 1.88550687 2.50000000
v 29.82451248 1.91675687 2.50000000
v 34.31669998 -1.59886813 2.50000000
v 34.31669998 0.59644443 2.50000000
v 34.11601639 3.48755765 2.50000000
v 9.19951344 2.38794827 2.50000000
v 46.03154373 -14.20043087 2.50000000
v 62.71709061 -9.69457150 2.50000000
v 60.24443436 -13.20043087 2.50000000
v 62.81474686 -13.94652462 2.50000000
v 67.55498505 -10.98558712 2.50000000
v 65.26006317 -14.48168087 2.50000000
v 67.59600067 -14.80394650 2.50000000
v 65.15068817 -10.50511837 2.50000000
v 69.83818817 -14.91136837 2.50000000
v 69.93975067 -11.14574337 2.50000000
v 60.24443436 -8.55980587 2.50000000
v 71.43389130 -11.07787228 2.50000000
v 73.87139130 -10.53490353 2.50000000
v 72.33379364 -14.77269650 2.50000000
v 74.81475067 -10.05980587 2.50000000
v 76.47832489 -13.66332150 2.50000000
v 78.12725067 -12.69261837 2.50000000
v 75.56328583 -9.46117306 2.50000000
v 79.44658661 -11.48021603 2.50000000
v 76.41875458 -7.92992258 2.50000000
v 80.95439911 -8.46068478 2.50000000
v 76.52568817 -6.99730539 2.50000000
v 66.38115692 -1.44603610 2.50000000
v 65.97881317 3.48706937 2.50000000
v 63.36552811 -0.09837979 2.50000000
v 70.79131317 1.79175687 2.50000000
v 68.32256317 -1.94261813 2.50000000
v 69.88506317 -2.30980563 2.50000000
v 67.77959442 2.61792874 2.50000000
v 72.33037567 1.44800687 2.50000000
v 71.79033661 -2.76732516 2.50000000
v 46.15898514 2.39087796 2.50000000
v 62.29130936 0.75269443 2.50000000
v 61.48125076 1.74732327 2.50000000
v 65.45586395 3.97437406 2.50000000
v 74.54814911 0.88355380 2.50000000
v 80.00908661 -2.46849704 2.50000000
v 75.83135223 -4.73412180 2.50000000
v 76.44853973 -6.13646555 2.50000000
v 81.14287567 -6.65355539 2.50000000
v 81.01689911 -5.07396555 2.50000000
v 74.49346161 -3.70873141 2.50000000
v 77.94658661 -0.56175870 2.50000000
v 75.29131317 -4.19261789 2.50000000
v 79.12725067 -1.44261813 2.50000000
v 1.73125148 7.71412039 2.50000000
v -2.32636571 5.67798758 2.50000000
v 14.10039234 3.70679593 2.50000000
v 10.38896656 6.51111746 2.50000000
v 15.40117359 6.69898367 2.50000000
v 12.59795094 9.85425663 2.50000000
v 16.41044998 7.86988211 2.50000000
v 11.74834156 8.82654667 2.50000000
v 17.63310623 8.79956913 2.50000000
v 15.67265797 12.25843143 2.50000000
v 0.36748195 9.84644413 2.50000000
v 33.06242752 7.22547293 2.50000000
v 28.64677811 6.60132742 2.50000000
v 29.67802811 3.66382718 2.50000000
v 46.03154373 8.89331913 2.50000000
v 47.17851639 5.94947195 2.50000000
v 30.26701736 11.07801151 2.50000000
v 26.67265701 8.75562382 2.50000000
v 27.76201248 7.79175711 2.50000000
v 48.07060623 7.32300711 2.50000000
v 46.79521561 10.05884647 2.50000000
v 31.85832596 9.31824589 2.50000000
v 13.54375172 10.77893925 2.50000000
v 18.11796951 13.24475956 2.50000000
v 20.64091873 9.86206913 2.50000000
v 20.87968826 13.73792362 2.50000000
v 22.42607498 9.99488163 2.50000000
v 22.37919998 13.79956913 2.50000000
v 24.00468826 9.85718632 2.50000000
v 24.99296951 13.57740116 2.50000000
v 31.10576248 10.24488163 2.50000000
v 28.37346268 12.41101933 2.50000000
v 46.03154373 13.14331913 2.50000000
v 48.63896561 11.90650272 2.50000000
v 49.20097733 8.40650272 2.50000000
v 64.78350067 5.94019461 2.50000000
v 60.61064529 7.56421804 2.50000000
v 60.43974686 5.74488211 2.50000000
v 64.85820770 5.20093679 2.50000000
v 60.55546951 4.24341726 2.50000000
v 57.53154373 8.94800663 2.50000000
v 57.50810623 13.55738163 2.50000000
v 56.74052811 9.32691288 2.50000000
v 55.88310623 9.58863163 2.50000000
v 55.72880936 13.78394413 2.50000000
v 54.94755936 9.74683475 2.50000000
v 64.88799286 6.90308523 2.50000000
v 52.12675858 9.64478397 2.50000000
v 49.71904373 12.58863163 2.50000000
v 65.72393036 8.44214725 2.50000000
v 66.45537567 9.01831913 2.50000000
v 63.17412186 11.69800663 2.50000000
v 61.97783279 10.54078007 2.50000000
v 77.73662567 8.94214725 2.50000000
v 79.67412567 8.08863163 2.50000000
v 79.67412567 12.33863163 2.50000000
v 75.72100067 9.54956913 2.50000000
v 77.73467255 12.97925663 2.50000000
v 67.39580536 9.46607304 2.50000000
v 64.68486786 12.61744022 2.50000000
v 50.91679764 13.11841679 2.50000000
v 56.85771561 13.66480350 2.50000000
v 53.67851639 13.72388554 2.50000000
v 53.92216873 9.79956913 2.50000000
v 56.26591873 13.73706913 2.50000000
v 55.24248123 13.79956913 2.50000000
v 73.35186005 13.70777225 2.50000000
v 71.47100067 10.04175663 2.50000000
v 73.63506317 9.91870975 2.50000000
v 70.93975067 13.79956913 2.50000000
v 69.90361786 9.97779179 2.50000000
v 68.56768036 13.66822147 2.50000000
v 75.61943817 13.43238163 2.50000000
f 1 2 3
f 1 4 2
f 5 6 7
f 7 8 9
f 3 10 1
f 1 11 4
f 10 5 1
f 6 5 10
f 4 11 12
f 9 13 7
f 14 15 12
f 15 14 16
f 16 14 17
f 18 19 17
f 16 17 19
f 20 21 22
f 23 18 24
f 21 25 26
f 12 11 14
f 5 7 27
f 18 17 24
f 23 24 28
f 24 29 28
f 30 7 13
f 29 31 32
f 32 28 29
f 33 32 31
f 27 7 30
f 34 35 36
f 35 22 36
f 35 20 22
f 34 37 35
f 38 39 40
f 37 34 40
f 39 37 40
f 38 41 42
f 39 38 42
f 43 42 41
f 21 20 25
f 26 25 44
f 9 45 13
f 46 47 48
f 46 49 50
f 50 49 51
f 52 53 51
f 50 51 53
f 54 55 56
f 57 58 52
f 59 58 57
f 48 49 46
f 60 61 62
f 63 60 64
f 65 66 67
f 62 61 68
f 69 63 70
f 68 66 62
f 70 71 69
f 72 73 74
f 72 75 73
f 48 47 44
f 52 51 57
f 56 59 76
f 59 57 76
f 77 56 78
f 77 79 80
f 76 78 56
f 81 82 43
f 56 77 54
f 73 83 65
f 73 65 67
f 62 66 65
f 70 63 64
f 84 73 75
f 83 73 84
f 85 86 87
f 88 87 89
f 70 86 71
f 54 77 80
f 64 60 62
f 90 75 72
f 91 71 86
f 47 26 44
f 45 92 93
f 94 95 96
f 92 97 98
f 97 99 100
f 100 98 97
f 101 102 103
f 97 104 99
f 94 102 105
f 45 97 92
f 95 94 105
f 96 95 33
f 81 106 82
f 107 33 31
f 108 109 110
f 111 105 102
f 41 81 43
f 96 33 107
f 109 112 113
f 104 114 99
f 115 116 117
f 116 114 117
f 118 119 116
f 99 114 116
f 97 45 120
f 116 115 118
f 118 121 119
f 119 121 122
f 123 103 124
f 103 123 101
f 125 113 126
f 109 108 112
f 122 127 124
f 122 124 103
f 126 113 112
f 126 128 125
f 128 129 125
f 122 121 127
f 111 102 101
f 93 13 45
f 130 131 132
f 131 133 134
f 133 80 134
f 131 130 133
f 135 136 137
f 138 139 140
f 141 142 138
f 143 141 136
f 133 140 139
f 139 138 142
f 144 90 145
f 144 146 90
f 134 80 79
f 145 147 144
f 145 148 147
f 145 149 148
f 142 141 150
f 151 152 153
f 145 154 149
f 139 80 133
f 106 132 82
f 155 156 129
f 157 136 135
f 136 157 143
f 150 141 143
f 137 158 135
f 155 158 156
f 90 159 145
f 137 156 158
f 129 128 155
f 154 160 149
f 161 162 163
f 160 164 163
f 165 166 162
f 163 164 167
f 163 167 161
f 166 165 168
f 161 165 162
f 151 166 168
f 166 151 153
f 160 163 149
f 153 169 170
f 130 132 106
f 75 90 146
f 171 172 173
f 174 173 172
f 175 176 171
f 177 85 87
f 178 179 180
f 175 171 173
f 179 181 174
f 176 175 182
f 177 87 88
f 182 183 184
f 185 186 183
f 182 185 183
f 187 188 189
f 189 186 185
f 190 188 187
f 188 186 189
f 191 192 193
f 184 176 182
f 89 194 195
f 89 195 88
f 196 197 198
f 194 199 195
f 200 199 201
f 199 194 201
f 202 196 203
f 204 199 200
f 197 205 198
f 178 180 205
f 206 190 187
f 179 178 181
f 207 208 202
f 197 196 202
f 202 203 207
f 208 209 210
f 211 209 208
f 210 202 208
f 178 205 197
f 173 174 181
f 207 203 212
f 193 213 191
f 214 215 216
f 217 218 219
f 215 220 219
f 218 221 222
f 214 216 223
f 217 219 220
f 221 218 217
f 214 220 215
f 222 221 224
f 225 226 224
f 226 222 224
f 227 228 229
f 226 225 229
f 230 231 228
f 225 227 229
f 231 230 232
f 230 228 227
f 232 233 234
f 232 234 231
f 235 236 237
f 238 239 240
f 240 235 241
f 242 243 239
f 192 244 193
f 245 237 236
f 238 242 239
f 246 247 245
f 243 242 248
f 249 250 251
f 252 250 253
f 252 234 233
f 252 233 250
f 249 253 250
f 248 254 255
f 254 256 255
f 255 243 248
f 256 254 257
f 256 257 251
f 251 257 249
f 238 240 241
f 258 204 259
f 204 200 259
f 212 260 261
f 212 261 207
f 260 262 261
f 263 264 262
f 265 263 262
f 260 265 262
f 266 264 267
f 258 170 268
f 269 270 271
f 192 272 244
f 269 211 270
f 211 208 270
f 273 244 272
f 274 275 276
f 272 277 273
f 272 278 277
f 269 271 279
f 279 271 275
f 152 169 153
f 264 263 280
f 281 282 266
f 264 280 267
f 281 266 267
f 282 281 283
f 283 284 285
f 283 285 282
f 170 169 268
f 284 286 287
f 274 288 275
f 276 289 274
f 287 286 289
f 287 289 276
f 290 272 192
f 291 292 278
f 287 285 284
f 275 288 279
f 278 292 277
f 259 170 258
f 293 294 295
f 296 297 294
f 296 294 293
f 298 299 300
f 300 299 301
f 302 301 303
f 304 293 295
f 305 291 306
f 296 247 246
f 247 237 245
f 297 296 246
f 307 308 309
f 310 307 304
f 311 312 313
f 314 315 311
f 309 316 317
f 295 310 304
f 306 318 305
f 300 301 319
f 305 318 320
f 321 305 320
f 301 322 319
f 321 320 303
f 323 303 320
f 323 302 303
f 322 301 302
f 308 316 309
f 308 307 310
f 324 325 326
f 315 312 311
f 327 326 328
f 317 329 328
f 330 315 314
f 329 317 316
f 328 329 327
f 324 326 327
f 325 324 330
f 314 325 330
f 305 292 291
f 241 235 237
f 86 85 91
f 331 332 333
f 331 333 334
f 335 336 337
f 336 338 339
f 332 331 340
f 331 334 341
f 340 331 335
f 337 340 335
f 334 342 341
f 338 336 343
f 344 342 345
f 345 346 344
f 346 347 344
f 348 347 349
f 346 349 347
f 350 351 352
f 353 354 348
f 352 355 356
f 342 344 341
f 335 357 336
f 348 354 347
f 353 358 354
f 354 358 359
f 360 343 336
f 359 361 362
f 361 359 358
f 363 362 361
f 357 360 336
f 364 365 366
f 366 365 351
f 366 351 350
f 364 366 367
f 368 369 370
f 367 369 364
f 370 369 367
f 368 371 372
f 370 371 368
f 373 372 371
f 352 356 350
f 355 374 356
f 338 343 375
f 376 377 378
f 376 379 380
f 379 381 380
f 382 381 383
f 379 383 381
f 384 385 386
f 387 382 388
f 389 387 388
f 377 376 380
f 390 391 392
f 393 394 390
f 395 396 397
f 391 398 392
f 399 400 393
f 398 391 397
f 400 399 401
f 402 403 404
f 402 404 405
f 377 374 378
f 382 387 381
f 385 406 389
f 389 406 387
f 407 408 385
f 407 409 410
f 406 385 408
f 411 373 412
f 385 384 407
f 404 395 413
f 404 396 395
f 391 395 397
f 400 394 393
f 414 405 404
f 413 414 404
f 415 416 417
f 418 419 416
f 400 401 417
f 384 409 407
f 394 391 390
f 420 402 405
f 421 417 401
f 378 374 355
f 375 422 423
f 424 425 426
f 423 427 428
f 428 429 430
f 429 428 427
f 431 432 433
f 428 430 434
f 424 435 433
f 375 423 428
f 426 435 424
f 425 363 426
f 411 412 436
f 437 362 363
f 438 439 440
f 441 433 435
f 372 373 411
f 425 437 363
f 440 442 443
f 434 430 444
f 445 446 447
f 447 446 444
f 448 447 449
f 430 447 444
f 428 450 375
f 447 448 445
f 448 449 451
f 449 452 451
f 453 454 432
f 432 431 453
f 455 456 442
f 440 443 438
f 452 454 457
f 452 432 454
f 456 443 442
f 456 455 458
f 458 455 459
f 452 457 451
f 441 431 433
f 422 375 343
f 460 461 462
f 462 463 464
f 464 463 409
f 462 464 460
f 465 466 467
f 468 469 470
f 471 468 472
f 473 467 471
f 464 470 469
f 470 472 468
f 474 475 420
f 474 420 476
f 463 410 409
f 475 474 477
f 475 477 478
f 475 478 479
f 472 480 471
f 481 482 483
f 475 479 484
f 470 464 409
f 436 412 461
f 485 459 486
f 487 465 467
f 467 473 487
f 480 473 471
f 466 465 488
f 485 486 488
f 420 475 489
f 466 488 486
f 459 485 458
f 484 479 490
f 491 492 493
f 490 492 494
f 495 493 496
f 492 497 494
f 492 491 497
f 496 498 495
f 491 493 495
f 481 498 496
f 496 482 481
f 490 479 492
f 482 499 500
f 460 436 461
f 405 476 420
f 501 502 503
f 504 503 502
f 505 501 506
f 507 416 415
f 508 509 510
f 505 502 501
f 510 504 511
f 506 512 505
f 507 418 416
f 512 513 514
f 515 514 516
f 512 514 515
f 517 518 519
f 518 515 516
f 520 517 519
f 519 518 516
f 521 522 523
f 513 512 506
f 419 524 525
f 419 418 524
f 526 527 528
f 525 524 529
f 530 531 529
f 529 531 525
f 532 533 526
f 534 530 529
f 528 527 535
f 508 535 509
f 536 517 520
f 510 511 508
f 537 532 538
f 528 532 526
f 532 537 533
f 538 539 540
f 541 538 540
f 539 538 532
f 508 528 535
f 502 511 504
f 537 542 533
f 522 521 543
f 544 545 546
f 547 548 549
f 546 548 550
f 549 551 552
f 544 553 545
f 547 550 548
f 552 547 549
f 544 546 550
f 551 554 552
f 555 554 556
f 556 554 551
f 557 558 559
f 556 558 555
f 560 559 561
f 555 558 557
f 561 562 560
f 560 557 559
f 562 563 564
f 562 561 563
f 565 566 567
f 568 569 570
f 569 571 565
f 572 570 573
f 523 522 574
f 575 567 566
f 568 570 572
f 576 575 577
f 573 578 572
f 579 580 581
f 582 583 581
f 582 564 563
f 582 581 564
f 579 581 583
f 578 584 585
f 585 584 586
f 584 578 573
f 586 587 585
f 586 580 587
f 580 579 587
f 568 571 569
f 588 589 534
f 534 589 530
f 542 590 591
f 542 537 590
f 591 590 592
f 593 592 594
f 595 592 593
f 591 592 595
f 596 597 594
f 588 598 499
f 599 600 601
f 523 574 602
f 599 601 541
f 541 601 538
f 603 602 574
f 604 605 606
f 602 603 607
f 602 607 608
f 599 609 600
f 609 606 600
f 483 482 500
f 594 610 593
f 611 596 612
f 594 597 610
f 611 597 596
f 612 613 611
f 613 614 615
f 613 612 614
f 499 598 500
f 615 616 617
f 604 606 618
f 605 604 619
f 616 619 617
f 616 605 619
f 620 523 602
f 621 608 622
f 616 615 614
f 606 609 618
f 608 607 622
f 589 588 499
f 623 624 625
f 626 625 627
f 626 623 625
f 628 629 630
f 629 631 630
f 632 633 631
f 634 624 623
f 635 636 621
f 626 576 577
f 577 575 566
f 627 576 626
f 637 638 639
f 640 634 637
f 641 642 643
f 644 641 645
f 638 646 647
f 624 634 640
f 636 635 648
f 629 649 631
f 635 650 648
f 651 650 635
f 631 649 652
f 651 633 650
f 653 650 633
f 653 633 632
f 652 632 631
f 639 638 647
f 639 640 637
f 654 655 656
f 645 641 643
f 657 658 655
f 646 658 659
f 660 644 645
f 659 647 646
f 658 657 659
f 654 657 655
f 656 660 654
f 644 660 656
f 635 621 622
f 571 566 565
f 417 421 415
f 6 10 340
f 6 340 337
f 10 3 332
f 10 332 340
f 3 2 333
f 3 333 332
f 2 4 334
f 2 334 333
f 4 12 342
f 4 342 334
f 12 15 345
f 12 345 342
f 15 16 346
f 15 346 345
f 16 19 349
f 16 349 346
f 19 18 348
f 19 348 349
f 18 23 353
f 18 353 348
f 23 28 358
f 23 358 353
f 28 32 361
f 28 361 358
f 32 33 363
f 32 363 361
f 33 95 426
f 33 426 363
f 95 105 435
f 95 435 426
f 105 111 441
f 105 441 435
f 111 101 431
f 111 431 441
f 101 123 453
f 101 453 431
f 123 124 454
f 123 454 453
f 124 127 457
f 124 457 454
f 127 121 451
f 127 451 457
f 121 118 448
f 121 448 451
f 118 115 445
f 118 445 448
f 115 117 446
f 115 446 445
f 117 114 444
f 117 444 446
f 114 104 434
f 114 434 444
f 104 97 428
f 104 428 434
f 97 120 450
f 97 450 428
f 120 45 375
f 120 375 450
f 45 9 338
f 45 338 375
f 9 8 339
f 9 339 338
f 8 7 336
f 8 336 339
f 7 6 337
f 7 337 336
f 67 66 397
f 67 397 396
f 66 68 398
f 66 398 397
f 68 61 392
f 68 392 398
f 61 60 390
f 61 390 392
f 60 63 393
f 60 393 390
f 63 69 399
f 63 399 393
f 69 71 401
f 69 401 399
f 71 91 421
f 71 421 401
f 91 85 415
f 91 415 421
f 85 177 507
f 85 507 415
f 177 88 418
f 177 418 507
f 88 195 524
f 88 524 418
f 195 199 529
f 195 529 524
f 199 204 534
f 199 534 529
f 204 258 588
f 204 588 534
f 258 268 598
f 258 598 588
f 268 169 500
f 268 500 598
f 169 152 483
f 169 483 500
f 152 151 481
f 152 481 483
f 151 168 498
f 151 498 481
f 168 165 495
f 168 495 498
f 165 161 491
f 165 491 495
f 161 167 497
f 161 497 491
f 167 164 494
f 167 494 497
f 164 160 490
f 164 490 494
f 160 154 484
f 160 484 490
f 154 145 475
f 154 475 484
f 145 159 489
f 145 489 475
f 159 90 420
f 159 420 489
f 90 72 402
f 90 402 420
f 72 74 403
f 72 403 402
f 74 73 404
f 74 404 403
f 73 67 396
f 73 396 404
f 139 142 472
f 139 472 470
f 142 150 480
f 142 480 472
f 150 143 473
f 150 473 480
f 143 157 487
f 143 487 473
f 157 135 465
f 157 465 487
f 135 158 488
f 135 488 465
f 158 155 485
f 158 485 488
f 155 128 458
f 155 458 485
f 128 126 456
f 128 456 458
f 126 112 443
f 126 443 456
f 112 108 438
f 112 438 443
f 108 110 439
f 108 439 438
f 110 109 440
f 110 440 439
f 109 113 442
f 109 442 440
f 113 125 455
f 113 455 442
f 125 129 459
f 125 459 455
f 129 156 486
f 129 486 459
f 156 137 466
f 156 466 486
f 137 136 467
f 137 467 466
f 136 141 471
f 136 471 467
f 141 138 468
f 141 468 471
f 138 140 469
f 138 469 468
f 140 133 464
f 140 464 469
f 133 130 460
f 133 460 464
f 130 106 436
f 130 436 460
f 106 81 411
f 106 411 436
f 81 41 372
f 81 372 411
f 41 38 368
f 41 368 372
f 38 40 369
f 38 369 368
f 40 34 364
f 40 364 369
f 34 36 365
f 34 365 364
f 36 22 351
f 36 351 365
f 22 21 352
f 22 352 351
f 21 26 355
f 21 355 352
f 26 47 378
f 26 378 355
f 47 46 376
f 47 376 378
f 46 50 379
f 46 379 376
f 50 53 383
f 50 383 379
f 53 52 382
f 53 382 383
f 52 58 388
f 52 388 382
f 58 59 389
f 58 389 388
f 59 56 385
f 59 385 389
f 56 55 386
f 56 386 385
f 55 54 384
f 55 384 386
f 54 80 409
f 54 409 384
f 80 139 470
f 80 470 409
f 211 269 599
f 211 599 541
f 269 279 609
f 269 609 599
f 279 288 618
f 279 618 609
f 288 274 604
f 288 604 618
f 274 289 619
f 274 619 604
f 289 286 617
f 289 617 619
f 286 284 615
f 286 615 617
f 284 283 613
f 284 613 615
f 283 281 611
f 283 611 613
f 281 267 597
f 281 597 611
f 267 280 610
f 267 610 597
f 280 263 593
f 280 593 610
f 263 265 595
f 263 595 593
f 265 260 591
f 265 591 595
f 260 212 542
f 260 542 591
f 212 203 533
f 212 533 542
f 203 196 526
f 203 526 533
f 196 198 527
f 196 527 526
f 198 205 535
f 198 535 527
f 205 180 509
f 205 509 535
f 180 179 510
f 180 510 509
f 179 174 504
f 179 504 510
f 174 172 503
f 174 503 504
f 172 171 501
f 172 501 503
f 171 176 506
f 171 506 501
f 176 184 513
f 176 513 506
f 184 183 514
f 184 514 513
f 183 186 516
f 183 516 514
f 186 188 519
f 186 519 516
f 188 190 520
f 188 520 519
f 190 206 536
f 190 536 520
f 206 187 517
f 206 517 536
f 187 189 518
f 187 518 517
f 189 185 515
f 189 515 518
f 185 182 512
f 185 512 515
f 182 175 505
f 182 505 512
f 175 173 502
f 175 502 505
f 173 181 511
f 173 511 502
f 181 178 508
f 181 508 511
f 178 197 528
f 178 528 508
f 197 202 532
f 197 532 528
f 202 210 539
f 202 539 532
f 210 209 540
f 210 540 539
f 209 211 541
f 209 541 540
f 315 330 660
f 315 660 645
f 330 324 654
f 330 654 660
f 324 327 657
f 324 657 654
f 327 329 659
f 327 659 657
f 329 316 647
f 329 647 659
f 316 308 639
f 316 639 647
f 308 310 640
f 308 640 639
f 310 295 624
f 310 624 640
f 295 294 625
f 295 625 624
f 294 297 627
f 294 627 625
f 297 246 576
f 297 576 627
f 246 245 575
f 246 575 576
f 245 236 567
f 245 567 575
f 236 235 565
f 236 565 567
f 235 240 569
f 235 569 565
f 240 239 570
f 240 570 569
f 239 243 573
f 239 573 570
f 243 255 584
f 243 584 573
f 255 256 586
f 255 586 584
f 256 251 580
f 256 580 586
f 251 250 581
f 251 581 580
f 250 233 564
f 250 564 581
f 233 232 562
f 233 562 564
f 232 230 560
f 232 560 562
f 230 227 557
f 230 557 560
f 227 225 555
f 227 555 557
f 225 224 554
f 225 554 555
f 224 221 552
f 224 552 554
f 221 217 547
f 221 547 552
f 217 220 550
f 217 550 547
f 220 214 544
f 220 544 550
f 214 223 553
f 214 553 544
f 223 216 545
f 223 545 553
f 216 215 546
f 216 546 545
f 215 219 548
f 215 548 546
f 219 218 549
f 219 549 548
f 218 222 551
f 218 551 549
f 222 226 556
f 222 556 551
f 226 229 558
f 226 558 556
f 229 228 559
f 229 559 558
f 228 231 561
f 228 561 559
f 231 234 563
f 231 563 561
f 234 252 582
f 234 582 563
f 252 253 583
f 252 583 582
f 253 249 579
f 253 579 583
f 249 257 587
f 249 587 579
f 257 254 585
f 257 585 587
f 254 248 578
f 254 578 585
f 248 242 572
f 248 572 578
f 242 238 568
f 242 568 572
f 238 241 571
f 238 571 568
f 241 237 566
f 241 566 571
f 237 247 577
f 237 577 566
f 247 296 626
f 247 626 577
f 296 293 623
f 296 623 626
f 293 304 634
f 293 634 623
f 304 307 637
f 304 637 634
f 307 309 638
f 307 638 637
f 309 317 646
f 309 646 638
f 317 328 658
f 317 658 646
f 328 326 655
f 328 655 658
f 326 325 656
f 326 656 655
f 325 314 644
f 325 644 656
f 314 311 641
f 314 641 644
f 311 313 642
f 311 642 641
f 313 312 643
f 313 643 642
f 312 315 645
f 312 645 643
f 31 29 359
f 31 359 362
f 29 24 354
f 29 354 359
f 24 17 347
f 24 347 354
f 17 14 344
f 17 344 347
f 14 11 341
f 14 341 344
f 11 1 331
f 11 331 341
f 1 5 335
f 1 335 331
f 5 27 357
f 5 357 335
f 27 30 360
f 27 360 357
f 30 13 343
f 30 343 360
f 13 93 422
f 13 422 343
f 93 92 423
f 93 423 422
f 92 98 427
f 92 427 423
f 98 100 429
f 98 429 427
f 100 99 430
f 100 430 429
f 99 116 447
f 99 447 430
f 116 119 449
f 116 449 447
f 119 122 452
f 119 452 449
f 122 103 432
f 122 432 452
f 103 102 433
f 103 433 432
f 102 94 424
f 102 424 433
f 94 96 425
f 94 425 424
f 96 107 437
f 96 437 425
f 107 31 362
f 107 362 437
f 194 89 419
f 194 419 525
f 89 87 416
f 89 416 419
f 87 86 417
f 87 417 416
f 86 70 400
f 86 400 417
f 70 64 394
f 70 394 400
f 64 62 391
f 64 391 394
f 62 65 395
f 62 395 391
f 65 83 413
f 65 413 395
f 83 84 414
f 83 414 413
f 84 75 405
f 84 405 414
f 75 146 476
f 75 476 405
f 146 144 474
f 146 474 476
f 144 147 477
f 144 477 474
f 147 148 478
f 147 478 477
f 148 149 479
f 148 479 478
f 149 163 492
f 149 492 479
f 163 162 493
f 163 493 492
f 162 166 496
f 162 496 493
f 166 153 482
f 166 482 496
f 153 170 499
f 153 499 482
f 170 259 589
f 170 589 499
f 259 200 530
f 259 530 589
f 200 201 531
f 200 531 530
f 201 194 525
f 201 525 531
f 300 319 649
f 300 649 629
f 319 322 652
f 319 652 649
f 322 302 632
f 322 632 652
f 302 323 653
f 302 653 632
f 323 320 650
f 323 650 653
f 320 318 648
f 320 648 650
f 318 306 636
f 318 636 648
f 306 291 621
f 306 621 636
f 291 278 608
f 291 608 621
f 278 272 602
f 278 602 608
f 272 290 620
f 272 620 602
f 290 192 523
f 290 523 620
f 192 191 521
f 192 521 523
f 191 213 543
f 191 543 521
f 213 193 522
f 213 522 543
f 193 244 574
f 193 574 522
f 244 273 603
f 244 603 574
f 273 277 607
f 273 607 603
f 277 292 622
f 277 622 607
f 292 305 635
f 292 635 622
f 305 321 651
f 305 651 635
f 321 303 633
f 321 633 651
f 303 301 631
f 303 631 633
f 301 299 630
f 301 630 631
f 299 298 628
f 299 628 630
f 298 300 629
f 298 629 628
f 134 79 410
f 134 410 463
f 79 77 407
f 79 407 410
f 77 78 408
f 77 408 407
f 78 76 406
f 78 406 408
f 76 57 387
f 76 387 406
f 57 51 381
f 57 381 387
f 51 49 380
f 51 380 381
f 49 48 377
f 49 377 380
f 48 44 374
f 48 374 377
f 44 25 356
f 44 356 374
f 25 20 350
f 25 350 356
f 20 35 366
f 20 366 350
f 35 37 367
f 35 367 366
f 37 39 370
f 37 370 367
f 39 42 371
f 39 371 370
f 42 43 373
f 42 373 371
f 43 82 412
f 43 412 373
f 82 132 461
f 82 461 412
f 132 131 462
f 132 462 461
f 131 134 463
f 131 463 462
f 207 261 590
f 207 590 537
f 261 262 592
f 261 592 590
f 262 264 594
f 262 594 592
f 264 266 596
f 264 596 594
f 266 282 612
f 266 612 596
f 282 285 614
f 282 614 612
f 285 287 616
f 285 616 614
f 287 276 605
f 287 605 616
f 276 275 606
f 276 606 605
f 275 271 600
f 275 600 606
f 271 270 601
f 271 601 600
f 270 208 538
f 270 538 601
f 208 207 537
f 208 537 538

