# https://github.com/mikedh/trimesh
v -136.52146912 -10.24972820 -2.50000000
v -137.76805115 -13.52365398 -2.50000000
v -138.90232849 -13.00412273 -2.50000000
v -133.14598083 -10.24972820 -2.50000000
v -132.52146912 -14.12985516 -2.50000000
v -133.73826599 -14.19162273 -2.50000000
v -135.18601990 -14.11740398 -2.50000000
v -134.83201599 -10.42599773 -2.50000000
v -130.26365662 -13.63571453 -2.50000000
v -139.32615662 -8.83957195 -2.50000000
v -139.93455505 -12.33224773 -2.50000000
v -141.72361755 -10.51974773 -2.50000000
v -130.34519958 -8.83957195 -2.50000000
v -128.24021912 -12.64743328 -2.50000000
v -126.45115662 -11.16501141 -2.50000000
v -125.64451599 -10.23849773 -2.50000000
v -129.23045349 -7.60568523 -2.50000000
v -142.48045349 -23.87912369 -2.50000000
v -146.99607849 -23.87912369 -2.50000000
v -142.48045349 -9.37912273 -2.50000000
v -115.25779724 -13.48068523 -2.50000000
v -115.25779724 24.51150131 -2.50000000
v -110.74217224 1.97243953 -2.50000000
v -72.80271912 -10.37912273 -2.50000000
v -72.80271912 -14.19162273 -2.50000000
v -74.23362732 -14.13193035 -2.50000000
v -71.37718201 -14.13193035 -2.50000000
v -76.85667419 -13.65439129 -2.50000000
v -74.52293396 -10.20285320 -2.50000000
v -71.09959412 -10.20236492 -2.50000000
v -81.14768982 -11.26669598 -2.50000000
v -82.02146912 -10.37131023 -2.50000000
v -78.52928162 -7.55881023 -2.50000000
v -77.38621521 -8.79269695 -2.50000000
v -79.16136169 -12.69931316 -2.50000000
v -96.84373474 2.87868953 -2.50000000
v -92.35154724 -13.48068523 -2.50000000
v -96.84373474 -13.48068523 -2.50000000
v -68.25584412 -8.78830242 -2.50000000
v -66.46116638 -12.69931316 -2.50000000
v -68.76194763 -13.65439129 -2.50000000
v -64.47483826 -11.26669598 -2.50000000
v -67.11521912 -7.55099773 -2.50000000
v -63.59959412 -10.37131023 -2.50000000
v -140.44139099 -7.60568523 -2.50000000
v -141.33348083 -6.06222820 -2.50000000
v -142.35301208 -2.17550969 -2.50000000
v -124.28074646 -8.10275555 -2.50000000
v -128.33836365 -6.06222820 -2.50000000
v -122.72215271 -2.89963078 -2.50000000
v -127.31883240 -2.17550969 -2.50000000
v -127.19139099 0.16775206 -2.50000000
v -122.52732849 0.16775206 -2.50000000
v -146.99607849 13.86306477 -2.50000000
v -110.74217224 -13.48068523 -2.50000000
v -85.14158630 -3.00754094 -2.50000000
v -85.34959412 0.16775206 -2.50000000
v -80.48484802 -2.15500188 -2.50000000
v -127.31883240 2.51101375 -2.50000000
v -82.80149841 -9.36923504 -2.50000000
v -79.44187927 -6.01828289 -2.50000000
v -62.81407166 -9.36923504 -2.50000000
v -66.19578552 -6.00509930 -2.50000000
v -84.04954529 -7.09482098 -2.50000000
v -80.61521912 0.16775206 -2.50000000
v -65.14500427 -2.14572453 -2.50000000
v -61.55723572 -7.09482098 -2.50000000
v -60.24803162 0.16775206 -2.50000000
v -65.01365662 0.16775206 -2.50000000
v -60.45750427 -3.00754094 -2.50000000
v -80.48387146 2.49050593 -2.50000000
v -142.48045349 0.16775206 -2.50000000
v -46.11961365 -13.35959148 -2.50000000
v -49.70945740 -12.39084148 -2.50000000
v -46.87059021 -9.18673992 -2.50000000
v -50.89939880 -11.54318523 -2.50000000
v -47.44627380 -8.76974773 -2.50000000
v -45.00730896 -9.66330242 -2.50000000
v -43.71971130 -13.48068523 -2.50000000
v -27.19090080 -8.79269695 -2.50000000
v -26.66135979 -13.65439129 -2.50000000
v -28.96604729 -12.69931316 -2.50000000
v -39.11033630 -9.72287273 -2.50000000
v -39.11033630 -13.48068523 -2.50000000
v -24.32761955 -10.20285320 -2.50000000
v -24.03831291 -14.13193035 -2.50000000
v -51.76414490 -10.37179852 -2.50000000
v -47.84617615 -8.14377117 -2.50000000
v -43.71971130 -9.72287273 -2.50000000
v -28.33396721 -7.55881023 -2.50000000
v -30.95237541 -11.26669598 -2.50000000
v -31.82615471 -10.37131023 -2.50000000
v -32.60618591 -9.36923504 -2.50000000
v -22.60740471 -10.37912273 -2.50000000
v -22.60740471 -14.19162273 -2.50000000
v -21.18186760 -14.13193035 -2.50000000
v -20.90427971 -10.20236492 -2.50000000
v -18.56663322 -13.65439129 -2.50000000
v 0.74122798 -23.08029556 -2.50000000
v 0.69825923 -19.00412369 -2.50000000
v 2.63966537 -19.65256119 -2.50000000
v 2.81154037 -23.52756119 -2.50000000
v -1.26658452 -18.07443619 -2.50000000
v -1.26658452 -22.44162369 -2.50000000
v -18.06052971 -8.78830242 -2.50000000
v -16.26585197 -12.69931316 -2.50000000
v -14.27952385 -11.26669598 -2.50000000
v -1.48533452 -9.65256023 -2.50000000
v 2.09279037 -7.03537273 -2.50000000
v -0.68540776 -10.54977703 -2.50000000
v -16.91990471 -7.55099773 -2.50000000
v -13.40427971 -10.37131023 -2.50000000
v 3.20021224 -8.21115398 -2.50000000
v 1.09681880 -11.98532391 -2.50000000
v -52.75242615 -6.83664227 -2.50000000
v -52.87596130 -4.47287273 -2.50000000
v -48.30320740 -5.99533367 -2.50000000
v -29.24656487 -6.01828289 -2.50000000
v -33.85423279 -7.09482098 -2.50000000
v -30.28953362 -2.15500188 -2.50000000
v -48.36033630 -4.47287273 -2.50000000
v -48.36033630 10.37087727 -2.50000000
v -34.94627380 -3.00754094 -2.50000000
v -35.15428162 0.16775206 -2.50000000
v -30.28855705 2.49050593 -2.50000000
v -30.41990471 0.16775206 -2.50000000
v -16.00047112 -6.00509930 -2.50000000
v -12.61875725 -9.36923504 -2.50000000
v -11.36192131 -7.09482098 -2.50000000
v -14.94968987 -2.14572453 -2.50000000
v 1.21095455 -5.55588055 -2.50000000
v -2.83201432 -7.57882977 -2.50000000
v -10.05271721 0.16775206 -2.50000000
v -10.26218987 -3.00754094 -2.50000000
v -14.94968987 2.47146297 -2.50000000
v -14.81834221 0.16775206 -2.50000000
v -4.37107658 -2.49679875 -2.50000000
v 0.20314203 -1.78244328 -2.50000000
v -4.56345940 0.51150203 -2.50000000
v 0.07716547 0.51150203 -2.50000000
v 0.20314203 2.81521297 -2.50000000
v -65.14500427 2.47146297 -2.50000000
v -128.33836365 6.39773273 -2.50000000
v -122.72215271 3.23464656 -2.50000000
v -142.35301208 2.51101375 -2.50000000
v -142.48045349 9.71462727 -2.50000000
v -141.33348083 6.39773273 -2.50000000
v -110.61082458 3.87038875 -2.50000000
v -110.74217224 9.61306477 -2.50000000
v -124.28074646 8.43386555 -2.50000000
v -109.56004333 7.03054523 -2.50000000
v -140.44139099 7.94118977 -2.50000000
v -139.32615662 9.17507648 -2.50000000
v -141.72361755 10.85476398 -2.50000000
v -129.23045349 7.94118977 -2.50000000
v -108.64060974 8.29275227 -2.50000000
v -125.64451599 10.56618977 -2.50000000
v -109.89842224 10.76931477 -2.50000000
v -130.34519958 9.17507648 -2.50000000
v -126.45115662 11.49270344 -2.50000000
v -96.93846130 4.69753742 -2.50000000
v -92.35154724 3.02712703 -2.50000000
v -97.69627380 7.59988117 -2.50000000
v -92.50291443 5.68728352 -2.50000000
v -85.14158630 3.35183406 -2.50000000
v -84.04954529 7.44131184 -2.50000000
v -82.80149841 9.70986652 -2.50000000
v -79.43309021 6.35378742 -2.50000000
v -99.21141052 9.52761555 -2.50000000
v -96.12400818 12.88015461 -2.50000000
v -98.35935974 8.68337727 -2.50000000
v -107.49363708 9.30788898 -2.50000000
v -78.51365662 7.89431477 -2.50000000
v -93.71385193 9.97634602 -2.50000000
v -94.77342224 11.60525227 -2.50000000
v -82.02146912 10.70681477 -2.50000000
v -107.99998474 12.61306477 -2.50000000
v -104.62254333 10.46804523 -2.50000000
v -139.93455505 12.66335773 -2.50000000
v -138.90232849 13.33181477 -2.50000000
v -136.52146912 10.58523273 -2.50000000
v -135.18601990 14.44509602 -2.50000000
v -134.83201599 10.76150227 -2.50000000
v -128.24021912 12.97512531 -2.50000000
v -130.26365662 13.96340656 -2.50000000
v -133.73826599 14.51931477 -2.50000000
v -133.14598083 10.58523273 -2.50000000
v -137.76805115 13.85134602 -2.50000000
v -142.48045349 13.86306477 -2.50000000
v -132.52146912 14.45754719 -2.50000000
v -106.94529724 13.30056477 -2.50000000
v -103.28611755 14.44314289 -2.50000000
v -102.89842224 10.61306477 -2.50000000
v -101.89842224 14.51931477 -2.50000000
v -101.48094177 10.49245930 -2.50000000
v -81.14768982 11.60036945 -2.50000000
v -99.68650818 14.33718586 -2.50000000
v -105.80955505 13.83376789 -2.50000000
v -110.74217224 24.51150131 -2.50000000
v -79.16136169 13.03005695 -2.50000000
v -77.36863708 9.12820148 -2.50000000
v -66.19578552 6.32302570 -2.50000000
v -61.55723572 7.44131184 -2.50000000
v -67.11521912 7.87087727 -2.50000000
v -68.25584412 9.11501789 -2.50000000
v -64.47483826 11.60036945 -2.50000000
v -62.81407166 9.70986652 -2.50000000
v -52.87596130 10.37087727 -2.50000000
v -60.45750427 3.35183406 -2.50000000
v -33.85423279 7.44131184 -2.50000000
v -32.60618591 9.70986652 -2.50000000
v -29.23777580 6.35378742 -2.50000000
v -71.09959412 10.53689289 -2.50000000
v -68.76194763 13.98318195 -2.50000000
v -63.59959412 10.70681477 -2.50000000
v -48.36033630 13.86306477 -2.50000000
v -52.87596130 13.86306477 -2.50000000
v -56.17283630 10.37087727 -2.50000000
v -39.11033630 13.86306477 -2.50000000
v -39.11033630 10.37087727 -2.50000000
v -34.94627380 3.35183406 -2.50000000
v -16.00047112 6.32302570 -2.50000000
v -11.36192131 7.44131184 -2.50000000
v -10.26218987 3.35183406 -2.50000000
v 1.21095455 6.59646320 -2.50000000
v -4.37107658 3.52615047 -2.50000000
v -2.83201432 8.61208820 -2.50000000
v -18.06052971 9.11501789 -2.50000000
v -14.27952385 11.60036945 -2.50000000
v -16.91990471 7.87087727 -2.50000000
v -31.82615471 10.70681477 -2.50000000
v -28.31834221 7.89431477 -2.50000000
v -1.48533452 10.68337727 -2.50000000
v 2.09279037 8.07400227 -2.50000000
v -12.61875725 9.70986652 -2.50000000
v -30.95237541 11.60036945 -2.50000000
v -27.17332268 9.12820148 -2.50000000
v -13.40427971 10.70681477 -2.50000000
v -74.23362732 14.45974445 -2.50000000
v -72.80271912 10.71462727 -2.50000000
v -74.51316833 10.53835773 -2.50000000
v -66.46116638 13.03005695 -2.50000000
v -71.37718201 14.45974445 -2.50000000
v -48.36033630 21.62868881 -2.50000000
v -56.17283630 13.86306477 -2.50000000
v -76.85667419 13.98318195 -2.50000000
v -72.80271912 14.51931477 -2.50000000
v -52.87596130 21.62868881 -2.50000000
v -22.60740471 10.71462727 -2.50000000
v -24.31785393 10.53835773 -2.50000000
v -24.03831291 14.45974445 -2.50000000
v -28.96604729 13.03005695 -2.50000000
v -16.26585197 13.03005695 -2.50000000
v -0.68540776 11.58242512 -2.50000000
v -20.90427971 10.53689289 -2.50000000
v -21.18186760 14.45974445 -2.50000000
v -26.66135979 13.98318195 -2.50000000
v -22.60740471 14.51931477 -2.50000000
v -18.56663322 13.98318195 -2.50000000
v 1.09681880 13.02090168 -2.50000000
v 3.20021224 9.24978352 -2.50000000
v 4.58693123 -20.03927994 -2.50000000
v 4.97950935 -23.79123306 -2.50000000
v 6.56935310 -20.16818619 -2.50000000
v 7.28029060 -23.87912369 -2.50000000
v 8.64113045 -20.02414322 -2.50000000
v 10.27296638 -23.66623306 -2.50000000
v 11.94972420 -18.87179947 -2.50000000
v 13.18654060 -17.86349869 -2.50000000
v 15.94740486 -21.27121353 -2.50000000
v 3.12220931 -12.94235516 -2.50000000
v 6.01271248 -9.55490398 -2.50000000
v 5.39076424 -13.42087078 -2.50000000
v 8.07814217 -13.40597820 -2.50000000
v 6.61622810 -13.48068523 -2.50000000
v 7.71779060 -9.72287273 -2.50000000
v 10.67970467 -12.80832195 -2.50000000
v 9.43605232 -9.55490398 -2.50000000
v 11.81935310 -12.28537273 -2.50000000
v 12.85646248 -11.61105633 -2.50000000
v 13.98744392 -22.54855728 -2.50000000
v 16.77247810 -20.47287369 -2.50000000
v 14.14698982 -16.56369400 -2.50000000
v 17.49940681 -19.56552505 -2.50000000
v 18.66249275 -17.41611099 -2.50000000
v 57.04396057 -10.33859539 -2.50000000
v 57.12989807 -14.19162273 -2.50000000
v 55.13917542 -14.04416180 -2.50000000
v 15.24464607 -13.07931805 -2.50000000
v 15.38185310 -10.89474773 -2.50000000
v 19.87404060 -10.09006023 -2.50000000
v 19.68019295 -13.35519695 -2.50000000
v 54.04396057 -9.02756023 -2.50000000
v 51.79933167 -12.86447430 -2.50000000
v 50.45021057 -11.83224773 -2.50000000
v 54.90333557 -9.63937664 -2.50000000
v 33.47169495 0.92556453 -2.50000000
v 33.47169495 -13.48068523 -2.50000000
v 28.95607185 -13.48068523 -2.50000000
v 58.32521057 -10.42599773 -2.50000000
v 58.72608948 -14.11740398 -2.50000000
v 12.26027107 -8.21115398 -2.50000000
v 14.63771248 -9.80246258 -2.50000000
v 13.36622810 -7.03537273 -2.50000000
v 15.38185310 -8.66818523 -2.50000000
v 14.24806404 -5.55588055 -2.50000000
v 15.25587654 -1.78244328 -2.50000000
v 15.38185310 0.51150203 -2.50000000
v 48.16651917 -3.35666203 -2.50000000
v 52.46583557 -5.23068523 -2.50000000
v 47.97364807 -5.51974773 -2.50000000
v 52.56446838 -6.36447430 -2.50000000
v 48.12843323 -7.39670086 -2.50000000
v 33.59913635 3.11062312 -2.50000000
v 28.95607185 13.86306477 -2.50000000
v 19.87404060 13.86306477 -2.50000000
v 49.36671448 -10.55295086 -2.50000000
v 53.35353088 -8.26291180 -2.50000000
v 60.10353088 -10.26047039 -2.50000000
v 52.59718323 -3.83713078 -2.50000000
v 49.70948792 0.11990049 -2.50000000
v 53.64796448 -1.71213078 -2.50000000
v 51.05958557 1.43337703 -2.50000000
v 54.56739807 -0.98068547 -2.50000000
v 52.79591370 2.45876765 -2.50000000
v 55.82716370 -0.43722841 -2.50000000
v 59.60060120 0.18386534 -2.50000000
v 57.40528870 3.63064265 -2.50000000
v 61.53468323 -13.52365398 -2.50000000
v 94.00245667 -10.24972820 -2.50000000
v 94.62696838 -14.12985516 -2.50000000
v 93.41017151 -14.19162273 -2.50000000
v 89.38038635 -13.52365398 -2.50000000
v 88.24610901 -13.00412273 -2.50000000
v 90.62696838 -10.24972820 -2.50000000
v 91.96241760 -14.11740398 -2.50000000
v 92.31642151 -10.42599773 -2.50000000
v 66.58302307 -13.48068523 -2.50000000
v 66.58302307 -9.33224773 -2.50000000
v 71.07521057 -13.48068523 -2.50000000
v 84.66798401 -9.37912273 -2.50000000
v 84.66798401 -23.87912369 -2.50000000
v 80.15235901 -23.87912369 -2.50000000
v 116.40626526 1.97243953 -2.50000000
v 116.40626526 -13.48068523 -2.50000000
v 111.89064026 -13.48068523 -2.50000000
v 111.89064026 24.51150131 -2.50000000
v 96.88478088 -13.63571453 -2.50000000
v 62.74708557 -13.00412273 -2.50000000
v 63.10353088 -8.93625164 -2.50000000
v 142.99415588 -23.87912369 -2.50000000
v 145.63478088 -20.12131119 -2.50000000
v 146.58790588 -23.87912369 -2.50000000
v 142.99415588 -20.12131119 -2.50000000
v 146.50880432 -20.06613541 -2.50000000
v 148.02345276 -23.78586197 -2.50000000
v 147.94630432 -19.62472916 -2.50000000
v 150.43751526 -23.03976822 -2.50000000
v 148.50978088 -19.23849869 -2.50000000
v 151.41603088 -22.38693619 -2.50000000
v 152.32765198 -21.43234634 -2.50000000
v 149.59376526 -17.76388931 -2.50000000
v 154.18312073 -18.24875259 -2.50000000
v 150.78321838 -15.09006023 -2.50000000
v 155.12696838 -16.01974869 -2.50000000
v 151.58790588 -13.04318523 -2.50000000
v 153.83790588 -7.51974773 -2.50000000
v 140.53321838 13.86306477 -2.50000000
v 63.84815979 -12.32931805 -2.50000000
v 65.76612854 -10.49338055 -2.50000000
v 84.79542542 -2.17550969 -2.50000000
v 64.32521057 -7.77756023 -2.50000000
v 86.70704651 -7.60568523 -2.50000000
v 87.82228088 -8.83957195 -2.50000000
v 65.31300354 -6.34445477 -2.50000000
v 66.44190979 -2.82492375 -2.50000000
v 85.42481995 -10.51974773 -2.50000000
v 85.81495667 -6.06222820 -2.50000000
v 66.58302307 -0.73849797 -2.50000000
v 71.07521057 2.12087703 -2.50000000
v 80.15235901 13.86306477 -2.50000000
v 84.66798401 0.16775206 -2.50000000
v 66.58302307 0.26150206 -2.50000000
v 60.27833557 3.77712703 -2.50000000
v 62.11427307 0.26150206 -2.50000000
v 87.21388245 -12.33224773 -2.50000000
v 96.80323792 -8.83957195 -2.50000000
v 98.90821838 -12.64743328 -2.50000000
v 100.69728088 -11.16501141 -2.50000000
v 101.50392151 -10.23849773 -2.50000000
v 97.91798401 -7.60568523 -2.50000000
v 99.82960510 -2.17550969 -2.50000000
v 104.42628479 -2.89963078 -2.50000000
v 98.81007385 -6.06222820 -2.50000000
v 102.86769104 -8.10275555 -2.50000000
v 99.95704651 0.16775206 -2.50000000
v 104.62110901 0.16775206 -2.50000000
v 130.30470276 -13.48068523 -2.50000000
v 130.30470276 2.87868953 -2.50000000
v 134.79689026 -13.48068523 -2.50000000
v 66.58302307 3.77712703 -2.50000000
v 167.14259338 13.86306477 -2.50000000
v 99.82960510 2.51101375 -2.50000000
v 15.38185310 9.71462727 -2.50000000
v 15.25587654 2.81521297 -2.50000000
v 14.24806404 6.59646320 -2.50000000
v 13.36622810 8.07400227 -2.50000000
v 33.47169495 9.61306477 -2.50000000
v 35.51075745 8.04275227 -2.50000000
v 34.61866760 6.66921711 -2.50000000
v 34.23536682 10.77859211 -2.50000000
v 9.43605232 10.59353352 -2.50000000
v 12.85646248 12.65017414 -2.50000000
v 12.26027107 9.24978352 -2.50000000
v 14.63771248 10.84548664 -2.50000000
v 36.64112854 9.12624836 -2.50000000
v 41.11866760 14.44363117 -2.50000000
v 42.38771057 10.46658039 -2.50000000
v 41.36231995 10.51931477 -2.50000000
v 39.56690979 10.36452961 -2.50000000
v 36.07911682 12.62624836 -2.50000000
v 3.12220931 13.97988605 -2.50000000
v 6.01271248 10.59353352 -2.50000000
v 66.58302307 4.22243977 -2.50000000
v 70.89210510 5.04714680 -2.50000000
v 68.14552307 11.44118977 -2.50000000
v 65.43605042 8.08376789 -2.50000000
v 64.54396057 9.01931477 -2.50000000
v 66.45558167 5.68533039 -2.50000000
v 44.18067932 10.04665852 -2.50000000
v 44.94825745 14.27712727 -2.50000000
v 44.97169495 9.66775227 -2.50000000
v 43.32325745 10.30837727 -2.50000000
v 49.98146057 8.46462727 -2.50000000
v 49.98146057 12.62087727 -2.50000000
v 52.07130432 9.44900227 -2.50000000
v 63.42140198 9.76101398 -2.50000000
v 65.52528381 13.31692219 -2.50000000
v 54.24708557 10.15212727 -2.50000000
v 52.40724182 13.45290852 -2.50000000
v 43.16896057 14.50368977 -2.50000000
v 67.36610413 12.16262531 -2.50000000
v 54.76271057 14.04275227 -2.50000000
v 56.50294495 10.57400227 -2.50000000
v 11.81935310 13.32400227 -2.50000000
v 10.67970467 13.84695148 -2.50000000
v 8.07814217 14.44460773 -2.50000000
v 7.71779060 10.76150227 -2.50000000
v 15.38185310 13.86306477 -2.50000000
v 37.15919495 13.30837727 -2.50000000
v 5.39076424 14.45937824 -2.50000000
v 6.61622810 14.51931477 -2.50000000
v 33.47169495 13.86306477 -2.50000000
v 43.70606995 14.45681477 -2.50000000
v 44.29786682 14.38454914 -2.50000000
v 57.05177307 14.40017414 -2.50000000
v 58.81739807 10.71462727 -2.50000000
v 60.55812073 10.60867023 -2.50000000
v 62.05909729 14.32693195 -2.50000000
v 59.27833557 14.51931477 -2.50000000
v 38.35694885 13.83816242 -2.50000000
v 42.68263245 14.51931477 -2.50000000
v 69.93080139 8.69131184 -2.50000000
v 85.81495667 6.39773273 -2.50000000
v 84.79542542 2.51101375 -2.50000000
v 84.66798401 9.71462727 -2.50000000
v 98.81007385 6.39773273 -2.50000000
v 104.42628479 3.23464656 -2.50000000
v 102.86769104 8.43386555 -2.50000000
v 86.70704651 7.94118977 -2.50000000
v 87.82228088 9.17507648 -2.50000000
v 85.42481995 10.85476398 -2.50000000
v 90.62696838 10.58523273 -2.50000000
v 87.21388245 12.66335773 -2.50000000
v 97.91798401 7.94118977 -2.50000000
v 101.50392151 10.56618977 -2.50000000
v 96.80323792 9.17507648 -2.50000000
v 100.69728088 11.49270344 -2.50000000
v 68.83216858 10.62392902 -2.50000000
v 116.40626526 9.61306477 -2.50000000
v 116.53761292 3.87038875 -2.50000000
v 117.58839417 7.03054523 -2.50000000
v 130.20997620 4.69753742 -2.50000000
v 134.79689026 3.02712703 -2.50000000
v 129.45216370 7.59988117 -2.50000000
v 134.64552307 5.68728352 -2.50000000
v 133.43458557 9.97634602 -2.50000000
v 117.25001526 10.76931477 -2.50000000
v 118.50782776 8.29275227 -2.50000000
v 119.65480042 9.30788898 -2.50000000
v 131.02442932 12.88015461 -2.50000000
v 128.78907776 8.68337727 -2.50000000
v 127.93702698 9.52761555 -2.50000000
v 132.37501526 11.60525227 -2.50000000
v 125.66749573 10.49245930 -2.50000000
v 127.46192932 14.33718586 -2.50000000
v 122.52589417 10.46804523 -2.50000000
v 119.14845276 12.61306477 -2.50000000
v 93.41017151 14.51931477 -2.50000000
v 94.00245667 10.58523273 -2.50000000
v 92.31642151 10.76150227 -2.50000000
v 91.96241760 14.44509602 -2.50000000
v 88.24610901 13.33181477 -2.50000000
v 98.90821838 12.97512531 -2.50000000
v 96.88478088 13.96340656 -2.50000000
v 89.38038635 13.85134602 -2.50000000
v 84.66798401 13.86306477 -2.50000000
v 94.62696838 14.45754719 -2.50000000
v 120.20314026 13.30056477 -2.50000000
v 125.25001526 14.51931477 -2.50000000
v 123.86231995 14.44314289 -2.50000000
v 121.33888245 13.83376789 -2.50000000
v 124.25001526 10.61306477 -2.50000000
v 116.40626526 24.51150131 -2.50000000
v 145.29103088 13.86306477 -2.50000000
v 162.38478088 13.86306477 -2.50000000
v -136.52146912 -10.24972820 2.50000000
v -138.90232849 -13.00412273 2.50000000
v -137.76805115 -13.52365398 2.50000000
v -133.14598083 -10.24972820 2.50000000
v -133.73826599 -14.19162273 2.50000000
v -132.52146912 -14.12985516 2.50000000
v -135.18601990 -14.11740398 2.50000000
v -134.83201599 -10.42599773 2.50000000
v -130.26365662 -13.63571453 2.50000000
v -139.32615662 -8.83957195 2.50000000
v -141.72361755 -10.51974773 2.50000000
v -139.93455505 -12.33224773 2.50000000
v -130.34519958 -8.83957195 2.50000000
v -128.24021912 -12.64743328 2.50000000
v -126.45115662 -11.16501141 2.50000000
v -125.64451599 -10.23849773 2.50000000
v -129.23045349 -7.60568523 2.50000000
v -142.48045349 -23.87912369 2.50000000
v -142.48045349 -9.37912273 2.50000000
v -146.99607849 -23.87912369 2.50000000
v -115.25779724 -13.48068523 2.50000000
v -110.74217224 1.97243953 2.50000000
v -115.25779724 24.51150131 2.50000000
v -72.80271912 -10.37912273 2.50000000
v -74.23362732 -14.13193035 2.50000000
v -72.80271912 -14.19162273 2.50000000
v -71.37718201 -14.13193035 2.50000000
v -76.85667419 -13.65439129 2.50000000
v -74.52293396 -10.20285320 2.50000000
v -71.09959412 -10.20236492 2.50000000
v -81.14768982 -11.26669598 2.50000000
v -78.52928162 -7.55881023 2.50000000
v -82.02146912 -10.37131023 2.50000000
v -77.38621521 -8.79269695 2.50000000
v -79.16136169 -12.69931316 2.50000000
v -96.84373474 2.87868953 2.50000000
v -96.84373474 -13.48068523 2.50000000
v -92.35154724 -13.48068523 2.50000000
v -68.25584412 -8.78830242 2.50000000
v -68.76194763 -13.65439129 2.50000000
v -66.46116638 -12.69931316 2.50000000
v -64.47483826 -11.26669598 2.50000000
v -63.59959412 -10.37131023 2.50000000
v -67.11521912 -7.55099773 2.50000000
v -140.44139099 -7.60568523 2.50000000
v -141.33348083 -6.06222820 2.50000000
v -142.35301208 -2.17550969 2.50000000
v -124.28074646 -8.10275555 2.50000000
v -128.33836365 -6.06222820 2.50000000
v -122.72215271 -2.89963078 2.50000000
v -127.31883240 -2.17550969 2.50000000
v -122.52732849 0.16775206 2.50000000
v -127.19139099 0.16775206 2.50000000
v -146.99607849 13.86306477 2.50000000
v -110.74217224 -13.48068523 2.50000000
v -85.14158630 -3.00754094 2.50000000
v -80.48484802 -2.15500188 2.50000000
v -85.34959412 0.16775206 2.50000000
v -127.31883240 2.51101375 2.50000000
v -82.80149841 -9.36923504 2.50000000
v -79.44187927 -6.01828289 2.50000000
v -62.81407166 -9.36923504 2.50000000
v -66.19578552 -6.00509930 2.50000000
v -84.04954529 -7.09482098 2.50000000
v -80.61521912 0.16775206 2.50000000
v -61.55723572 -7.09482098 2.50000000
v -65.14500427 -2.14572453 2.50000000
v -60.24803162 0.16775206 2.50000000
v -65.01365662 0.16775206 2.50000000
v -60.45750427 -3.00754094 2.50000000
v -80.48387146 2.49050593 2.50000000
v -142.48045349 0.16775206 2.50000000
v -46.11961365 -13.35959148 2.50000000
v -46.87059021 -9.18673992 2.50000000
v -49.70945740 -12.39084148 2.50000000
v -47.44627380 -8.76974773 2.50000000
v -50.89939880 -11.54318523 2.50000000
v -45.00730896 -9.66330242 2.50000000
v -43.71971130 -13.48068523 2.50000000
v -27.19090080 -8.79269695 2.50000000
v -28.96604729 -12.69931316 2.50000000
v -26.66135979 -13.65439129 2.50000000
v -39.11033630 -9.72287273 2.50000000
v -39.11033630 -13.48068523 2.50000000
v -24.03831291 -14.13193035 2.50000000
v -24.32761955 -10.20285320 2.50000000
v -51.76414490 -10.37179852 2.50000000
v -47.84617615 -8.14377117 2.50000000
v -43.71971130 -9.72287273 2.50000000
v -28.33396721 -7.55881023 2.50000000
v -31.82615471 -10.37131023 2.50000000
v -30.95237541 -11.26669598 2.50000000
v -32.60618591 -9.36923504 2.50000000
v -22.60740471 -10.37912273 2.50000000
v -22.60740471 -14.19162273 2.50000000
v -21.18186760 -14.13193035 2.50000000
v -20.90427971 -10.20236492 2.50000000
v -18.56663322 -13.65439129 2.50000000
v 0.74122798 -23.08029556 2.50000000
v 2.63966537 -19.65256119 2.50000000
v 0.69825923 -19.00412369 2.50000000
v 2.81154037 -23.52756119 2.50000000
v -1.26658452 -18.07443619 2.50000000
v -1.26658452 -22.44162369 2.50000000
v -18.06052971 -8.78830242 2.50000000
v -16.26585197 -12.69931316 2.50000000
v -14.27952385 -11.26669598 2.50000000
v -1.48533452 -9.65256023 2.50000000
v -0.68540776 -10.54977703 2.50000000
v 2.09279037 -7.03537273 2.50000000
v -16.91990471 -7.55099773 2.50000000
v -13.40427971 -10.37131023 2.50000000
v 3.20021224 -8.21115398 2.50000000
v 1.09681880 -11.98532391 2.50000000
v -52.75242615 -6.83664227 2.50000000
v -48.30320740 -5.99533367 2.50000000
v -52.87596130 -4.47287273 2.50000000
v -29.24656487 -6.01828289 2.50000000
v -33.85423279 -7.09482098 2.50000000
v -30.28953362 -2.15500188 2.50000000
v -48.36033630 -4.47287273 2.50000000
v -48.36033630 10.37087727 2.50000000
v -34.94627380 -3.00754094 2.50000000
v -35.15428162 0.16775206 2.50000000
v -30.28855705 2.49050593 2.50000000
v -30.41990471 0.16775206 2.50000000
v -16.00047112 -6.00509930 2.50000000
v -12.61875725 -9.36923504 2.50000000
v -11.36192131 -7.09482098 2.50000000
v -14.94968987 -2.14572453 2.50000000
v 1.21095455 -5.55588055 2.50000000
v -2.83201432 -7.57882977 2.50000000
v -10.26218987 -3.00754094 2.50000000
v -10.05271721 0.16775206 2.50000000
v -14.94968987 2.47146297 2.50000000
v -14.81834221 0.16775206 2.50000000
v -4.37107658 -2.49679875 2.50000000
v 0.20314203 -1.78244328 2.50000000
v -4.56345940 0.51150203 2.50000000
v 0.07716547 0.51150203 2.50000000
v 0.20314203 2.81521297 2.50000000
v -65.14500427 2.47146297 2.50000000
v -122.72215271 3.23464656 2.50000000
v -128.33836365 6.39773273 2.50000000
v -142.35301208 2.51101375 2.50000000
v -141.33348083 6.39773273 2.50000000
v -142.48045349 9.71462727 2.50000000
v -110.61082458 3.87038875 2.50000000
v -110.74217224 9.61306477 2.50000000
v -124.28074646 8.43386555 2.50000000
v -109.56004333 7.03054523 2.50000000
v -140.44139099 7.94118977 2.50000000
v -139.32615662 9.17507648 2.50000000
v -141.72361755 10.85476398 2.50000000
v -129.23045349 7.94118977 2.50000000
v -108.64060974 8.29275227 2.50000000
v -125.64451599 10.56618977 2.50000000
v -109.89842224 10.76931477 2.50000000
v -130.34519958 9.17507648 2.50000000
v -126.45115662 11.49270344 2.50000000
v -92.35154724 3.02712703 2.50000000
v -96.93846130 4.69753742 2.50000000
v -92.50291443 5.68728352 2.50000000
v -97.69627380 7.59988117 2.50000000
v -85.14158630 3.35183406 2.50000000
v -84.04954529 7.44131184 2.50000000
v -79.43309021 6.35378742 2.50000000
v -82.80149841 9.70986652 2.50000000
v -99.21141052 9.52761555 2.50000000
v -98.35935974 8.68337727 2.50000000
v -96.12400818 12.88015461 2.50000000
v -107.49363708 9.30788898 2.50000000
v -78.51365662 7.89431477 2.50000000
v -93.71385193 9.97634602 2.50000000
v -94.77342224 11.60525227 2.50000000
v -82.02146912 10.70681477 2.50000000
v -104.62254333 10.46804523 2.50000000
v -107.99998474 12.61306477 2.50000000
v -139.93455505 12.66335773 2.50000000
v -136.52146912 10.58523273 2.50000000
v -138.90232849 13.33181477 2.50000000
v -135.18601990 14.44509602 2.50000000
v -134.83201599 10.76150227 2.50000000
v -128.24021912 12.97512531 2.50000000
v -130.26365662 13.96340656 2.50000000
v -133.14598083 10.58523273 2.50000000
v -133.73826599 14.51931477 2.50000000
v -137.76805115 13.85134602 2.50000000
v -142.48045349 13.86306477 2.50000000
v -132.52146912 14.45754719 2.50000000
v -106.94529724 13.30056477 2.50000000
v -103.28611755 14.44314289 2.50000000
v -102.89842224 10.61306477 2.50000000
v -101.89842224 14.51931477 2.50000000
v -101.48094177 10.49245930 2.50000000
v -81.14768982 11.60036945 2.50000000
v -99.68650818 14.33718586 2.50000000
v -105.80955505 13.83376789 2.50000000
v -110.74217224 24.51150131 2.50000000
v -77.36863708 9.12820148 2.50000000
v -79.16136169 13.03005695 2.50000000
v -66.19578552 6.32302570 2.50000000
v -61.55723572 7.44131184 2.50000000
v -67.11521912 7.87087727 2.50000000
v -64.47483826 11.60036945 2.50000000
v -68.25584412 9.11501789 2.50000000
v -62.81407166 9.70986652 2.50000000
v -52.87596130 10.37087727 2.50000000
v -60.45750427 3.35183406 2.50000000
v -33.85423279 7.44131184 2.50000000
v -29.23777580 6.35378742 2.50000000
v -32.60618591 9.70986652 2.50000000
v -71.09959412 10.53689289 2.50000000
v -68.76194763 13.98318195 2.50000000
v -63.59959412 10.70681477 2.50000000
v -48.36033630 13.86306477 2.50000000
v -52.87596130 13.86306477 2.50000000
v -56.17283630 10.37087727 2.50000000
v -39.11033630 13.86306477 2.50000000
v -39.11033630 10.37087727 2.50000000
v -34.94627380 3.35183406 2.50000000
v -16.00047112 6.32302570 2.50000000
v -11.36192131 7.44131184 2.50000000
v -10.26218987 3.35183406 2.50000000
v 1.21095455 6.59646320 2.50000000
v -4.37107658 3.52615047 2.50000000
v -2.83201432 8.61208820 2.50000000
v -18.06052971 9.11501789 2.50000000
v -16.91990471 7.87087727 2.50000000
v -14.27952385 11.60036945 2.50000000
v -28.31834221 7.89431477 2.50000000
v -31.82615471 10.70681477 2.50000000
v -1.48533452 10.68337727 2.50000000
v 2.09279037 8.07400227 2.50000000
v -12.61875725 9.70986652 2.50000000
v -30.95237541 11.60036945 2.50000000
v -27.17332268 9.12820148 2.50000000
v -13.40427971 10.70681477 2.50000000
v -74.23362732 14.45974445 2.50000000
v -74.51316833 10.53835773 2.50000000
v -72.80271912 10.71462727 2.50000000
v -66.46116638 13.03005695 2.50000000
v -71.37718201 14.45974445 2.50000000
v -48.36033630 21.62868881 2.50000000
v -56.17283630 13.86306477 2.50000000
v -76.85667419 13.98318195 2.50000000
v -72.80271912 14.51931477 2.50000000
v -52.87596130 21.62868881 2.50000000
v -22.60740471 10.71462727 2.50000000
v -24.03831291 14.45974445 2.50000000
v -24.31785393 10.53835773 2.50000000
v -28.96604729 13.03005695 2.50000000
v -16.26585197 13.03005695 2.50000000
v -0.68540776 11.58242512 2.50000000
v -20.90427971 10.53689289 2.50000000
v -21.18186760 14.45974445 2.50000000
v -26.66135979 13.98318195 2.50000000
v -22.60740471 14.51931477 2.50000000
v -18.56663322 13.98318195 2.50000000
v 3.20021224 9.24978352 2.50000000
v 1.09681880 13.02090168 2.50000000
v 4.97950935 -23.79123306 2.50000000
v 4.58693123 -20.03927994 2.50000000
v 6.56935310 -20.16818619 2.50000000
v 7.28029060 -23.87912369 2.50000000
v 10.27296638 -23.66623306 2.50000000
v 8.64113045 -20.02414322 2.50000000
v 11.94972420 -18.87179947 2.50000000
v 15.94740486 -21.27121353 2.50000000
v 13.18654060 -17.86349869 2.50000000
v 3.12220931 -12.94235516 2.50000000
v 5.39076424 -13.42087078 2.50000000
v 6.01271248 -9.55490398 2.50000000
v 8.07814217 -13.40597820 2.50000000
v 7.71779060 -9.72287273 2.50000000
v 6.61622810 -13.48068523 2.50000000
v 10.67970467 -12.80832195 2.50000000
v 11.81935310 -12.28537273 2.50000000
v 9.43605232 -9.55490398 2.50000000
v 12.85646248 -11.61105633 2.50000000
v 13.98744392 -22.54855728 2.50000000
v 16.77247810 -20.47287369 2.50000000
v 17.49940681 -19.56552505 2.50000000
v 14.14698982 -16.56369400 2.50000000
v 18.66249275 -17.41611099 2.50000000
v 57.04396057 -10.33859539 2.50000000
v 55.13917542 -14.04416180 2.50000000
v 57.12989807 -14.19162273 2.50000000
v 15.24464607 -13.07931805 2.50000000
v 15.38185310 -10.89474773 2.50000000
v 19.68019295 -13.35519695 2.50000000
v 19.87404060 -10.09006023 2.50000000
v 54.04396057 -9.02756023 2.50000000
v 50.45021057 -11.83224773 2.50000000
v 51.79933167 -12.86447430 2.50000000
v 54.90333557 -9.63937664 2.50000000
v 33.47169495 0.92556453 2.50000000
v 28.95607185 -13.48068523 2.50000000
v 33.47169495 -13.48068523 2.50000000
v 58.72608948 -14.11740398 2.50000000
v 58.32521057 -10.42599773 2.50000000
v 14.63771248 -9.80246258 2.50000000
v 12.26027107 -8.21115398 2.50000000
v 13.36622810 -7.03537273 2.50000000
v 15.38185310 -8.66818523 2.50000000
v 14.24806404 -5.55588055 2.50000000
v 15.25587654 -1.78244328 2.50000000
v 15.38185310 0.51150203 2.50000000
v 48.16651917 -3.35666203 2.50000000
v 47.97364807 -5.51974773 2.50000000
v 52.46583557 -5.23068523 2.50000000
v 48.12843323 -7.39670086 2.50000000
v 52.56446838 -6.36447430 2.50000000
v 33.59913635 3.11062312 2.50000000
v 28.95607185 13.86306477 2.50000000
v 19.87404060 13.86306477 2.50000000
v 53.35353088 -8.26291180 2.50000000
v 49.36671448 -10.55295086 2.50000000
v 60.10353088 -10.26047039 2.50000000
v 52.59718323 -3.83713078 2.50000000
v 49.70948792 0.11990049 2.50000000
v 53.64796448 -1.71213078 2.50000000
v 51.05958557 1.43337703 2.50000000
v 54.56739807 -0.98068547 2.50000000
v 52.79591370 2.45876765 2.50000000
v 55.82716370 -0.43722841 2.50000000
v 59.60060120 0.18386534 2.50000000
v 57.40528870 3.63064265 2.50000000
v 61.53468323 -13.52365398 2.50000000
v 94.00245667 -10.24972820 2.50000000
v 93.41017151 -14.19162273 2.50000000
v 94.62696838 -14.12985516 2.50000000
v 89.38038635 -13.52365398 2.50000000
v 90.62696838 -10.24972820 2.50000000
v 88.24610901 -13.00412273 2.50000000
v 91.96241760 -14.11740398 2.50000000
v 92.31642151 -10.42599773 2.50000000
v 66.58302307 -13.48068523 2.50000000
v 71.07521057 -13.48068523 2.50000000
v 66.58302307 -9.33224773 2.50000000
v 84.66798401 -9.37912273 2.50000000
v 80.15235901 -23.87912369 2.50000000
v 84.66798401 -23.87912369 2.50000000
v 116.40626526 1.97243953 2.50000000
v 111.89064026 -13.48068523 2.50000000
v 116.40626526 -13.48068523 2.50000000
v 111.89064026 24.51150131 2.50000000
v 96.88478088 -13.63571453 2.50000000
v 62.74708557 -13.00412273 2.50000000
v 63.10353088 -8.93625164 2.50000000
v 142.99415588 -23.87912369 2.50000000
v 146.58790588 -23.87912369 2.50000000
v 145.63478088 -20.12131119 2.50000000
v 142.99415588 -20.12131119 2.50000000
v 146.50880432 -20.06613541 2.50000000
v 148.02345276 -23.78586197 2.50000000
v 150.43751526 -23.03976822 2.50000000
v 147.94630432 -19.62472916 2.50000000
v 151.41603088 -22.38693619 2.50000000
v 148.50978088 -19.23849869 2.50000000
v 152.32765198 -21.43234634 2.50000000
v 149.59376526 -17.76388931 2.50000000
v 154.18312073 -18.24875259 2.50000000
v 155.12696838 -16.01974869 2.50000000
v 150.78321838 -15.09006023 2.50000000
v 151.58790588 -13.04318523 2.50000000
v 153.83790588 -7.51974773 2.50000000
v 140.53321838 13.86306477 2.50000000
v 63.84815979 -12.32931805 2.50000000
v 65.76612854 -10.49338055 2.50000000
v 84.79542542 -2.17550969 2.50000000
v 64.32521057 -7.77756023 2.50000000
v 86.70704651 -7.60568523 2.50000000
v 87.82228088 -8.83957195 2.50000000
v 65.31300354 -6.34445477 2.50000000
v 66.44190979 -2.82492375 2.50000000
v 85.42481995 -10.51974773 2.50000000
v 85.81495667 -6.06222820 2.50000000
v 66.58302307 -0.73849797 2.50000000
v 71.07521057 2.12087703 2.50000000
v 80.15235901 13.86306477 2.50000000
v 84.66798401 0.16775206 2.50000000
v 66.58302307 0.26150206 2.50000000
v 60.27833557 3.77712703 2.50000000
v 62.11427307 0.26150206 2.50000000
v 87.21388245 -12.33224773 2.50000000
v 96.80323792 -8.83957195 2.50000000
v 98.90821838 -12.64743328 2.50000000
v 100.69728088 -11.16501141 2.50000000
v 101.50392151 -10.23849773 2.50000000
v 97.91798401 -7.60568523 2.50000000
v 99.82960510 -2.17550969 2.50000000
v 98.81007385 -6.06222820 2.50000000
v 104.42628479 -2.89963078 2.50000000
v 102.86769104 -8.10275555 2.50000000
v 104.62110901 0.16775206 2.50000000
v 99.95704651 0.16775206 2.50000000
v 130.30470276 -13.48068523 2.50000000
v 134.79689026 -13.48068523 2.50000000
v 130.30470276 2.87868953 2.50000000
v 66.58302307 3.77712703 2.50000000
v 167.14259338 13.86306477 2.50000000
v 99.82960510 2.51101375 2.50000000
v 15.38185310 9.71462727 2.50000000
v 14.24806404 6.59646320 2.50000000
v 15.25587654 2.81521297 2.50000000
v 13.36622810 8.07400227 2.50000000
v 33.47169495 9.61306477 2.50000000
v 34.61866760 6.66921711 2.50000000
v 35.51075745 8.04275227 2.50000000
v 34.23536682 10.77859211 2.50000000
v 9.43605232 10.59353352 2.50000000
v 12.26027107 9.24978352 2.50000000
v 12.85646248 12.65017414 2.50000000
v 14.63771248 10.84548664 2.50000000
v 36.64112854 9.12624836 2.50000000
v 41.11866760 14.44363117 2.50000000
v 41.36231995 10.51931477 2.50000000
v 42.38771057 10.46658039 2.50000000
v 39.56690979 10.36452961 2.50000000
v 36.07911682 12.62624836 2.50000000
v 6.01271248 10.59353352 2.50000000
v 3.12220931 13.97988605 2.50000000
v 66.58302307 4.22243977 2.50000000
v 70.89210510 5.04714680 2.50000000
v 68.14552307 11.44118977 2.50000000
v 64.54396057 9.01931477 2.50000000
v 65.43605042 8.08376789 2.50000000
v 66.45558167 5.68533039 2.50000000
v 44.18067932 10.04665852 2.50000000
v 44.97169495 9.66775227 2.50000000
v 44.94825745 14.27712727 2.50000000
v 43.32325745 10.30837727 2.50000000
v 49.98146057 8.46462727 2.50000000
v 52.07130432 9.44900227 2.50000000
v 49.98146057 12.62087727 2.50000000
v 63.42140198 9.76101398 2.50000000
v 65.52528381 13.31692219 2.50000000
v 54.24708557 10.15212727 2.50000000
v 52.40724182 13.45290852 2.50000000
v 43.16896057 14.50368977 2.50000000
v 67.36610413 12.16262531 2.50000000
v 54.76271057 14.04275227 2.50000000
v 56.50294495 10.57400227 2.50000000
v 11.81935310 13.32400227 2.50000000
v 10.67970467 13.84695148 2.50000000
v 8.07814217 14.44460773 2.50000000
v 7.71779060 10.76150227 2.50000000
v 15.38185310 13.86306477 2.50000000
v 37.15919495 13.30837727 2.50000000
v 5.39076424 14.45937824 2.50000000
v 6.61622810 14.51931477 2.50000000
v 33.47169495 13.86306477 2.50000000
v 43.70606995 14.45681477 2.50000000
v 44.29786682 14.38454914 2.50000000
v 57.05177307 14.40017414 2.50000000
v 58.81739807 10.71462727 2.50000000
v 60.55812073 10.60867023 2.50000000
v 62.05909729 14.32693195 2.50000000
v 59.27833557 14.51931477 2.50000000
v 38.35694885 13.83816242 2.50000000
v 42.68263245 14.51931477 2.50000000
v 69.93080139 8.69131184 2.50000000
v 85.81495667 6.39773273 2.50000000
v 84.66798401 9.71462727 2.50000000
v 84.79542542 2.51101375 2.50000000
v 104.42628479 3.23464656 2.50000000
v 98.81007385 6.39773273 2.50000000
v 102.86769104 8.43386555 2.50000000
v 86.70704651 7.94118977 2.50000000
v 87.82228088 9.17507648 2.50000000
v 85.42481995 10.85476398 2.50000000
v 90.62696838 10.58523273 2.50000000
v 87.21388245 12.66335773 2.50000000
v 97.91798401 7.94118977 2.50000000
v 101.50392151 10.56618977 2.50000000
v 100.69728088 11.49270344 2.50000000
v 96.80323792 9.17507648 2.50000000
v 68.83216858 10.62392902 2.50000000
v 116.40626526 9.61306477 2.50000000
v 116.53761292 3.87038875 2.50000000
v 117.58839417 7.03054523 2.50000000
v 134.79689026 3.02712703 2.50000000
v 130.20997620 4.69753742 2.50000000
v 134.64552307 5.68728352 2.50000000
v 129.45216370 7.59988117 2.50000000
v 133.43458557 9.97634602 2.50000000
v 118.50782776 8.29275227 2.50000000
v 117.25001526 10.76931477 2.50000000
v 119.65480042 9.30788898 2.50000000
v 131.02442932 12.88015461 2.50000000
v 127.93702698 9.52761555 2.50000000
v 128.78907776 8.68337727 2.50000000
v 132.37501526 11.60525227 2.50000000
v 127.46192932 14.33718586 2.50000000
v 125.66749573 10.49245930 2.50000000
v 122.52589417 10.46804523 2.50000000
v 119.14845276 12.61306477 2.50000000
v 93.41017151 14.51931477 2.50000000
v 92.31642151 10.76150227 2.50000000
v 94.00245667 10.58523273 2.50000000
v 91.96241760 14.44509602 2.50000000
v 88.24610901 13.33181477 2.50000000
v 98.90821838 12.97512531 2.50000000
v 96.88478088 13.96340656 2.50000000
v 89.38038635 13.85134602 2.50000000
v 84.66798401 13.86306477 2.50000000
v 94.62696838 14.45754719 2.50000000
v 120.20314026 13.30056477 2.50000000
v 125.25001526 14.51931477 2.50000000
v 123.86231995 14.44314289 2.50000000
v 121.33888245 13.83376789 2.50000000
v 124.25001526 10.61306477 2.50000000
v 116.40626526 24.51150131 2.50000000
v 145.29103088 13.86306477 2.50000000
v 162.38478088 13.86306477 2.50000000
f 1 2 3
f 4 5 6
f 2 1 7
f 6 7 8
f 9 5 4
f 10 11 12
f 1 3 11
f 8 7 1
f 10 1 11
f 13 14 9
f 14 13 15
f 4 6 8
f 9 4 13
f 16 15 17
f 18 19 20
f 21 22 23
f 24 25 26
f 25 24 27
f 28 29 26
f 24 30 27
f 31 32 33
f 34 35 31
f 36 37 38
f 39 40 41
f 29 24 26
f 40 39 42
f 28 35 34
f 27 30 41
f 42 43 44
f 20 45 10
f 20 10 12
f 45 20 46
f 20 47 46
f 15 13 17
f 16 17 48
f 49 48 17
f 48 49 50
f 51 52 53
f 47 19 54
f 23 55 21
f 56 57 58
f 50 51 53
f 49 51 50
f 59 53 52
f 47 20 19
f 34 31 33
f 33 32 60
f 60 61 33
f 41 30 39
f 44 43 62
f 39 43 42
f 62 43 63
f 64 58 61
f 64 61 60
f 65 58 57
f 58 64 56
f 63 66 67
f 68 66 69
f 66 70 67
f 67 62 63
f 34 29 28
f 71 65 57
f 54 72 47
f 73 74 75
f 74 76 77
f 78 79 73
f 80 81 82
f 83 84 79
f 81 85 86
f 87 88 76
f 89 83 79
f 79 78 89
f 73 75 78
f 90 91 92
f 85 81 80
f 92 93 90
f 80 82 91
f 86 85 94
f 95 94 96
f 97 98 96
f 99 100 101
f 101 102 99
f 103 100 104
f 100 99 104
f 105 106 98
f 94 97 96
f 105 107 106
f 105 98 97
f 108 109 110
f 111 112 107
f 109 113 110
f 110 113 114
f 95 86 94
f 88 87 115
f 115 116 117
f 117 88 115
f 76 88 77
f 90 93 118
f 119 118 93
f 74 77 75
f 120 118 119
f 121 117 116
f 70 66 68
f 122 121 116
f 123 124 120
f 120 119 123
f 125 126 124
f 126 120 124
f 127 128 111
f 107 105 111
f 129 127 130
f 109 108 131
f 128 127 129
f 80 91 90
f 132 131 108
f 130 133 134
f 130 134 129
f 135 133 136
f 133 130 136
f 137 138 131
f 139 140 138
f 138 137 139
f 139 141 140
f 131 132 137
f 111 128 112
f 69 142 68
f 59 143 144
f 145 146 147
f 23 22 148
f 144 53 59
f 148 22 149
f 143 150 144
f 148 149 151
f 152 146 153
f 153 146 154
f 152 147 146
f 143 155 150
f 151 149 156
f 157 150 155
f 149 158 156
f 159 160 155
f 145 54 146
f 36 161 162
f 36 162 37
f 161 163 164
f 164 162 161
f 165 166 71
f 166 167 168
f 168 71 166
f 169 170 171
f 158 172 156
f 167 173 168
f 174 171 175
f 174 164 163
f 173 167 176
f 163 171 174
f 57 165 71
f 172 177 178
f 179 180 181
f 154 179 153
f 182 183 181
f 179 181 153
f 160 159 184
f 185 184 159
f 183 186 187
f 160 157 155
f 185 159 187
f 180 188 181
f 146 54 189
f 182 181 188
f 183 182 186
f 186 190 187
f 185 187 190
f 177 191 178
f 192 193 178
f 158 177 172
f 194 195 193
f 176 196 173
f 197 170 169
f 170 175 171
f 197 169 195
f 178 191 198
f 149 22 199
f 193 192 194
f 192 178 198
f 195 194 197
f 196 200 201
f 196 201 173
f 145 72 54
f 202 203 142
f 204 205 206
f 204 207 202
f 116 208 122
f 209 68 142
f 203 202 207
f 210 211 212
f 209 142 203
f 213 214 205
f 215 207 204
f 216 122 208
f 217 208 218
f 219 220 122
f 210 125 221
f 222 223 135
f 125 210 212
f 224 133 135
f 225 141 226
f 135 223 224
f 141 139 226
f 225 226 227
f 228 229 230
f 211 231 232
f 233 225 227
f 233 234 225
f 235 222 230
f 223 222 235
f 236 237 232
f 212 211 232
f 221 125 124
f 238 235 230
f 239 240 241
f 214 242 205
f 206 205 242
f 213 243 214
f 217 244 216
f 245 217 218
f 122 216 219
f 206 215 204
f 246 239 241
f 243 240 247
f 240 239 247
f 213 240 243
f 248 244 217
f 208 217 216
f 241 201 246
f 232 231 236
f 249 250 251
f 252 237 236
f 238 230 229
f 228 253 229
f 234 233 254
f 255 249 256
f 250 237 257
f 237 252 257
f 257 251 250
f 258 249 251
f 259 255 256
f 228 255 259
f 256 249 258
f 253 228 259
f 254 260 261
f 254 261 234
f 201 200 246
f 102 262 263
f 264 263 262
f 263 264 265
f 265 266 267
f 268 267 266
f 268 269 270
f 265 264 266
f 271 272 273
f 274 275 276
f 272 275 273
f 277 278 279
f 274 278 277
f 280 279 278
f 268 281 267
f 271 114 113
f 282 270 269
f 269 283 284
f 269 284 282
f 270 281 268
f 284 283 285
f 286 287 288
f 283 289 285
f 290 291 292
f 290 292 289
f 292 285 289
f 293 294 295
f 296 288 294
f 297 298 299
f 287 300 301
f 276 275 272
f 274 276 278
f 272 271 113
f 280 302 303
f 304 305 303
f 303 302 304
f 291 305 306
f 302 280 278
f 291 290 305
f 304 306 305
f 307 308 291
f 291 306 307
f 309 310 311
f 311 312 313
f 314 297 315
f 297 299 315
f 291 308 316
f 295 317 318
f 295 318 293
f 318 317 312
f 312 311 310
f 296 286 288
f 300 319 301
f 293 296 294
f 287 286 300
f 320 309 321
f 322 321 323
f 321 322 320
f 309 320 310
f 322 323 324
f 325 326 324
f 323 325 324
f 327 326 328
f 313 312 317
f 301 319 329
f 330 331 332
f 333 334 335
f 333 335 336
f 332 336 337
f 338 339 340
f 341 342 343
f 344 345 346
f 344 346 347
f 348 331 330
f 349 319 350
f 351 352 353
f 352 351 354
f 352 355 353
f 356 357 358
f 358 359 360
f 353 355 356
f 359 361 360
f 355 357 356
f 359 362 361
f 358 357 359
f 363 364 365
f 366 365 364
f 365 366 367
f 363 362 364
f 362 363 361
f 366 368 367
f 369 350 370
f 343 371 341
f 372 370 350
f 370 372 339
f 369 349 350
f 373 374 341
f 372 375 339
f 376 340 339
f 341 374 377
f 373 341 378
f 375 376 339
f 379 380 376
f 343 381 371
f 382 371 381
f 380 379 383
f 376 380 340
f 378 341 371
f 384 385 327
f 334 386 335
f 336 335 337
f 335 386 374
f 386 377 374
f 348 330 387
f 388 387 389
f 330 332 337
f 390 389 391
f 387 391 389
f 392 393 394
f 391 394 395
f 391 395 390
f 392 396 397
f 392 397 393
f 393 395 394
f 398 399 400
f 348 387 388
f 383 385 401
f 365 367 402
f 319 349 329
f 403 397 396
f 404 405 406
f 407 404 406
f 316 405 404
f 408 409 410
f 410 314 408
f 409 408 411
f 412 413 414
f 415 407 414
f 404 407 415
f 408 314 315
f 416 409 411
f 417 418 419
f 420 416 421
f 308 405 316
f 419 420 417
f 261 422 423
f 325 328 326
f 385 384 401
f 424 425 401
f 426 427 428
f 424 429 425
f 327 328 384
f 430 431 432
f 430 433 431
f 434 435 436
f 437 438 428
f 439 436 440
f 418 441 433
f 428 438 442
f 443 444 439
f 445 412 446
f 412 445 413
f 447 446 412
f 412 448 447
f 404 449 316
f 413 415 414
f 421 416 411
f 450 420 421
f 451 452 423
f 448 452 447
f 422 451 423
f 315 453 408
f 423 452 448
f 435 440 436
f 454 433 441
f 455 433 454
f 431 433 455
f 444 443 456
f 456 457 444
f 458 459 437
f 457 460 458
f 437 459 438
f 443 439 440
f 417 420 461
f 462 418 417
f 462 441 418
f 458 460 459
f 456 460 457
f 420 450 461
f 427 463 429
f 422 261 260
f 464 465 466
f 466 465 381
f 425 429 463
f 403 467 468
f 403 468 397
f 468 467 469
f 382 381 465
f 466 470 464
f 470 466 471
f 471 466 472
f 473 471 474
f 475 476 469
f 469 467 475
f 475 477 478
f 476 475 478
f 463 427 479
f 480 481 347
f 481 480 482
f 399 483 484
f 483 485 486
f 486 484 483
f 400 399 484
f 485 487 486
f 480 488 489
f 489 488 490
f 489 482 480
f 491 492 493
f 487 492 494
f 493 495 496
f 492 487 485
f 497 490 498
f 347 481 344
f 442 426 428
f 427 426 479
f 499 500 501
f 502 501 473
f 503 473 474
f 504 477 505
f 474 471 472
f 477 500 505
f 473 503 506
f 466 381 507
f 506 502 473
f 501 502 499
f 499 508 500
f 505 500 508
f 504 478 477
f 509 497 498
f 488 498 490
f 491 493 496
f 492 491 494
f 495 510 496
f 511 497 512
f 512 497 509
f 511 510 513
f 480 347 514
f 367 368 515
f 513 510 495
f 513 497 511
f 367 516 402
f 425 380 401
f 401 380 383
f 262 102 101
f 517 518 519
f 520 521 522
f 519 523 517
f 521 524 523
f 525 520 522
f 526 527 528
f 517 528 518
f 524 517 523
f 526 528 517
f 529 525 530
f 530 531 529
f 520 524 521
f 525 529 520
f 532 533 531
f 534 535 536
f 537 538 539
f 540 541 542
f 542 543 540
f 544 541 545
f 540 543 546
f 547 548 549
f 550 547 551
f 552 553 554
f 555 556 557
f 545 541 540
f 557 558 555
f 544 550 551
f 543 556 546
f 558 559 560
f 535 526 561
f 535 527 526
f 561 562 535
f 535 562 563
f 531 533 529
f 532 564 533
f 565 533 564
f 564 566 565
f 567 568 569
f 563 570 536
f 538 537 571
f 572 573 574
f 566 568 567
f 565 566 567
f 575 569 568
f 563 536 535
f 550 548 547
f 548 576 549
f 576 548 577
f 556 555 546
f 559 578 560
f 555 558 560
f 578 579 560
f 580 577 573
f 580 576 577
f 581 574 573
f 573 572 580
f 579 582 583
f 584 585 583
f 583 582 586
f 582 579 578
f 550 544 545
f 587 574 581
f 570 563 588
f 589 590 591
f 591 592 593
f 594 589 595
f 596 597 598
f 599 595 600
f 598 601 602
f 603 593 604
f 605 595 599
f 595 605 594
f 589 594 590
f 606 607 608
f 602 596 598
f 607 606 609
f 596 608 597
f 601 610 602
f 611 612 610
f 613 612 614
f 615 616 617
f 616 615 618
f 619 620 617
f 617 620 615
f 621 614 622
f 610 612 613
f 621 622 623
f 621 613 614
f 624 625 626
f 627 623 628
f 626 625 629
f 625 630 629
f 611 610 601
f 604 631 603
f 631 632 633
f 632 631 604
f 593 592 604
f 606 634 609
f 635 609 634
f 591 590 592
f 636 635 634
f 637 633 632
f 586 584 583
f 638 633 637
f 639 636 640
f 636 639 635
f 641 640 642
f 642 640 636
f 643 627 644
f 623 627 621
f 645 646 643
f 626 647 624
f 644 645 643
f 596 606 608
f 648 624 647
f 646 649 650
f 646 645 649
f 651 652 650
f 650 652 646
f 653 647 654
f 655 654 656
f 654 655 653
f 655 656 657
f 647 653 648
f 627 628 644
f 585 584 658
f 575 659 660
f 661 662 663
f 538 664 539
f 659 575 568
f 664 665 539
f 660 659 666
f 664 667 665
f 668 669 663
f 669 670 663
f 668 663 662
f 660 666 671
f 667 672 665
f 673 671 666
f 665 672 674
f 675 671 676
f 661 663 570
f 552 677 678
f 552 554 677
f 678 679 680
f 679 678 677
f 681 587 682
f 682 683 684
f 683 682 587
f 685 686 687
f 674 672 688
f 684 683 689
f 690 691 686
f 690 680 679
f 689 692 684
f 680 690 686
f 574 587 681
f 688 693 694
f 695 696 697
f 670 669 695
f 698 696 699
f 695 669 696
f 676 700 675
f 701 675 700
f 699 702 703
f 676 671 673
f 701 702 675
f 697 696 704
f 663 705 570
f 698 704 696
f 699 703 698
f 703 702 706
f 701 706 702
f 694 693 707
f 708 693 709
f 674 688 694
f 710 709 711
f 692 689 712
f 713 685 687
f 687 686 691
f 713 711 685
f 693 714 707
f 665 715 539
f 709 710 708
f 708 714 693
f 711 713 710
f 712 716 717
f 712 689 716
f 661 570 588
f 718 658 719
f 720 721 722
f 720 718 723
f 633 638 724
f 725 658 584
f 719 723 718
f 726 727 728
f 725 719 658
f 729 722 730
f 731 720 723
f 732 724 638
f 733 734 724
f 735 638 736
f 726 737 641
f 738 651 739
f 641 727 726
f 740 651 650
f 741 742 657
f 651 740 739
f 657 742 655
f 741 743 742
f 744 745 746
f 728 747 748
f 749 743 741
f 749 741 750
f 751 745 738
f 739 751 738
f 752 747 753
f 727 747 728
f 737 640 641
f 754 745 751
f 755 756 757
f 730 722 758
f 721 758 722
f 729 730 759
f 733 732 760
f 761 734 733
f 638 735 732
f 721 720 731
f 762 756 755
f 759 763 757
f 757 763 755
f 729 759 757
f 764 733 760
f 724 732 733
f 756 762 716
f 747 752 748
f 765 766 767
f 768 752 753
f 754 746 745
f 744 746 769
f 750 770 749
f 771 772 765
f 767 773 753
f 753 773 768
f 773 767 766
f 774 766 765
f 775 772 771
f 744 775 771
f 772 774 765
f 769 775 744
f 770 776 777
f 770 750 776
f 716 762 717
f 618 778 779
f 780 779 778
f 778 781 780
f 781 782 783
f 784 783 782
f 784 785 786
f 781 783 780
f 787 788 789
f 790 791 792
f 789 788 792
f 793 794 795
f 790 793 795
f 796 795 794
f 784 782 797
f 787 629 630
f 798 786 785
f 786 799 800
f 786 798 799
f 785 784 797
f 799 801 800
f 802 803 804
f 800 801 805
f 806 807 808
f 806 805 807
f 807 805 801
f 809 810 811
f 812 811 803
f 813 814 815
f 804 816 817
f 791 789 792
f 790 795 791
f 789 629 787
f 796 818 819
f 820 818 821
f 818 820 819
f 808 822 821
f 819 795 796
f 808 821 806
f 820 821 822
f 823 808 824
f 808 823 822
f 825 826 827
f 826 828 829
f 830 831 813
f 813 831 814
f 808 832 824
f 810 833 834
f 810 809 833
f 833 829 834
f 829 827 826
f 812 803 802
f 817 816 835
f 809 811 812
f 804 817 802
f 836 837 825
f 838 839 837
f 837 836 838
f 825 827 836
f 838 840 839
f 841 840 842
f 839 840 841
f 843 844 842
f 828 834 829
f 816 845 835
f 846 847 848
f 849 850 851
f 849 852 850
f 847 853 852
f 854 855 856
f 857 858 859
f 860 861 862
f 860 863 861
f 864 846 848
f 865 866 835
f 867 868 869
f 869 870 867
f 869 868 871
f 872 873 874
f 873 875 876
f 868 872 871
f 876 875 877
f 871 872 874
f 876 877 878
f 873 876 874
f 879 880 881
f 882 881 880
f 880 883 882
f 879 881 878
f 878 877 879
f 882 883 884
f 885 886 866
f 858 857 887
f 888 866 886
f 886 856 888
f 885 866 865
f 889 857 890
f 888 856 891
f 892 856 855
f 857 893 890
f 889 894 857
f 891 856 892
f 895 892 896
f 858 887 897
f 898 897 887
f 896 899 895
f 892 855 896
f 894 887 857
f 900 843 901
f 851 850 902
f 852 853 850
f 850 890 902
f 902 890 893
f 864 903 846
f 904 905 903
f 846 853 847
f 906 907 905
f 903 905 907
f 908 909 910
f 907 911 909
f 907 906 911
f 908 912 913
f 908 910 912
f 910 909 911
f 914 915 916
f 864 904 903
f 899 917 901
f 880 918 883
f 835 845 865
f 919 913 912
f 920 921 922
f 923 921 920
f 832 920 922
f 924 925 926
f 925 924 830
f 926 927 924
f 928 929 930
f 931 929 923
f 920 931 923
f 924 831 830
f 932 927 926
f 933 934 935
f 936 937 932
f 824 832 922
f 934 933 936
f 776 938 939
f 841 842 844
f 901 917 900
f 940 917 941
f 942 943 944
f 940 941 945
f 843 900 844
f 946 947 948
f 946 948 949
f 950 951 952
f 953 943 954
f 955 956 951
f 935 949 957
f 943 958 954
f 959 955 960
f 961 962 928
f 928 930 961
f 963 928 962
f 928 963 964
f 920 832 965
f 930 929 931
f 937 927 932
f 966 937 936
f 967 938 968
f 964 963 968
f 939 938 967
f 831 924 969
f 938 964 968
f 952 951 956
f 970 957 949
f 971 970 949
f 948 971 949
f 960 972 959
f 972 960 973
f 974 953 975
f 973 974 976
f 953 954 975
f 959 956 955
f 933 977 936
f 978 933 935
f 978 935 957
f 974 975 976
f 972 973 976
f 936 977 966
f 944 945 979
f 939 777 776
f 980 981 982
f 981 897 982
f 941 979 945
f 919 983 984
f 919 912 983
f 983 985 984
f 898 982 897
f 981 980 986
f 986 987 981
f 987 988 981
f 989 990 987
f 991 985 992
f 985 991 984
f 991 993 994
f 992 993 991
f 979 995 944
f 996 863 997
f 997 998 996
f 916 999 1000
f 1000 1001 1002
f 1001 1000 999
f 915 999 916
f 1002 1001 1003
f 996 1004 1005
f 1004 1006 1005
f 1004 996 998
f 1007 1008 1009
f 1003 1010 1009
f 1008 1011 1012
f 1009 1002 1003
f 1013 1014 1006
f 863 860 997
f 958 943 942
f 944 995 942
f 1015 1016 1017
f 1018 989 1016
f 1019 990 989
f 1020 1021 994
f 990 988 987
f 994 1021 1017
f 989 1022 1019
f 981 1023 897
f 1022 989 1018
f 1016 1015 1018
f 1015 1017 1024
f 1021 1024 1017
f 1020 994 993
f 1025 1014 1013
f 1005 1006 1014
f 1007 1011 1008
f 1009 1010 1007
f 1012 1011 1026
f 1027 1028 1013
f 1028 1025 1013
f 1027 1029 1026
f 996 1030 863
f 883 1031 884
f 1029 1012 1026
f 1029 1027 1013
f 883 918 1032
f 941 917 896
f 917 899 896
f 779 616 618
f 316 449 965
f 316 965 832
f 449 404 920
f 449 920 965
f 404 415 931
f 404 931 920
f 415 413 930
f 415 930 931
f 413 445 961
f 413 961 930
f 445 446 962
f 445 962 961
f 446 447 963
f 446 963 962
f 447 452 968
f 447 968 963
f 452 451 967
f 452 967 968
f 451 422 939
f 451 939 967
f 422 260 777
f 422 777 939
f 260 254 770
f 260 770 777
f 254 233 749
f 254 749 770
f 233 227 743
f 233 743 749
f 227 226 742
f 227 742 743
f 226 139 655
f 226 655 742
f 139 137 653
f 139 653 655
f 137 132 648
f 137 648 653
f 132 108 624
f 132 624 648
f 108 110 625
f 108 625 624
f 110 114 630
f 110 630 625
f 114 271 787
f 114 787 630
f 271 273 788
f 271 788 787
f 273 275 792
f 273 792 788
f 275 274 790
f 275 790 792
f 274 277 793
f 274 793 790
f 277 279 794
f 277 794 793
f 279 280 796
f 279 796 794
f 280 303 818
f 280 818 796
f 303 305 821
f 303 821 818
f 305 290 806
f 305 806 821
f 290 289 805
f 290 805 806
f 289 283 800
f 289 800 805
f 283 269 786
f 283 786 800
f 269 268 784
f 269 784 786
f 268 266 783
f 268 783 784
f 266 264 780
f 266 780 783
f 264 262 779
f 264 779 780
f 262 101 616
f 262 616 779
f 101 100 617
f 101 617 616
f 100 103 619
f 100 619 617
f 103 104 620
f 103 620 619
f 104 99 615
f 104 615 620
f 99 102 618
f 99 618 615
f 102 263 778
f 102 778 618
f 263 265 781
f 263 781 778
f 265 267 782
f 265 782 781
f 267 281 797
f 267 797 782
f 281 270 785
f 281 785 797
f 270 282 798
f 270 798 785
f 282 284 799
f 282 799 798
f 284 285 801
f 284 801 799
f 285 292 807
f 285 807 801
f 292 291 808
f 292 808 807
f 291 316 832
f 291 832 808
f 12 11 528
f 12 528 527
f 11 3 518
f 11 518 528
f 3 2 519
f 3 519 518
f 2 7 523
f 2 523 519
f 7 6 521
f 7 521 523
f 6 5 522
f 6 522 521
f 5 9 525
f 5 525 522
f 9 14 530
f 9 530 525
f 14 15 531
f 14 531 530
f 15 16 532
f 15 532 531
f 16 48 564
f 16 564 532
f 48 50 566
f 48 566 564
f 50 53 568
f 50 568 566
f 53 144 659
f 53 659 568
f 144 150 666
f 144 666 659
f 150 157 673
f 150 673 666
f 157 160 676
f 157 676 673
f 160 184 700
f 160 700 676
f 184 185 701
f 184 701 700
f 185 190 706
f 185 706 701
f 190 186 703
f 190 703 706
f 186 182 698
f 186 698 703
f 182 188 704
f 182 704 698
f 188 180 697
f 188 697 704
f 180 179 695
f 180 695 697
f 179 154 670
f 179 670 695
f 154 146 663
f 154 663 670
f 146 189 705
f 146 705 663
f 189 54 570
f 189 570 705
f 54 19 536
f 54 536 570
f 19 18 534
f 19 534 536
f 18 20 535
f 18 535 534
f 20 12 527
f 20 527 535
f 377 386 902
f 377 902 893
f 386 334 851
f 386 851 902
f 334 333 849
f 334 849 851
f 333 336 852
f 333 852 849
f 336 332 847
f 336 847 852
f 332 331 848
f 332 848 847
f 331 348 864
f 331 864 848
f 348 388 904
f 348 904 864
f 388 389 905
f 388 905 904
f 389 390 906
f 389 906 905
f 390 395 911
f 390 911 906
f 395 393 910
f 395 910 911
f 393 397 912
f 393 912 910
f 397 468 983
f 397 983 912
f 468 469 985
f 468 985 983
f 469 476 992
f 469 992 985
f 476 478 993
f 476 993 992
f 478 504 1020
f 478 1020 993
f 504 505 1021
f 504 1021 1020
f 505 508 1024
f 505 1024 1021
f 508 499 1015
f 508 1015 1024
f 499 502 1018
f 499 1018 1015
f 502 506 1022
f 502 1022 1018
f 506 503 1019
f 506 1019 1022
f 503 474 990
f 503 990 1019
f 474 472 988
f 474 988 990
f 472 466 981
f 472 981 988
f 466 507 1023
f 466 1023 981
f 507 381 897
f 507 897 1023
f 381 343 858
f 381 858 897
f 343 342 859
f 343 859 858
f 342 341 857
f 342 857 859
f 341 377 893
f 341 893 857
f 239 246 762
f 239 762 755
f 246 200 717
f 246 717 762
f 200 196 712
f 200 712 717
f 196 176 692
f 196 692 712
f 176 167 684
f 176 684 692
f 167 166 682
f 167 682 684
f 166 165 681
f 166 681 682
f 165 57 574
f 165 574 681
f 57 56 572
f 57 572 574
f 56 64 580
f 56 580 572
f 64 60 576
f 64 576 580
f 60 32 549
f 60 549 576
f 32 31 547
f 32 547 549
f 31 35 551
f 31 551 547
f 35 28 544
f 35 544 551
f 28 26 541
f 28 541 544
f 26 25 542
f 26 542 541
f 25 27 543
f 25 543 542
f 27 41 556
f 27 556 543
f 41 40 557
f 41 557 556
f 40 42 558
f 40 558 557
f 42 44 559
f 42 559 558
f 44 62 578
f 44 578 559
f 62 67 582
f 62 582 578
f 67 70 586
f 67 586 582
f 70 68 584
f 70 584 586
f 68 209 725
f 68 725 584
f 209 203 719
f 209 719 725
f 203 207 723
f 203 723 719
f 207 215 731
f 207 731 723
f 215 206 721
f 215 721 731
f 206 242 758
f 206 758 721
f 242 214 730
f 242 730 758
f 214 243 759
f 214 759 730
f 243 247 763
f 243 763 759
f 247 239 755
f 247 755 763
f 251 257 773
f 251 773 766
f 257 252 768
f 257 768 773
f 252 236 752
f 252 752 768
f 236 231 748
f 236 748 752
f 231 211 728
f 231 728 748
f 211 210 726
f 211 726 728
f 210 221 737
f 210 737 726
f 221 124 640
f 221 640 737
f 124 123 639
f 124 639 640
f 123 119 635
f 123 635 639
f 119 93 609
f 119 609 635
f 93 92 607
f 93 607 609
f 92 91 608
f 92 608 607
f 91 82 597
f 91 597 608
f 82 81 598
f 82 598 597
f 81 86 601
f 81 601 598
f 86 95 611
f 86 611 601
f 95 96 612
f 95 612 611
f 96 98 614
f 96 614 612
f 98 106 622
f 98 622 614
f 106 107 623
f 106 623 622
f 107 112 628
f 107 628 623
f 112 128 644
f 112 644 628
f 128 129 645
f 128 645 644
f 129 134 649
f 129 649 645
f 134 133 650
f 134 650 649
f 133 224 740
f 133 740 650
f 224 223 739
f 224 739 740
f 223 235 751
f 223 751 739
f 235 238 754
f 235 754 751
f 238 229 746
f 238 746 754
f 229 253 769
f 229 769 746
f 253 259 775
f 253 775 769
f 259 256 772
f 259 772 775
f 256 258 774
f 256 774 772
f 258 251 766
f 258 766 774
f 425 463 979
f 425 979 941
f 463 479 995
f 463 995 979
f 479 426 942
f 479 942 995
f 426 442 958
f 426 958 942
f 442 438 954
f 442 954 958
f 438 459 975
f 438 975 954
f 459 460 976
f 459 976 975
f 460 456 972
f 460 972 976
f 456 443 959
f 456 959 972
f 443 440 956
f 443 956 959
f 440 435 952
f 440 952 956
f 435 434 950
f 435 950 952
f 434 436 951
f 434 951 950
f 436 439 955
f 436 955 951
f 439 444 960
f 439 960 955
f 444 457 973
f 444 973 960
f 457 458 974
f 457 974 973
f 458 437 953
f 458 953 974
f 437 428 943
f 437 943 953
f 428 427 944
f 428 944 943
f 427 429 945
f 427 945 944
f 429 424 940
f 429 940 945
f 424 401 917
f 424 917 940
f 401 384 900
f 401 900 917
f 384 328 844
f 384 844 900
f 328 325 841
f 328 841 844
f 325 323 839
f 325 839 841
f 323 321 837
f 323 837 839
f 321 309 825
f 321 825 837
f 309 311 826
f 309 826 825
f 311 313 828
f 311 828 826
f 313 317 834
f 313 834 828
f 317 295 810
f 317 810 834
f 295 294 811
f 295 811 810
f 294 288 803
f 294 803 811
f 288 287 804
f 288 804 803
f 287 301 816
f 287 816 804
f 301 329 845
f 301 845 816
f 329 349 865
f 329 865 845
f 349 369 885
f 349 885 865
f 369 370 886
f 369 886 885
f 370 339 856
f 370 856 886
f 339 338 854
f 339 854 856
f 338 340 855
f 338 855 854
f 340 380 896
f 340 896 855
f 380 425 941
f 380 941 896
f 164 174 690
f 164 690 679
f 174 175 691
f 174 691 690
f 175 170 687
f 175 687 691
f 170 197 713
f 170 713 687
f 197 194 710
f 197 710 713
f 194 192 708
f 194 708 710
f 192 198 714
f 192 714 708
f 198 191 707
f 198 707 714
f 191 177 694
f 191 694 707
f 177 158 674
f 177 674 694
f 158 149 665
f 158 665 674
f 149 199 715
f 149 715 665
f 199 22 539
f 199 539 715
f 22 21 537
f 22 537 539
f 21 55 571
f 21 571 537
f 55 23 538
f 55 538 571
f 23 148 664
f 23 664 538
f 148 151 667
f 148 667 664
f 151 156 672
f 151 672 667
f 156 172 688
f 156 688 672
f 172 178 693
f 172 693 688
f 178 193 709
f 178 709 693
f 193 195 711
f 193 711 709
f 195 169 685
f 195 685 711
f 169 171 686
f 169 686 685
f 171 163 680
f 171 680 686
f 163 161 678
f 163 678 680
f 161 36 552
f 161 552 678
f 36 38 553
f 36 553 552
f 38 37 554
f 38 554 553
f 37 162 677
f 37 677 554
f 162 164 679
f 162 679 677
f 486 487 1003
f 486 1003 1001
f 487 494 1010
f 487 1010 1003
f 494 491 1007
f 494 1007 1010
f 491 496 1011
f 491 1011 1007
f 496 510 1026
f 496 1026 1011
f 510 511 1027
f 510 1027 1026
f 511 512 1028
f 511 1028 1027
f 512 509 1025
f 512 1025 1028
f 509 498 1014
f 509 1014 1025
f 498 488 1005
f 498 1005 1014
f 488 480 996
f 488 996 1005
f 480 514 1030
f 480 1030 996
f 514 347 863
f 514 863 1030
f 347 346 861
f 347 861 863
f 346 345 862
f 346 862 861
f 345 344 860
f 345 860 862
f 344 481 997
f 344 997 860
f 481 482 998
f 481 998 997
f 482 489 1004
f 482 1004 998
f 489 490 1006
f 489 1006 1004
f 490 497 1013
f 490 1013 1006
f 497 513 1029
f 497 1029 1013
f 513 495 1012
f 513 1012 1029
f 495 493 1008
f 495 1008 1012
f 493 492 1009
f 493 1009 1008
f 492 485 1002
f 492 1002 1009
f 485 483 1000
f 485 1000 1002
f 483 399 916
f 483 916 1000
f 399 398 914
f 399 914 916
f 398 400 915
f 398 915 914
f 400 484 999
f 400 999 915
f 484 486 1001
f 484 1001 999
f 402 516 1032
f 402 1032 918
f 516 367 883
f 516 883 1032
f 367 515 1031
f 367 1031 883
f 515 368 884
f 515 884 1031
f 368 366 882
f 368 882 884
f 366 364 881
f 366 881 882
f 364 362 878
f 364 878 881
f 362 359 876
f 362 876 878
f 359 357 874
f 359 874 876
f 357 355 871
f 357 871 874
f 355 352 869
f 355 869 871
f 352 354 870
f 352 870 869
f 354 351 867
f 354 867 870
f 351 353 868
f 351 868 867
f 353 356 872
f 353 872 868
f 356 358 873
f 356 873 872
f 358 360 875
f 358 875 873
f 360 361 877
f 360 877 875
f 361 363 879
f 361 879 877
f 363 365 880
f 363 880 879
f 365 402 918
f 365 918 880
f 213 205 722
f 213 722 729
f 205 204 720
f 205 720 722
f 204 202 718
f 204 718 720
f 202 142 658
f 202 658 718
f 142 69 585
f 142 585 658
f 69 66 583
f 69 583 585
f 66 63 579
f 66 579 583
f 63 43 560
f 63 560 579
f 43 39 555
f 43 555 560
f 39 30 546
f 39 546 555
f 30 24 540
f 30 540 546
f 24 29 545
f 24 545 540
f 29 34 550
f 29 550 545
f 34 33 548
f 34 548 550
f 33 61 577
f 33 577 548
f 61 58 573
f 61 573 577
f 58 65 581
f 58 581 573
f 65 71 587
f 65 587 581
f 71 168 683
f 71 683 587
f 168 173 689
f 168 689 683
f 173 201 716
f 173 716 689
f 201 241 756
f 201 756 716
f 241 240 757
f 241 757 756
f 240 213 729
f 240 729 757
f 255 228 744
f 255 744 771
f 228 230 745
f 228 745 744
f 230 222 738
f 230 738 745
f 222 135 651
f 222 651 738
f 135 136 652
f 135 652 651
f 136 130 646
f 136 646 652
f 130 127 643
f 130 643 646
f 127 111 627
f 127 627 643
f 111 105 621
f 111 621 627
f 105 97 613
f 105 613 621
f 97 94 610
f 97 610 613
f 94 85 602
f 94 602 610
f 85 80 596
f 85 596 602
f 80 90 606
f 80 606 596
f 90 118 634
f 90 634 606
f 118 120 636
f 118 636 634
f 120 126 642
f 120 642 636
f 126 125 641
f 126 641 642
f 125 212 727
f 125 727 641
f 212 232 747
f 212 747 727
f 232 237 753
f 232 753 747
f 237 250 767
f 237 767 753
f 250 249 765
f 250 765 767
f 249 255 771
f 249 771 765
f 51 49 565
f 51 565 567
f 49 17 533
f 49 533 565
f 17 13 529
f 17 529 533
f 13 4 520
f 13 520 529
f 4 8 524
f 4 524 520
f 8 1 517
f 8 517 524
f 1 10 526
f 1 526 517
f 10 45 561
f 10 561 526
f 45 46 562
f 45 562 561
f 46 47 563
f 46 563 562
f 47 72 588
f 47 588 563
f 72 145 661
f 72 661 588
f 145 147 662
f 145 662 661
f 147 152 668
f 147 668 662
f 152 153 669
f 152 669 668
f 153 181 696
f 153 696 669
f 181 183 699
f 181 699 696
f 183 187 702
f 183 702 699
f 187 159 675
f 187 675 702
f 159 155 671
f 159 671 675
f 155 143 660
f 155 660 671
f 143 59 575
f 143 575 660
f 59 52 569
f 59 569 575
f 52 51 567
f 52 567 569
f 392 394 909
f 392 909 908
f 394 391 907
f 394 907 909
f 391 387 903
f 391 903 907
f 387 330 846
f 387 846 903
f 330 337 853
f 330 853 846
f 337 335 850
f 337 850 853
f 335 374 890
f 335 890 850
f 374 373 889
f 374 889 890
f 373 378 894
f 373 894 889
f 378 371 887
f 378 887 894
f 371 382 898
f 371 898 887
f 382 465 982
f 382 982 898
f 465 464 980
f 465 980 982
f 464 470 986
f 464 986 980
f 470 471 987
f 470 987 986
f 471 473 989
f 471 989 987
f 473 501 1016
f 473 1016 989
f 501 500 1017
f 501 1017 1016
f 500 477 994
f 500 994 1017
f 477 475 991
f 477 991 994
f 475 467 984
f 475 984 991
f 467 403 919
f 467 919 984
f 403 396 913
f 403 913 919
f 396 392 908
f 396 908 913
f 307 306 822
f 307 822 823
f 306 304 820
f 306 820 822
f 304 302 819
f 304 819 820
f 302 278 795
f 302 795 819
f 278 276 791
f 278 791 795
f 276 272 789
f 276 789 791
f 272 113 629
f 272 629 789
f 113 109 626
f 113 626 629
f 109 131 647
f 109 647 626
f 131 138 654
f 131 654 647
f 138 140 656
f 138 656 654
f 140 141 657
f 140 657 656
f 141 225 741
f 141 741 657
f 225 234 750
f 225 750 741
f 234 261 776
f 234 776 750
f 261 423 938
f 261 938 776
f 423 448 964
f 423 964 938
f 448 412 928
f 448 928 964
f 412 414 929
f 412 929 928
f 414 407 923
f 414 923 929
f 407 406 921
f 407 921 923
f 406 405 922
f 406 922 921
f 405 308 824
f 405 824 922
f 308 307 823
f 308 823 824
f 248 217 733
f 248 733 764
f 217 245 761
f 217 761 733
f 245 218 734
f 245 734 761
f 218 208 724
f 218 724 734
f 208 116 633
f 208 633 724
f 116 115 631
f 116 631 633
f 115 87 603
f 115 603 631
f 87 76 593
f 87 593 603
f 76 74 591
f 76 591 593
f 74 73 589
f 74 589 591
f 73 79 595
f 73 595 589
f 79 84 600
f 79 600 595
f 84 83 599
f 84 599 600
f 83 89 605
f 83 605 599
f 89 78 594
f 89 594 605
f 78 75 590
f 78 590 594
f 75 77 592
f 75 592 590
f 77 88 604
f 77 604 592
f 88 117 632
f 88 632 604
f 117 121 637
f 117 637 632
f 121 122 638
f 121 638 637
f 122 220 736
f 122 736 638
f 220 219 735
f 220 735 736
f 219 216 732
f 219 732 735
f 216 244 760
f 216 760 732
f 244 248 764
f 244 764 760
f 431 455 971
f 431 971 948
f 455 454 970
f 455 970 971
f 454 441 957
f 454 957 970
f 441 462 978
f 441 978 957
f 462 417 933
f 462 933 978
f 417 461 977
f 417 977 933
f 461 450 966
f 461 966 977
f 450 421 937
f 450 937 966
f 421 411 927
f 421 927 937
f 411 408 924
f 411 924 927
f 408 453 969
f 408 969 924
f 453 315 831
f 453 831 969
f 315 299 814
f 315 814 831
f 299 298 815
f 299 815 814
f 298 297 813
f 298 813 815
f 297 314 830
f 297 830 813
f 314 410 925
f 314 925 830
f 410 409 926
f 410 926 925
f 409 416 932
f 409 932 926
f 416 420 936
f 416 936 932
f 420 419 934
f 420 934 936
f 419 418 935
f 419 935 934
f 418 433 949
f 418 949 935
f 433 430 946
f 433 946 949
f 430 432 947
f 430 947 946
f 432 431 948
f 432 948 947
f 383 379 895
f 383 895 899
f 379 376 892
f 379 892 895
f 376 375 891
f 376 891 892
f 375 372 888
f 375 888 891
f 372 350 866
f 372 866 888
f 350 319 835
f 350 835 866
f 319 300 817
f 319 817 835
f 300 286 802
f 300 802 817
f 286 296 812
f 286 812 802
f 296 293 809
f 296 809 812
f 293 318 833
f 293 833 809
f 318 312 829
f 318 829 833
f 312 310 827
f 312 827 829
f 310 320 836
f 310 836 827
f 320 322 838
f 320 838 836
f 322 324 840
f 322 840 838
f 324 326 842
f 324 842 840
f 326 327 843
f 326 843 842
f 327 385 901
f 327 901 843
f 385 383 899
f 385 899 901

