# https://github.com/mikedh/trimesh
v 0.00991431 0.00000000 1.03543305
v 0.00991431 -0.00000000 1.05118108
v 0.00986740 0.00214975 1.03543305
v 0.00986740 0.00214975 1.05118108
v 0.00972676 0.00429542 1.03543305
v 0.00972676 0.00429542 1.05118108
v 0.00949267 0.00643290 1.03543305
v 0.00949267 0.00643290 1.05118108
v 0.00916557 0.00855814 1.03543305
v 0.00916557 0.00855814 1.05118108
v 0.00874607 0.01066709 1.03543305
v 0.00874607 0.01066709 1.05118108
v 0.00823498 0.01275574 1.03543305
v 0.00823498 0.01275574 1.05118108
v 0.00763328 0.01482010 1.03543305
v 0.00763328 0.01482010 1.05118108
v 0.00694209 0.01685625 1.03543305
v 0.00694209 0.01685625 1.05118108
v 0.00616276 0.01886032 1.03543305
v 0.00616276 0.01886032 1.05118108
v 0.00529674 0.02082848 1.03543305
v 0.00529674 0.02082848 1.05118108
v 0.00434570 0.02275700 1.03543305
v 0.00434570 0.02275700 1.05118108
v 0.00331145 0.02464219 1.03543305
v 0.00331145 0.02464219 1.05118108
v 0.00219595 0.02648048 1.03543305
v 0.00219595 0.02648048 1.05118108
v 0.00100133 0.02826836 1.03543305
v 0.00100133 0.02826836 1.05118108
v -0.00027015 0.03000243 1.03543305
v -0.00027015 0.03000243 1.05118108
v -0.00161605 0.03167939 1.03543305
v -0.00161605 0.03167939 1.05118108
v -0.00303382 0.03329605 1.03543305
v -0.00303382 0.03329605 1.05118108
v -0.00452076 0.03484932 1.03543305
v -0.00452076 0.03484932 1.05118108
v -0.00607403 0.03633626 1.03543305
v -0.00607403 0.03633626 1.05118108
v -0.00769069 0.03775403 1.03543305
v -0.00769069 0.03775403 1.05118108
v -0.00936765 0.03909993 1.03543305
v -0.00936765 0.03909993 1.05118108
v -0.01110172 0.04037140 1.03543305
v -0.01110172 0.04037140 1.05118108
v -0.01288960 0.04156603 1.03543305
v -0.01288960 0.04156603 1.05118108
v -0.01472789 0.04268153 1.03543305
v -0.01472789 0.04268153 1.05118108
v -0.01661308 0.04371578 1.03543305
v -0.01661308 0.04371578 1.05118108
v -0.01854160 0.04466682 1.03543305
v -0.01854160 0.04466682 1.05118108
v -0.02050976 0.04553283 1.03543305
v -0.02050976 0.04553283 1.05118108
v -0.02251383 0.04631217 1.03543305
v -0.02251383 0.04631217 1.05118108
v -0.02454998 0.04700335 1.03543305
v -0.02454998 0.04700335 1.05118108
v -0.02661434 0.04760506 1.03543305
v -0.02661434 0.04760506 1.05118108
v -0.02870299 0.04811615 1.03543305
v -0.02870299 0.04811615 1.05118108
v -0.03081193 0.04853565 1.03543305
v -0.03081193 0.04853565 1.05118108
v -0.03293718 0.04886275 1.03543305
v -0.03293718 0.04886275 1.05118108
v -0.03507466 0.04909684 1.03543305
v -0.03507466 0.04909684 1.05118108
v -0.03722033 0.04923747 1.03543305
v -0.03722033 0.04923747 1.05118108
v -0.03937008 0.04928438 1.03543305
v -0.03937008 0.04928438 1.05118108
v -0.04151983 0.04923747 1.03543305
v -0.04151983 0.04923747 1.05118108
v -0.04366549 0.04909684 1.03543305
v -0.04366549 0.04909684 1.05118108
v -0.04580298 0.04886275 1.03543305
v -0.04580298 0.04886275 1.05118108
v -0.04792823 0.04853565 1.03543305
v -0.04792823 0.04853565 1.05118108
v -0.05003717 0.04811615 1.03543305
v -0.05003717 0.04811615 1.05118108
v -0.05212582 0.04760506 1.03543305
v -0.05212582 0.04760506 1.05118108
v -0.05419018 0.04700335 1.03543305
v -0.05419018 0.04700335 1.05118108
v -0.05622633 0.04631217 1.03543305
v -0.05622633 0.04631217 1.05118108
v -0.05823040 0.04553283 1.03543305
v -0.05823040 0.04553283 1.05118108
v -0.06019856 0.04466682 1.03543305
v -0.06019856 0.04466682 1.05118108
v -0.06212708 0.04371578 1.03543305
v -0.06212708 0.04371578 1.05118108
v -0.06401227 0.04268153 1.03543305
v -0.06401227 0.04268153 1.05118108
v -0.06585056 0.04156603 1.03543305
v -0.06585056 0.04156603 1.05118108
v -0.06763844 0.04037140 1.03543305
v -0.06763844 0.04037140 1.05118108
v -0.06937251 0.03909993 1.03543305
v -0.06937251 0.03909993 1.05118108
v -0.07104947 0.03775403 1.03543305
v -0.07104947 0.03775403 1.05118108
v -0.07266613 0.03633626 1.03543305
v -0.07266613 0.03633626 1.05118108
v -0.07421940 0.03484932 1.03543305
v -0.07421940 0.03484932 1.05118108
v -0.07570634 0.03329605 1.03543305
v -0.07570634 0.03329605 1.05118108
v -0.07712410 0.03167939 1.03543305
v -0.07712410 0.03167939 1.05118108
v -0.07847001 0.03000243 1.03543305
v -0.07847001 0.03000243 1.05118108
v -0.07974148 0.02826836 1.03543305
v -0.07974148 0.02826836 1.05118108
v -0.08093611 0.02648048 1.03543305
v -0.08093611 0.02648048 1.05118108
v -0.08205161 0.02464219 1.03543305
v -0.08205161 0.02464219 1.05118108
v -0.08308586 0.02275700 1.03543305
v -0.08308586 0.02275700 1.05118108
v -0.08403690 0.02082848 1.03543305
v -0.08403690 0.02082848 1.05118108
v -0.08490291 0.01886032 1.03543305
v -0.08490291 0.01886032 1.05118108
v -0.08568226 0.01685625 1.03543305
v -0.08568226 0.01685625 1.05118108
v -0.08637343 0.01482010 1.03543305
v -0.08637343 0.01482010 1.05118108
v -0.08697514 0.01275574 1.03543305
v -0.08697514 0.01275574 1.05118108
v -0.08748622 0.01066709 1.03543305
v -0.08748622 0.01066709 1.05118108
v -0.08790572 0.00855814 1.03543305
v -0.08790572 0.00855814 1.05118108
v -0.08823283 0.00643290 1.03543305
v -0.08823283 0.00643290 1.05118108
v -0.08846692 0.00429542 1.03543305
v -0.08846692 0.00429542 1.05118108
v -0.08860756 0.00214975 1.03543305
v -0.08860756 0.00214975 1.05118108
v -0.08865447 0.00000000 1.03543305
v -0.08865447 0.00000000 1.05118108
v -0.08860756 -0.00214975 1.03543305
v -0.08860756 -0.00214975 1.05118108
v -0.08846692 -0.00429542 1.03543305
v -0.08846692 -0.00429542 1.05118108
v -0.08823283 -0.00643290 1.03543305
v -0.08823283 -0.00643290 1.05118108
v -0.08790572 -0.00855814 1.03543305
v -0.08790572 -0.00855814 1.05118108
v -0.08748622 -0.01066709 1.03543305
v -0.08748622 -0.01066709 1.05118108
v -0.08697514 -0.01275574 1.03543305
v -0.08697514 -0.01275574 1.05118108
v -0.08637343 -0.01482010 1.03543305
v -0.08637343 -0.01482010 1.05118108
v -0.08568226 -0.01685625 1.03543305
v -0.08568226 -0.01685625 1.05118108
v -0.08490291 -0.01886032 1.03543305
v -0.08490291 -0.01886032 1.05118108
v -0.08403690 -0.02082848 1.03543305
v -0.08403690 -0.02082848 1.05118108
v -0.08308586 -0.02275700 1.03543305
v -0.08308586 -0.02275700 1.05118108
v -0.08205161 -0.02464219 1.03543305
v -0.08205161 -0.02464219 1.05118108
v -0.08093611 -0.02648048 1.03543305
v -0.08093611 -0.02648048 1.05118108
v -0.07974148 -0.02826836 1.03543305
v -0.07974148 -0.02826836 1.05118108
v -0.07847001 -0.03000243 1.03543305
v -0.07847001 -0.03000243 1.05118108
v -0.07712410 -0.03167939 1.03543305
v -0.07712410 -0.03167939 1.05118108
v -0.07570634 -0.03329605 1.03543305
v -0.07570634 -0.03329605 1.05118108
v -0.07421940 -0.03484932 1.03543305
v -0.07421940 -0.03484932 1.05118108
v -0.07266613 -0.03633626 1.03543305
v -0.07266613 -0.03633626 1.05118108
v -0.07104947 -0.03775403 1.03543305
v -0.07104947 -0.03775403 1.05118108
v -0.06937251 -0.03909993 1.03543305
v -0.06937251 -0.03909993 1.05118108
v -0.06763844 -0.04037140 1.03543305
v -0.06763844 -0.04037140 1.05118108
v -0.06585056 -0.04156603 1.03543305
v -0.06585056 -0.04156603 1.05118108
v -0.06401227 -0.04268153 1.03543305
v -0.06401227 -0.04268153 1.05118108
v -0.06212708 -0.04371578 1.03543305
v -0.06212708 -0.04371578 1.05118108
v -0.06019856 -0.04466682 1.03543305
v -0.06019856 -0.04466682 1.05118108
v -0.05823040 -0.04553283 1.03543305
v -0.05823040 -0.04553283 1.05118108
v -0.05622633 -0.04631217 1.03543305
v -0.05622633 -0.04631217 1.05118108
v -0.05419018 -0.04700335 1.03543305
v -0.05419018 -0.04700335 1.05118108
v -0.05212582 -0.04760506 1.03543305
v -0.05212582 -0.04760506 1.05118108
v -0.05003717 -0.04811615 1.03543305
v -0.05003717 -0.04811615 1.05118108
v -0.04792823 -0.04853565 1.03543305
v -0.04792823 -0.04853565 1.05118108
v -0.04580298 -0.04886275 1.03543305
v -0.04580298 -0.04886275 1.05118108
v -0.04366549 -0.04909684 1.03543305
v -0.04366549 -0.04909684 1.05118108
v -0.04151983 -0.04923747 1.03543305
v -0.04151983 -0.04923747 1.05118108
v -0.03937008 -0.04928438 1.03543305
v -0.03937008 -0.04928438 1.05118108
v -0.03722033 -0.04923747 1.03543305
v -0.03722033 -0.04923747 1.05118108
v -0.03507466 -0.04909684 1.03543305
v -0.03507466 -0.04909684 1.05118108
v -0.03293718 -0.04886275 1.03543305
v -0.03293718 -0.04886275 1.05118108
v -0.03081193 -0.04853565 1.03543305
v -0.03081193 -0.04853565 1.05118108
v -0.02870299 -0.04811615 1.03543305
v -0.02870299 -0.04811615 1.05118108
v -0.02661434 -0.04760506 1.03543305
v -0.02661434 -0.04760506 1.05118108
v -0.02454998 -0.04700335 1.03543305
v -0.02454998 -0.04700335 1.05118108
v -0.02251383 -0.04631217 1.03543305
v -0.02251383 -0.04631217 1.05118108
v -0.02050976 -0.04553283 1.03543305
v -0.02050976 -0.04553283 1.05118108
v -0.01854160 -0.04466682 1.03543305
v -0.01854160 -0.04466682 1.05118108
v -0.01661308 -0.04371578 1.03543305
v -0.01661308 -0.04371578 1.05118108
v -0.01472789 -0.04268153 1.03543305
v -0.01472789 -0.04268153 1.05118108
v -0.01288960 -0.04156603 1.03543305
v -0.01288960 -0.04156603 1.05118108
v -0.01110172 -0.04037140 1.03543305
v -0.01110172 -0.04037140 1.05118108
v -0.00936765 -0.03909993 1.03543305
v -0.00936765 -0.03909993 1.05118108
v -0.00769069 -0.03775403 1.03543305
v -0.00769069 -0.03775403 1.05118108
v -0.00607403 -0.03633626 1.03543305
v -0.00607403 -0.03633626 1.05118108
v -0.00452076 -0.03484932 1.03543305
v -0.00452076 -0.03484932 1.05118108
v -0.00303382 -0.03329605 1.03543305
v -0.00303382 -0.03329605 1.05118108
v -0.00161605 -0.03167939 1.03543305
v -0.00161605 -0.03167939 1.05118108
v -0.00027015 -0.03000243 1.03543305
v -0.00027015 -0.03000243 1.05118108
v 0.00100133 -0.02826836 1.03543305
v 0.00100133 -0.02826836 1.05118108
v 0.00219595 -0.02648048 1.03543305
v 0.00219595 -0.02648048 1.05118108
v 0.00331145 -0.02464219 1.03543305
v 0.00331145 -0.02464219 1.05118108
v 0.00434570 -0.02275700 1.03543305
v 0.00434570 -0.02275700 1.05118108
v 0.00529674 -0.02082848 1.03543305
v 0.00529674 -0.02082848 1.05118108
v 0.00616276 -0.01886032 1.03543305
v 0.00616276 -0.01886032 1.05118108
v 0.00694209 -0.01685625 1.03543305
v 0.00694209 -0.01685625 1.05118108
v 0.00763328 -0.01482010 1.03543305
v 0.00763328 -0.01482010 1.05118108
v 0.00823498 -0.01275574 1.03543305
v 0.00823498 -0.01275574 1.05118108
v 0.00874607 -0.01066709 1.03543305
v 0.00874607 -0.01066709 1.05118108
v 0.00916557 -0.00855814 1.03543305
v 0.00916557 -0.00855814 1.05118108
v 0.00949267 -0.00643290 1.03543305
v 0.00949267 -0.00643290 1.05118108
v 0.00972676 -0.00429542 1.03543305
v 0.00972676 -0.00429542 1.05118108
v 0.00986740 -0.00214975 1.03543305
v 0.00986740 -0.00214975 1.05118108
v -0.18700787 0.14763780 0.79921263
v 0.18700787 0.14763780 0.79921263
v -0.18700787 0.14763780 0.00000000
v 0.18700787 0.14763780 0.00000000
v 0.06992306 -0.01438871 1.03543305
v 0.06919140 -0.01914232 1.03543305
v 0.06825310 -0.02385949 1.03543305
v 0.06710993 -0.02853123 1.03543305
v 0.06576408 -0.03314867 1.03543305
v 0.06421808 -0.03770301 1.03543305
v 0.06247491 -0.04218557 1.03543305
v 0.06053786 -0.04658784 1.03543305
v 0.05841064 -0.05090142 1.03543305
v 0.05609729 -0.05511811 1.03543305
v 0.05360221 -0.05922988 1.03543305
v 0.05093015 -0.06322890 1.03543305
v 0.04808620 -0.06710756 1.03543305
v 0.04507577 -0.07085848 1.03543305
v 0.04190459 -0.07447451 1.03543305
v 0.03857870 -0.07794878 1.03543305
v 0.03510443 -0.08127467 1.03543305
v 0.03148840 -0.08444584 1.03543305
v 0.02773748 -0.08745628 1.03543305
v 0.02385882 -0.09030022 1.03543305
v 0.01985980 -0.09297229 1.03543305
v 0.01574803 -0.09546737 1.03543305
v 0.01153134 -0.09778072 1.03543305
v 0.00721776 -0.09990794 1.03543305
v 0.00281550 -0.10184499 1.03543305
v -0.00166707 -0.10358816 1.03543305
v -0.00622141 -0.10513415 1.03543305
v -0.01083884 -0.10648002 1.03543305
v -0.01551059 -0.10762317 1.03543305
v -0.02022776 -0.10856149 1.03543305
v -0.02498136 -0.10929313 1.03543305
v -0.02976236 -0.10981674 1.03543305
v -0.03456164 -0.11013129 1.03543305
v -0.03937008 -0.11023622 1.03543305
v -0.04417852 -0.11013129 1.03543305
v -0.04897780 -0.10981674 1.03543305
v -0.05375879 -0.10929313 1.03543305
v -0.05851240 -0.10856149 1.03543305
v -0.06322957 -0.10762317 1.03543305
v -0.06790131 -0.10648002 1.03543305
v -0.07251875 -0.10513415 1.03543305
v -0.07707308 -0.10358816 1.03543305
v -0.08155565 -0.10184499 1.03543305
v -0.08595792 -0.09990794 1.03543305
v -0.09027150 -0.09778072 1.03543305
v -0.09448820 -0.09546737 1.03543305
v -0.09859996 -0.09297229 1.03543305
v -0.10259898 -0.09030022 1.03543305
v -0.10647763 -0.08745628 1.03543305
v -0.11022855 -0.08444584 1.03543305
v -0.11384459 -0.08127467 1.03543305
v -0.11731886 -0.07794878 1.03543305
v -0.12064475 -0.07447451 1.03543305
v -0.12381592 -0.07085848 1.03543305
v -0.12682635 -0.06710756 1.03543305
v -0.12967031 -0.06322890 1.03543305
v -0.13234237 -0.05922988 1.03543305
v -0.13483745 -0.05511811 1.03543305
v -0.13715079 -0.05090142 1.03543305
v -0.13927802 -0.04658784 1.03543305
v -0.14121507 -0.04218557 1.03543305
v -0.14295824 -0.03770301 1.03543305
v -0.14450423 -0.03314867 1.03543305
v -0.14585009 -0.02853123 1.03543305
v -0.14699326 -0.02385949 1.03543305
v -0.14793156 -0.01914232 1.03543305
v -0.14866321 -0.01438871 1.03543305
v -0.14918682 -0.00960772 1.03543305
v -0.14950138 -0.00480844 1.03543305
v -0.14960630 0.00000000 1.03543305
v -0.14950138 0.00480844 1.03543305
v -0.14918682 0.00960772 1.03543305
v -0.14866321 0.01438871 1.03543305
v -0.14793156 0.01914232 1.03543305
v -0.14699326 0.02385949 1.03543305
v -0.14585009 0.02853123 1.03543305
v -0.14450423 0.03314867 1.03543305
v -0.14295824 0.03770301 1.03543305
v -0.14121507 0.04218557 1.03543305
v -0.13927802 0.04658784 1.03543305
v -0.13715079 0.05090142 1.03543305
v -0.13483745 0.05511811 1.03543305
v -0.13234237 0.05922988 1.03543305
v -0.12967031 0.06322890 1.03543305
v -0.12682635 0.06710756 1.03543305
v -0.12381592 0.07085848 1.03543305
v -0.12064475 0.07447451 1.03543305
v -0.11731886 0.07794878 1.03543305
v -0.11384459 0.08127467 1.03543305
v -0.11022855 0.08444584 1.03543305
v -0.10647763 0.08745628 1.03543305
v -0.10259898 0.09030022 1.03543305
v -0.09859996 0.09297229 1.03543305
v -0.09448820 0.09546737 1.03543305
v -0.09027150 0.09778072 1.03543305
v -0.08595792 0.09990794 1.03543305
v -0.08155565 0.10184499 1.03543305
v -0.07707308 0.10358816 1.03543305
v -0.07251875 0.10513415 1.03543305
v -0.06790131 0.10648002 1.03543305
v -0.06322957 0.10762317 1.03543305
v -0.05851240 0.10856149 1.03543305
v -0.05375879 0.10929313 1.03543305
v -0.04897780 0.10981674 1.03543305
v -0.04417852 0.11013129 1.03543305
v -0.03937008 0.11023622 1.03543305
v -0.03456164 0.11013129 1.03543305
v -0.02976236 0.10981674 1.03543305
v -0.02498136 0.10929313 1.03543305
v -0.02022776 0.10856149 1.03543305
v -0.01551059 0.10762317 1.03543305
v -0.01083884 0.10648002 1.03543305
v -0.00622141 0.10513415 1.03543305
v -0.00166707 0.10358816 1.03543305
v 0.00281550 0.10184499 1.03543305
v 0.00721776 0.09990794 1.03543305
v 0.01153134 0.09778072 1.03543305
v 0.01574803 0.09546737 1.03543305
v 0.01985980 0.09297229 1.03543305
v 0.02385882 0.09030022 1.03543305
v 0.02773748 0.08745628 1.03543305
v 0.03148840 0.08444584 1.03543305
v 0.03510443 0.08127467 1.03543305
v 0.03857870 0.07794878 1.03543305
v 0.04190459 0.07447451 1.03543305
v 0.04507577 0.07085848 1.03543305
v 0.04808620 0.06710756 1.03543305
v 0.05093015 0.06322890 1.03543305
v 0.05360221 0.05922988 1.03543305
v 0.05609729 0.05511811 1.03543305
v 0.05841064 0.05090142 1.03543305
v 0.06053786 0.04658784 1.03543305
v 0.06247491 0.04218557 1.03543305
v 0.06421808 0.03770301 1.03543305
v 0.06576408 0.03314867 1.03543305
v 0.06710993 0.02853123 1.03543305
v 0.06825310 0.02385949 1.03543305
v 0.06919140 0.01914232 1.03543305
v 0.06992306 0.01438871 1.03543305
v 0.07044666 0.00960772 1.03543305
v 0.07076122 0.00480844 1.03543305
v 0.07086614 0.00000000 1.03543305
v 0.07076122 -0.00480844 1.03543305
v 0.07044666 -0.00960772 1.03543305
v -0.16732284 -0.12401575 0.78740156
v 0.16732284 -0.12401575 0.78740156
v -0.16732284 -0.12401575 0.00000000
v 0.16732284 -0.12401575 0.00000000
v 0.04211767 -0.10619691 1.05118108
v 0.04667236 -0.10254139 1.05118108
v 0.05106326 -0.09869067 1.05118108
v 0.05528201 -0.09465209 1.05118108
v 0.05932059 -0.09043334 1.05118108
v 0.06317130 -0.08604243 1.05118108
v 0.06682683 -0.08148775 1.05118108
v 0.07028019 -0.07677795 1.05118108
v 0.07352484 -0.07192200 1.05118108
v 0.07655458 -0.06692913 1.05118108
v 0.07936365 -0.06180887 1.05118108
v 0.08194672 -0.05657095 1.05118108
v 0.08429883 -0.05122534 1.05118108
v 0.08641555 -0.04578222 1.05118108
v 0.08829281 -0.04025196 1.05118108
v 0.08992708 -0.03464507 1.05118108
v 0.09131522 -0.02897223 1.05118108
v 0.09245458 -0.02324424 1.05118108
v 0.09334301 -0.01747201 1.05118108
v 0.09397881 -0.01166652 1.05118108
v 0.09436079 -0.00583882 1.05118108
v 0.09448820 0.00000000 1.05118108
v 0.09436079 0.00583882 1.05118108
v 0.09397881 0.01166652 1.05118108
v 0.09334301 0.01747201 1.05118108
v 0.09245458 0.02324424 1.05118108
v 0.09131522 0.02897223 1.05118108
v 0.08992708 0.03464507 1.05118108
v 0.08829281 0.04025196 1.05118108
v 0.08641555 0.04578222 1.05118108
v 0.08429883 0.05122534 1.05118108
v 0.08194672 0.05657095 1.05118108
v 0.07936365 0.06180887 1.05118108
v 0.07655458 0.06692913 1.05118108
v 0.07352484 0.07192200 1.05118108
v 0.07028019 0.07677795 1.05118108
v 0.06682683 0.08148775 1.05118108
v 0.06317130 0.08604243 1.05118108
v 0.05932059 0.09043334 1.05118108
v 0.05528201 0.09465209 1.05118108
v 0.05106326 0.09869067 1.05118108
v 0.04667236 0.10254139 1.05118108
v 0.04211767 0.10619691 1.05118108
v 0.03740787 0.10965027 1.05118108
v 0.03255192 0.11289492 1.05118108
v 0.02755906 0.11592466 1.05118108
v 0.02243879 0.11873373 1.05118108
v 0.01720087 0.12131679 1.05118108
v 0.01185526 0.12366892 1.05118108
v 0.00641215 0.12578563 1.05118108
v 0.00088188 0.12766290 1.05118108
v -0.00472501 0.12929715 1.05118108
v -0.01039785 0.13068528 1.05118108
v -0.01612583 0.13182466 1.05118108
v -0.02189807 0.13271309 1.05118108
v -0.02770356 0.13334890 1.05118108
v -0.03353126 0.13373086 1.05118108
v -0.03937008 0.13385826 1.05118108
v -0.04520890 0.13373086 1.05118108
v -0.05103660 0.13334890 1.05118108
v -0.05684209 0.13271309 1.05118108
v -0.06261432 0.13182466 1.05118108
v -0.06834231 0.13068528 1.05118108
v -0.07401515 0.12929715 1.05118108
v -0.07962204 0.12766290 1.05118108
v -0.08515230 0.12578563 1.05118108
v -0.09059542 0.12366892 1.05118108
v -0.09594103 0.12131679 1.05118108
v -0.10117895 0.11873373 1.05118108
v -0.10629921 0.11592466 1.05118108
v -0.11129208 0.11289492 1.05118108
v -0.11614802 0.10965027 1.05118108
v -0.12085783 0.10619691 1.05118108
v -0.12541251 0.10254139 1.05118108
v -0.12980342 0.09869067 1.05118108
v -0.13402216 0.09465209 1.05118108
v -0.13806075 0.09043334 1.05118108
v -0.14191146 0.08604243 1.05118108
v -0.14556699 0.08148775 1.05118108
v -0.14902036 0.07677795 1.05118108
v -0.15226500 0.07192200 1.05118108
v -0.15529475 0.06692913 1.05118108
v -0.15810381 0.06180887 1.05118108
v -0.16068688 0.05657095 1.05118108
v -0.16303900 0.05122534 1.05118108
v -0.16515571 0.04578222 1.05118108
v -0.16703297 0.04025196 1.05118108
v -0.16866723 0.03464507 1.05118108
v -0.17005537 0.02897223 1.05118108
v -0.17119475 0.02324424 1.05118108
v -0.17208317 0.01747201 1.05118108
v -0.17271897 0.01166652 1.05118108
v -0.17310095 0.00583882 1.05118108
v -0.17322834 0.00000000 1.05118108
v -0.17310095 -0.00583882 1.05118108
v -0.17271897 -0.01166652 1.05118108
v -0.17208317 -0.01747201 1.05118108
v -0.17119475 -0.02324424 1.05118108
v -0.17005537 -0.02897223 1.05118108
v -0.16866723 -0.03464507 1.05118108
v -0.16703297 -0.04025196 1.05118108
v -0.16515571 -0.04578222 1.05118108
v -0.16303900 -0.05122534 1.05118108
v -0.16068688 -0.05657095 1.05118108
v -0.15810381 -0.06180887 1.05118108
v -0.15529475 -0.06692913 1.05118108
v -0.15226500 -0.07192200 1.05118108
v -0.14902036 -0.07677795 1.05118108
v -0.14556699 -0.08148775 1.05118108
v -0.14191146 -0.08604243 1.05118108
v -0.13806075 -0.09043334 1.05118108
v -0.13402216 -0.09465209 1.05118108
v -0.12980342 -0.09869067 1.05118108
v -0.12541251 -0.10254139 1.05118108
v -0.12085783 -0.10619691 1.05118108
v -0.11614802 -0.10965027 1.05118108
v -0.11129208 -0.11289492 1.05118108
v -0.10629921 -0.11592466 1.05118108
v -0.10117895 -0.11873373 1.05118108
v -0.09594103 -0.12131679 1.05118108
v -0.09059542 -0.12366892 1.05118108
v -0.08515230 -0.12578563 1.05118108
v -0.07962204 -0.12766290 1.05118108
v -0.07401515 -0.12929715 1.05118108
v -0.06834231 -0.13068528 1.05118108
v -0.06261432 -0.13182466 1.05118108
v -0.05684209 -0.13271309 1.05118108
v -0.05103660 -0.13334890 1.05118108
v -0.04520890 -0.13373086 1.05118108
v -0.03937008 -0.13385826 1.05118108
v -0.03353126 -0.13373086 1.05118108
v -0.02770356 -0.13334890 1.05118108
v -0.02189807 -0.13271309 1.05118108
v -0.01612583 -0.13182466 1.05118108
v -0.01039785 -0.13068528 1.05118108
v -0.00472501 -0.12929715 1.05118108
v 0.00088188 -0.12766290 1.05118108
v 0.00641215 -0.12578563 1.05118108
v 0.01185526 -0.12366892 1.05118108
v 0.01720087 -0.12131679 1.05118108
v 0.02243879 -0.11873373 1.05118108
v 0.02755906 -0.11592466 1.05118108
v 0.03255192 -0.11289492 1.05118108
v 0.03740787 -0.10965027 1.05118108
v 0.16732284 0.12401575 0.78740156
v -0.16732284 0.12401575 0.78740156
v 0.16732284 0.12401575 0.00000000
v -0.16732284 0.12401575 0.00000000
v 0.18700787 -0.14763780 0.79921263
v 0.18700787 -0.14763780 0.00000000
v 0.15424494 0.07100940 0.78740156
v 0.15500839 0.07215198 0.78740156
v 0.15804149 0.07830251 0.78740156
v 0.15754345 0.07702178 0.78740156
v 0.15699001 0.07576399 0.78740156
v 0.15994094 0.08907481 0.78740156
v 0.15991096 0.09044865 0.78740156
v 0.14761847 0.06408729 0.78740156
v 0.14869016 0.06494742 0.78740156
v 0.15572128 0.07332677 0.78740156
v 0.15638222 0.07453154 0.78740156
v 0.15848322 0.07960375 0.78740156
v 0.15886773 0.08092302 0.78740156
v 0.15919437 0.08225781 0.78740156
v 0.15991096 0.08770096 0.78740156
v 0.15982109 0.09181986 0.78740156
v 0.15967150 0.09318586 0.78740156
v 0.15946245 0.09454404 0.78740156
v 0.09884827 0.07830251 0.78740156
v 0.09934632 0.07702178 0.78740156
v 0.06710993 -0.02853123 0.78740156
v 0.10264482 0.07100940 0.78740156
v 0.06576408 -0.03314867 0.78740156
v 0.10188137 0.07215198 0.78740156
v 0.10116849 0.07332677 0.78740156
v -0.11384459 -0.08127467 0.78740156
v -0.11022855 -0.08444584 0.78740156
v -0.10647763 -0.08745628 0.78740156
v 0.14651027 0.06327474 0.78740156
v 0.14972331 0.06585347 0.78740156
v 0.15071596 0.06680372 0.78740156
v 0.15166621 0.06779637 0.78740156
v 0.15257226 0.06882952 0.78740156
v 0.15343238 0.06990121 0.78740156
v 0.15946245 0.08360557 0.78740156
v 0.15967150 0.08496375 0.78740156
v 0.15982109 0.08632974 0.78740156
v 0.15919437 0.09589180 0.78740156
v 0.15886773 0.09722658 0.78740156
v 0.15848322 0.09854586 0.78740156
v 0.15804149 0.09984709 0.78740156
v 0.15754345 0.10112783 0.78740156
v 0.15699001 0.10238562 0.78740156
v 0.15638222 0.10361807 0.78740156
v 0.15572128 0.10482283 0.78740156
v 0.15500839 0.10599763 0.78740156
v 0.09697879 0.08770096 0.78740156
v 0.09706867 0.08632974 0.78740156
v 0.09989975 0.07576399 0.78740156
v 0.10050754 0.07453154 0.78740156
v 0.10345737 0.06990121 0.78740156
v 0.10431749 0.06882952 0.78740156
v 0.06421808 -0.03770301 0.78740156
v -0.14918682 -0.00960772 0.78740156
v -0.14866321 -0.01438871 0.78740156
v -0.06790131 -0.10648002 0.78740156
v -0.06322957 -0.10762317 0.78740156
v 0.13791592 0.05903647 0.78740156
v 0.13921717 0.05947818 0.78740156
v 0.15257226 0.10932008 0.78740156
v 0.15166621 0.11035324 0.78740156
v 0.15071596 0.11134589 0.78740156
v 0.14972331 0.11229613 0.78740156
v 0.14869016 0.11320218 0.78740156
v 0.14761847 0.11406231 0.78740156
v 0.00281550 0.10184499 0.78740156
v -0.00166707 0.10358816 0.78740156
v 0.09742732 0.09454404 0.78740156
v 0.09721827 0.08496375 0.78740156
v 0.09742732 0.08360557 0.78740156
v 0.09769540 0.08225781 0.78740156
v 0.10522354 0.06779637 0.78740156
v 0.10617380 0.06680372 0.78740156
v 0.06247491 -0.04218557 0.78740156
v 0.10716645 0.06585347 0.78740156
v 0.10819960 0.06494742 0.78740156
v 0.15424494 0.10714020 0.78740156
v 0.15343238 0.10824839 0.78740156
v 0.14419292 0.11635119 0.78740156
v 0.14298815 0.11701216 0.78740156
v 0.10264482 0.10714020 0.78740156
v 0.10188137 0.10599763 0.78740156
v 0.09840655 0.09854586 0.78740156
v 0.09802202 0.09722658 0.78740156
v 0.06919140 -0.01914232 0.78740156
v 0.06992306 -0.01438871 0.78740156
v 0.09694882 0.08907481 0.78740156
v 0.07044666 -0.00960772 0.78740156
v 0.07076122 -0.00480844 0.78740156
v 0.07086614 0.00000000 0.78740156
v 0.07076122 0.00480844 0.78740156
v 0.09802202 0.08092302 0.78740156
v 0.09840655 0.07960375 0.78740156
v -0.14585009 -0.02853123 0.78740156
v -0.14450423 -0.03314867 0.78740156
v -0.13927802 -0.04658784 0.78740156
v -0.13715079 -0.05090142 0.78740156
v -0.13483745 -0.05511811 0.78740156
v -0.13234237 -0.05922988 0.78740156
v -0.12967031 -0.06322890 0.78740156
v -0.12682635 -0.06710756 0.78740156
v -0.12381592 -0.07085848 0.78740156
v -0.12064475 -0.07447451 0.78740156
v -0.11731886 -0.07794878 0.78740156
v -0.00622141 -0.10513415 0.78740156
v -0.00166707 -0.10358816 0.78740156
v 0.14049791 0.05997624 0.78740156
v 0.14175569 0.06052968 0.78740156
v 0.14298815 0.06113745 0.78740156
v 0.14651027 0.11487486 0.78740156
v 0.14536770 0.11563831 0.78740156
v 0.09989975 0.10238562 0.78740156
v 0.09934632 0.10112783 0.78740156
v 0.09884827 0.09984709 0.78740156
v 0.06825310 -0.02385949 0.78740156
v 0.06919140 0.01914232 0.78740156
v 0.06825310 0.02385949 0.78740156
v 0.10927129 0.06408729 0.78740156
v 0.11037948 0.06327474 0.78740156
v 0.06053786 -0.04658784 0.78740156
v 0.11152206 0.06251130 0.78740156
v 0.11269685 0.06179841 0.78740156
v 0.11390162 0.06113745 0.78740156
v 0.11513408 0.06052968 0.78740156
v 0.05841064 -0.05090142 0.78740156
v 0.11639187 0.05997624 0.78740156
v 0.11767260 0.05947818 0.78740156
v 0.11897384 0.05903647 0.78740156
v 0.12029310 0.05865194 0.78740156
v 0.05609729 -0.05511811 0.78740156
v 0.12162789 0.05832532 0.78740156
v 0.12297565 0.05805724 0.78740156
v -0.14793156 -0.01914232 0.78740156
v -0.14699326 -0.02385949 0.78740156
v -0.14295824 -0.03770301 0.78740156
v -0.14121507 -0.04218557 0.78740156
v -0.10259898 -0.09030022 0.78740156
v -0.09859996 -0.09297229 0.78740156
v -0.09448820 -0.09546737 0.78740156
v -0.09027150 -0.09778072 0.78740156
v -0.08595792 -0.09990794 0.78740156
v -0.08155565 -0.10184499 0.78740156
v -0.05851240 -0.10856149 0.78740156
v -0.05375879 -0.10929313 0.78740156
v -0.04897780 -0.10981674 0.78740156
v 0.14419292 0.06179841 0.78740156
v 0.14536770 0.06251130 0.78740156
v 0.10116849 0.10482283 0.78740156
v 0.10050754 0.10361807 0.78740156
v 0.07044666 0.00960772 0.78740156
v 0.06992306 0.01438871 0.78740156
v 0.03148840 0.08444584 0.78740156
v 0.02773748 0.08745628 0.78740156
v 0.09706867 0.09181986 0.78740156
v 0.02385882 0.09030022 0.78740156
v 0.09721827 0.09318586 0.78740156
v 0.01985980 0.09297229 0.78740156
v 0.01574803 0.09546737 0.78740156
v 0.01153134 0.09778072 0.78740156
v 0.00721776 0.09990794 0.78740156
v -0.00622141 0.10513415 0.78740156
v -0.01083884 0.10648002 0.78740156
v -0.01551059 0.10762317 0.78740156
v 0.01985980 -0.09297229 0.78740156
v 0.01574803 -0.09546737 0.78740156
v 0.01153134 -0.09778072 0.78740156
v 0.02385882 -0.09030022 0.78740156
v 0.02773748 -0.08745628 0.78740156
v 0.03148840 -0.08444584 0.78740156
v 0.12433382 0.05784819 0.78740156
v 0.12569982 0.05769859 0.78740156
v 0.13391411 0.05805724 0.78740156
v 0.13526188 0.05832532 0.78740156
v 0.13659666 0.05865194 0.78740156
v 0.11639187 0.11817337 0.78740156
v 0.11513408 0.11761992 0.78740156
v 0.10522354 0.11035324 0.78740156
v 0.10431749 0.10932008 0.78740156
v 0.10345737 0.10824839 0.78740156
v -0.12381592 0.07085848 0.78740156
v -0.12682635 0.06710756 0.78740156
v -0.14918682 0.00960772 0.78740156
v -0.14950138 0.00480844 0.78740156
v -0.14960630 0.00000000 0.78740156
v -0.14950138 -0.00480844 0.78740156
v 0.06710993 0.02853123 0.78740156
v 0.06576408 0.03314867 0.78740156
v 0.06421808 0.03770301 0.78740156
v 0.04190459 0.07447451 0.78740156
v 0.03857870 0.07794878 0.78740156
v 0.03510443 0.08127467 0.78740156
v -0.07707308 -0.10358816 0.78740156
v -0.07251875 -0.10513415 0.78740156
v -0.04417852 -0.11013129 0.78740156
v -0.03937008 -0.11023622 0.78740156
v -0.03456164 -0.11013129 0.78740156
v 0.00281550 -0.10184499 0.78740156
v 0.00721776 -0.09990794 0.78740156
v 0.14175569 0.11761992 0.78740156
v 0.14049791 0.11817337 0.78740156
v 0.13921717 0.11867142 0.78740156
v 0.13791592 0.11911313 0.78740156
v 0.13659666 0.11949766 0.78740156
v 0.13526188 0.11982428 0.78740156
v 0.11767260 0.11867142 0.78740156
v 0.11390162 0.11701216 0.78740156
v 0.11269685 0.11635119 0.78740156
v 0.11152206 0.11563831 0.78740156
v 0.11037948 0.11487486 0.78740156
v 0.10927129 0.11406231 0.78740156
v 0.10819960 0.11320218 0.78740156
v -0.09859996 0.09297229 0.78740156
v -0.10259898 0.09030022 0.78740156
v -0.13483745 0.05511811 0.78740156
v -0.13715079 0.05090142 0.78740156
v -0.02976236 -0.10981674 0.78740156
v -0.02498136 -0.10929313 0.78740156
v -0.02022776 -0.10856149 0.78740156
v -0.01551059 -0.10762317 0.78740156
v -0.01083884 -0.10648002 0.78740156
v 0.03510443 -0.08127467 0.78740156
v 0.03857870 -0.07794878 0.78740156
v 0.04190459 -0.07447451 0.78740156
v 0.04507577 -0.07085848 0.78740156
v 0.04808620 -0.06710756 0.78740156
v 0.05093015 -0.06322890 0.78740156
v 0.13391411 0.12009237 0.78740156
v 0.13255595 0.12030141 0.78740156
v 0.13118994 0.12045101 0.78740156
v 0.10716645 0.11229613 0.78740156
v 0.10617380 0.11134589 0.78740156
v -0.02022776 0.10856149 0.78740156
v -0.02498136 0.10929313 0.78740156
v 0.09769540 0.09589180 0.78740156
v -0.09448820 0.09546737 0.78740156
v 0.06247491 0.04218557 0.78740156
v 0.06053786 0.04658784 0.78740156
v 0.05841064 0.05090142 0.78740156
v 0.09697879 0.09044865 0.78740156
v 0.04808620 0.06710756 0.78740156
v 0.04507577 0.07085848 0.78740156
v 0.05360221 -0.05922988 0.78740156
v 0.12569982 0.12045101 0.78740156
v 0.12433382 0.12030141 0.78740156
v 0.12297565 0.12009237 0.78740156
v 0.12162789 0.11982428 0.78740156
v -0.03937008 0.11023622 0.78740156
v -0.04417852 0.11013129 0.78740156
v -0.04897780 0.10981674 0.78740156
v -0.05375879 0.10929313 0.78740156
v -0.10647763 0.08745628 0.78740156
v -0.11022855 0.08444584 0.78740156
v -0.11384459 0.08127467 0.78740156
v -0.11731886 0.07794878 0.78740156
v -0.12064475 0.07447451 0.78740156
v -0.13927802 0.04658784 0.78740156
v -0.14121507 0.04218557 0.78740156
v -0.14295824 0.03770301 0.78740156
v -0.14450423 0.03314867 0.78740156
v -0.14585009 0.02853123 0.78740156
v -0.14699326 0.02385949 0.78740156
v -0.14793156 0.01914232 0.78740156
v -0.14866321 0.01438871 0.78740156
v 0.12707105 0.05760872 0.78740156
v 0.12844488 0.05757874 0.78740156
v 0.12981872 0.05760872 0.78740156
v 0.12029310 0.11949766 0.78740156
v 0.11897384 0.11911313 0.78740156
v -0.12967031 0.06322890 0.78740156
v -0.13234237 0.05922988 0.78740156
v 0.05609729 0.05511811 0.78740156
v 0.05360221 0.05922988 0.78740156
v 0.05093015 0.06322890 0.78740156
v 0.13118994 0.05769859 0.78740156
v 0.13255595 0.05784819 0.78740156
v -0.02976236 0.10981674 0.78740156
v -0.03456164 0.11013129 0.78740156
v 0.12981872 0.12054089 0.78740156
v 0.12844488 0.12057086 0.78740156
v 0.12707105 0.12054089 0.78740156
v -0.05851240 0.10856149 0.78740156
v -0.06322957 0.10762317 0.78740156
v -0.06790131 0.10648002 0.78740156
v -0.07251875 0.10513415 0.78740156
v -0.07707308 0.10358816 0.78740156
v -0.08155565 0.10184499 0.78740156
v -0.08595792 0.09990794 0.78740156
v -0.09027150 0.09778072 0.78740156
v 0.15994094 0.08907481 0.79921263
v 0.15991096 0.09044865 0.79921263
v 0.15982109 0.09181986 0.79921263
v 0.15967150 0.09318586 0.79921263
v 0.15946245 0.09454404 0.79921263
v 0.15919437 0.09589180 0.79921263
v 0.15886773 0.09722658 0.79921263
v 0.15848322 0.09854586 0.79921263
v 0.15804149 0.09984709 0.79921263
v 0.15754345 0.10112783 0.79921263
v 0.15699001 0.10238562 0.79921263
v 0.15638222 0.10361807 0.79921263
v 0.15572128 0.10482283 0.79921263
v 0.15500839 0.10599763 0.79921263
v 0.15424494 0.10714020 0.79921263
v 0.15343238 0.10824839 0.79921263
v 0.15257226 0.10932008 0.79921263
v 0.15166621 0.11035324 0.79921263
v 0.15071596 0.11134589 0.79921263
v 0.14972331 0.11229613 0.79921263
v 0.14869016 0.11320218 0.79921263
v 0.14761847 0.11406231 0.79921263
v 0.14651027 0.11487486 0.79921263
v 0.14536770 0.11563831 0.79921263
v 0.14419292 0.11635119 0.79921263
v 0.14298815 0.11701216 0.79921263
v 0.14175569 0.11761992 0.79921263
v 0.14049791 0.11817337 0.79921263
v 0.13921717 0.11867142 0.79921263
v 0.13791592 0.11911313 0.79921263
v 0.13659666 0.11949766 0.79921263
v 0.13526188 0.11982428 0.79921263
v 0.13391411 0.12009237 0.79921263
v 0.13255595 0.12030141 0.79921263
v 0.13118994 0.12045101 0.79921263
v 0.12981872 0.12054089 0.79921263
v 0.12844488 0.12057086 0.79921263
v 0.12707105 0.12054089 0.79921263
v 0.12569982 0.12045101 0.79921263
v 0.12433382 0.12030141 0.79921263
v 0.12297565 0.12009237 0.79921263
v 0.12162789 0.11982428 0.79921263
v 0.12029310 0.11949766 0.79921263
v 0.11897384 0.11911313 0.79921263
v 0.11767260 0.11867142 0.79921263
v 0.11639187 0.11817337 0.79921263
v 0.11513408 0.11761992 0.79921263
v 0.11390162 0.11701216 0.79921263
v 0.11269685 0.11635119 0.79921263
v 0.11152206 0.11563831 0.79921263
v 0.11037948 0.11487486 0.79921263
v 0.10927129 0.11406231 0.79921263
v 0.10819960 0.11320218 0.79921263
v 0.10716645 0.11229613 0.79921263
v 0.10617380 0.11134589 0.79921263
v 0.10522354 0.11035324 0.79921263
v 0.10431749 0.10932008 0.79921263
v 0.10345737 0.10824839 0.79921263
v 0.10264482 0.10714020 0.79921263
v 0.10188137 0.10599763 0.79921263
v 0.10116849 0.10482283 0.79921263
v 0.10050754 0.10361807 0.79921263
v 0.09989975 0.10238562 0.79921263
v 0.09934632 0.10112783 0.79921263
v 0.09884827 0.09984709 0.79921263
v 0.09840655 0.09854586 0.79921263
v 0.09802202 0.09722658 0.79921263
v 0.09769540 0.09589180 0.79921263
v 0.09742732 0.09454404 0.79921263
v 0.09721827 0.09318586 0.79921263
v 0.09706867 0.09181986 0.79921263
v 0.09697879 0.09044865 0.79921263
v 0.09694882 0.08907481 0.79921263
v 0.09697879 0.08770096 0.79921263
v 0.09706867 0.08632974 0.79921263
v 0.09721827 0.08496375 0.79921263
v 0.09742732 0.08360557 0.79921263
v 0.09769540 0.08225781 0.79921263
v 0.09802202 0.08092302 0.79921263
v 0.09840655 0.07960375 0.79921263
v 0.09884827 0.07830251 0.79921263
v 0.09934632 0.07702178 0.79921263
v 0.09989975 0.07576399 0.79921263
v 0.10050754 0.07453154 0.79921263
v 0.10116849 0.07332677 0.79921263
v 0.10188137 0.07215198 0.79921263
v 0.10264482 0.07100940 0.79921263
v 0.10345737 0.06990121 0.79921263
v 0.10431749 0.06882952 0.79921263
v 0.10522354 0.06779637 0.79921263
v 0.10617380 0.06680372 0.79921263
v 0.10716645 0.06585347 0.79921263
v 0.10819960 0.06494742 0.79921263
v 0.10927129 0.06408729 0.79921263
v 0.11037948 0.06327474 0.79921263
v 0.11152206 0.06251130 0.79921263
v 0.11269685 0.06179841 0.79921263
v 0.11390162 0.06113745 0.79921263
v 0.11513408 0.06052968 0.79921263
v 0.11639187 0.05997624 0.79921263
v 0.11767260 0.05947818 0.79921263
v 0.11897384 0.05903647 0.79921263
v 0.12029310 0.05865194 0.79921263
v 0.12162789 0.05832532 0.79921263
v 0.12297565 0.05805724 0.79921263
v 0.12433382 0.05784819 0.79921263
v 0.12569982 0.05769859 0.79921263
v 0.12707105 0.05760872 0.79921263
v 0.12844488 0.05757874 0.79921263
v 0.12981872 0.05760872 0.79921263
v 0.13118994 0.05769859 0.79921263
v 0.13255595 0.05784819 0.79921263
v 0.13391411 0.05805724 0.79921263
v 0.13526188 0.05832532 0.79921263
v 0.13659666 0.05865194 0.79921263
v 0.13791592 0.05903647 0.79921263
v 0.13921717 0.05947818 0.79921263
v 0.14049791 0.05997624 0.79921263
v 0.14175569 0.06052968 0.79921263
v 0.14298815 0.06113745 0.79921263
v 0.14419292 0.06179841 0.79921263
v 0.14536770 0.06251130 0.79921263
v 0.14651027 0.06327474 0.79921263
v 0.14761847 0.06408729 0.79921263
v 0.14869016 0.06494742 0.79921263
v 0.14972331 0.06585347 0.79921263
v 0.15071596 0.06680372 0.79921263
v 0.15166621 0.06779637 0.79921263
v 0.15257226 0.06882952 0.79921263
v 0.15343238 0.06990121 0.79921263
v 0.15424494 0.07100940 0.79921263
v 0.15500839 0.07215198 0.79921263
v 0.15572128 0.07332677 0.79921263
v 0.15638222 0.07453154 0.79921263
v 0.15699001 0.07576399 0.79921263
v 0.15754345 0.07702178 0.79921263
v 0.15804149 0.07830251 0.79921263
v 0.15848322 0.07960375 0.79921263
v 0.15886773 0.08092302 0.79921263
v 0.15919437 0.08225781 0.79921263
v 0.15946245 0.08360557 0.79921263
v 0.15967150 0.08496375 0.79921263
v 0.15982109 0.08632974 0.79921263
v 0.15991096 0.08770096 0.79921263
v -0.18700787 -0.14763780 0.79921263
v -0.18700787 -0.14763780 0.00000000
v 0.00641215 0.12578563 0.79921263
v 0.00088188 0.12766290 0.79921263
v -0.00472501 0.12929715 0.79921263
v 0.09448820 0.00000000 0.79921263
v 0.08429883 0.05122534 0.79921263
v 0.08194672 0.05657095 0.79921263
v 0.07936365 0.06180887 0.79921263
v 0.07655458 0.06692913 0.79921263
v 0.09131522 0.02897223 0.79921263
v 0.09245458 0.02324424 0.79921263
v 0.09334301 0.01747201 0.79921263
v 0.09397881 0.01166652 0.79921263
v 0.07352484 0.07192200 0.79921263
v 0.01720087 0.12131679 0.79921263
v 0.02243879 0.11873373 0.79921263
v -0.01039785 0.13068528 0.79921263
v 0.09436079 0.00583882 0.79921263
v 0.08641555 0.04578222 0.79921263
v 0.08829281 0.04025196 0.79921263
v -0.01612583 0.13182466 0.79921263
v -0.02189807 0.13271309 0.79921263
v 0.08992708 0.03464507 0.79921263
v 0.07028019 0.07677795 0.79921263
v 0.01185526 0.12366892 0.79921263
v 0.02755906 0.11592466 0.79921263
v 0.03255192 0.11289492 0.79921263
v 0.03740787 0.10965027 0.79921263
v 0.04211767 0.10619691 0.79921263
v 0.04667236 0.10254139 0.79921263
v 0.05106326 0.09869067 0.79921263
v 0.05528201 0.09465209 0.79921263
v 0.05932059 0.09043334 0.79921263
v -0.17271897 0.01166652 0.79921263
v -0.17208317 0.01747201 0.79921263
v 0.06682683 0.08148775 0.79921263
v -0.17119475 0.02324424 0.79921263
v -0.17005537 0.02897223 0.79921263
v -0.16866723 0.03464507 0.79921263
v -0.15529475 0.06692913 0.79921263
v -0.15226500 0.07192200 0.79921263
v 0.06317130 0.08604243 0.79921263
v 0.09397881 -0.01166652 0.79921263
v 0.09436079 -0.00583882 0.79921263
v 0.07936365 -0.06180887 0.79921263
v 0.07655458 -0.06692913 0.79921263
v 0.07352484 -0.07192200 0.79921263
v 0.07028019 -0.07677795 0.79921263
v 0.06682683 -0.08148775 0.79921263
v 0.06317130 -0.08604243 0.79921263
v 0.05932059 -0.09043334 0.79921263
v -0.16703297 -0.04025196 0.79921263
v -0.16866723 -0.03464507 0.79921263
v -0.17005537 -0.02897223 0.79921263
v -0.17119475 -0.02324424 0.79921263
v -0.17208317 -0.01747201 0.79921263
v -0.17271897 -0.01166652 0.79921263
v -0.02770356 0.13334890 0.79921263
v -0.03937008 0.13385826 0.79921263
v -0.03353126 0.13373086 0.79921263
v 0.09334301 -0.01747201 0.79921263
v 0.09245458 -0.02324424 0.79921263
v 0.09131522 -0.02897223 0.79921263
v 0.08992708 -0.03464507 0.79921263
v 0.08829281 -0.04025196 0.79921263
v 0.08641555 -0.04578222 0.79921263
v -0.17310095 -0.00583882 0.79921263
v -0.17322834 0.00000000 0.79921263
v -0.17310095 0.00583882 0.79921263
v -0.16703297 0.04025196 0.79921263
v -0.16515571 0.04578222 0.79921263
v -0.16303900 0.05122534 0.79921263
v -0.16068688 0.05657095 0.79921263
v -0.15810381 0.06180887 0.79921263
v -0.14902036 0.07677795 0.79921263
v -0.14556699 0.08148775 0.79921263
v -0.14191146 0.08604243 0.79921263
v 0.08429883 -0.05122534 0.79921263
v 0.08194672 -0.05657095 0.79921263
v 0.05528201 -0.09465209 0.79921263
v 0.05106326 -0.09869067 0.79921263
v 0.04667236 -0.10254139 0.79921263
v 0.04211767 -0.10619691 0.79921263
v 0.03740787 -0.10965027 0.79921263
v 0.03255192 -0.11289492 0.79921263
v 0.02755906 -0.11592466 0.79921263
v 0.02243879 -0.11873373 0.79921263
v 0.01720087 -0.12131679 0.79921263
v 0.00088188 -0.12766290 0.79921263
v -0.00472501 -0.12929715 0.79921263
v -0.01039785 -0.13068528 0.79921263
v -0.05103660 -0.13334890 0.79921263
v -0.05684209 -0.13271309 0.79921263
v -0.06261432 -0.13182466 0.79921263
v -0.09594103 -0.12131679 0.79921263
v -0.10117895 -0.11873373 0.79921263
v -0.07962204 0.12766290 0.79921263
v -0.07401515 0.12929715 0.79921263
v 0.01185526 -0.12366892 0.79921263
v 0.00641215 -0.12578563 0.79921263
v -0.01612583 -0.13182466 0.79921263
v -0.02189807 -0.13271309 0.79921263
v -0.02770356 -0.13334890 0.79921263
v -0.03353126 -0.13373086 0.79921263
v -0.03937008 -0.13385826 0.79921263
v -0.04520890 -0.13373086 0.79921263
v -0.12980342 -0.09869067 0.79921263
v -0.13402216 -0.09465209 0.79921263
v -0.15226500 -0.07192200 0.79921263
v -0.14902036 -0.07677795 0.79921263
v -0.14556699 -0.08148775 0.79921263
v -0.15529475 -0.06692913 0.79921263
v -0.15810381 -0.06180887 0.79921263
v -0.16068688 -0.05657095 0.79921263
v -0.08515230 0.12578563 0.79921263
v -0.06834231 -0.13068528 0.79921263
v -0.07401515 -0.12929715 0.79921263
v -0.07962204 -0.12766290 0.79921263
v -0.10629921 -0.11592466 0.79921263
v -0.11129208 -0.11289492 0.79921263
v -0.11614802 -0.10965027 0.79921263
v -0.13806075 -0.09043334 0.79921263
v -0.14191146 -0.08604243 0.79921263
v -0.16303900 -0.05122534 0.79921263
v -0.16515571 -0.04578222 0.79921263
v -0.12980342 0.09869067 0.79921263
v -0.12541251 0.10254139 0.79921263
v -0.12085783 0.10619691 0.79921263
v -0.11614802 0.10965027 0.79921263
v -0.05684209 0.13271309 0.79921263
v -0.05103660 0.13334890 0.79921263
v -0.04520890 0.13373086 0.79921263
v -0.08515230 -0.12578563 0.79921263
v -0.09059542 -0.12366892 0.79921263
v -0.12085783 -0.10619691 0.79921263
v -0.12541251 -0.10254139 0.79921263
v -0.11129208 0.11289492 0.79921263
v -0.10629921 0.11592466 0.79921263
v -0.10117895 0.11873373 0.79921263
v -0.06834231 0.13068528 0.79921263
v -0.06261432 0.13182466 0.79921263
v -0.13806075 0.09043334 0.79921263
v -0.13402216 0.09465209 0.79921263
v -0.09594103 0.12131679 0.79921263
v -0.09059542 0.12366892 0.79921263
f 1 2 3
f 2 4 3
f 3 4 5
f 4 6 5
f 5 6 7
f 6 8 7
f 7 8 9
f 8 10 9
f 9 10 11
f 10 12 11
f 11 12 13
f 12 14 13
f 13 14 15
f 14 16 15
f 15 16 17
f 16 18 17
f 17 18 19
f 18 20 19
f 19 20 21
f 20 22 21
f 21 22 23
f 22 24 23
f 23 24 25
f 24 26 25
f 25 26 27
f 26 28 27
f 27 28 29
f 28 30 29
f 29 30 31
f 30 32 31
f 31 32 33
f 32 34 33
f 33 34 35
f 34 36 35
f 35 36 37
f 36 38 37
f 37 38 39
f 38 40 39
f 39 40 41
f 40 42 41
f 41 42 43
f 42 44 43
f 43 44 45
f 44 46 45
f 45 46 47
f 46 48 47
f 47 48 49
f 48 50 49
f 49 50 51
f 50 52 51
f 51 52 53
f 52 54 53
f 53 54 55
f 54 56 55
f 55 56 57
f 56 58 57
f 57 58 59
f 58 60 59
f 59 60 61
f 60 62 61
f 61 62 63
f 62 64 63
f 63 64 65
f 64 66 65
f 65 66 67
f 66 68 67
f 67 68 69
f 68 70 69
f 69 70 71
f 70 72 71
f 71 72 73
f 72 74 73
f 73 74 75
f 74 76 75
f 75 76 77
f 76 78 77
f 77 78 79
f 78 80 79
f 79 80 81
f 80 82 81
f 81 82 83
f 82 84 83
f 83 84 85
f 84 86 85
f 85 86 87
f 86 88 87
f 87 88 89
f 88 90 89
f 89 90 91
f 90 92 91
f 91 92 93
f 92 94 93
f 93 94 95
f 94 96 95
f 95 96 97
f 96 98 97
f 97 98 99
f 98 100 99
f 99 100 101
f 100 102 101
f 101 102 103
f 102 104 103
f 103 104 105
f 104 106 105
f 105 106 107
f 106 108 107
f 107 108 109
f 108 110 109
f 109 110 111
f 110 112 111
f 111 112 113
f 112 114 113
f 113 114 115
f 114 116 115
f 115 116 117
f 116 118 117
f 117 118 119
f 118 120 119
f 119 120 121
f 120 122 121
f 121 122 123
f 122 124 123
f 123 124 125
f 124 126 125
f 125 126 127
f 126 128 127
f 127 128 129
f 128 130 129
f 129 130 131
f 130 132 131
f 131 132 133
f 132 134 133
f 133 134 135
f 134 136 135
f 135 136 137
f 136 138 137
f 137 138 139
f 138 140 139
f 139 140 141
f 140 142 141
f 141 142 143
f 142 144 143
f 143 144 145
f 144 146 145
f 145 146 147
f 146 148 147
f 147 148 149
f 148 150 149
f 149 150 151
f 150 152 151
f 151 152 153
f 152 154 153
f 153 154 155
f 154 156 155
f 155 156 157
f 156 158 157
f 157 158 159
f 158 160 159
f 159 160 161
f 160 162 161
f 161 162 163
f 162 164 163
f 163 164 165
f 164 166 165
f 165 166 167
f 166 168 167
f 167 168 169
f 168 170 169
f 169 170 171
f 170 172 171
f 171 172 173
f 172 174 173
f 173 174 175
f 174 176 175
f 175 176 177
f 176 178 177
f 177 178 179
f 178 180 179
f 179 180 181
f 180 182 181
f 181 182 183
f 182 184 183
f 183 184 185
f 184 186 185
f 185 186 187
f 186 188 187
f 187 188 189
f 188 190 189
f 189 190 191
f 190 192 191
f 191 192 193
f 192 194 193
f 193 194 195
f 194 196 195
f 195 196 197
f 196 198 197
f 197 198 199
f 198 200 199
f 199 200 201
f 200 202 201
f 201 202 203
f 202 204 203
f 203 204 205
f 204 206 205
f 205 206 207
f 206 208 207
f 207 208 209
f 208 210 209
f 209 210 211
f 210 212 211
f 211 212 213
f 212 214 213
f 213 214 215
f 214 216 215
f 215 216 217
f 216 218 217
f 217 218 219
f 218 220 219
f 219 220 221
f 220 222 221
f 221 222 223
f 222 224 223
f 223 224 225
f 224 226 225
f 225 226 227
f 226 228 227
f 227 228 229
f 228 230 229
f 229 230 231
f 230 232 231
f 231 232 233
f 232 234 233
f 233 234 235
f 234 236 235
f 235 236 237
f 236 238 237
f 237 238 239
f 238 240 239
f 239 240 241
f 240 242 241
f 241 242 243
f 242 244 243
f 243 244 245
f 244 246 245
f 245 246 247
f 246 248 247
f 247 248 249
f 248 250 249
f 249 250 251
f 250 252 251
f 251 252 253
f 252 254 253
f 253 254 255
f 254 256 255
f 255 256 257
f 256 258 257
f 257 258 259
f 258 260 259
f 259 260 261
f 260 262 261
f 261 262 263
f 262 264 263
f 263 264 265
f 264 266 265
f 265 266 267
f 266 268 267
f 267 268 269
f 268 270 269
f 269 270 271
f 270 272 271
f 271 272 273
f 272 274 273
f 273 274 275
f 274 276 275
f 275 276 277
f 276 278 277
f 277 278 279
f 278 280 279
f 279 280 281
f 280 282 281
f 281 282 283
f 282 284 283
f 283 284 285
f 284 286 285
f 285 286 287
f 286 288 287
f 287 288 1
f 288 2 1
f 289 290 291
f 290 292 291
f 283 293 281
f 293 294 281
f 281 294 279
f 294 295 279
f 279 295 277
f 295 296 277
f 277 296 275
f 296 297 275
f 275 297 273
f 297 298 273
f 273 298 271
f 298 299 271
f 271 299 269
f 299 300 269
f 269 300 267
f 300 301 267
f 267 301 265
f 301 302 265
f 265 302 263
f 302 303 263
f 263 303 261
f 303 304 261
f 261 304 259
f 304 305 259
f 259 305 257
f 305 306 257
f 257 306 255
f 306 307 255
f 255 307 253
f 307 308 253
f 253 308 251
f 308 309 251
f 251 309 249
f 309 310 249
f 249 310 247
f 310 311 247
f 247 311 245
f 311 312 245
f 245 312 243
f 312 313 243
f 243 313 241
f 313 314 241
f 241 314 239
f 314 315 239
f 239 315 237
f 315 316 237
f 237 316 235
f 316 317 235
f 235 317 233
f 317 318 233
f 233 318 231
f 318 319 231
f 231 319 229
f 319 320 229
f 229 320 227
f 320 321 227
f 227 321 225
f 321 322 225
f 225 322 223
f 322 323 223
f 223 323 221
f 323 324 221
f 221 324 219
f 324 325 219
f 219 325 217
f 325 326 217
f 217 326 215
f 326 327 215
f 215 327 213
f 327 328 213
f 213 328 211
f 328 329 211
f 211 329 209
f 329 330 209
f 209 330 207
f 330 331 207
f 207 331 205
f 331 332 205
f 205 332 203
f 332 333 203
f 203 333 201
f 333 334 201
f 201 334 199
f 334 335 199
f 199 335 197
f 335 336 197
f 197 336 195
f 336 337 195
f 195 337 193
f 337 338 193
f 193 338 191
f 338 339 191
f 191 339 189
f 339 340 189
f 189 340 187
f 340 341 187
f 187 341 185
f 341 342 185
f 185 342 183
f 342 343 183
f 183 343 181
f 343 344 181
f 181 344 179
f 344 345 179
f 179 345 177
f 345 346 177
f 177 346 175
f 346 347 175
f 175 347 173
f 347 348 173
f 173 348 171
f 348 349 171
f 171 349 169
f 349 350 169
f 169 350 167
f 350 351 167
f 167 351 165
f 351 352 165
f 165 352 163
f 352 353 163
f 163 353 161
f 353 354 161
f 161 354 159
f 354 355 159
f 159 355 157
f 355 356 157
f 157 356 155
f 356 357 155
f 155 357 153
f 357 358 153
f 153 358 151
f 358 359 151
f 151 359 149
f 359 360 149
f 149 360 147
f 360 361 147
f 147 361 145
f 361 362 145
f 145 362 143
f 362 363 143
f 143 363 141
f 363 364 141
f 141 364 139
f 364 365 139
f 139 365 137
f 365 366 137
f 137 366 135
f 366 367 135
f 135 367 133
f 367 368 133
f 133 368 131
f 368 369 131
f 131 369 129
f 369 370 129
f 129 370 127
f 370 371 127
f 127 371 125
f 371 372 125
f 125 372 123
f 372 373 123
f 123 373 121
f 373 374 121
f 121 374 119
f 374 375 119
f 119 375 117
f 375 376 117
f 117 376 115
f 376 377 115
f 115 377 113
f 377 378 113
f 113 378 111
f 378 379 111
f 111 379 109
f 379 380 109
f 109 380 107
f 380 381 107
f 107 381 105
f 381 382 105
f 105 382 103
f 382 383 103
f 103 383 101
f 383 384 101
f 101 384 99
f 384 385 99
f 99 385 97
f 385 386 97
f 97 386 95
f 386 387 95
f 95 387 93
f 387 388 93
f 93 388 91
f 388 389 91
f 91 389 89
f 389 390 89
f 89 390 87
f 390 391 87
f 87 391 85
f 391 392 85
f 85 392 83
f 392 393 83
f 83 393 81
f 393 394 81
f 81 394 79
f 394 395 79
f 79 395 77
f 395 396 77
f 77 396 75
f 396 397 75
f 75 397 73
f 397 398 73
f 73 398 71
f 398 399 71
f 71 399 69
f 399 400 69
f 69 400 67
f 400 401 67
f 67 401 65
f 401 402 65
f 65 402 63
f 402 403 63
f 63 403 61
f 403 404 61
f 61 404 59
f 404 405 59
f 59 405 57
f 405 406 57
f 57 406 55
f 406 407 55
f 55 407 53
f 407 408 53
f 53 408 51
f 408 409 51
f 51 409 49
f 409 410 49
f 49 410 47
f 410 411 47
f 47 411 45
f 411 412 45
f 45 412 43
f 412 413 43
f 43 413 41
f 413 414 41
f 41 414 39
f 414 415 39
f 39 415 37
f 415 416 37
f 37 416 35
f 416 417 35
f 35 417 33
f 417 418 33
f 33 418 31
f 418 419 31
f 31 419 29
f 419 420 29
f 29 420 27
f 420 421 27
f 27 421 25
f 421 422 25
f 25 422 23
f 422 423 23
f 23 423 21
f 423 424 21
f 21 424 19
f 424 425 19
f 19 425 17
f 425 426 17
f 17 426 15
f 426 427 15
f 15 427 13
f 427 428 13
f 13 428 11
f 428 429 11
f 11 429 9
f 429 430 9
f 9 430 7
f 430 431 7
f 7 431 5
f 431 432 5
f 5 432 3
f 432 433 3
f 3 433 1
f 433 434 1
f 1 434 287
f 434 435 287
f 287 435 285
f 435 436 285
f 285 436 283
f 436 293 283
f 437 438 439
f 438 440 439
f 248 441 250
f 441 442 250
f 250 442 252
f 442 443 252
f 252 443 254
f 443 444 254
f 254 444 256
f 444 445 256
f 256 445 258
f 445 446 258
f 258 446 260
f 446 447 260
f 260 447 262
f 447 448 262
f 262 448 264
f 448 449 264
f 264 449 266
f 449 450 266
f 266 450 268
f 450 451 268
f 268 451 270
f 451 452 270
f 270 452 272
f 452 453 272
f 272 453 274
f 453 454 274
f 274 454 276
f 454 455 276
f 276 455 278
f 455 456 278
f 278 456 280
f 456 457 280
f 280 457 282
f 457 458 282
f 282 458 284
f 458 459 284
f 284 459 286
f 459 460 286
f 286 460 288
f 460 461 288
f 288 461 2
f 461 462 2
f 2 462 4
f 462 463 4
f 4 463 6
f 463 464 6
f 6 464 8
f 464 465 8
f 8 465 10
f 465 466 10
f 10 466 12
f 466 467 12
f 12 467 14
f 467 468 14
f 14 468 16
f 468 469 16
f 16 469 18
f 469 470 18
f 18 470 20
f 470 471 20
f 20 471 22
f 471 472 22
f 22 472 24
f 472 473 24
f 24 473 26
f 473 474 26
f 26 474 28
f 474 475 28
f 28 475 30
f 475 476 30
f 30 476 32
f 476 477 32
f 32 477 34
f 477 478 34
f 34 478 36
f 478 479 36
f 36 479 38
f 479 480 38
f 38 480 40
f 480 481 40
f 40 481 42
f 481 482 42
f 42 482 44
f 482 483 44
f 44 483 46
f 483 484 46
f 46 484 48
f 484 485 48
f 48 485 50
f 485 486 50
f 50 486 52
f 486 487 52
f 52 487 54
f 487 488 54
f 54 488 56
f 488 489 56
f 56 489 58
f 489 490 58
f 58 490 60
f 490 491 60
f 60 491 62
f 491 492 62
f 62 492 64
f 492 493 64
f 64 493 66
f 493 494 66
f 66 494 68
f 494 495 68
f 68 495 70
f 495 496 70
f 70 496 72
f 496 497 72
f 72 497 74
f 497 498 74
f 74 498 76
f 498 499 76
f 76 499 78
f 499 500 78
f 78 500 80
f 500 501 80
f 80 501 82
f 501 502 82
f 82 502 84
f 502 503 84
f 84 503 86
f 503 504 86
f 86 504 88
f 504 505 88
f 88 505 90
f 505 506 90
f 90 506 92
f 506 507 92
f 92 507 94
f 507 508 94
f 94 508 96
f 508 509 96
f 96 509 98
f 509 510 98
f 98 510 100
f 510 511 100
f 100 511 102
f 511 512 102
f 102 512 104
f 512 513 104
f 104 513 106
f 513 514 106
f 106 514 108
f 514 515 108
f 108 515 110
f 515 516 110
f 110 516 112
f 516 517 112
f 112 517 114
f 517 518 114
f 114 518 116
f 518 519 116
f 116 519 118
f 519 520 118
f 118 520 120
f 520 521 120
f 120 521 122
f 521 522 122
f 122 522 124
f 522 523 124
f 124 523 126
f 523 524 126
f 126 524 128
f 524 525 128
f 128 525 130
f 525 526 130
f 130 526 132
f 526 527 132
f 132 527 134
f 527 528 134
f 134 528 136
f 528 529 136
f 136 529 138
f 529 530 138
f 138 530 140
f 530 531 140
f 140 531 142
f 531 532 142
f 142 532 144
f 532 533 144
f 144 533 146
f 533 534 146
f 146 534 148
f 534 535 148
f 148 535 150
f 535 536 150
f 150 536 152
f 536 537 152
f 152 537 154
f 537 538 154
f 154 538 156
f 538 539 156
f 156 539 158
f 539 540 158
f 158 540 160
f 540 541 160
f 160 541 162
f 541 542 162
f 162 542 164
f 542 543 164
f 164 543 166
f 543 544 166
f 166 544 168
f 544 545 168
f 168 545 170
f 545 546 170
f 170 546 172
f 546 547 172
f 172 547 174
f 547 548 174
f 174 548 176
f 548 549 176
f 176 549 178
f 549 550 178
f 178 550 180
f 550 551 180
f 180 551 182
f 551 552 182
f 182 552 184
f 552 553 184
f 184 553 186
f 553 554 186
f 186 554 188
f 554 555 188
f 188 555 190
f 555 556 190
f 190 556 192
f 556 557 192
f 192 557 194
f 557 558 194
f 194 558 196
f 558 559 196
f 196 559 198
f 559 560 198
f 198 560 200
f 560 561 200
f 200 561 202
f 561 562 202
f 202 562 204
f 562 563 204
f 204 563 206
f 563 564 206
f 206 564 208
f 564 565 208
f 208 565 210
f 565 566 210
f 210 566 212
f 566 567 212
f 212 567 214
f 567 568 214
f 214 568 216
f 568 569 216
f 216 569 218
f 569 570 218
f 218 570 220
f 570 571 220
f 220 571 222
f 571 572 222
f 222 572 224
f 572 573 224
f 224 573 226
f 573 574 226
f 226 574 228
f 574 575 228
f 228 575 230
f 575 576 230
f 230 576 232
f 576 577 232
f 232 577 234
f 577 578 234
f 234 578 236
f 578 579 236
f 236 579 238
f 579 580 238
f 238 580 240
f 580 581 240
f 240 581 242
f 581 582 242
f 242 582 244
f 582 583 244
f 244 583 246
f 583 584 246
f 246 584 248
f 584 441 248
f 585 586 587
f 586 588 587
f 438 585 440
f 585 587 440
f 290 589 292
f 589 590 292
f 591 592 438
f 593 438 594
f 438 595 594
f 585 596 597
f 598 599 438
f 592 600 438
f 600 601 438
f 438 601 595
f 593 602 438
f 602 603 438
f 438 603 604
f 596 585 605
f 597 606 585
f 606 607 585
f 585 607 608
f 609 610 611
f 612 613 614
f 613 611 614
f 614 611 615
f 616 617 437
f 617 618 437
f 598 438 619
f 599 620 438
f 620 621 438
f 438 621 622
f 622 623 438
f 623 624 438
f 438 624 591
f 604 625 438
f 625 626 438
f 438 626 585
f 626 627 585
f 585 627 605
f 608 628 585
f 628 629 585
f 585 629 630
f 630 631 585
f 631 632 585
f 585 632 633
f 633 634 585
f 634 635 585
f 585 635 636
f 637 638 611
f 610 639 611
f 639 640 611
f 611 640 615
f 612 641 613
f 641 642 613
f 613 642 643
f 644 645 437
f 646 647 437
f 648 649 438
f 650 651 585
f 651 652 585
f 652 653 585
f 653 654 585
f 585 654 655
f 656 657 658
f 638 659 611
f 659 660 611
f 611 660 661
f 642 662 643
f 662 663 643
f 643 663 664
f 663 665 664
f 664 665 666
f 636 667 585
f 667 668 585
f 585 668 650
f 585 669 670
f 671 672 586
f 586 673 674
f 675 676 677
f 676 678 677
f 678 679 677
f 679 680 677
f 677 680 681
f 661 682 611
f 682 683 611
f 611 683 609
f 437 684 685
f 686 687 437
f 687 688 437
f 437 688 689
f 689 690 437
f 690 691 437
f 437 691 692
f 692 693 437
f 693 694 437
f 437 694 616
f 695 696 438
f 649 697 438
f 697 698 438
f 438 698 699
f 655 700 585
f 700 701 585
f 585 701 669
f 702 703 586
f 703 704 586
f 586 704 673
f 637 611 677
f 611 705 677
f 677 705 675
f 677 706 707
f 666 708 664
f 708 709 664
f 664 709 710
f 709 711 710
f 710 711 712
f 712 713 710
f 713 714 710
f 710 714 715
f 714 716 715
f 715 716 717
f 717 718 715
f 718 719 715
f 715 719 720
f 719 721 720
f 720 721 722
f 645 723 437
f 723 724 437
f 437 724 684
f 685 725 437
f 725 726 437
f 437 726 686
f 618 727 437
f 727 728 437
f 437 728 729
f 729 730 437
f 730 731 437
f 437 731 732
f 647 733 437
f 733 734 437
f 437 734 735
f 699 736 438
f 736 737 438
f 438 737 619
f 672 738 586
f 738 739 586
f 586 739 702
f 681 740 677
f 740 741 677
f 677 741 706
f 742 743 744
f 743 745 744
f 744 745 746
f 746 745 658
f 745 747 658
f 658 747 748
f 748 749 658
f 749 750 658
f 658 750 656
f 657 751 658
f 751 752 658
f 658 752 753
f 754 438 755
f 438 756 755
f 754 757 438
f 757 758 438
f 438 758 759
f 760 761 438
f 762 763 438
f 763 764 438
f 438 764 648
f 586 765 766
f 767 768 586
f 768 769 586
f 586 769 671
f 770 771 586
f 772 773 586
f 773 774 586
f 586 774 437
f 774 775 437
f 437 775 644
f 707 776 677
f 776 777 677
f 677 777 778
f 779 780 744
f 780 781 744
f 744 781 742
f 732 782 437
f 782 783 437
f 437 783 646
f 735 784 437
f 784 785 437
f 437 785 438
f 785 786 438
f 696 787 438
f 787 788 438
f 438 788 756
f 670 789 585
f 789 790 585
f 585 790 791
f 791 792 585
f 792 793 585
f 585 793 794
f 765 586 795
f 766 796 586
f 796 797 586
f 586 797 798
f 798 799 586
f 799 800 586
f 586 800 801
f 586 802 803
f 804 805 586
f 786 806 438
f 806 807 438
f 438 807 808
f 808 809 438
f 809 810 438
f 438 810 695
f 759 811 438
f 811 812 438
f 438 812 813
f 813 814 438
f 814 815 438
f 438 815 816
f 794 817 585
f 817 818 585
f 585 818 819
f 801 820 586
f 820 821 586
f 586 821 767
f 753 822 658
f 822 823 658
f 658 823 824
f 802 586 825
f 778 826 677
f 826 827 677
f 677 827 828
f 829 830 744
f 830 831 744
f 744 831 779
f 722 760 720
f 760 438 720
f 720 438 832
f 438 816 832
f 833 834 586
f 834 835 586
f 586 835 836
f 837 838 586
f 838 839 586
f 586 839 840
f 803 841 586
f 841 842 586
f 586 842 843
f 843 844 586
f 844 845 586
f 586 845 770
f 805 846 586
f 846 847 586
f 586 847 848
f 848 849 586
f 849 850 586
f 586 850 851
f 851 852 586
f 852 853 586
f 586 853 772
f 761 854 438
f 854 855 438
f 438 855 856
f 836 857 586
f 857 858 586
f 586 858 795
f 771 859 586
f 859 860 586
f 586 860 804
f 828 861 677
f 861 862 677
f 677 862 829
f 862 863 829
f 829 863 830
f 856 864 438
f 864 865 438
f 438 865 762
f 824 823 674
f 823 866 674
f 674 866 586
f 866 867 586
f 586 867 837
f 819 868 585
f 868 869 585
f 585 869 586
f 869 870 586
f 586 870 833
f 840 871 586
f 871 872 586
f 586 872 873
f 873 874 586
f 874 875 586
f 586 875 876
f 876 877 586
f 877 878 586
f 586 878 825
f 596 879 597
f 879 880 597
f 597 880 606
f 880 881 606
f 606 881 607
f 881 882 607
f 607 882 608
f 882 883 608
f 608 883 628
f 883 884 628
f 628 884 629
f 884 885 629
f 629 885 630
f 885 886 630
f 630 886 631
f 886 887 631
f 631 887 632
f 887 888 632
f 632 888 633
f 888 889 633
f 633 889 634
f 889 890 634
f 634 890 635
f 890 891 635
f 635 891 636
f 891 892 636
f 636 892 667
f 892 893 667
f 667 893 668
f 893 894 668
f 668 894 650
f 894 895 650
f 650 895 651
f 895 896 651
f 651 896 652
f 896 897 652
f 652 897 653
f 897 898 653
f 653 898 654
f 898 899 654
f 654 899 655
f 899 900 655
f 655 900 700
f 900 901 700
f 700 901 701
f 901 902 701
f 701 902 669
f 902 903 669
f 669 903 670
f 903 904 670
f 670 904 789
f 904 905 789
f 789 905 790
f 905 906 790
f 790 906 791
f 906 907 791
f 791 907 792
f 907 908 792
f 792 908 793
f 908 909 793
f 793 909 794
f 909 910 794
f 794 910 817
f 910 911 817
f 817 911 818
f 911 912 818
f 818 912 819
f 912 913 819
f 819 913 868
f 913 914 868
f 868 914 869
f 914 915 869
f 869 915 870
f 915 916 870
f 870 916 833
f 916 917 833
f 833 917 834
f 917 918 834
f 834 918 835
f 918 919 835
f 835 919 836
f 919 920 836
f 836 920 857
f 920 921 857
f 857 921 858
f 921 922 858
f 858 922 795
f 922 923 795
f 795 923 765
f 923 924 765
f 765 924 766
f 924 925 766
f 766 925 796
f 925 926 796
f 796 926 797
f 926 927 797
f 797 927 798
f 927 928 798
f 798 928 799
f 928 929 799
f 799 929 800
f 929 930 800
f 800 930 801
f 930 931 801
f 801 931 820
f 931 932 820
f 820 932 821
f 932 933 821
f 821 933 767
f 933 934 767
f 767 934 768
f 934 935 768
f 768 935 769
f 935 936 769
f 769 936 671
f 936 937 671
f 671 937 672
f 937 938 672
f 672 938 738
f 938 939 738
f 738 939 739
f 939 940 739
f 739 940 702
f 940 941 702
f 702 941 703
f 941 942 703
f 703 942 704
f 942 943 704
f 704 943 673
f 943 944 673
f 673 944 674
f 944 945 674
f 674 945 824
f 945 946 824
f 824 946 658
f 946 947 658
f 658 947 746
f 947 948 746
f 746 948 744
f 948 949 744
f 744 949 829
f 949 950 829
f 829 950 677
f 950 951 677
f 677 951 637
f 951 952 637
f 637 952 638
f 952 953 638
f 638 953 659
f 953 954 659
f 659 954 660
f 954 955 660
f 660 955 661
f 955 956 661
f 661 956 682
f 956 957 682
f 682 957 683
f 957 958 683
f 683 958 609
f 958 959 609
f 609 959 610
f 959 960 610
f 610 960 639
f 960 961 639
f 639 961 640
f 961 962 640
f 640 962 615
f 962 963 615
f 615 963 614
f 963 964 614
f 614 964 612
f 964 965 612
f 612 965 641
f 965 966 641
f 641 966 642
f 966 967 642
f 642 967 662
f 967 968 662
f 662 968 663
f 968 969 663
f 663 969 665
f 969 970 665
f 665 970 666
f 970 971 666
f 666 971 708
f 971 972 708
f 708 972 709
f 972 973 709
f 709 973 711
f 973 974 711
f 711 974 712
f 974 975 712
f 712 975 713
f 975 976 713
f 713 976 714
f 976 977 714
f 714 977 716
f 977 978 716
f 716 978 717
f 978 979 717
f 717 979 718
f 979 980 718
f 718 980 719
f 980 981 719
f 719 981 721
f 981 982 721
f 721 982 722
f 982 983 722
f 722 983 760
f 983 984 760
f 760 984 761
f 984 985 761
f 761 985 854
f 985 986 854
f 854 986 855
f 986 987 855
f 855 987 856
f 987 988 856
f 856 988 864
f 988 989 864
f 864 989 865
f 989 990 865
f 865 990 762
f 990 991 762
f 762 991 763
f 991 992 763
f 763 992 764
f 992 993 764
f 764 993 648
f 993 994 648
f 648 994 649
f 994 995 649
f 649 995 697
f 995 996 697
f 697 996 698
f 996 997 698
f 698 997 699
f 997 998 699
f 699 998 736
f 998 999 736
f 736 999 737
f 999 1000 737
f 737 1000 619
f 1000 1001 619
f 619 1001 598
f 1001 1002 598
f 598 1002 599
f 1002 1003 599
f 599 1003 620
f 1003 1004 620
f 620 1004 621
f 1004 1005 621
f 621 1005 622
f 1005 1006 622
f 622 1006 623
f 1006 1007 623
f 623 1007 624
f 1007 1008 624
f 624 1008 591
f 1008 1009 591
f 591 1009 592
f 1009 1010 592
f 592 1010 600
f 1010 1011 600
f 600 1011 601
f 1011 1012 601
f 601 1012 595
f 1012 1013 595
f 595 1013 594
f 1013 1014 594
f 594 1014 593
f 1014 1015 593
f 593 1015 602
f 1015 1016 602
f 602 1016 603
f 1016 1017 603
f 603 1017 604
f 1017 1018 604
f 604 1018 625
f 1018 1019 625
f 625 1019 626
f 1019 1020 626
f 626 1020 627
f 1020 1021 627
f 627 1021 605
f 1021 1022 605
f 605 1022 596
f 1022 879 596
f 589 1023 590
f 1023 1024 590
f 586 437 588
f 437 439 588
f 1023 289 1024
f 289 291 1024
f 1016 589 1017
f 589 1018 1017
f 886 885 290
f 882 881 290
f 1022 1021 290
f 1021 1020 290
f 290 1020 589
f 1020 1019 589
f 589 1019 1018
f 1016 1015 589
f 1015 1014 589
f 589 1014 1013
f 881 880 290
f 880 879 290
f 290 879 1022
f 1013 1012 589
f 1012 1011 589
f 589 1011 1010
f 885 884 290
f 884 883 290
f 290 883 882
f 889 290 890
f 290 891 890
f 889 888 290
f 888 887 290
f 290 887 886
f 899 898 290
f 898 897 290
f 897 896 290
f 896 895 290
f 290 895 894
f 946 945 1025
f 945 944 1025
f 1025 944 1026
f 944 943 1026
f 1026 943 1027
f 943 942 1027
f 1027 942 941
f 894 893 290
f 893 892 290
f 290 892 891
f 1003 1028 1004
f 1028 1005 1004
f 1003 1002 1028
f 1002 1001 1028
f 1028 1001 1000
f 1028 997 996
f 1029 967 1030
f 967 966 1030
f 966 965 1030
f 965 964 1030
f 1030 964 1031
f 904 903 290
f 903 902 290
f 1000 999 1028
f 999 998 1028
f 1028 998 997
f 996 995 1028
f 995 994 1028
f 1028 994 993
f 964 963 1031
f 963 962 1031
f 1031 962 1032
f 902 901 290
f 901 900 290
f 290 900 899
f 993 992 1028
f 992 991 1028
f 1028 991 990
f 987 986 1028
f 986 985 1028
f 1033 1034 983
f 1034 1035 983
f 983 1035 1036
f 962 961 1032
f 961 960 1032
f 1032 960 1037
f 960 959 1037
f 1038 1039 947
f 941 940 1027
f 940 939 1027
f 1027 939 1040
f 939 938 1040
f 1040 938 937
f 1036 1041 983
f 1041 1028 983
f 983 1028 984
f 1028 985 984
f 1042 1043 971
f 933 932 1044
f 928 927 1045
f 927 926 1045
f 1045 926 925
f 910 909 290
f 909 908 290
f 290 908 907
f 907 906 290
f 906 905 290
f 290 905 904
f 990 989 1028
f 989 988 1028
f 1028 988 987
f 1033 983 1046
f 983 982 1046
f 1046 982 981
f 981 980 1046
f 980 979 1046
f 1046 979 978
f 971 970 1042
f 970 969 1042
f 1042 969 1029
f 969 968 1029
f 1029 968 967
f 959 958 1037
f 958 957 1037
f 1037 957 1047
f 946 1025 947
f 1025 1048 947
f 947 1048 1038
f 1039 1049 947
f 1049 1050 947
f 947 1050 1051
f 1051 1052 947
f 1052 1053 947
f 947 1053 1054
f 937 936 1040
f 936 935 1040
f 1040 935 1044
f 935 934 1044
f 1044 934 933
f 978 977 1046
f 977 976 1046
f 1046 976 975
f 975 974 1046
f 974 973 1046
f 1046 973 1043
f 973 972 1043
f 1043 972 971
f 949 1055 1056
f 932 931 1044
f 931 930 1044
f 1044 930 1045
f 930 929 1045
f 1045 929 928
f 1057 1058 289
f 290 917 916
f 913 912 290
f 912 911 290
f 290 911 910
f 1055 949 1054
f 949 948 1054
f 1054 948 947
f 957 956 1047
f 956 955 1047
f 1047 955 1059
f 955 954 1059
f 954 953 1059
f 953 952 1059
f 1059 952 951
f 1058 1060 289
f 1060 1061 289
f 289 1061 1062
f 289 1063 1064
f 916 915 290
f 915 914 290
f 290 914 913
f 1056 1065 949
f 1065 1059 949
f 949 1059 950
f 1059 951 950
f 1010 1009 589
f 1009 1008 589
f 589 1008 1007
f 1066 589 1067
f 589 1007 1067
f 1067 1007 1028
f 1007 1006 1028
f 1028 1006 1005
f 1068 1069 589
f 1069 1070 589
f 589 1070 1071
f 1071 1072 589
f 1072 1073 589
f 589 1073 1074
f 1075 1076 1023
f 1076 1077 1023
f 1077 1078 1023
f 1078 1079 1023
f 1023 1079 1080
f 922 1081 923
f 1081 1045 923
f 923 1045 924
f 1045 925 924
f 1082 1083 289
f 1066 1084 589
f 1084 1085 589
f 589 1085 1086
f 1086 1087 589
f 1087 1088 589
f 589 1088 1089
f 1080 1090 1023
f 1090 1091 1023
f 1023 1091 289
f 1091 1092 289
f 289 1092 1057
f 1062 1093 289
f 1093 1094 289
f 289 1094 1095
f 1095 1096 289
f 1096 1097 289
f 289 1097 1063
f 1064 1098 289
f 1098 1099 289
f 289 1099 1100
f 1089 1101 589
f 1101 1102 589
f 589 1102 1068
f 1074 1103 589
f 1103 1104 589
f 589 1104 1105
f 1105 1106 589
f 1106 1107 589
f 589 1107 1108
f 1108 1109 589
f 1109 1110 589
f 589 1110 1111
f 1112 1113 589
f 1113 1114 589
f 1115 1116 1023
f 1116 1117 1023
f 1023 1118 1119
f 1120 1121 289
f 1111 1122 589
f 1122 1123 589
f 589 1123 1112
f 1114 1124 589
f 1124 1125 589
f 589 1125 1126
f 1126 1127 589
f 1127 1128 589
f 589 1128 1023
f 1128 1129 1023
f 1023 1129 1115
f 1023 1130 1131
f 1132 1023 1133
f 1023 1134 1133
f 1132 1135 1023
f 1135 1136 1023
f 1023 1136 1137
f 1120 289 1138
f 922 921 1081
f 921 920 1081
f 1081 920 919
f 1083 1081 289
f 1081 919 289
f 289 919 290
f 919 918 290
f 290 918 917
f 1117 1139 1023
f 1139 1140 1023
f 1023 1140 1141
f 1119 1142 1023
f 1142 1143 1023
f 1023 1143 1144
f 1131 1145 1023
f 1145 1146 1023
f 1023 1146 1134
f 1137 1147 1023
f 1147 1148 1023
f 1023 1148 1075
f 1149 1150 289
f 1150 1151 289
f 289 1151 1152
f 1153 1154 289
f 1154 1155 289
f 289 1155 1082
f 1141 1156 1023
f 1156 1157 1023
f 1023 1157 1118
f 1144 1158 1023
f 1158 1159 1023
f 1023 1159 1130
f 1152 1160 289
f 1160 1161 289
f 289 1161 1162
f 1121 1163 289
f 1163 1164 289
f 289 1164 1153
f 1100 1165 289
f 1165 1166 289
f 289 1166 1149
f 1162 1167 289
f 1167 1168 289
f 289 1168 1138
f 587 292 440
f 292 590 440
f 440 590 439
f 590 1024 439
f 439 1024 588
f 1024 291 588
f 588 291 587
f 291 292 587
f 362 774 363
f 774 773 363
f 363 773 364
f 773 772 364
f 364 772 365
f 772 853 365
f 365 853 366
f 853 852 366
f 366 852 367
f 852 851 367
f 367 851 368
f 851 850 368
f 368 850 369
f 850 849 369
f 369 849 370
f 849 848 370
f 370 848 371
f 848 847 371
f 371 847 372
f 847 846 372
f 372 846 373
f 846 805 373
f 373 805 374
f 805 804 374
f 374 804 375
f 804 860 375
f 375 860 376
f 860 859 376
f 376 859 377
f 859 771 377
f 377 771 378
f 771 770 378
f 378 770 379
f 770 845 379
f 379 845 380
f 845 844 380
f 380 844 381
f 844 843 381
f 381 843 382
f 843 842 382
f 382 842 383
f 842 841 383
f 383 841 384
f 841 803 384
f 384 803 385
f 803 802 385
f 385 802 386
f 802 825 386
f 386 825 387
f 825 878 387
f 387 878 388
f 878 877 388
f 388 877 389
f 877 876 389
f 389 876 390
f 876 875 390
f 390 875 391
f 875 874 391
f 391 874 392
f 874 873 392
f 392 873 393
f 873 872 393
f 393 872 394
f 872 871 394
f 394 871 395
f 871 840 395
f 395 840 396
f 840 839 396
f 396 839 397
f 839 838 397
f 397 838 398
f 838 837 398
f 398 837 399
f 837 867 399
f 399 867 400
f 867 866 400
f 400 866 401
f 866 823 401
f 401 823 402
f 823 822 402
f 402 822 403
f 822 753 403
f 403 753 404
f 753 752 404
f 404 752 405
f 752 751 405
f 405 751 406
f 751 657 406
f 406 657 407
f 657 656 407
f 407 656 408
f 656 750 408
f 408 750 409
f 750 749 409
f 409 749 410
f 749 748 410
f 410 748 411
f 748 747 411
f 411 747 412
f 747 745 412
f 412 745 413
f 745 743 413
f 413 743 414
f 743 742 414
f 414 742 415
f 742 781 415
f 415 781 416
f 781 780 416
f 416 780 417
f 780 779 417
f 417 779 418
f 779 831 418
f 418 831 419
f 831 830 419
f 419 830 420
f 830 863 420
f 420 863 421
f 863 862 421
f 421 862 422
f 862 861 422
f 422 861 423
f 861 828 423
f 423 828 424
f 828 827 424
f 424 827 425
f 827 826 425
f 425 826 426
f 826 778 426
f 426 778 427
f 778 777 427
f 427 777 428
f 777 776 428
f 428 776 429
f 776 707 429
f 429 707 430
f 707 706 430
f 430 706 431
f 706 741 431
f 431 741 432
f 741 740 432
f 432 740 433
f 740 681 433
f 433 681 434
f 681 680 434
f 434 680 435
f 680 679 435
f 435 679 436
f 679 678 436
f 436 678 293
f 678 676 293
f 293 676 294
f 676 675 294
f 294 675 295
f 675 705 295
f 295 705 296
f 705 611 296
f 296 611 297
f 611 613 297
f 297 613 298
f 613 643 298
f 298 643 299
f 643 664 299
f 299 664 300
f 664 710 300
f 300 710 301
f 710 715 301
f 301 715 302
f 715 720 302
f 302 720 303
f 720 832 303
f 303 832 304
f 832 816 304
f 304 816 305
f 816 815 305
f 305 815 306
f 815 814 306
f 306 814 307
f 814 813 307
f 307 813 308
f 813 812 308
f 308 812 309
f 812 811 309
f 309 811 310
f 811 759 310
f 310 759 311
f 759 758 311
f 311 758 312
f 758 757 312
f 312 757 313
f 757 754 313
f 313 754 314
f 754 755 314
f 314 755 315
f 755 756 315
f 315 756 316
f 756 788 316
f 316 788 317
f 788 787 317
f 317 787 318
f 787 696 318
f 318 696 319
f 696 695 319
f 319 695 320
f 695 810 320
f 320 810 321
f 810 809 321
f 321 809 322
f 809 808 322
f 322 808 323
f 808 807 323
f 323 807 324
f 807 806 324
f 324 806 325
f 806 786 325
f 325 786 326
f 786 785 326
f 326 785 327
f 785 784 327
f 327 784 328
f 784 735 328
f 328 735 329
f 735 734 329
f 329 734 330
f 734 733 330
f 330 733 331
f 733 647 331
f 331 647 332
f 647 646 332
f 332 646 333
f 646 783 333
f 333 783 334
f 783 782 334
f 334 782 335
f 782 732 335
f 335 732 336
f 732 731 336
f 336 731 337
f 731 730 337
f 337 730 338
f 730 729 338
f 338 729 339
f 729 728 339
f 339 728 340
f 728 727 340
f 340 727 341
f 727 618 341
f 341 618 342
f 618 617 342
f 342 617 343
f 617 616 343
f 343 616 344
f 616 694 344
f 344 694 345
f 694 693 345
f 345 693 346
f 693 692 346
f 346 692 347
f 692 691 347
f 347 691 348
f 691 690 348
f 348 690 349
f 690 689 349
f 349 689 350
f 689 688 350
f 350 688 351
f 688 687 351
f 351 687 352
f 687 686 352
f 352 686 353
f 686 726 353
f 353 726 354
f 726 725 354
f 354 725 355
f 725 685 355
f 355 685 356
f 685 684 356
f 356 684 357
f 684 724 357
f 357 724 358
f 724 723 358
f 358 723 359
f 723 645 359
f 359 645 360
f 645 644 360
f 360 644 361
f 644 775 361
f 361 775 362
f 775 774 362
f 1091 533 1092
f 533 532 1092
f 1092 532 1057
f 532 531 1057
f 1057 531 1058
f 531 530 1058
f 1058 530 1060
f 530 529 1060
f 1060 529 1061
f 529 528 1061
f 1061 528 1062
f 528 527 1062
f 1062 527 1093
f 527 526 1093
f 1093 526 1094
f 526 525 1094
f 1094 525 1095
f 525 524 1095
f 1095 524 1096
f 524 523 1096
f 1096 523 1097
f 523 522 1097
f 1097 522 1063
f 522 521 1063
f 1063 521 1064
f 521 520 1064
f 1064 520 1098
f 520 519 1098
f 1098 519 1099
f 519 518 1099
f 1099 518 1100
f 518 517 1100
f 1100 517 1165
f 517 516 1165
f 1165 516 1166
f 516 515 1166
f 1166 515 1149
f 515 514 1149
f 1149 514 1150
f 514 513 1150
f 1150 513 1151
f 513 512 1151
f 1151 512 1152
f 512 511 1152
f 1152 511 1160
f 511 510 1160
f 1160 510 1161
f 510 509 1161
f 1161 509 1162
f 509 508 1162
f 1162 508 1167
f 508 507 1167
f 1167 507 1168
f 507 506 1168
f 1168 506 1138
f 506 505 1138
f 1138 505 1120
f 505 504 1120
f 1120 504 1121
f 504 503 1121
f 1121 503 1163
f 503 502 1163
f 1163 502 1164
f 502 501 1164
f 1164 501 1153
f 501 500 1153
f 1153 500 1154
f 500 499 1154
f 1154 499 1155
f 499 498 1155
f 1155 498 1082
f 498 497 1082
f 1082 497 1083
f 497 496 1083
f 1083 496 1081
f 496 495 1081
f 1081 495 1045
f 495 494 1045
f 1045 494 1044
f 494 493 1044
f 1044 493 1040
f 493 492 1040
f 1040 492 1027
f 492 491 1027
f 1027 491 1026
f 491 490 1026
f 1026 490 1025
f 490 489 1025
f 1025 489 1048
f 489 488 1048
f 1048 488 1038
f 488 487 1038
f 1038 487 1039
f 487 486 1039
f 1039 486 1049
f 486 485 1049
f 1049 485 1050
f 485 484 1050
f 1050 484 1051
f 484 483 1051
f 1051 483 1052
f 483 482 1052
f 1052 482 1053
f 482 481 1053
f 1053 481 1054
f 481 480 1054
f 1054 480 1055
f 480 479 1055
f 1055 479 1056
f 479 478 1056
f 1056 478 1065
f 478 477 1065
f 1065 477 1059
f 477 476 1059
f 1059 476 1047
f 476 475 1047
f 1047 475 1037
f 475 474 1037
f 1037 474 1032
f 474 473 1032
f 1032 473 1031
f 473 472 1031
f 1031 472 1030
f 472 471 1030
f 1030 471 1029
f 471 470 1029
f 1029 470 1042
f 470 469 1042
f 1042 469 1043
f 469 468 1043
f 1043 468 1046
f 468 467 1046
f 1046 467 1033
f 467 466 1033
f 1033 466 1034
f 466 465 1034
f 1034 465 1035
f 465 464 1035
f 1035 464 1036
f 464 463 1036
f 1036 463 1041
f 463 462 1041
f 1041 462 1028
f 462 461 1028
f 1028 461 1067
f 461 460 1067
f 1067 460 1066
f 460 459 1066
f 1066 459 1084
f 459 458 1084
f 1084 458 1085
f 458 457 1085
f 1085 457 1086
f 457 456 1086
f 1086 456 1087
f 456 455 1087
f 1087 455 1088
f 455 454 1088
f 1088 454 1089
f 454 453 1089
f 1089 453 1101
f 453 452 1101
f 1101 452 1102
f 452 451 1102
f 1102 451 1068
f 451 450 1068
f 1068 450 1069
f 450 449 1069
f 1069 449 1070
f 449 448 1070
f 1070 448 1071
f 448 447 1071
f 1071 447 1072
f 447 446 1072
f 1072 446 1073
f 446 445 1073
f 1073 445 1074
f 445 444 1074
f 1074 444 1103
f 444 443 1103
f 1103 443 1104
f 443 442 1104
f 1104 442 1105
f 442 441 1105
f 1105 441 1106
f 441 584 1106
f 1106 584 1107
f 584 583 1107
f 1107 583 1108
f 583 582 1108
f 1108 582 1109
f 582 581 1109
f 1109 581 1110
f 581 580 1110
f 1110 580 1111
f 580 579 1111
f 1111 579 1122
f 579 578 1122
f 1122 578 1123
f 578 577 1123
f 1123 577 1112
f 577 576 1112
f 1112 576 1113
f 576 575 1113
f 1113 575 1114
f 575 574 1114
f 1114 574 1124
f 574 573 1124
f 1124 573 1125
f 573 572 1125
f 1125 572 1126
f 572 571 1126
f 1126 571 1127
f 571 570 1127
f 1127 570 1128
f 570 569 1128
f 1128 569 1129
f 569 568 1129
f 1129 568 1115
f 568 567 1115
f 1115 567 1116
f 567 566 1116
f 1116 566 1117
f 566 565 1117
f 1117 565 1139
f 565 564 1139
f 1139 564 1140
f 564 563 1140
f 1140 563 1141
f 563 562 1141
f 1141 562 1156
f 562 561 1156
f 1156 561 1157
f 561 560 1157
f 1157 560 1118
f 560 559 1118
f 1118 559 1119
f 559 558 1119
f 1119 558 1142
f 558 557 1142
f 1142 557 1143
f 557 556 1143
f 1143 556 1144
f 556 555 1144
f 1144 555 1158
f 555 554 1158
f 1158 554 1159
f 554 553 1159
f 1159 553 1130
f 553 552 1130
f 1130 552 1131
f 552 551 1131
f 1131 551 1145
f 551 550 1145
f 1145 550 1146
f 550 549 1146
f 1146 549 1134
f 549 548 1134
f 1134 548 1133
f 548 547 1133
f 1133 547 1132
f 547 546 1132
f 1132 546 1135
f 546 545 1135
f 1135 545 1136
f 545 544 1136
f 1136 544 1137
f 544 543 1137
f 1137 543 1147
f 543 542 1147
f 1147 542 1148
f 542 541 1148
f 1148 541 1075
f 541 540 1075
f 1075 540 1076
f 540 539 1076
f 1076 539 1077
f 539 538 1077
f 1077 538 1078
f 538 537 1078
f 1078 537 1079
f 537 536 1079
f 1079 536 1080
f 536 535 1080
f 1080 535 1090
f 535 534 1090
f 1090 534 1091
f 534 533 1091

