# https://github.com/mikedh/trimesh
v 134.46499634 19.38699913 0.00000000
v 136.37300110 20.38599968 0.00000000
v 135.66000366 19.14900017 0.00000000
v 119.39199829 -86.82499695 0.00000000
v 117.27300262 -86.57299805 0.00000000
v 119.09600067 -85.42700195 0.00000000
v 72.01200104 -38.34400177 9.00000000
v 72.01200104 -38.34400177 0.00000000
v 70.61499786 -38.04800034 9.00000000
v 131.55599976 19.84600067 0.00000000
v 130.34700012 19.98999977 0.00000000
v 132.17100525 21.13500023 0.00000000
v 72.15599823 -39.55400085 9.00000000
v 72.15599823 -39.55400085 0.00000000
v 70.86699677 -40.16699982 0.00000000
v 71.78099823 -35.40700150 0.00000000
v 71.73400116 -34.19100189 9.00000000
v 71.78099823 -35.40700150 9.00000000
v 124.17900085 -88.44200134 0.00000000
v 120.88999939 -88.31300354 0.00000000
v 123.65399933 -87.07599640 0.00000000
v 70.61499786 -38.04800034 0.00000000
v 69.21199799 -37.63199997 0.00000000
v 69.21199799 -37.63199997 9.00000000
v 69.59899902 -40.89899826 0.00000000
v 69.59899902 -40.89899826 9.00000000
v 69.76899719 -41.97200012 0.00000000
v 70.86699677 -40.16699982 9.00000000
v 69.12699890 -36.54999924 0.00000000
v 69.12699890 -36.54999924 9.00000000
v 70.44799805 -35.91999817 0.00000000
v 70.44799805 -35.91999817 9.00000000
v 72.15599823 -25.88400078 9.00000000
v 72.15599823 -25.88400078 0.00000000
v 70.86699677 -25.26899910 0.00000000
v 70.86699677 -25.26899910 9.00000000
v 72.01200104 -27.09399986 0.00000000
v 69.59899902 -24.53899956 0.00000000
v 71.78099823 -30.02899933 9.00000000
v 71.78099823 -30.02899933 0.00000000
v 70.44799805 -29.51700020 9.00000000
v 71.73400116 -31.24500084 9.00000000
v 71.73400116 -31.24500084 0.00000000
v 119.80899811 -88.22799683 0.00000000
v 116.54100037 -87.84100342 0.00000000
v 70.36499786 -31.65099907 0.00000000
v 72.01200104 -27.09399986 9.00000000
v 117.88600159 -85.28399658 0.00000000
v 70.44799805 -29.51700020 0.00000000
v 69.12699890 -28.88800049 0.00000000
v 69.12699890 -28.88800049 9.00000000
v 70.36499786 -31.65099907 9.00000000
v 68.99800110 -32.17499924 9.00000000
v 68.99800110 -32.17499924 0.00000000
v 69.21199799 -27.80500031 0.00000000
v 69.21199799 -27.80500031 9.00000000
v 70.61499786 -27.38999939 0.00000000
v 70.61499786 -27.38999939 9.00000000
v 113.55699921 -88.90100098 0.00000000
v 115.46800232 -87.67099762 0.00000000
v 73.87200165 -17.74600029 9.00000000
v 73.87200165 -17.74600029 0.00000000
v 72.69499969 -16.93700027 0.00000000
v 72.69499969 -16.93700027 9.00000000
v 73.54199982 -18.91600037 0.00000000
v 71.55599976 -16.01600075 0.00000000
v 72.85399628 -21.78000069 9.00000000
v 72.85399628 -21.78000069 0.00000000
v 71.61699677 -21.06699944 9.00000000
v 72.61699677 -22.97500038 9.00000000
v 72.61699677 -22.97500038 0.00000000
v 71.19999695 -23.16200066 0.00000000
v 73.54199982 -18.91600037 9.00000000
v 71.61699677 -21.06699944 0.00000000
v 70.41100311 -20.23800087 0.00000000
v 70.41100311 -20.23800087 9.00000000
v 69.59899902 -24.53899956 9.00000000
v 69.76899719 -23.46599960 0.00000000
v 69.76899719 -23.46599960 9.00000000
v 115.16400146 -86.23899841 0.00000000
v 113.06999969 -85.82199860 0.00000000
v 71.19999695 -23.16200066 9.00000000
v 70.66400146 -19.18199921 0.00000000
v 70.66400146 -19.18199921 9.00000000
v 72.11599731 -18.98999977 0.00000000
v 72.11599731 -18.98999977 9.00000000
v 76.83999634 -9.97599983 9.00000000
v 76.83999634 -9.97599983 0.00000000
v 75.80500031 -8.99199963 0.00000000
v 75.80500031 -8.99199963 9.00000000
v 76.33200073 -11.07999992 0.00000000
v 74.82399750 -7.90500021 9.00000000
v 75.20400238 -13.80200005 0.00000000
v 75.20400238 -13.80200005 9.00000000
v 74.78199768 -14.94499969 9.00000000
v 74.78199768 -14.94499969 0.00000000
v 73.35500336 -14.90699959 0.00000000
v 134.27999878 20.80200005 0.00000000
v 133.97399902 22.23399925 0.00000000
v 137.20199585 21.59300041 0.00000000
v 76.33200073 -11.07999992 9.00000000
v 74.09400177 -12.90400028 0.00000000
v 74.09400177 -12.90400028 9.00000000
v 73.03199768 -11.89500046 0.00000000
v 73.03199768 -11.89500046 9.00000000
v 71.55599976 -16.01600075 9.00000000
v 71.89299774 -14.98299980 0.00000000
v 71.89299774 -14.98299980 9.00000000
v 73.35500336 -14.90699959 9.00000000
v 127.41100311 -85.65899658 0.00000000
v 125.78900146 -87.07599640 0.00000000
v 126.19499969 -85.70600128 0.00000000
v 73.44799805 -10.89299965 0.00000000
v 73.44799805 -10.89299965 9.00000000
v 74.91100311 -10.93099976 0.00000000
v 74.91100311 -10.93099976 9.00000000
v 130.34700012 -85.42700195 0.00000000
v 131.55599976 -85.28399658 0.00000000
v 130.05000305 -86.82499695 0.00000000
v 80.11799622 -1.63300002 0.00000000
v 80.11799622 -1.63300002 9.00000000
v 80.98799896 -2.76500010 9.00000000
v 80.98799896 -2.76500010 0.00000000
v 80.31099701 -3.77699995 0.00000000
v 79.32199860 -0.40500000 0.00000000
v 79.32199860 -0.40500000 9.00000000
v 78.77200317 -6.28900003 0.00000000
v 78.77200317 -6.28900003 9.00000000
v 78.17800140 -7.35099983 9.00000000
v 78.17800140 -7.35099983 0.00000000
v 80.31099701 -3.77699995 9.00000000
v 77.81700134 -5.22700024 9.00000000
v 77.81700134 -5.22700024 0.00000000
v 76.92500305 -4.06699991 0.00000000
v 76.92500305 -4.06699991 9.00000000
v 74.82399750 -7.90500021 0.00000000
v 75.31700134 -6.93699980 0.00000000
v 75.31700134 -6.93699980 9.00000000
v 76.77400208 -7.09000015 0.00000000
v 76.77400208 -7.09000015 9.00000000
v 77.49299622 -3.14000010 0.00000000
v 77.49299622 -3.14000010 9.00000000
v 78.93299866 -3.40700006 0.00000000
v 78.93299866 -3.40700006 9.00000000
v 174.61799622 -57.53300095 9.00000000
v 174.61799622 -57.53300095 0.00000000
v 174.12500000 -58.50099945 0.00000000
v 174.12500000 -58.50099945 9.00000000
v 172.66999817 -58.34799957 0.00000000
v 172.66999817 -58.34799957 9.00000000
v 125.26499939 -88.44200134 0.00000000
v 128.55200195 -88.31300354 0.00000000
v 127.92299652 -86.99099731 0.00000000
v 81.37400055 0.09500000 0.00000000
v 82.71900177 -0.38200000 0.00000000
v 82.71900177 -0.38200000 9.00000000
v 135.88299561 23.34099960 0.00000000
v 138.25799561 21.33799934 0.00000000
v 132.90299988 22.40299988 0.00000000
v 98.93900299 -82.12300110 9.00000000
v 97.74700165 -83.24400330 9.00000000
v 99.90699768 -82.61499786 9.00000000
v 173.63900757 -56.44599915 0.00000000
v 173.63900757 -56.44599915 9.00000000
v 172.60200500 -55.46200180 9.00000000
v 172.60200500 -55.46200180 0.00000000
v 141.33000183 21.97599983 0.00000000
v 141.42500305 20.44599915 0.00000000
v 138.52400208 18.45999908 0.00000000
v 138.44999695 19.88699913 0.00000000
v 139.69400024 18.12999916 0.00000000
v 140.50300598 19.30800056 0.00000000
v 174.66000366 -50.49300003 9.00000000
v 174.66000366 -50.49300003 0.00000000
v 174.23899841 -51.63499832 0.00000000
v 174.23899841 -51.63499832 9.00000000
v 173.11199951 -54.35800171 0.00000000
v 173.11199951 -54.35800171 9.00000000
v 145.54499817 18.96999931 0.00000000
v 144.53599548 17.90900040 0.00000000
v 142.45799255 20.10899925 0.00000000
v 142.53500366 18.64699936 0.00000000
v 142.49699402 17.21999931 0.00000000
v 143.63900757 16.79800034 0.00000000
v 175.35000610 -52.53400040 9.00000000
v 175.35000610 -52.53400040 0.00000000
v 146.61700439 20.08399963 0.00000000
v 146.54699707 18.55599976 0.00000000
v 176.41200256 -53.54199982 0.00000000
v 176.41200256 -53.54199982 9.00000000
v 119.11100006 -89.72399902 0.00000000
v 124.72000122 -90.00000000 0.00000000
v 121.52100372 -86.99099731 0.00000000
v 129.63499451 -88.22799683 0.00000000
v 130.32899475 -89.72399902 0.00000000
v 149.53500366 17.17799950 0.00000000
v 146.50900269 17.09300041 0.00000000
v 177.88600159 -49.42100143 9.00000000
v 177.88600159 -49.42100143 0.00000000
v 177.55099487 -50.45500183 0.00000000
v 177.55099487 -50.45500183 9.00000000
v 160.25399780 6.61600018 0.00000000
v 160.83500671 7.92100000 0.00000000
v 161.14799500 5.78999996 0.00000000
v 176.08799744 -50.53099823 0.00000000
v 176.08799744 -50.53099823 9.00000000
v 109.74800110 -83.56700134 9.00000000
v 108.93900299 -84.74400330 9.00000000
v 110.91999817 -83.89800262 9.00000000
v 162.40400696 6.47100019 0.00000000
v 163.74000549 7.06799984 0.00000000
v 175.99600220 -54.54499817 0.00000000
v 175.99600220 -54.54499817 9.00000000
v 174.53300476 -54.50500107 0.00000000
v 174.53300476 -54.50500107 9.00000000
v 176.74899292 -48.50099945 0.00000000
v 176.74899292 -48.50099945 9.00000000
v 175.57200623 -47.69200134 9.00000000
v 175.57200623 -47.69200134 0.00000000
v 148.44799805 16.19899940 0.00000000
v 146.36000061 15.67199993 0.00000000
v 150.08900452 13.82400036 0.00000000
v 150.35099792 15.22999954 0.00000000
v 151.15100098 13.22999954 0.00000000
v 175.90199280 -46.52000046 0.00000000
v 175.90199280 -46.52000046 9.00000000
v 147.46600342 15.16199970 0.00000000
v 179.03300476 -45.19900131 0.00000000
v 179.03300476 -45.19900131 9.00000000
v 177.82600403 -44.36999893 9.00000000
v 177.82600403 -44.36999893 0.00000000
v 152.21400452 14.18599987 0.00000000
v 153.37500000 15.07699966 0.00000000
v 178.77799988 -46.25500107 0.00000000
v 178.77799988 -46.25500107 9.00000000
v 156.50999451 14.79699993 0.00000000
v 154.30000305 14.51099968 0.00000000
v 177.32800293 -46.44599915 0.00000000
v 177.32800293 -46.44599915 9.00000000
v 108.11000061 -87.53600311 9.00000000
v 113.55699921 -88.90100098 9.00000000
v 111.18499756 -86.77600098 9.00000000
v 112.23999786 -87.02899933 9.00000000
v 135.88299561 -88.90100098 0.00000000
v 135.88299561 -88.90100098 9.00000000
v 154.03300476 13.07100010 0.00000000
v 155.80799866 11.88399982 0.00000000
v 153.66299438 11.69099998 0.00000000
v 157.03700256 12.68200016 0.00000000
v 110.99400330 -85.32299805 9.00000000
v 108.01899719 -85.88400269 9.00000000
v 141.33000183 -87.53600311 0.00000000
v 141.33000183 -87.53600311 9.00000000
v 154.67500305 11.01399994 0.00000000
v 146.61700439 -85.64399719 0.00000000
v 146.61700439 -85.64399719 9.00000000
v 133.97399902 22.23399925 9.00000000
v 135.88299561 23.34099960 9.00000000
v 132.90299988 22.40299988 9.00000000
v 160.49800110 10.00500011 0.00000000
v 159.21099854 9.30799961 0.00000000
v 157.91499329 12.04300022 0.00000000
v 157.53500366 10.63000011 0.00000000
v 157.05900574 9.28299999 0.00000000
v 158.01499939 8.52900028 0.00000000
v 161.02000427 11.45199966 0.00000000
v 161.32499695 9.30099964 0.00000000
v 106.98600006 -85.54699707 9.00000000
v 151.69299316 -83.24400330 9.00000000
v 151.69299316 -83.24400330 0.00000000
v 165.18099976 7.68100023 0.00000000
v 151.69299316 17.68400002 0.00000000
v 150.50300598 16.68499947 0.00000000
v 163.22999573 3.70799994 0.00000000
v 163.91099548 4.96199989 0.00000000
v 164.05799866 2.81399989 0.00000000
v 134.27999878 20.80200005 9.00000000
v 137.20199585 21.59300041 9.00000000
v 136.37300110 20.38599968 9.00000000
v 134.46499634 19.38699913 9.00000000
v 135.66000366 19.14900017 9.00000000
v 166.74200439 3.88400006 0.00000000
v 165.36199951 3.39499998 0.00000000
v 164.50799561 6.30000019 0.00000000
v 168.95199585 3.51999998 0.00000000
v 105.80500031 -82.23600006 9.00000000
v 104.90599823 -83.34600067 9.00000000
v 106.94699860 -82.65799713 9.00000000
v 106.90899658 -84.08499908 9.00000000
v 103.89900208 -84.40799713 9.00000000
v 102.82299805 -85.64399719 9.00000000
v 166.74899292 1.77100003 0.00000000
v 167.44700623 3.05800009 0.00000000
v 169.48300171 0.47400001 0.00000000
v 168.07000732 0.09500000 0.00000000
v 77.14299774 -0.99000001 0.00000000
v 79.95899963 0.47400001 0.00000000
v 80.48799896 3.51999998 0.00000000
v 81.99700165 3.05800009 0.00000000
v 84.25900269 7.68100023 0.00000000
v 82.70200348 3.88400006 0.00000000
v 82.69499969 1.77100003 0.00000000
v 91.52799988 12.04300022 0.00000000
v 91.52799988 12.04300022 9.00000000
v 91.90899658 10.63000011 9.00000000
v 91.90899658 10.63000011 0.00000000
v 138.25799561 21.33799934 9.00000000
v 85.38600159 2.81399989 0.00000000
v 84.08200073 3.39499998 0.00000000
v 86.21199799 3.70799994 0.00000000
v 101.97799683 -80.59999847 9.00000000
v 100.99400330 -81.63700104 9.00000000
v 103.08200073 -81.11000061 9.00000000
v 84.93499756 6.30000019 0.00000000
v 85.53099823 4.96199989 0.00000000
v 85.70200348 7.06799984 0.00000000
v 88.11900330 9.30099964 0.00000000
v 87.04000092 6.47100019 0.00000000
v 88.60700226 7.92100000 0.00000000
v 88.29599762 5.78999996 0.00000000
v 89.18900299 6.61600018 0.00000000
v 88.41999817 11.45199966 0.00000000
v 88.94400024 10.00500011 0.00000000
v 138.52400208 18.45999908 9.00000000
v 139.69400024 18.12999916 9.00000000
v 138.44999695 19.88699913 9.00000000
v 141.42500305 20.44599915 9.00000000
v 141.33000183 21.97599983 9.00000000
v 68.99800110 -33.26100159 9.00000000
v 68.99800110 -33.26100159 0.00000000
v 124.72000122 -90.00000000 9.00000000
v 130.32899475 -89.72399902 9.00000000
v 90.23100281 9.30799961 0.00000000
v 90.23100281 9.30799961 9.00000000
v 80.48799896 -69.08000183 0.00000000
v 84.25900269 -73.24099731 0.00000000
v 84.25900269 -73.24099731 9.00000000
v 80.48799896 -69.08000183 9.00000000
v 88.41999817 -77.01200104 0.00000000
v 88.41999817 -77.01200104 9.00000000
v 92.93000031 -80.35700226 9.00000000
v 92.93000031 -80.35700226 0.00000000
v 97.74700165 -83.24400330 0.00000000
v 102.82299805 -85.64399719 0.00000000
v 98.29100037 -78.66699982 9.00000000
v 97.23000336 -79.62400055 9.00000000
v 99.35299683 -79.26200104 9.00000000
v 99.09300232 -80.66699982 9.00000000
v 108.11000061 -87.53600311 0.00000000
v 119.11100006 -89.72399902 9.00000000
v 88.94400024 -75.44300079 9.00000000
v 88.94400024 -75.44300079 0.00000000
v 88.11900330 -74.73799896 0.00000000
v 88.11900330 -74.73799896 9.00000000
v 91.42900085 -73.96700287 9.00000000
v 91.42900085 -73.96700287 0.00000000
v 90.23100281 -74.74500275 0.00000000
v 90.23100281 -74.74500275 9.00000000
v 98.29100037 -78.66699982 0.00000000
v 99.35299683 -79.26200104 0.00000000
v 95.77899933 -77.12799835 9.00000000
v 95.77899933 -77.12799835 0.00000000
v 94.76799774 -76.45200348 0.00000000
v 94.76799774 -76.45200348 9.00000000
v 97.23000336 -79.62400055 0.00000000
v 95.41000366 -78.50700378 0.00000000
v 92.38500214 -74.72100067 0.00000000
v 92.38500214 -74.72100067 9.00000000
v 93.63500214 -77.32199860 0.00000000
v 93.63500214 -77.32199860 9.00000000
v 92.40699768 -78.12000275 0.00000000
v 92.40699768 -78.12000275 9.00000000
v 92.40699768 12.68200016 0.00000000
v 92.40699768 12.68200016 9.00000000
v 93.63500214 11.88399982 0.00000000
v 93.63500214 11.88399982 9.00000000
v 96.06900024 -80.51499939 0.00000000
v 96.06900024 -80.51499939 9.00000000
v 140.50300598 19.30800056 9.00000000
v 95.14399719 -79.94699860 0.00000000
v 95.14399719 -79.94699860 9.00000000
v 142.53500366 18.64699936 9.00000000
v 144.53599548 17.90900040 9.00000000
v 142.45799255 20.10899925 9.00000000
v 95.41000366 -78.50700378 9.00000000
v 91.52799988 -77.48100281 0.00000000
v 91.52799988 -77.48100281 9.00000000
v 91.90899658 -76.06800079 0.00000000
v 91.90899658 -76.06800079 9.00000000
v 85.38600159 -68.25199890 9.00000000
v 85.38600159 -68.25199890 0.00000000
v 84.08200073 -68.83300018 9.00000000
v 89.18900299 -72.05400085 9.00000000
v 89.18900299 -72.05400085 0.00000000
v 88.29599762 -71.22799683 0.00000000
v 88.29599762 -71.22799683 9.00000000
v 86.21199799 -69.14399719 9.00000000
v 86.21199799 -69.14399719 0.00000000
v 87.04000092 -71.90899658 0.00000000
v 88.60700226 -73.35800171 0.00000000
v 88.60700226 -73.35800171 9.00000000
v 85.53099823 -70.40000153 0.00000000
v 84.08200073 -68.83300018 0.00000000
v 82.70200348 -69.32199860 0.00000000
v 82.70200348 -69.32199860 9.00000000
v 87.04000092 -71.90899658 9.00000000
v 96.06900024 15.07699966 0.00000000
v 96.06900024 15.07699966 9.00000000
v 95.14399719 14.51099968 9.00000000
v 95.14399719 14.51099968 0.00000000
v 85.70200348 -72.50499725 0.00000000
v 85.70200348 -72.50499725 9.00000000
v 117.88600159 -85.28399658 9.00000000
v 117.27300262 -86.57299805 9.00000000
v 119.09600067 -85.42700195 9.00000000
v 119.39199829 -86.82499695 9.00000000
v 97.23000336 14.18599987 0.00000000
v 97.23000336 14.18599987 9.00000000
v 98.29100037 13.22999954 0.00000000
v 98.29100037 13.22999954 9.00000000
v 143.63900757 16.79800034 9.00000000
v 142.49699402 17.21999931 9.00000000
v 145.54499817 18.96999931 9.00000000
v 84.93499756 -71.73699951 0.00000000
v 84.93499756 -71.73699951 9.00000000
v 85.53099823 -70.40000153 9.00000000
v 99.35299683 13.82400036 0.00000000
v 99.35299683 13.82400036 9.00000000
v 146.61700439 20.08399963 9.00000000
v 146.54699707 18.55599976 9.00000000
v 103.08200073 15.67199993 0.00000000
v 103.08200073 15.67199993 9.00000000
v 101.97799683 15.16199970 9.00000000
v 101.97799683 15.16199970 0.00000000
v 99.09300232 15.22999954 9.00000000
v 99.09300232 15.22999954 0.00000000
v 81.99700165 -68.49600220 0.00000000
v 81.99700165 -68.49600220 9.00000000
v 120.88999939 -88.31300354 9.00000000
v 123.65399933 -87.07599640 9.00000000
v 121.52100372 -86.99099731 9.00000000
v 82.69499969 -67.20899963 0.00000000
v 82.69499969 -67.20899963 9.00000000
v 100.99400330 16.19899940 0.00000000
v 100.99400330 16.19899940 9.00000000
v 99.90699768 17.17799950 0.00000000
v 83.47299957 -66.01100159 0.00000000
v 83.47299957 -66.01100159 9.00000000
v 99.90699768 -82.61499786 0.00000000
v 148.44799805 16.19899940 9.00000000
v 149.53500366 17.17799950 9.00000000
v 146.50900269 17.09300041 9.00000000
v 105.80500031 -82.23600006 0.00000000
v 104.90599823 -83.34600067 0.00000000
v 147.46600342 15.16199970 9.00000000
v 146.36000061 15.67199993 9.00000000
v 102.93399811 17.09300041 9.00000000
v 102.93399811 17.09300041 0.00000000
v 103.89900208 -84.40799713 0.00000000
v 106.94699860 -82.65799713 0.00000000
v 102.89499664 -83.99400330 0.00000000
v 102.89499664 -83.99400330 9.00000000
v 102.93399811 -82.52899933 0.00000000
v 102.93399811 -82.52899933 9.00000000
v 98.93900299 -82.12300110 0.00000000
v 99.09300232 -80.66699982 0.00000000
v 114.97799683 -84.82299805 9.00000000
v 114.97799683 -84.82299805 0.00000000
v 113.78399658 -84.58599854 0.00000000
v 113.78399658 -84.58599854 9.00000000
v 110.91999817 -83.89800262 0.00000000
v 109.74800110 -83.56700134 0.00000000
v 113.06999969 -85.82199860 9.00000000
v 163.74000549 7.06799984 9.00000000
v 160.83500671 7.92100000 9.00000000
v 162.40400696 6.47100019 9.00000000
v 160.25399780 6.61600018 9.00000000
v 161.14799500 5.78999996 9.00000000
v 110.99400330 -85.32299805 0.00000000
v 171.62699890 -5.22700024 9.00000000
v 174.12500000 -6.93699980 9.00000000
v 172.51699829 -4.06699991 9.00000000
v 108.93900299 -84.74400330 0.00000000
v 108.01899719 -85.88400269 0.00000000
v 156.50999451 -80.35700226 0.00000000
v 156.50999451 -80.35700226 9.00000000
v 112.23999786 -87.02899933 0.00000000
v 161.02000427 -77.01200104 0.00000000
v 161.02000427 -77.01200104 9.00000000
v 111.18499756 -86.77600098 0.00000000
v 170.67100525 -6.28900003 9.00000000
v 172.66999817 -7.09000015 9.00000000
v 174.61799622 -7.90500021 9.00000000
v 175.18400574 -5.80700016 9.00000000
v 165.18099976 -73.24099731 0.00000000
v 177.58399963 -10.88300037 9.00000000
v 165.18099976 -73.24099731 9.00000000
v 168.95199585 -69.08000183 0.00000000
v 168.95199585 -69.08000183 9.00000000
v 106.98600006 -85.54699707 0.00000000
v 172.29699707 -64.56999969 0.00000000
v 172.29699707 -64.56999969 9.00000000
v 106.90899658 -84.08499908 0.00000000
v 138.52400208 -83.89800262 0.00000000
v 138.52400208 -83.89800262 9.00000000
v 139.69400024 -83.56700134 0.00000000
v 139.69400024 -83.56700134 9.00000000
v 135.66000366 -84.58599854 9.00000000
v 135.66000366 -84.58599854 0.00000000
v 134.46499634 -84.82299805 0.00000000
v 134.46499634 -84.82299805 9.00000000
v 138.44999695 -85.32299805 0.00000000
v 136.37300110 -85.82199860 0.00000000
v 134.27999878 -86.23899841 0.00000000
v 134.27999878 -86.23899841 9.00000000
v 133.97399902 -87.67099762 0.00000000
v 133.97399902 -87.67099762 9.00000000
v 138.44999695 -85.32299805 9.00000000
v 138.25799561 -86.77600098 0.00000000
v 138.25799561 -86.77600098 9.00000000
v 137.20199585 -87.02899933 0.00000000
v 137.20199585 -87.02899933 9.00000000
v 91.42900085 8.52900028 0.00000000
v 92.38500214 9.28299999 0.00000000
v 136.37300110 -85.82199860 9.00000000
v 116.54100037 -87.84100342 9.00000000
v 132.90299988 -87.84100342 0.00000000
v 132.90299988 -87.84100342 9.00000000
v 181.66400146 -27.17099953 9.00000000
v 180.31599426 -28.88800049 9.00000000
v 181.94000244 -32.77999878 9.00000000
v 180.44500732 -32.17499924 9.00000000
v 180.44500732 -33.26100159 9.00000000
v 180.31599426 -36.54999924 9.00000000
v 181.66400146 -38.38899994 9.00000000
v 132.17100525 -86.57299805 0.00000000
v 132.17100525 -86.57299805 9.00000000
v 131.55599976 -85.28399658 9.00000000
v 142.49699402 -82.65799713 9.00000000
v 142.49699402 -82.65799713 0.00000000
v 142.53500366 -84.08499908 9.00000000
v 143.63900757 -82.23600006 9.00000000
v 143.63900757 -82.23600006 0.00000000
v 144.53599548 -83.34600067 0.00000000
v 142.53500366 -84.08499908 0.00000000
v 142.45799255 -85.54699707 0.00000000
v 142.45799255 -85.54699707 9.00000000
v 146.50900269 -82.52899933 9.00000000
v 146.50900269 -82.52899933 0.00000000
v 146.54699707 -83.99400330 0.00000000
v 146.54699707 -83.99400330 9.00000000
v 145.54499817 -84.40799713 0.00000000
v 145.54499817 -84.40799713 9.00000000
v 170.67100525 -59.14899826 9.00000000
v 171.62699890 -60.20999908 9.00000000
v 171.26600647 -58.08700180 9.00000000
v 102.89499664 18.55599976 0.00000000
v 102.89499664 18.55599976 9.00000000
v 144.53599548 -83.34600067 9.00000000
v 98.93900299 16.68499947 9.00000000
v 98.93900299 16.68499947 0.00000000
v 169.32400513 -63.80500031 9.00000000
v 170.51100159 -62.02999878 9.00000000
v 168.45599365 -62.67200089 9.00000000
v 99.90699768 17.17799950 9.00000000
v 141.42500305 -85.88400269 0.00000000
v 141.42500305 -85.88400269 9.00000000
v 140.50300598 -84.74400330 0.00000000
v 140.50300598 -84.74400330 9.00000000
v 103.89900208 18.96999931 0.00000000
v 103.89900208 18.96999931 9.00000000
v 146.36000061 -81.11000061 0.00000000
v 146.36000061 -81.11000061 9.00000000
v 104.90599823 17.90900040 0.00000000
v 104.90599823 17.90900040 9.00000000
v 105.80500031 16.79800034 0.00000000
v 105.80500031 16.79800034 9.00000000
v 150.35099792 -80.66699982 9.00000000
v 150.35099792 -80.66699982 0.00000000
v 150.50300598 -82.12300110 0.00000000
v 150.50300598 -82.12300110 9.00000000
v 149.53500366 -82.61499786 0.00000000
v 149.53500366 -82.61499786 9.00000000
v 106.94699860 17.21999931 9.00000000
v 106.94699860 17.21999931 0.00000000
v 170.12199402 -65.03299713 9.00000000
v 110.91999817 18.45999908 0.00000000
v 110.91999817 18.45999908 9.00000000
v 109.74800110 18.12999916 9.00000000
v 109.74800110 18.12999916 0.00000000
v 106.90899658 18.64699936 9.00000000
v 171.95100403 -62.29600143 9.00000000
v 169.13099670 -61.65999985 9.00000000
v 154.67500305 -76.45200348 9.00000000
v 154.67500305 -76.45200348 0.00000000
v 153.66299438 -77.12799835 0.00000000
v 153.66299438 -77.12799835 9.00000000
v 113.78399658 19.14900017 0.00000000
v 114.97799683 19.38699913 9.00000000
v 113.78399658 19.14900017 9.00000000
v 151.15100098 -78.66699982 9.00000000
v 151.15100098 -78.66699982 0.00000000
v 150.08900452 -79.26200104 0.00000000
v 150.08900452 -79.26200104 9.00000000
v 110.99400330 19.88699913 9.00000000
v 110.99400330 19.88699913 0.00000000
v 111.18499756 21.33799934 0.00000000
v 111.18499756 21.33799934 9.00000000
v 155.80799866 -77.32199860 9.00000000
v 155.80799866 -77.32199860 0.00000000
v 106.90899658 18.64699936 0.00000000
v 119.80899811 -88.22799683 9.00000000
v 147.46600342 -80.59999847 0.00000000
v 147.46600342 -80.59999847 9.00000000
v 106.98600006 20.10899925 0.00000000
v 106.98600006 20.10899925 9.00000000
v 108.01899719 20.44599915 0.00000000
v 108.01899719 20.44599915 9.00000000
v 108.93900299 19.30800056 0.00000000
v 108.93900299 19.30800056 9.00000000
v 154.03300476 -78.50700378 0.00000000
v 154.03300476 -78.50700378 9.00000000
v 154.30000305 -79.94699860 0.00000000
v 154.30000305 -79.94699860 9.00000000
v 112.23999786 21.59300041 0.00000000
v 112.23999786 21.59300041 9.00000000
v 113.06999969 20.38599968 0.00000000
v 113.06999969 20.38599968 9.00000000
v 153.37500000 -80.51499939 0.00000000
v 153.37500000 -80.51499939 9.00000000
v 152.21400452 -79.62400055 0.00000000
v 152.21400452 -79.62400055 9.00000000
v 148.44799805 -81.63700104 0.00000000
v 148.44799805 -81.63700104 9.00000000
v 157.05900574 -74.72100067 9.00000000
v 157.05900574 -74.72100067 0.00000000
v 157.53500366 -76.06800079 0.00000000
v 157.53500366 -76.06800079 9.00000000
v 157.91499329 -77.48100281 0.00000000
v 157.91499329 -77.48100281 9.00000000
v 158.01499939 -73.96700287 0.00000000
v 158.01499939 -73.96700287 9.00000000
v 161.32499695 -74.73799896 9.00000000
v 161.32499695 -74.73799896 0.00000000
v 160.49800110 -75.44300079 0.00000000
v 160.49800110 -75.44300079 9.00000000
v 159.21099854 -74.74500275 0.00000000
v 159.21099854 -74.74500275 9.00000000
v 157.03700256 -78.12000275 0.00000000
v 157.03700256 -78.12000275 9.00000000
v 160.25399780 -72.05400085 9.00000000
v 160.25399780 -72.05400085 0.00000000
v 160.83500671 -73.35800171 0.00000000
v 160.83500671 -73.35800171 9.00000000
v 163.22999573 -69.14399719 9.00000000
v 163.22999573 -69.14399719 0.00000000
v 163.91099548 -70.40000153 9.00000000
v 164.05799866 -68.25199890 9.00000000
v 161.14799500 -71.22799683 0.00000000
v 161.14799500 -71.22799683 9.00000000
v 163.91099548 -70.40000153 0.00000000
v 163.74000549 -72.50499725 9.00000000
v 163.74000549 -72.50499725 0.00000000
v 162.40400696 -71.90899658 0.00000000
v 162.40400696 -71.90899658 9.00000000
v 164.50799561 -71.73699951 0.00000000
v 164.50799561 -71.73699951 9.00000000
v 165.97000122 -66.01100159 9.00000000
v 165.97000122 -66.01100159 0.00000000
v 166.74899292 -67.20899963 9.00000000
v 166.72300720 -65.05599976 9.00000000
v 164.05799866 -68.25199890 0.00000000
v 175.18400574 -59.75299835 9.00000000
v 166.74899292 -67.20899963 0.00000000
v 167.44700623 -68.49600220 0.00000000
v 167.44700623 -68.49600220 9.00000000
v 169.48300171 -65.91200256 0.00000000
v 169.48300171 -65.91200256 9.00000000
v 168.07000732 -65.53299713 9.00000000
v 166.74200439 -69.32199860 0.00000000
v 166.74200439 -69.32199860 9.00000000
v 165.36199951 -68.83300018 0.00000000
v 165.36199951 -68.83300018 9.00000000
v 74.25599670 -5.80700016 0.00000000
v 74.25599670 -5.80700016 9.00000000
v 77.14299774 -0.99000001 9.00000000
v 71.85600281 -10.88300037 9.00000000
v 71.85600281 -10.88300037 0.00000000
v 69.96399689 -16.17000008 0.00000000
v 69.96399689 -16.17000008 9.00000000
v 68.59899902 -21.61700058 0.00000000
v 68.59899902 -21.61700058 9.00000000
v 172.51699829 -61.37099838 9.00000000
v 67.77600098 -27.17099953 0.00000000
v 67.77600098 -27.17099953 9.00000000
v 103.08200073 -81.11000061 0.00000000
v 101.97799683 -80.59999847 0.00000000
v 100.99400330 -81.63700104 0.00000000
v 177.58399963 -54.67699814 9.00000000
v 122.03299713 -85.65899658 9.00000000
v 123.24900055 -85.70600128 0.00000000
v 122.03299713 -85.65899658 0.00000000
v 114.97799683 19.38699913 0.00000000
v 119.09600067 19.98999977 0.00000000
v 119.09600067 19.98999977 9.00000000
v 117.88600159 19.84600067 9.00000000
v 117.88600159 19.84600067 0.00000000
v 115.16400146 20.80200005 0.00000000
v 115.16400146 20.80200005 9.00000000
v 115.46800232 -87.67099762 9.00000000
v 115.16400146 -86.23899841 9.00000000
v 130.34700012 -85.42700195 9.00000000
v 127.41100311 -85.65899658 9.00000000
v 126.19499969 -85.70600128 9.00000000
v 130.05000305 -86.82499695 9.00000000
v 123.24900055 -85.70600128 9.00000000
v 125.78900146 -87.07599640 9.00000000
v 125.26499939 -88.44200134 9.00000000
v 129.63499451 -88.22799683 9.00000000
v 128.55200195 -88.31300354 9.00000000
v 119.39199829 21.38699913 9.00000000
v 119.39199829 21.38699913 0.00000000
v 127.92299652 -86.99099731 9.00000000
v 179.47599792 -49.38999939 9.00000000
v 124.17900085 -88.44200134 9.00000000
v 67.50000000 -32.77999878 0.00000000
v 67.50000000 -32.77999878 9.00000000
v 67.77600098 -38.38899994 0.00000000
v 67.77600098 -38.38899994 9.00000000
v 68.59899902 -43.94300079 0.00000000
v 68.59899902 -43.94300079 9.00000000
v 69.96399689 -49.38999939 0.00000000
v 69.96399689 -49.38999939 9.00000000
v 71.85600281 -54.67699814 0.00000000
v 71.85600281 -54.67699814 9.00000000
v 74.25599670 -59.75299835 0.00000000
v 74.25599670 -59.75299835 9.00000000
v 77.14299774 -64.56999969 0.00000000
v 77.14299774 -64.56999969 9.00000000
v 78.17800140 -58.08700180 9.00000000
v 78.17800140 -58.08700180 0.00000000
v 76.77400208 -58.34799957 0.00000000
v 76.77400208 -58.34799957 9.00000000
v 78.77200317 -59.14899826 0.00000000
v 75.31700134 -58.50099945 0.00000000
v 75.31700134 -58.50099945 9.00000000
v 80.31099701 -61.65999985 9.00000000
v 80.31099701 -61.65999985 0.00000000
v 78.93299866 -62.02999878 9.00000000
v 80.98799896 -62.67200089 9.00000000
v 80.98799896 -62.67200089 0.00000000
v 80.11799622 -63.80500031 0.00000000
v 78.77200317 -59.14899826 9.00000000
v 78.93299866 -62.02999878 0.00000000
v 77.49299622 -62.29600143 0.00000000
v 77.49299622 -62.29600143 9.00000000
v 79.95899963 -65.91200256 0.00000000
v 79.95899963 -65.91200256 9.00000000
v 81.37400055 -65.53299713 0.00000000
v 81.37400055 -65.53299713 9.00000000
v 79.32199860 -65.03299713 9.00000000
v 79.32199860 -65.03299713 0.00000000
v 80.11799622 -63.80500031 9.00000000
v 76.92500305 -61.37099838 0.00000000
v 76.92500305 -61.37099838 9.00000000
v 77.81700134 -60.20999908 0.00000000
v 77.81700134 -60.20999908 9.00000000
v 74.82399750 -57.53300095 0.00000000
v 74.82399750 -57.53300095 9.00000000
v 75.80500031 -56.44599915 0.00000000
v 74.78199768 -50.49300003 9.00000000
v 74.78199768 -50.49300003 0.00000000
v 73.35500336 -50.53099823 0.00000000
v 73.35500336 -50.53099823 9.00000000
v 75.20400238 -51.63499832 0.00000000
v 71.89299774 -50.45500183 0.00000000
v 71.89299774 -50.45500183 9.00000000
v 76.33200073 -54.35800171 0.00000000
v 76.33200073 -54.35800171 9.00000000
v 76.83999634 -55.46200180 9.00000000
v 76.83999634 -55.46200180 0.00000000
v 75.20400238 -51.63499832 9.00000000
v 74.91100311 -54.50500107 0.00000000
v 74.91100311 -54.50500107 9.00000000
v 73.44799805 -54.54499817 0.00000000
v 73.44799805 -54.54499817 9.00000000
v 75.80500031 -56.44599915 9.00000000
v 73.03199768 -53.54199982 0.00000000
v 73.03199768 -53.54199982 9.00000000
v 74.09400177 -52.53400040 0.00000000
v 74.09400177 -52.53400040 9.00000000
v 71.55599976 -49.42100143 0.00000000
v 71.55599976 -49.42100143 9.00000000
v 82.71900177 -65.05599976 0.00000000
v 82.71900177 -65.05599976 9.00000000
v 72.61699677 -42.46300125 9.00000000
v 72.61699677 -42.46300125 0.00000000
v 71.19999695 -42.27600098 0.00000000
v 71.19999695 -42.27600098 9.00000000
v 72.85399628 -43.65599823 0.00000000
v 69.76899719 -41.97200012 9.00000000
v 119.80899811 22.79100037 0.00000000
v 119.80899811 22.79100037 9.00000000
v 73.54199982 -46.52000046 0.00000000
v 73.54199982 -46.52000046 9.00000000
v 73.87200165 -47.69200134 9.00000000
v 73.87200165 -47.69200134 0.00000000
v 115.46800232 22.23399925 0.00000000
v 115.46800232 22.23399925 9.00000000
v 180.84100342 -43.94300079 9.00000000
v 116.54100037 22.40299988 0.00000000
v 116.54100037 22.40299988 9.00000000
v 72.85399628 -43.65599823 9.00000000
v 117.27300262 21.13500023 0.00000000
v 117.27300262 21.13500023 9.00000000
v 72.11599731 -46.44599915 0.00000000
v 72.11599731 -46.44599915 9.00000000
v 70.66400146 -46.25500107 0.00000000
v 70.66400146 -46.25500107 9.00000000
v 120.88999939 22.87599945 0.00000000
v 120.88999939 22.87599945 9.00000000
v 121.52100372 21.55400085 0.00000000
v 121.52100372 21.55400085 9.00000000
v 72.69499969 -48.50099945 9.00000000
v 72.69499969 -48.50099945 0.00000000
v 122.03299713 20.22100067 0.00000000
v 122.03299713 20.22100067 9.00000000
v 70.41100311 -45.19900131 0.00000000
v 70.41100311 -45.19900131 9.00000000
v 71.61699677 -44.36999893 0.00000000
v 71.61699677 -44.36999893 9.00000000
v 123.24900055 20.26799965 0.00000000
v 123.24900055 20.26799965 9.00000000
v 127.41100311 20.22100067 0.00000000
v 127.41100311 20.22100067 9.00000000
v 126.19499969 20.26799965 9.00000000
v 126.19499969 20.26799965 0.00000000
v 123.65399933 21.63899994 0.00000000
v 123.65399933 21.63899994 9.00000000
v 71.73400116 -34.19100189 0.00000000
v 70.36499786 -33.78699875 0.00000000
v 70.36499786 -33.78699875 9.00000000
v 131.55599976 19.84600067 9.00000000
v 130.34700012 19.98999977 9.00000000
v 127.92299652 21.55400085 9.00000000
v 127.92299652 21.55400085 0.00000000
v 128.55200195 22.87599945 0.00000000
v 128.55200195 22.87599945 9.00000000
v 124.17900085 23.00499916 0.00000000
v 124.17900085 23.00499916 9.00000000
v 125.78900146 21.63899994 0.00000000
v 125.78900146 21.63899994 9.00000000
v 125.26499939 23.00499916 9.00000000
v 125.26499939 23.00499916 0.00000000
v 129.63499451 22.79100037 0.00000000
v 129.63499451 22.79100037 9.00000000
v 130.05000305 21.38699913 0.00000000
v 130.05000305 21.38699913 9.00000000
v 152.21400452 14.18599987 9.00000000
v 150.35099792 15.22999954 9.00000000
v 151.15100098 13.22999954 9.00000000
v 175.18400574 -59.75299835 0.00000000
v 151.69299316 17.68400002 9.00000000
v 150.50300598 16.68499947 9.00000000
v 153.37500000 15.07699966 9.00000000
v 150.08900452 13.82400036 9.00000000
v 154.30000305 14.51099968 9.00000000
v 156.50999451 14.79699993 9.00000000
v 154.03300476 13.07100010 9.00000000
v 153.66299438 11.69099998 9.00000000
v 155.80799866 11.88399982 9.00000000
v 177.58399963 -54.67699814 0.00000000
v 154.67500305 11.01399994 9.00000000
v 179.47599792 -49.38999939 0.00000000
v 180.84100342 -43.94300079 0.00000000
v 158.01499939 8.52900028 9.00000000
v 159.21099854 9.30799961 9.00000000
v 157.05900574 9.28299999 9.00000000
v 157.53500366 10.63000011 9.00000000
v 157.91499329 12.04300022 9.00000000
v 160.49800110 10.00500011 9.00000000
v 181.66400146 -38.38899994 0.00000000
v 157.03700256 12.68200016 9.00000000
v 161.02000427 11.45199966 9.00000000
v 161.32499695 9.30099964 9.00000000
v 181.94000244 -32.77999878 0.00000000
v 165.18099976 7.68100023 9.00000000
v 181.66400146 -27.17099953 0.00000000
v 180.84100342 -21.61700058 0.00000000
v 180.84100342 -21.61700058 9.00000000
v 179.47599792 -16.17000008 0.00000000
v 179.47599792 -16.17000008 9.00000000
v 163.91099548 4.96199989 9.00000000
v 165.36199951 3.39499998 9.00000000
v 164.50799561 6.30000019 9.00000000
v 177.58399963 -10.88300037 0.00000000
v 175.18400574 -5.80700016 0.00000000
v 166.74200439 3.88400006 9.00000000
v 163.22999573 3.70799994 9.00000000
v 164.05799866 2.81399989 9.00000000
v 168.95199585 3.51999998 9.00000000
v 167.44700623 3.05800009 9.00000000
v 172.29699707 -0.99000001 0.00000000
v 172.29699707 -0.99000001 9.00000000
v 169.48300171 0.47400001 9.00000000
v 166.74899292 1.77100003 9.00000000
v 168.07000732 0.09500000 9.00000000
v 165.97000122 0.57400000 9.00000000
v 166.72300720 -0.38200000 9.00000000
v 170.12199402 -0.40500000 9.00000000
v 176.82699585 -42.46300125 9.00000000
v 176.82699585 -42.46300125 0.00000000
v 176.58999634 -43.65599823 0.00000000
v 176.58999634 -43.65599823 9.00000000
v 130.32899475 24.16399956 9.00000000
v 79.95899963 0.47400001 9.00000000
v 81.37400055 0.09500000 9.00000000
v 82.69499969 1.77100003 9.00000000
v 80.48799896 3.51999998 9.00000000
v 179.84399414 -40.89899826 9.00000000
v 179.67399597 -41.97200012 0.00000000
v 179.67399597 -41.97200012 9.00000000
v 178.24200439 -42.27600098 0.00000000
v 178.24200439 -42.27600098 9.00000000
v 179.07899475 -33.78699875 0.00000000
v 179.07899475 -33.78699875 9.00000000
v 84.08200073 3.39499998 9.00000000
v 85.38600159 2.81399989 9.00000000
v 86.21199799 3.70799994 9.00000000
v 85.53099823 4.96199989 9.00000000
v 177.70799255 -34.19100189 0.00000000
v 177.70799255 -34.19100189 9.00000000
v 178.57499695 -40.16699982 0.00000000
v 178.57499695 -40.16699982 9.00000000
v 177.28700256 -39.55400085 9.00000000
v 177.28700256 -39.55400085 0.00000000
v 81.99700165 3.05800009 9.00000000
v 179.84399414 -40.89899826 0.00000000
v 84.25900269 7.68100023 9.00000000
v 82.70200348 3.88400006 9.00000000
v 95.77899933 11.69099998 0.00000000
v 94.76799774 11.01399994 0.00000000
v 177.66099548 -35.40700150 0.00000000
v 177.66099548 -35.40700150 9.00000000
v 95.41000366 13.07100010 0.00000000
v 177.42999268 -38.34400177 0.00000000
v 177.42999268 -38.34400177 9.00000000
v 178.99600220 -35.91999817 9.00000000
v 178.99600220 -35.91999817 0.00000000
v 84.93499756 6.30000019 9.00000000
v 178.82699585 -38.04800034 9.00000000
v 178.82699585 -38.04800034 0.00000000
v 92.93000031 14.79699993 0.00000000
v 97.74700165 17.68400002 0.00000000
v 102.82299805 20.08399963 0.00000000
v 180.44500732 -33.26100159 0.00000000
v 180.31599426 -36.54999924 0.00000000
v 172.51699829 -61.37099838 0.00000000
v 180.23100281 -37.63199997 0.00000000
v 180.23100281 -37.63199997 9.00000000
v 179.07899475 -31.65099907 0.00000000
v 179.07899475 -31.65099907 9.00000000
v 177.70799255 -31.24500084 9.00000000
v 177.70799255 -31.24500084 0.00000000
v 108.11000061 21.97599983 0.00000000
v 113.55699921 23.34099960 0.00000000
v 119.11100006 24.16399956 0.00000000
v 177.28700256 -25.88400078 9.00000000
v 177.28700256 -25.88400078 0.00000000
v 177.42999268 -27.09399986 0.00000000
v 177.42999268 -27.09399986 9.00000000
v 130.32899475 24.16399956 0.00000000
v 124.72000122 24.44000053 0.00000000
v 178.57499695 -25.26899910 0.00000000
v 178.82699585 -27.38999939 0.00000000
v 178.99600220 -29.51700020 0.00000000
v 177.66099548 -30.02899933 0.00000000
v 176.82699585 -22.97500038 0.00000000
v 176.58999634 -21.78000069 0.00000000
v 178.24200439 -23.16200066 0.00000000
v 176.74899292 -16.93700027 0.00000000
v 177.32800293 -18.98999977 0.00000000
v 175.57200623 -17.74600029 0.00000000
v 177.88600159 -16.01600075 0.00000000
v 178.77799988 -19.18199921 0.00000000
v 175.90199280 -18.91600037 0.00000000
v 177.82600403 -21.06699944 0.00000000
v 179.03300476 -20.23800087 0.00000000
v 179.67399597 -23.46599960 0.00000000
v 179.84399414 -24.53899956 0.00000000
v 180.23100281 -27.80500031 0.00000000
v 180.44500732 -32.17499924 0.00000000
v 180.31599426 -28.88800049 0.00000000
v 172.60200500 -9.97599983 0.00000000
v 173.63900757 -8.99199963 0.00000000
v 173.11199951 -11.07999992 0.00000000
v 174.53300476 -10.93099976 0.00000000
v 174.61799622 -7.90500021 0.00000000
v 175.99600220 -10.89299965 0.00000000
v 177.66099548 -30.02899933 9.00000000
v 175.35000610 -12.90400028 0.00000000
v 176.08799744 -14.90699959 0.00000000
v 174.23899841 -13.80200005 0.00000000
v 176.41200256 -11.89500046 0.00000000
v 177.55099487 -14.98299980 0.00000000
v 174.66000366 -14.94499969 0.00000000
v 178.82699585 -27.38999939 9.00000000
v 180.23100281 -27.80500031 9.00000000
v 178.57499695 -25.26899910 9.00000000
v 178.99600220 -29.51700020 9.00000000
v 178.24200439 -23.16200066 9.00000000
v 176.82699585 -22.97500038 9.00000000
v 179.67399597 -23.46599960 9.00000000
v 175.57200623 -17.74600029 9.00000000
v 175.90199280 -18.91600037 9.00000000
v 176.58999634 -21.78000069 9.00000000
v 177.32800293 -18.98999977 9.00000000
v 178.77799988 -19.18199921 9.00000000
v 176.74899292 -16.93700027 9.00000000
v 179.03300476 -20.23800087 9.00000000
v 177.82600403 -21.06699944 9.00000000
v 179.84399414 -24.53899956 9.00000000
v 176.08799744 -14.90699959 9.00000000
v 174.66000366 -14.94499969 9.00000000
v 85.70200348 7.06799984 9.00000000
v 89.18900299 6.61600018 9.00000000
v 88.60700226 7.92100000 9.00000000
v 88.29599762 5.78999996 9.00000000
v 87.04000092 6.47100019 9.00000000
v 88.11900330 9.30099964 9.00000000
v 88.41999817 11.45199966 9.00000000
v 88.94400024 10.00500011 9.00000000
v 91.42900085 8.52900028 9.00000000
v 92.38500214 9.28299999 9.00000000
v 95.41000366 13.07100010 9.00000000
v 95.77899933 11.69099998 9.00000000
v 92.93000031 14.79699993 9.00000000
v 94.76799774 11.01399994 9.00000000
v 97.74700165 17.68400002 9.00000000
v 102.82299805 20.08399963 9.00000000
v 108.11000061 21.97599983 9.00000000
v 113.55699921 23.34099960 9.00000000
v 119.11100006 24.16399956 9.00000000
v 177.55099487 -14.98299980 9.00000000
v 172.60200500 -9.97599983 9.00000000
v 173.11199951 -11.07999992 9.00000000
v 173.63900757 -8.99199963 9.00000000
v 174.23899841 -13.80200005 9.00000000
v 174.53300476 -10.93099976 9.00000000
v 175.99600220 -10.89299965 9.00000000
v 176.41200256 -11.89500046 9.00000000
v 175.35000610 -12.90400028 9.00000000
v 165.97000122 0.57400000 0.00000000
v 166.72300720 -0.38200000 0.00000000
v 177.88600159 -16.01600075 9.00000000
v 172.66999817 -7.09000015 0.00000000
v 171.26600647 -7.35099983 9.00000000
v 171.26600647 -7.35099983 0.00000000
v 168.45599365 -2.76500010 0.00000000
v 170.51100159 -3.40700006 0.00000000
v 169.13099670 -3.77699995 0.00000000
v 171.95100403 -3.14000010 0.00000000
v 170.12199402 -0.40500000 0.00000000
v 169.32400513 -1.63300002 0.00000000
v 83.47299957 0.57400000 9.00000000
v 171.62699890 -5.22700024 0.00000000
v 172.51699829 -4.06699991 0.00000000
v 174.12500000 -6.93699980 0.00000000
v 170.67100525 -6.28900003 0.00000000
v 171.62699890 -60.20999908 0.00000000
v 171.26600647 -58.08700180 0.00000000
v 169.13099670 -61.65999985 0.00000000
v 170.51100159 -62.02999878 0.00000000
v 168.45599365 -62.67200089 0.00000000
v 170.67100525 -59.14899826 0.00000000
v 168.45599365 -2.76500010 9.00000000
v 169.13099670 -3.77699995 9.00000000
v 170.12199402 -65.03299713 0.00000000
v 171.95100403 -62.29600143 0.00000000
v 169.32400513 -63.80500031 0.00000000
v 170.51100159 -3.40700006 9.00000000
v 171.95100403 -3.14000010 9.00000000
v 169.32400513 -1.63300002 9.00000000
v 166.72300720 -65.05599976 0.00000000
v 168.07000732 -65.53299713 0.00000000
v 132.17100525 21.13500023 9.00000000
v 124.72000122 24.44000053 9.00000000
v 83.47299957 0.57400000 0.00000000
f 1 2 3
f 4 5 6
f 7 8 9
f 10 11 12
f 8 7 13
f 8 13 14
f 14 13 15
f 16 17 18
f 19 20 21
f 9 8 22
f 9 22 23
f 9 23 24
f 25 26 27
f 15 28 26
f 15 26 25
f 15 13 28
f 29 30 24
f 29 24 23
f 31 32 30
f 31 30 29
f 16 18 32
f 16 32 31
f 33 34 35
f 33 35 36
f 34 33 37
f 38 36 35
f 39 40 41
f 40 39 42
f 40 42 43
f 4 44 45
f 43 42 46
f 37 33 47
f 45 5 4
f 48 6 5
f 41 40 49
f 41 49 50
f 41 50 51
f 46 52 53
f 46 53 54
f 46 42 52
f 55 56 51
f 55 51 50
f 57 58 56
f 57 56 55
f 37 47 58
f 37 58 57
f 59 60 45
f 61 62 63
f 61 63 64
f 62 61 65
f 66 64 63
f 67 68 69
f 68 67 70
f 68 70 71
f 71 70 72
f 65 61 73
f 69 68 74
f 69 74 75
f 69 75 76
f 36 38 77
f 78 79 77
f 78 77 38
f 80 60 59
f 59 81 80
f 72 82 79
f 72 79 78
f 72 70 82
f 83 84 76
f 83 76 75
f 85 86 84
f 85 84 83
f 65 73 86
f 65 86 85
f 87 88 89
f 87 89 90
f 88 87 91
f 89 92 90
f 93 94 95
f 93 95 96
f 96 95 97
f 98 99 100
f 100 2 98
f 2 1 98
f 91 87 101
f 94 93 102
f 94 102 103
f 103 102 104
f 103 104 105
f 64 66 106
f 107 108 106
f 107 106 66
f 97 109 108
f 97 108 107
f 110 111 112
f 97 95 109
f 113 114 105
f 113 105 104
f 115 116 114
f 115 114 113
f 117 118 119
f 91 101 116
f 91 116 115
f 120 121 122
f 120 122 123
f 123 122 124
f 125 126 121
f 125 121 120
f 127 128 129
f 127 129 130
f 124 122 131
f 128 127 132
f 133 132 127
f 134 135 132
f 134 132 133
f 136 92 89
f 137 138 92
f 137 92 136
f 139 140 138
f 139 138 137
f 140 139 129
f 130 129 139
f 141 142 135
f 141 135 134
f 143 144 142
f 143 142 141
f 124 131 144
f 124 144 143
f 145 146 147
f 145 147 148
f 148 147 149
f 148 149 150
f 151 111 152
f 153 152 111
f 111 110 153
f 154 155 156
f 100 157 158
f 99 157 100
f 159 157 99
f 160 161 162
f 163 164 165
f 163 165 166
f 167 168 158
f 146 145 163
f 164 163 145
f 169 170 171
f 172 171 170
f 173 174 175
f 173 175 176
f 168 172 170
f 166 165 177
f 178 177 165
f 179 180 181
f 182 181 180
f 183 182 180
f 183 180 184
f 176 175 185
f 186 185 175
f 187 188 179
f 187 179 181
f 170 158 168
f 181 168 167
f 187 181 167
f 189 190 185
f 189 185 186
f 59 45 191
f 44 191 45
f 44 20 191
f 192 191 20
f 193 21 20
f 192 20 19
f 192 19 151
f 192 151 152
f 152 194 195
f 192 152 195
f 188 196 197
f 187 196 188
f 198 199 200
f 198 200 201
f 202 203 204
f 201 200 205
f 201 205 206
f 207 208 209
f 174 173 205
f 206 205 173
f 210 204 203
f 211 210 203
f 190 189 212
f 190 212 213
f 213 212 214
f 213 214 215
f 215 214 177
f 215 177 178
f 216 217 218
f 216 218 219
f 197 220 221
f 222 223 224
f 217 216 198
f 199 198 216
f 219 218 225
f 226 225 218
f 227 221 220
f 228 229 230
f 228 230 231
f 232 224 223
f 233 232 223
f 229 228 234
f 229 234 235
f 233 236 237
f 235 234 238
f 235 238 239
f 240 241 242
f 243 242 241
f 239 238 225
f 239 225 226
f 195 244 245
f 246 247 248
f 236 249 237
f 242 250 251
f 208 251 250
f 250 209 208
f 245 252 253
f 246 249 247
f 254 248 247
f 252 245 244
f 253 255 256
f 257 258 259
f 252 255 253
f 260 261 262
f 263 262 261
f 264 263 261
f 264 261 265
f 266 267 260
f 262 266 260
f 246 237 249
f 262 249 236
f 266 262 236
f 251 240 242
f 268 240 251
f 269 256 270
f 255 270 256
f 271 211 267
f 266 271 267
f 203 267 211
f 220 197 196
f 272 273 196
f 272 196 187
f 223 273 233
f 273 272 233
f 236 233 272
f 274 275 276
f 277 278 257
f 278 277 279
f 277 280 279
f 281 279 280
f 282 283 284
f 275 284 283
f 283 276 275
f 211 271 284
f 282 284 271
f 271 285 282
f 286 287 288
f 289 290 268
f 240 268 291
f 292 293 294
f 294 295 292
f 293 282 285
f 294 293 285
f 167 158 157
f 125 296 297
f 298 299 297
f 300 301 298
f 301 299 298
f 299 302 297
f 154 297 302
f 303 304 305
f 303 305 306
f 257 278 258
f 307 258 278
f 308 309 310
f 311 312 313
f 309 301 314
f 314 315 309
f 315 310 309
f 314 301 300
f 314 300 316
f 300 317 316
f 318 316 319
f 319 316 317
f 320 318 319
f 320 319 321
f 322 323 317
f 322 317 300
f 324 325 326
f 326 327 307
f 328 307 327
f 329 330 53
f 53 330 54
f 331 192 195
f 331 195 332
f 245 332 195
f 333 334 323
f 335 336 337
f 335 337 338
f 337 339 340
f 339 337 336
f 340 339 341
f 342 341 339
f 343 161 342
f 342 161 341
f 344 161 343
f 344 291 161
f 345 346 347
f 348 346 160
f 349 240 344
f 344 240 291
f 59 240 349
f 59 241 240
f 191 350 241
f 191 241 59
f 192 331 350
f 192 350 191
f 351 352 353
f 351 353 354
f 355 356 357
f 355 357 358
f 358 357 352
f 358 352 351
f 359 345 360
f 347 360 345
f 361 362 363
f 361 363 364
f 365 346 359
f 345 359 346
f 362 361 366
f 356 355 367
f 368 367 355
f 364 363 369
f 364 369 370
f 370 369 371
f 370 371 372
f 373 374 304
f 373 304 303
f 375 376 374
f 375 374 373
f 346 365 377
f 346 377 378
f 327 326 379
f 325 379 326
f 378 377 380
f 378 380 381
f 382 383 384
f 366 385 381
f 366 381 380
f 366 361 385
f 372 371 386
f 372 386 387
f 388 389 387
f 388 387 386
f 367 368 389
f 367 389 388
f 390 391 392
f 393 394 395
f 393 395 396
f 391 390 397
f 391 397 398
f 396 395 399
f 400 394 401
f 393 401 394
f 398 397 402
f 392 391 403
f 392 403 404
f 392 404 405
f 396 399 406
f 407 408 409
f 407 409 410
f 406 399 411
f 406 411 412
f 413 414 415
f 416 415 414
f 417 418 408
f 417 408 407
f 354 353 401
f 400 401 353
f 419 420 418
f 419 418 417
f 421 383 422
f 382 422 383
f 384 383 423
f 424 425 412
f 424 412 411
f 402 426 425
f 402 425 424
f 427 428 420
f 427 420 419
f 384 328 327
f 423 429 384
f 430 429 423
f 258 307 328
f 402 397 426
f 431 432 433
f 431 433 434
f 428 427 435
f 436 435 427
f 437 438 405
f 437 405 404
f 439 440 441
f 442 443 438
f 442 438 437
f 444 445 446
f 447 448 443
f 447 443 442
f 445 444 434
f 445 434 433
f 312 449 162
f 450 451 452
f 328 384 429
f 286 453 454
f 286 454 287
f 455 450 456
f 432 431 457
f 458 457 431
f 287 454 459
f 287 459 290
f 286 460 453
f 290 459 461
f 290 461 462
f 463 464 462
f 463 462 461
f 463 313 464
f 162 449 465
f 162 465 160
f 466 160 465
f 467 468 469
f 467 469 470
f 209 471 472
f 209 472 207
f 470 469 473
f 474 475 476
f 477 478 475
f 476 475 478
f 250 479 209
f 471 209 479
f 288 460 286
f 480 481 482
f 483 208 472
f 207 472 208
f 208 483 484
f 208 484 251
f 270 485 269
f 473 469 81
f 486 269 485
f 473 81 487
f 473 487 243
f 488 489 486
f 243 487 490
f 243 490 242
f 491 492 480
f 492 481 480
f 481 493 494
f 488 486 485
f 479 250 242
f 479 242 490
f 495 489 488
f 496 494 493
f 495 497 489
f 498 499 497
f 498 497 495
f 251 484 500
f 251 500 268
f 501 502 498
f 503 289 268
f 503 268 500
f 460 288 289
f 460 289 503
f 504 505 506
f 507 506 505
f 508 509 510
f 508 510 511
f 505 504 512
f 509 508 513
f 511 510 514
f 511 514 515
f 515 514 516
f 515 516 517
f 505 512 518
f 518 512 519
f 518 519 520
f 520 519 521
f 520 521 522
f 523 333 524
f 306 524 333
f 513 525 522
f 513 522 521
f 414 526 416
f 513 508 525
f 517 516 527
f 517 527 528
f 529 530 531
f 531 532 533
f 533 534 531
f 531 534 535
f 536 537 528
f 536 528 527
f 118 538 537
f 118 537 536
f 539 540 541
f 542 543 540
f 542 540 539
f 543 542 544
f 541 540 545
f 541 545 546
f 541 546 547
f 548 549 550
f 548 550 551
f 551 550 552
f 551 552 553
f 554 555 556
f 150 556 555
f 557 558 457
f 557 457 458
f 544 559 553
f 544 553 552
f 435 436 560
f 561 560 436
f 562 563 564
f 544 542 559
f 446 565 560
f 446 560 561
f 547 546 566
f 547 566 567
f 446 445 565
f 568 569 567
f 568 567 566
f 506 507 569
f 506 569 568
f 570 571 558
f 570 558 557
f 549 548 572
f 573 572 548
f 574 575 571
f 574 571 570
f 576 577 575
f 576 575 574
f 578 579 580
f 578 580 581
f 581 580 582
f 581 582 583
f 577 576 584
f 585 584 576
f 562 586 563
f 587 588 589
f 587 589 590
f 585 591 584
f 592 563 586
f 593 564 563
f 594 595 596
f 594 596 597
f 598 599 600
f 601 602 603
f 601 603 604
f 592 586 502
f 588 587 605
f 606 605 587
f 607 608 605
f 607 605 606
f 609 610 594
f 611 591 585
f 612 416 526
f 350 612 526
f 572 573 613
f 614 613 573
f 615 616 591
f 615 591 611
f 612 350 439
f 604 603 579
f 604 579 578
f 617 618 616
f 617 616 615
f 618 617 619
f 618 619 620
f 621 622 596
f 597 596 622
f 590 589 619
f 620 619 589
f 622 621 623
f 622 623 624
f 625 626 608
f 625 608 607
f 595 594 610
f 627 628 626
f 627 626 625
f 624 623 629
f 624 629 630
f 630 629 631
f 630 631 632
f 602 601 631
f 632 631 601
f 633 634 582
f 583 582 634
f 613 614 634
f 613 634 633
f 635 636 637
f 635 637 638
f 638 637 639
f 638 639 640
f 636 635 641
f 642 641 635
f 643 644 645
f 643 645 646
f 646 645 647
f 646 647 648
f 648 647 641
f 648 641 642
f 640 639 649
f 640 649 650
f 650 649 610
f 650 610 609
f 651 652 653
f 651 653 654
f 644 643 653
f 654 653 643
f 655 656 657
f 658 656 655
f 652 651 659
f 660 659 651
f 657 656 661
f 662 663 664
f 662 664 665
f 665 664 659
f 665 659 660
f 657 661 666
f 657 666 667
f 668 669 670
f 671 669 668
f 658 672 656
f 148 673 145
f 670 669 674
f 150 555 148
f 670 674 675
f 670 675 676
f 586 677 678
f 678 677 679
f 676 675 680
f 676 680 681
f 681 680 682
f 681 682 683
f 683 682 672
f 683 672 658
f 663 662 666
f 667 666 662
f 296 684 685
f 296 685 686
f 687 684 688
f 685 684 687
f 688 689 690
f 688 690 687
f 690 691 692
f 690 689 691
f 693 148 555
f 691 694 695
f 691 695 692
f 313 696 697
f 313 697 311
f 698 312 697
f 311 697 312
f 312 698 449
f 696 313 463
f 160 466 348
f 502 673 693
f 592 502 693
f 148 693 673
f 699 145 673
f 598 600 628
f 598 628 627
f 360 347 348
f 360 348 466
f 700 701 702
f 415 6 48
f 415 48 413
f 6 415 416
f 703 599 598
f 5 414 48
f 413 48 414
f 704 705 706
f 704 706 707
f 414 5 45
f 414 45 526
f 708 709 599
f 708 599 703
f 193 441 702
f 700 702 441
f 441 193 20
f 441 20 439
f 44 612 439
f 44 439 20
f 4 416 612
f 4 612 44
f 6 416 4
f 60 710 526
f 60 526 45
f 80 711 710
f 80 710 60
f 190 201 185
f 201 206 185
f 176 185 206
f 176 206 173
f 468 467 711
f 468 711 80
f 538 118 117
f 538 117 712
f 713 110 112
f 713 112 714
f 119 715 117
f 712 117 715
f 716 701 700
f 111 717 112
f 714 112 717
f 717 111 151
f 717 151 718
f 715 119 194
f 715 194 719
f 719 194 152
f 719 152 720
f 705 704 721
f 722 721 704
f 153 723 720
f 153 720 152
f 201 724 198
f 190 699 201
f 213 699 190
f 723 153 713
f 110 713 153
f 21 440 725
f 21 725 19
f 215 178 164
f 724 201 699
f 701 716 440
f 701 440 21
f 718 151 19
f 718 19 725
f 694 726 727
f 694 727 695
f 727 726 728
f 727 728 729
f 728 730 731
f 728 731 729
f 731 730 732
f 731 732 733
f 732 734 735
f 732 735 733
f 735 736 737
f 734 736 735
f 736 738 739
f 736 739 737
f 738 335 338
f 738 338 739
f 740 741 742
f 740 742 743
f 741 740 744
f 743 742 745
f 743 745 746
f 747 748 749
f 748 747 750
f 748 750 751
f 751 750 752
f 165 164 178
f 213 215 164
f 164 145 213
f 699 213 145
f 744 740 753
f 749 748 754
f 749 754 755
f 749 755 756
f 757 758 759
f 760 759 758
f 758 757 761
f 762 761 757
f 752 763 761
f 752 761 762
f 752 750 763
f 764 765 756
f 764 756 755
f 766 767 765
f 766 765 764
f 744 753 767
f 744 767 766
f 768 769 746
f 768 746 745
f 770 769 768
f 771 772 773
f 771 773 774
f 772 771 775
f 774 773 776
f 774 776 777
f 778 779 780
f 778 780 781
f 781 780 770
f 775 771 782
f 239 217 235
f 779 778 783
f 779 783 784
f 784 783 785
f 784 785 786
f 769 770 787
f 770 780 787
f 788 789 786
f 788 786 785
f 790 791 789
f 790 789 788
f 775 782 791
f 775 791 790
f 792 793 777
f 792 777 776
f 759 760 794
f 795 794 760
f 794 795 448
f 794 448 447
f 796 797 798
f 796 798 799
f 797 796 800
f 799 798 27
f 799 27 801
f 802 803 721
f 802 721 722
f 226 218 239
f 218 217 239
f 217 198 235
f 198 724 235
f 804 805 806
f 804 806 807
f 808 809 709
f 808 709 708
f 724 810 235
f 229 235 810
f 811 812 809
f 811 809 808
f 800 796 813
f 812 811 814
f 812 814 815
f 805 804 816
f 805 816 817
f 707 706 814
f 815 814 706
f 518 569 505
f 817 816 818
f 817 818 819
f 820 821 803
f 820 803 802
f 822 823 821
f 822 821 820
f 793 792 824
f 825 824 792
f 826 827 823
f 826 823 822
f 807 806 824
f 807 824 825
f 828 829 819
f 828 819 818
f 520 567 518
f 567 569 518
f 830 831 829
f 830 829 828
f 832 833 827
f 832 827 826
f 800 813 831
f 800 831 830
f 834 835 836
f 834 836 837
f 27 26 801
f 838 839 833
f 838 833 832
f 525 515 522
f 17 840 841
f 17 841 842
f 840 17 16
f 11 843 844
f 525 508 515
f 511 515 508
f 842 841 330
f 842 330 329
f 835 834 845
f 846 845 834
f 245 520 522
f 515 517 522
f 245 522 517
f 847 848 845
f 847 845 846
f 849 850 839
f 849 839 838
f 851 852 853
f 851 853 854
f 537 538 715
f 528 537 715
f 852 851 836
f 837 836 851
f 855 856 848
f 855 848 847
f 452 456 450
f 857 858 856
f 857 856 855
f 859 860 861
f 11 844 858
f 11 858 857
f 854 853 850
f 854 850 849
f 499 498 502
f 429 430 451
f 430 452 451
f 553 256 551
f 539 541 559
f 501 862 673
f 501 673 502
f 863 864 865
f 866 861 860
f 699 673 862
f 867 868 865
f 541 547 553
f 553 559 541
f 539 559 542
f 869 870 871
f 699 862 872
f 873 871 870
f 871 868 869
f 867 869 868
f 863 865 868
f 256 583 551
f 547 256 553
f 567 253 547
f 724 699 874
f 872 874 699
f 256 547 253
f 507 505 569
f 245 253 520
f 567 520 253
f 875 810 874
f 724 874 810
f 876 877 878
f 879 878 877
f 880 879 877
f 880 877 881
f 875 882 535
f 875 535 810
f 868 871 883
f 868 883 880
f 881 884 880
f 885 884 881
f 884 868 880
f 882 886 531
f 882 531 535
f 583 269 581
f 475 474 885
f 474 887 885
f 888 529 531
f 888 531 886
f 548 551 634
f 583 634 551
f 269 583 256
f 889 890 529
f 889 529 888
f 863 429 451
f 864 863 451
f 859 865 860
f 864 860 865
f 597 622 594
f 890 891 892
f 604 578 601
f 891 890 889
f 893 894 895
f 892 891 496
f 896 496 891
f 897 496 896
f 898 895 894
f 899 900 893
f 894 893 900
f 897 494 496
f 901 887 898
f 902 901 898
f 895 887 474
f 650 609 624
f 622 624 609
f 609 594 622
f 903 904 494
f 903 494 897
f 269 486 630
f 632 578 630
f 624 630 486
f 901 902 905
f 902 906 905
f 907 905 906
f 908 909 906
f 904 903 285
f 895 898 887
f 910 904 905
f 901 905 904
f 884 885 887
f 911 912 913
f 911 913 914
f 581 630 578
f 269 630 581
f 601 578 632
f 915 856 259
f 258 915 259
f 126 916 686
f 917 918 916
f 686 916 919
f 913 231 914
f 230 914 231
f 548 634 573
f 614 573 634
f 920 921 922
f 156 918 917
f 922 921 923
f 922 923 924
f 912 911 923
f 924 923 911
f 646 489 643
f 533 925 926
f 927 928 929
f 927 929 930
f 931 932 925
f 926 925 932
f 642 635 648
f 635 638 648
f 638 640 648
f 646 648 640
f 933 934 935
f 933 935 936
f 937 916 918
f 640 489 646
f 650 486 640
f 938 920 934
f 938 934 933
f 489 640 486
f 939 919 940
f 919 916 937
f 941 942 375
f 932 931 943
f 932 943 944
f 375 945 941
f 650 624 486
f 936 935 946
f 947 946 935
f 944 943 948
f 949 948 943
f 683 658 657
f 655 657 658
f 949 534 948
f 927 950 940
f 665 660 654
f 651 654 660
f 654 643 665
f 662 665 643
f 489 497 643
f 670 671 668
f 951 952 946
f 951 946 947
f 921 920 938
f 953 303 322
f 323 303 333
f 322 303 323
f 306 333 303
f 303 953 373
f 586 678 502
f 670 679 671
f 676 499 678
f 670 676 678
f 678 679 670
f 681 499 676
f 375 373 945
f 657 667 683
f 681 683 667
f 410 953 407
f 410 945 373
f 373 953 410
f 954 407 953
f 667 662 497
f 662 643 497
f 681 667 497
f 499 681 497
f 502 678 499
f 245 517 528
f 954 561 407
f 955 446 954
f 438 443 758
f 925 533 956
f 957 534 949
f 749 756 763
f 417 436 419
f 750 747 763
f 747 749 763
f 761 763 756
f 427 419 436
f 756 765 739
f 737 739 765
f 767 753 743
f 473 241 711
f 740 743 753
f 765 767 743
f 743 746 765
f 737 765 746
f 467 470 711
f 473 711 470
f 350 526 241
f 769 737 746
f 761 756 739
f 338 758 739
f 769 787 786
f 737 769 735
f 501 958 862
f 784 786 787
f 715 538 712
f 779 784 780
f 787 780 784
f 789 735 786
f 774 777 791
f 782 771 791
f 771 774 791
f 789 791 777
f 174 205 175
f 735 769 786
f 777 735 789
f 824 817 793
f 793 733 777
f 735 777 733
f 760 443 795
f 805 817 806
f 824 806 817
f 819 793 817
f 959 960 534
f 959 534 957
f 960 959 951
f 952 951 959
f 796 799 813
f 831 813 799
f 829 831 799
f 829 799 801
f 733 793 819
f 829 731 819
f 801 731 829
f 731 801 26
f 733 819 731
f 961 962 963
f 961 963 964
f 7 9 28
f 719 528 715
f 9 24 26
f 26 28 9
f 7 28 13
f 727 729 30
f 331 332 720
f 17 842 18
f 32 18 842
f 30 32 842
f 30 842 329
f 42 39 52
f 39 41 52
f 36 77 58
f 33 36 47
f 58 47 36
f 56 58 77
f 189 186 200
f 205 200 186
f 186 175 205
f 69 76 82
f 189 200 872
f 874 872 200
f 199 216 234
f 200 199 874
f 79 82 76
f 67 69 82
f 67 82 70
f 692 695 77
f 692 77 79
f 692 79 76
f 84 692 76
f 86 106 84
f 692 84 690
f 73 61 86
f 61 64 86
f 64 106 86
f 690 84 106
f 108 690 106
f 109 103 108
f 714 717 713
f 723 713 717
f 720 723 717
f 720 717 718
f 105 108 103
f 109 95 103
f 94 103 95
f 105 687 108
f 114 687 105
f 690 108 687
f 87 90 116
f 862 146 872
f 212 189 872
f 417 407 561
f 431 434 444
f 444 458 431
f 436 417 561
f 561 954 446
f 458 444 557
f 446 557 444
f 557 955 570
f 446 955 557
f 965 615 955
f 574 570 615
f 570 955 615
f 146 163 212
f 166 177 163
f 177 214 163
f 212 872 146
f 590 606 587
f 576 574 585
f 716 700 440
f 700 441 440
f 611 585 574
f 615 611 574
f 607 606 617
f 619 617 606
f 606 590 619
f 966 625 607
f 615 965 617
f 607 617 965
f 966 607 965
f 625 966 627
f 966 708 627
f 708 703 627
f 528 719 332
f 245 528 332
f 719 720 332
f 720 718 331
f 718 725 331
f 725 439 331
f 440 439 725
f 350 331 439
f 710 241 526
f 710 711 241
f 473 243 241
f 707 814 704
f 598 627 703
f 966 811 808
f 802 722 811
f 814 811 722
f 722 704 814
f 966 967 811
f 822 838 826
f 837 851 834
f 832 826 838
f 822 820 838
f 849 838 820
f 968 969 970
f 968 970 971
f 846 834 851
f 847 846 851
f 972 159 855
f 857 855 159
f 159 12 857
f 857 12 11
f 285 901 904
f 972 855 847
f 851 854 847
f 854 973 847
f 849 973 854
f 967 973 820
f 820 802 967
f 802 811 967
f 808 708 966
f 849 820 973
f 972 847 973
f 157 159 972
f 912 923 913
f 231 913 923
f 923 921 231
f 285 271 887
f 285 887 901
f 271 266 884
f 271 884 887
f 931 925 943
f 949 943 925
f 921 938 875
f 231 921 228
f 933 952 938
f 936 952 933
f 946 952 936
f 959 938 952
f 882 875 938
f 882 938 959
f 956 957 925
f 949 925 957
f 959 957 882
f 974 975 969
f 970 969 975
f 238 234 216
f 225 238 219
f 216 219 238
f 874 199 234
f 976 961 977
f 964 977 961
f 978 979 980
f 981 982 983
f 984 985 982
f 986 983 982
f 984 891 985
f 266 236 868
f 266 868 884
f 236 272 863
f 987 988 989
f 989 980 987
f 979 987 980
f 891 889 985
f 988 985 889
f 989 988 889
f 974 990 975
f 991 990 888
f 991 975 990
f 889 888 990
f 990 989 889
f 992 961 976
f 993 991 888
f 976 993 992
f 994 995 996
f 997 996 995
f 997 998 999
f 968 974 969
f 1000 977 964
f 1000 964 963
f 868 236 863
f 1001 1002 1003
f 1004 1005 1001
f 1005 1002 1001
f 1006 1003 1002
f 971 970 1007
f 975 1007 970
f 1004 999 896
f 999 998 896
f 1005 1004 896
f 896 891 1005
f 975 1008 1007
f 228 875 234
f 874 234 875
f 228 921 875
f 984 1005 891
f 984 982 981
f 1009 974 968
f 1010 976 977
f 1010 977 1000
f 980 1011 1012
f 980 1012 978
f 1012 979 978
f 989 1013 1011
f 989 1011 980
f 1014 983 986
f 1014 986 1015
f 187 429 272
f 863 272 429
f 1016 979 1012
f 1015 986 1017
f 982 1017 986
f 985 1018 1017
f 985 1017 982
f 983 1014 981
f 1019 981 1014
f 1018 985 988
f 1018 988 1020
f 1020 988 987
f 1020 987 1021
f 1021 987 979
f 1021 979 1016
f 1013 989 990
f 1013 990 1022
f 1022 990 974
f 1022 974 1009
f 513 514 509
f 962 961 532
f 992 532 961
f 510 509 514
f 991 1008 975
f 1008 991 993
f 1008 993 530
f 328 187 167
f 530 993 1010
f 976 1010 993
f 187 328 429
f 1002 1023 1024
f 1002 1024 1006
f 950 927 930
f 950 1025 939
f 940 950 939
f 937 940 919
f 1026 1027 1028
f 1029 1028 1027
f 1030 1025 1027
f 1029 1027 1025
f 1031 939 1030
f 1032 1031 1030
f 1025 1030 939
f 334 304 1032
f 167 157 258
f 1033 1034 334
f 252 244 519
f 512 566 519
f 1035 376 1036
f 516 514 521
f 513 521 514
f 304 334 305
f 1034 305 334
f 374 1037 304
f 376 1035 374
f 409 374 1035
f 1038 1036 376
f 1031 1032 304
f 409 1037 374
f 408 1037 409
f 1031 304 1037
f 435 560 418
f 167 258 328
f 420 435 418
f 408 418 560
f 157 915 258
f 420 428 435
f 560 1039 408
f 521 519 244
f 516 521 244
f 445 433 432
f 227 456 221
f 565 1039 560
f 457 558 445
f 432 457 445
f 565 445 558
f 558 571 1040
f 565 558 1040
f 1040 1039 565
f 1037 408 1039
f 195 194 527
f 536 527 119
f 194 119 527
f 536 119 118
f 545 540 544
f 543 544 540
f 591 616 575
f 571 575 616
f 575 577 584
f 1040 571 616
f 584 591 575
f 608 618 605
f 618 620 605
f 620 589 605
f 588 605 589
f 618 1041 616
f 608 1041 618
f 626 1042 608
f 1040 616 1041
f 10 843 11
f 709 1042 628
f 1041 608 1042
f 628 600 599
f 3 281 280
f 3 280 1
f 12 843 10
f 628 599 709
f 626 628 1042
f 1043 1042 812
f 709 809 1042
f 1005 1044 1023
f 1005 1023 1002
f 1045 994 996
f 1045 996 1046
f 1047 994 1045
f 1048 1003 1006
f 1048 1006 1024
f 1046 996 1049
f 997 1049 996
f 999 1050 1049
f 999 1049 997
f 706 705 815
f 705 721 815
f 812 815 721
f 812 721 803
f 493 995 1047
f 821 1043 803
f 803 1043 812
f 809 812 1042
f 994 1047 995
f 1050 999 1004
f 1050 1004 1051
f 1051 1004 1001
f 1051 1001 1052
f 1053 292 1054
f 1052 1001 1003
f 1052 1003 1048
f 1044 1005 984
f 1044 984 1055
f 981 1019 984
f 1055 984 1019
f 1056 492 1057
f 1056 1057 1058
f 491 1058 1057
f 101 87 116
f 90 92 116
f 114 116 92
f 687 114 92
f 687 92 685
f 1059 1060 1061
f 295 1054 292
f 285 903 294
f 132 135 140
f 1062 1060 1063
f 129 128 140
f 128 132 140
f 138 140 135
f 135 685 138
f 1064 1063 1060
f 1060 1059 1064
f 144 121 142
f 122 121 131
f 144 131 121
f 142 121 126
f 92 138 685
f 142 686 135
f 126 686 142
f 685 135 686
f 156 1065 918
f 1062 1063 903
f 1063 294 903
f 731 26 729
f 26 24 729
f 24 30 729
f 727 30 329
f 727 329 53
f 53 52 41
f 41 51 53
f 727 53 51
f 56 695 51
f 56 77 695
f 727 51 695
f 760 758 443
f 761 739 758
f 438 758 338
f 337 405 338
f 340 387 351
f 354 340 351
f 354 401 412
f 412 337 354
f 425 337 412
f 1066 1067 1068
f 1068 1056 1066
f 1069 1066 1056
f 1069 1056 1058
f 348 347 346
f 1068 1067 897
f 998 1068 897
f 903 897 1067
f 1067 1062 903
f 378 160 346
f 381 341 378
f 161 160 378
f 370 341 385
f 897 896 998
f 995 998 997
f 385 361 370
f 364 370 361
f 381 385 341
f 372 341 370
f 387 341 372
f 161 378 341
f 389 368 358
f 355 358 368
f 351 387 358
f 389 358 387
f 341 387 340
f 956 992 886
f 888 886 993
f 992 993 886
f 957 956 886
f 882 957 886
f 406 401 396
f 393 396 401
f 149 1070 1071
f 406 412 401
f 426 392 425
f 1072 1073 1074
f 1075 1071 1070
f 1068 481 492
f 1068 492 1056
f 149 147 1070
f 908 1053 1054
f 908 1054 909
f 1076 1059 1061
f 1076 1061 1077
f 501 1078 1079
f 295 909 1054
f 1080 1074 1073
f 1078 1080 1073
f 1073 1079 1078
f 491 1069 1058
f 1077 1061 1081
f 1060 1081 1061
f 1062 1082 1081
f 1062 1081 1060
f 909 295 907
f 910 294 1063
f 910 1063 1064
f 910 1064 1083
f 1079 958 501
f 1059 1076 1064
f 1083 1064 1076
f 1082 1062 1067
f 1082 1067 482
f 482 1067 1066
f 482 1066 480
f 480 1066 1069
f 480 1069 491
f 481 1068 998
f 481 998 493
f 493 998 995
f 214 212 163
f 532 956 533
f 147 146 862
f 1070 147 958
f 532 992 956
f 564 1074 562
f 862 958 147
f 556 1071 1075
f 556 1075 554
f 150 1071 556
f 593 1072 1074
f 593 1074 564
f 150 149 1071
f 671 1084 669
f 562 1074 1080
f 562 1080 1078
f 562 1078 586
f 1070 555 1075
f 554 1075 555
f 555 1070 693
f 1079 592 958
f 693 958 592
f 592 1079 1073
f 592 1073 563
f 563 1073 1072
f 563 1072 593
f 827 839 823
f 827 833 839
f 586 1078 677
f 679 677 1085
f 679 1085 1084
f 679 1084 671
f 693 1070 958
f 850 821 839
f 821 823 839
f 405 425 392
f 390 392 426
f 390 426 397
f 340 354 337
f 337 425 405
f 438 338 405
f 448 795 443
f 289 288 287
f 290 289 287
f 169 325 324
f 462 162 291
f 291 268 290
f 162 462 312
f 290 462 291
f 848 852 845
f 835 845 852
f 835 852 836
f 161 291 162
f 464 312 462
f 312 464 313
f 281 3 279
f 2 279 3
f 100 278 279
f 100 279 2
f 550 255 552
f 544 552 545
f 848 856 915
f 858 844 1086
f 1086 259 858
f 843 1086 844
f 1087 1043 821
f 1087 821 850
f 1087 850 853
f 852 848 853
f 1087 853 848
f 856 858 259
f 1087 848 915
f 230 924 914
f 924 230 922
f 911 914 924
f 229 922 230
f 810 920 922
f 229 810 922
f 948 534 926
f 948 926 944
f 533 926 534
f 932 944 926
f 947 935 951
f 935 934 951
f 934 920 951
f 960 951 920
f 534 960 535
f 960 920 535
f 810 535 920
f 1009 968 1007
f 971 1007 968
f 1008 1022 1007
f 1009 1007 1022
f 963 962 1000
f 1010 1000 962
f 1015 1017 1014
f 1019 1014 1017
f 892 1055 1018
f 1017 1018 1055
f 1011 1013 1021
f 1012 1011 1016
f 1021 1016 1011
f 890 1018 1020
f 1020 1021 1013
f 890 1020 1013
f 890 1013 1022
f 1008 529 1022
f 530 529 1008
f 890 1022 529
f 1010 532 530
f 962 532 1010
f 531 530 532
f 1047 1045 1046
f 1046 1049 1047
f 493 1047 1049
f 1050 493 1049
f 1023 1044 1052
f 1024 1023 1048
f 1052 1048 1023
f 1051 1052 1044
f 493 1050 496
f 1051 496 1050
f 1044 496 1051
f 1055 892 1044
f 1019 1017 1055
f 890 892 1018
f 496 1044 892
f 491 1057 492
f 907 906 909
f 1083 1081 910
f 1077 1081 1076
f 1083 1076 1081
f 910 1081 1082
f 494 904 482
f 482 481 494
f 1082 482 904
f 910 1082 904
f 12 1086 843
f 159 259 1086
f 159 1086 12
f 99 257 259
f 99 259 159
f 257 99 98
f 257 98 277
f 1 280 98
f 277 98 280
f 158 307 278
f 158 278 100
f 170 326 307
f 170 307 158
f 169 324 326
f 169 326 170
f 180 383 421
f 180 421 184
f 179 423 383
f 179 383 180
f 171 325 169
f 422 183 421
f 184 421 183
f 172 379 325
f 172 325 171
f 168 327 379
f 168 379 172
f 181 384 327
f 181 327 168
f 384 181 182
f 384 182 382
f 382 182 183
f 382 183 422
f 188 430 423
f 188 423 179
f 197 452 430
f 197 430 188
f 452 197 456
f 221 456 197
f 204 478 477
f 204 477 202
f 899 274 900
f 210 476 478
f 210 478 204
f 211 474 476
f 211 476 210
f 885 203 475
f 202 477 203
f 475 203 477
f 254 871 873
f 224 859 861
f 456 227 455
f 224 861 866
f 224 866 222
f 227 220 455
f 450 455 220
f 254 873 870
f 254 870 248
f 232 859 224
f 233 865 859
f 233 859 232
f 220 451 450
f 222 866 223
f 860 223 866
f 237 867 865
f 237 865 233
f 867 237 246
f 867 246 869
f 869 246 248
f 869 248 870
f 261 877 876
f 261 876 265
f 260 881 877
f 260 877 261
f 878 264 876
f 265 876 264
f 247 871 254
f 249 883 871
f 249 871 247
f 262 880 883
f 262 883 249
f 880 262 263
f 880 263 879
f 879 263 264
f 879 264 878
f 267 885 881
f 267 881 260
f 203 885 267
f 196 451 220
f 273 864 451
f 273 451 196
f 864 273 860
f 223 860 273
f 294 905 907
f 294 907 295
f 276 894 900
f 900 274 276
f 283 894 276
f 282 898 894
f 282 894 283
f 474 211 284
f 474 284 895
f 895 284 275
f 895 275 893
f 274 899 275
f 893 275 899
f 898 282 293
f 898 293 902
f 902 293 292
f 902 292 906
f 906 292 1053
f 906 1053 908
f 905 294 910
f 157 972 915
f 972 973 1087
f 972 1087 915
f 973 967 1043
f 973 1043 1087
f 967 966 1042
f 967 1042 1043
f 966 965 1041
f 1042 966 1041
f 965 955 1040
f 1040 1041 965
f 1039 955 954
f 1039 1040 955
f 954 953 1037
f 954 1037 1039
f 1031 953 322
f 1031 1037 953
f 300 939 322
f 1031 322 939
f 939 300 298
f 939 298 919
f 686 919 298
f 298 296 686
f 126 125 916
f 297 916 125
f 154 917 916
f 154 916 297
f 154 156 917
f 319 1027 1026
f 319 1026 321
f 1027 319 1030
f 317 1030 319
f 310 930 929
f 1088 918 1065
f 156 155 1065
f 1088 1065 155
f 310 929 928
f 310 928 308
f 308 928 927
f 1028 320 1026
f 321 1026 320
f 315 930 310
f 314 950 930
f 314 930 315
f 302 918 1088
f 299 937 918
f 299 918 302
f 301 940 937
f 301 937 299
f 309 927 940
f 309 940 301
f 308 927 309
f 316 1025 950
f 316 950 314
f 318 1029 1025
f 318 1025 316
f 320 1028 1029
f 320 1029 318
f 323 1032 1030
f 323 1030 317
f 323 334 1032
f 524 1034 1033
f 524 1033 523
f 941 1036 1038
f 941 1038 942
f 306 1034 524
f 334 333 1033
f 523 1033 333
f 376 375 1038
f 942 1038 375
f 945 1035 1036
f 945 1036 941
f 410 409 1035
f 410 1035 945
f 306 305 1034
f 545 552 546
f 255 546 552
f 566 546 252
f 255 252 546
f 504 568 512
f 568 566 512
f 506 568 504
f 252 519 566
f 270 582 580
f 579 629 580
f 270 255 582
f 633 582 550
f 549 633 550
f 603 602 579
f 595 621 596
f 595 610 621
f 623 621 610
f 623 485 629
f 602 631 579
f 629 579 631
f 270 580 629
f 255 550 582
f 549 572 633
f 613 633 572
f 645 639 647
f 639 637 647
f 637 636 647
f 641 647 636
f 488 485 639
f 488 639 645
f 645 644 488
f 495 488 644
f 649 639 485
f 610 649 623
f 649 485 623
f 270 629 485
f 661 656 672
f 664 653 659
f 653 664 644
f 663 644 664
f 652 659 653
f 1085 674 1084
f 669 1084 674
f 677 675 674
f 677 674 1085
f 501 498 677
f 501 677 1078
f 682 680 666
f 666 661 682
f 661 672 682
f 644 663 495
f 666 680 495
f 666 495 663
f 498 495 680
f 680 675 498
f 675 677 498
f 244 195 527
f 527 516 244
f 741 744 742
f 754 748 752
f 751 752 748
f 752 762 755
f 752 755 754
f 738 764 755
f 738 755 762
f 745 742 764
f 766 764 742
f 744 766 742
f 745 764 736
f 768 745 736
f 738 736 764
f 736 734 768
f 775 790 772
f 770 783 781
f 778 781 783
f 768 785 770
f 783 770 785
f 790 788 776
f 776 773 790
f 773 772 790
f 788 785 734
f 785 768 734
f 776 788 734
f 734 732 776
f 792 776 732
f 732 818 792
f 447 442 794
f 797 800 798
f 807 816 804
f 816 825 792
f 807 825 816
f 816 792 818
f 27 798 828
f 830 828 798
f 800 830 798
f 828 730 27
f 732 730 818
f 828 818 730
f 841 840 16
f 22 8 15
f 14 15 8
f 27 730 25
f 730 728 25
f 23 22 25
f 15 25 22
f 330 841 29
f 16 31 841
f 31 29 841
f 34 37 35
f 49 40 46
f 43 46 40
f 46 54 49
f 50 49 54
f 37 57 35
f 57 55 38
f 55 694 38
f 65 85 62
f 74 68 72
f 71 72 68
f 35 57 38
f 72 78 75
f 72 75 74
f 691 78 38
f 75 78 691
f 691 689 83
f 83 75 691
f 63 62 85
f 689 66 83
f 91 115 88
f 97 102 96
f 93 96 102
f 85 83 66
f 85 66 63
f 66 689 107
f 97 107 102
f 688 113 104
f 102 107 104
f 689 688 107
f 104 107 688
f 684 136 688
f 89 88 115
f 113 688 136
f 120 123 124
f 130 139 127
f 115 113 136
f 115 136 89
f 139 137 134
f 134 133 139
f 133 127 139
f 137 684 134
f 137 136 684
f 684 296 134
f 125 120 141
f 124 143 120
f 143 141 120
f 141 134 296
f 125 141 296
f 298 297 296
f 154 302 155
f 302 1088 155
f 50 694 55
f 54 330 726
f 330 29 726
f 29 23 728
f 23 25 728
f 728 726 29
f 54 726 50
f 694 50 726
f 691 38 694
f 759 442 757
f 336 335 404
f 762 757 738
f 335 738 757
f 342 377 343
f 339 353 352
f 357 386 352
f 339 336 353
f 366 369 362
f 363 362 369
f 359 360 365
f 465 343 377
f 365 465 377
f 366 380 371
f 366 371 369
f 339 386 342
f 342 371 380
f 377 342 380
f 371 342 386
f 356 367 357
f 367 388 357
f 388 386 357
f 339 352 386
f 400 395 394
f 403 391 402
f 398 402 391
f 395 400 399
f 353 411 400
f 399 400 411
f 411 353 336
f 404 403 424
f 402 424 403
f 424 411 336
f 404 424 336
f 437 757 442
f 437 404 335
f 335 757 437
f 759 794 442
f 453 460 454
f 460 503 454
f 459 344 461
f 698 461 449
f 344 449 461
f 344 343 449
f 465 449 343
f 468 80 469
f 479 483 471
f 472 471 483
f 81 469 80
f 487 81 59
f 479 490 484
f 484 483 479
f 344 500 349
f 349 484 490
f 490 487 59
f 349 490 59
f 484 349 500
f 459 454 503
f 503 500 459
f 344 459 500
f 463 698 696
f 697 696 698
f 463 461 698
f 466 365 360
f 465 365 466
f 701 21 702
f 702 21 193

